M48
; DRILL file {KiCad (5.1.4-0-10_14)} date 2020 December 11, Friday 23:00:00
; FORMAT={-:-/ absolute / inch / decimal}
; #@! TF.CreationDate,2020-12-11T23:00:00+01:00
; #@! TF.GenerationSoftware,Kicad,Pcbnew,(5.1.4-0-10_14)
; #@! TF.FileFunction,Plated,1,2,PTH
FMAT,2
INCH
T1C0.0157
T2C0.0236
T3C0.0276
T4C0.0280
T5C0.0315
T6C0.0354
T7C0.0394
T8C0.0433
T9C0.0590
T10C0.0630
%
G90
G05
T1
X0.8906Y-2.6719
X0.8906Y-3.3281
X0.8906Y-3.8672
X0.9141Y-4.5
X0.9141Y-4.6875
X0.9141Y-4.8047
X0.9375Y-3.4453
X0.9375Y-3.7266
X0.9375Y-4.0313
X0.9375Y-4.1719
X1.0547Y-3.3281
X1.125Y-2.9297
X1.125Y-3.5859
X1.125Y-3.7031
X1.125Y-3.8203
X1.1484Y-2.6719
X1.1484Y-4.1953
X1.1484Y-4.3125
X1.1719Y-4.0078
X1.2188Y-2.8594
X1.2188Y-3.0469
X1.2422Y-3.3281
X1.2656Y-4.5234
X1.2656Y-4.6875
X1.2656Y-4.8516
X1.2891Y-3.7734
X1.2891Y-3.8906
X1.2891Y-4.1016
X1.325Y-2.9303
X1.4297Y-3.7031
X1.4531Y-2.6719
X1.4531Y-2.9297
X1.4531Y-4.5234
X1.4766Y-2.4609
X1.4766Y-4.1953
X1.4766Y-4.3594
X1.4766Y-4.8984
X1.5Y-4.0078
X1.5234Y-4.6406
X2.7422Y-3.7969
T2
X1.1831Y-3.1875
X1.2422Y-3.1875
T3
X1.4297Y-2.3906
X1.6297Y-2.3906
X0.5734Y-4.6172
X0.7734Y-4.6172
X1.4297Y-2.2969
X1.6297Y-2.2969
X1.0459Y-2.4844
X1.0774Y-2.4155
X1.1089Y-2.4844
X1.1404Y-2.4155
X1.1719Y-2.4844
X0.5734Y-4.8047
X0.7734Y-4.8047
X0.5734Y-4.8984
X0.7734Y-4.8984
X0.5734Y-4.7109
X0.7734Y-4.7109
T4
X1.0313Y-2.6891
X1.0313Y-2.8891
T5
X2.1328Y-2.7891
X2.4328Y-2.7891
X0.75Y-3.8672
X0.75Y-4.0593
X0.9609Y-5.3906
X0.9609Y-5.6906
X1.5516Y-4.3125
X1.8516Y-4.3125
X1.6453Y-2.5547
X1.9453Y-2.5547
X1.6453Y-3.7266
X1.9453Y-3.7266
X2.1328Y-4.6641
X2.4328Y-4.6641
X1.5516Y-3.6094
X1.8516Y-3.6094
X1.6453Y-4.8984
X1.9453Y-4.8984
X2.1328Y-4.1953
X2.4328Y-4.1953
X2.1563Y-5.4844
X2.1563Y-5.7844
X2.1328Y-3.4922
X2.4328Y-3.4922
X1.0594Y-3.4453
X1.0594Y-3.5453
X1.0594Y-3.6453
X1.0594Y-3.7453
X1.0594Y-3.8453
X1.0594Y-3.9453
X1.0594Y-4.0453
X1.0594Y-4.1453
X1.0594Y-4.2453
X1.0594Y-4.3453
X1.0594Y-4.4453
X1.0594Y-4.5453
X1.0594Y-4.6453
X1.0594Y-4.7453
X1.3594Y-3.4453
X1.3594Y-3.5453
X1.3594Y-3.6453
X1.3594Y-3.7453
X1.3594Y-3.8453
X1.3594Y-3.9453
X1.3594Y-4.0453
X1.3594Y-4.1453
X1.3594Y-4.2453
X1.3594Y-4.3453
X2.2266Y-3.6094
X2.5266Y-3.6094
X1.5516Y-4.7813
X1.8516Y-4.7813
X2.1328Y-3.7266
X2.4328Y-3.7266
X2.2266Y-3.8438
X2.2266Y-4.7813
X2.5266Y-4.7813
X1.0781Y-5.4844
X2.1328Y-2.5547
X2.4328Y-2.5547
X0.5672Y-5.2031
X0.8672Y-5.2031
X1.5516Y-4.0781
X1.8516Y-4.0781
X1.0781Y-5.7844
X1.8516Y-2.9063
X0.5625Y-3.8203
X0.5625Y-3.9187
X1.5516Y-2.9063
X0.5672Y-5.0859
X0.8672Y-5.0859
X2.5266Y-3.8438
X2.1328Y-3.9609
X1.5516Y-3.8438
X1.6453Y-4.1953
X1.9453Y-4.1953
X2.4328Y-3.9609
X2.2266Y-5.0156
X2.5266Y-5.0156
X2.2266Y-2.9063
X2.5266Y-2.9063
X1.8516Y-3.8438
X1.8516Y-5.0156
X0.5625Y-4.0313
X0.5625Y-4.1297
X1.3594Y-4.4453
X1.5516Y-5.0156
X1.3594Y-4.5453
X1.6875Y-5.4844
X1.3594Y-4.6453
X1.6875Y-5.7844
X1.3594Y-4.7453
X2.2266Y-3.375
X1.8047Y-5.6906
X1.9453Y-5.1328
X1.8047Y-5.3906
X2.5266Y-3.375
X2.2266Y-4.0781
X2.5266Y-4.0781
X1.6453Y-3.9609
X1.9453Y-3.9609
X1.6453Y-5.1328
X1.6453Y-3.0234
X1.9453Y-3.0234
X1.6453Y-3.4922
X1.9453Y-3.4922
X2.2266Y-2.6719
X2.5266Y-2.6719
X1.6453Y-3.2578
X1.9453Y-3.2578
X2.2266Y-4.5469
X2.5266Y-4.5469
X1.5516Y-5.25
X1.8516Y-5.25
X1.1953Y-5.3906
X1.1953Y-5.6906
X1.5516Y-2.6719
X1.8516Y-2.6719
X2.1328Y-4.8984
X2.4328Y-4.8984
X1.1157Y-5.0859
X1.3125Y-5.0859
X2.2266Y-5.25
X2.5266Y-5.25
X1.4297Y-5.3906
X1.5516Y-3.1406
X1.8516Y-3.1406
X1.9219Y-5.4844
X1.9219Y-5.7844
X1.4297Y-5.6906
X1.5516Y-3.375
X2.4328Y-4.4297
X2.4328Y-5.1328
X2.2266Y-3.1406
X2.5266Y-3.1406
X1.8516Y-3.375
X2.1328Y-5.1328
X2.1328Y-4.4297
X2.0391Y-5.6906
X2.5266Y-4.3125
X2.4328Y-3.0234
X2.2266Y-4.3125
X2.1328Y-3.0234
X2.0391Y-5.3906
X1.1157Y-5.2031
X1.3125Y-5.2031
X2.1328Y-3.2578
X0.8438Y-5.4844
X0.8438Y-5.7844
X2.4328Y-3.2578
X1.5516Y-4.5469
X1.8516Y-4.5469
X1.3125Y-5.4844
X1.5703Y-5.3906
X1.5703Y-5.6906
X1.6453Y-2.7891
X1.9453Y-2.7891
X1.6453Y-4.6641
X1.9453Y-4.6641
X1.3125Y-5.7844
X1.6453Y-4.4297
X1.9453Y-4.4297
T6
X1.775Y-2.3438
X1.875Y-2.3438
X2.0328Y-2.3438
X2.1328Y-2.3438
T7
X0.5859Y-3.0406
X0.5859Y-3.1406
X0.6859Y-3.0406
X0.6859Y-3.1406
X0.7859Y-3.0406
X0.7859Y-3.1406
T8
X0.5859Y-2.6035
X0.5859Y-2.8594
X0.7631Y-2.6035
X0.7631Y-2.8594
X0.5859Y-3.33
X0.5859Y-3.5859
X0.7631Y-3.33
X0.7631Y-3.5859
T9
X9.6Y-3.1813
X9.85Y-3.0813
X2.85Y-3.9313
X3.1Y-3.8313
X5.1Y-3.9313
X5.35Y-3.8313
X3.6Y-3.9313
X10.35Y-2.4313
X11.1Y-2.4313
X11.35Y-2.3313
X3.6Y-5.4313
X3.85Y-5.3313
X7.35Y-2.4313
X7.6Y-2.3313
X6.6Y-3.1813
X6.85Y-3.0813
X8.85Y-4.6813
X5.1Y-3.1813
X10.6Y-2.3313
X3.85Y-3.8313
X9.1Y-4.5813
X11.1Y-5.4313
X11.35Y-5.3313
X7.35Y-3.1813
X7.6Y-3.0813
X5.35Y-3.0813
X2.85Y-2.4312
X3.1Y-2.3312
X4.35Y-3.9313
X4.6Y-3.8313
X9.6Y-4.6813
X9.85Y-4.5813
X5.85Y-3.9313
X6.1Y-3.8313
X9.6Y-2.4313
X9.85Y-2.3313
X8.85Y-2.4313
X9.1Y-2.3313
X5.1Y-5.4313
X5.35Y-5.3313
X7.35Y-3.9313
X7.6Y-3.8313
X5.85Y-5.4313
X6.1Y-5.3313
X3.6Y-2.4313
X3.85Y-2.3313
X5.85Y-3.1813
X6.1Y-3.0813
X8.1Y-4.6813
X8.35Y-4.5813
X10.35Y-3.9313
X10.6Y-3.8313
X3.6Y-3.1813
X3.85Y-3.0813
X10.35Y-3.1813
X10.6Y-3.0813
X2.85Y-5.4313
X3.1Y-5.3313
X11.1Y-3.1813
X11.35Y-3.0813
X7.35Y-4.6813
X7.6Y-4.5813
X4.35Y-5.4313
X4.6Y-5.3313
X10.6Y-5.3313
X7.35Y-5.4313
X7.6Y-5.3313
X8.85Y-5.4313
X6.6Y-4.6813
X6.85Y-4.5813
X4.35Y-4.6813
X4.6Y-4.5813
X6.6Y-5.4313
X6.85Y-5.3313
X11.1Y-4.6813
X11.35Y-4.5813
X9.1Y-5.3313
X4.35Y-2.4313
X4.6Y-2.3313
X8.1Y-3.1813
X8.35Y-3.0813
X9.6Y-3.9313
X9.85Y-3.8313
X10.35Y-5.4313
X4.35Y-3.1813
X4.6Y-3.0813
X2.85Y-4.6813
X3.1Y-4.5813
X8.1Y-5.4313
X8.35Y-5.3313
X5.85Y-2.4313
X6.6Y-3.9313
X6.85Y-3.8313
X2.85Y-3.1813
X3.1Y-3.0813
X5.1Y-2.4313
X5.35Y-2.3313
X5.1Y-4.6813
X5.35Y-4.5813
X10.35Y-4.6813
X10.6Y-4.5813
X6.225Y-5.4313
X6.475Y-5.3313
X8.85Y-3.9313
X3.85Y-4.5813
X3.6Y-4.6813
X6.6Y-2.4313
X6.85Y-2.3313
X9.1Y-3.0813
X9.1Y-3.8313
X8.1Y-2.4313
X8.35Y-2.3313
X8.85Y-3.1813
X5.85Y-4.6813
X6.1Y-4.5813
X11.35Y-3.8313
X9.6Y-5.4313
X9.85Y-5.3313
X11.1Y-3.9313
X7.725Y-5.4313
X7.975Y-5.3313
X6.1Y-2.3313
X8.1Y-3.9313
X8.35Y-3.8313
T10
X0.9553Y-2.2304
X0.9553Y-2.4155
X1.2624Y-2.2304
X1.2624Y-2.4155
T0
M30
