G04 #@! TF.GenerationSoftware,KiCad,Pcbnew,(5.1.4-0-10_14)*
G04 #@! TF.CreationDate,2020-12-11T22:59:58+01:00*
G04 #@! TF.ProjectId,crosshatch,63726f73-7368-4617-9463-682e6b696361,rev?*
G04 #@! TF.SameCoordinates,Original*
G04 #@! TF.FileFunction,Soldermask,Bot*
G04 #@! TF.FilePolarity,Negative*
%FSLAX46Y46*%
G04 Gerber Fmt 4.6, Leading zero omitted, Abs format (unit mm)*
G04 Created by KiCad (PCBNEW (5.1.4-0-10_14)) date 2020-12-11 22:59:58*
%MOMM*%
%LPD*%
G04 APERTURE LIST*
%ADD10C,0.300000*%
%ADD11C,2.101800*%
%ADD12C,4.387800*%
%ADD13C,2.686000*%
%ADD14C,2.110000*%
%ADD15R,2.000000X2.000000*%
%ADD16O,2.000000X2.000000*%
%ADD17O,12.000000X5.400000*%
%ADD18C,5.400000*%
%ADD19R,1.600000X1.600000*%
%ADD20C,1.600000*%
%ADD21C,2.000000*%
%ADD22R,1.500000X1.500000*%
%ADD23C,1.500000*%
%ADD24O,2.400000X2.400000*%
%ADD25R,2.100000X2.100000*%
%ADD26O,2.100000X2.100000*%
%ADD27R,2.200000X2.200000*%
%ADD28C,2.200000*%
%ADD29O,1.800000X1.800000*%
%ADD30C,1.800000*%
%ADD31C,2.400000*%
%ADD32C,1.900000*%
%ADD33C,3.448000*%
G04 APERTURE END LIST*
D10*
X220022621Y-92511460D02*
X220498811Y-92701936D01*
X221927383Y-92892412D01*
X222879764Y-92892412D01*
X224308335Y-92701936D01*
X225260716Y-92320984D01*
X225736906Y-91940031D01*
X226213097Y-91178127D01*
X226213097Y-90606698D01*
X225736906Y-89844793D01*
X225260716Y-89463841D01*
X224308335Y-89082889D01*
X222879764Y-88892412D01*
X221927383Y-88892412D01*
X220498811Y-89082889D01*
X220022621Y-89273365D01*
X210022621Y-92892412D02*
X213355954Y-90987650D01*
X215736906Y-92892412D02*
X215736906Y-88892412D01*
X211927383Y-88892412D01*
X210975002Y-89082889D01*
X210498811Y-89273365D01*
X210022621Y-89654317D01*
X210022621Y-90225746D01*
X210498811Y-90606698D01*
X210975002Y-90797174D01*
X211927383Y-90987650D01*
X215736906Y-90987650D01*
X203832145Y-88892412D02*
X201927383Y-88892412D01*
X200975002Y-89082889D01*
X200022621Y-89463841D01*
X199546430Y-90225746D01*
X199546430Y-91559079D01*
X200022621Y-92320984D01*
X200975002Y-92701936D01*
X201927383Y-92892412D01*
X203832145Y-92892412D01*
X204784526Y-92701936D01*
X205736906Y-92320984D01*
X206213097Y-91559079D01*
X206213097Y-90225746D01*
X205736906Y-89463841D01*
X204784526Y-89082889D01*
X203832145Y-88892412D01*
X195736906Y-92701936D02*
X194308335Y-92892412D01*
X191927383Y-92892412D01*
X190975002Y-92701936D01*
X190498811Y-92511460D01*
X190022621Y-92130508D01*
X190022621Y-91749555D01*
X190498811Y-91368603D01*
X190975002Y-91178127D01*
X191927383Y-90987650D01*
X193832145Y-90797174D01*
X194784526Y-90606698D01*
X195260716Y-90416222D01*
X195736906Y-90035269D01*
X195736906Y-89654317D01*
X195260716Y-89273365D01*
X194784526Y-89082889D01*
X193832145Y-88892412D01*
X191451192Y-88892412D01*
X190022621Y-89082889D01*
X186213097Y-92701936D02*
X184784526Y-92892412D01*
X182403573Y-92892412D01*
X181451192Y-92701936D01*
X180975002Y-92511460D01*
X180498811Y-92130508D01*
X180498811Y-91749555D01*
X180975002Y-91368603D01*
X181451192Y-91178127D01*
X182403573Y-90987650D01*
X184308335Y-90797174D01*
X185260716Y-90606698D01*
X185736906Y-90416222D01*
X186213097Y-90035269D01*
X186213097Y-89654317D01*
X185736906Y-89273365D01*
X185260716Y-89082889D01*
X184308335Y-88892412D01*
X181927383Y-88892412D01*
X180498811Y-89082889D01*
X176213097Y-92892412D02*
X176213097Y-88892412D01*
X176213097Y-90797174D02*
X170498811Y-90797174D01*
X170498811Y-92892412D02*
X170498811Y-88892412D01*
X166213097Y-91749555D02*
X161451192Y-91749555D01*
X167165478Y-92892412D02*
X163832145Y-88892412D01*
X160498811Y-92892412D01*
X158594049Y-88892412D02*
X152879764Y-88892412D01*
X155736906Y-92892412D02*
X155736906Y-88892412D01*
X143832145Y-92511460D02*
X144308335Y-92701936D01*
X145736906Y-92892412D01*
X146689287Y-92892412D01*
X148117859Y-92701936D01*
X149070240Y-92320984D01*
X149546430Y-91940031D01*
X150022621Y-91178127D01*
X150022621Y-90606698D01*
X149546430Y-89844793D01*
X149070240Y-89463841D01*
X148117859Y-89082889D01*
X146689287Y-88892412D01*
X145736906Y-88892412D01*
X144308335Y-89082889D01*
X143832145Y-89273365D01*
X139546430Y-92892412D02*
X139546430Y-88892412D01*
X139546430Y-90797174D02*
X133832145Y-90797174D01*
X133832145Y-92892412D02*
X133832145Y-88892412D01*
X291484710Y-147578025D02*
X291556138Y-147649453D01*
X291770424Y-147720882D01*
X291913281Y-147720882D01*
X292127567Y-147649453D01*
X292270424Y-147506596D01*
X292341853Y-147363739D01*
X292413281Y-147078025D01*
X292413281Y-146863739D01*
X292341853Y-146578025D01*
X292270424Y-146435168D01*
X292127567Y-146292311D01*
X291913281Y-146220882D01*
X291770424Y-146220882D01*
X291556138Y-146292311D01*
X291484710Y-146363739D01*
X290841853Y-147720882D02*
X290841853Y-146720882D01*
X290841853Y-147006596D02*
X290770424Y-146863739D01*
X290698996Y-146792311D01*
X290556138Y-146720882D01*
X290413281Y-146720882D01*
X289698996Y-147720882D02*
X289841853Y-147649453D01*
X289913281Y-147578025D01*
X289984710Y-147435168D01*
X289984710Y-147006596D01*
X289913281Y-146863739D01*
X289841853Y-146792311D01*
X289698996Y-146720882D01*
X289484710Y-146720882D01*
X289341853Y-146792311D01*
X289270424Y-146863739D01*
X289198996Y-147006596D01*
X289198996Y-147435168D01*
X289270424Y-147578025D01*
X289341853Y-147649453D01*
X289484710Y-147720882D01*
X289698996Y-147720882D01*
X288627567Y-147649453D02*
X288484710Y-147720882D01*
X288198996Y-147720882D01*
X288056138Y-147649453D01*
X287984710Y-147506596D01*
X287984710Y-147435168D01*
X288056138Y-147292311D01*
X288198996Y-147220882D01*
X288413281Y-147220882D01*
X288556138Y-147149453D01*
X288627567Y-147006596D01*
X288627567Y-146935168D01*
X288556138Y-146792311D01*
X288413281Y-146720882D01*
X288198996Y-146720882D01*
X288056138Y-146792311D01*
X287413281Y-147649453D02*
X287270424Y-147720882D01*
X286984710Y-147720882D01*
X286841853Y-147649453D01*
X286770424Y-147506596D01*
X286770424Y-147435168D01*
X286841853Y-147292311D01*
X286984710Y-147220882D01*
X287198996Y-147220882D01*
X287341853Y-147149453D01*
X287413281Y-147006596D01*
X287413281Y-146935168D01*
X287341853Y-146792311D01*
X287198996Y-146720882D01*
X286984710Y-146720882D01*
X286841853Y-146792311D01*
X286127567Y-147720882D02*
X286127567Y-146220882D01*
X285484710Y-147720882D02*
X285484710Y-146935168D01*
X285556138Y-146792311D01*
X285698996Y-146720882D01*
X285913281Y-146720882D01*
X286056138Y-146792311D01*
X286127567Y-146863739D01*
X284127567Y-147720882D02*
X284127567Y-146935168D01*
X284198996Y-146792311D01*
X284341853Y-146720882D01*
X284627567Y-146720882D01*
X284770424Y-146792311D01*
X284127567Y-147649453D02*
X284270424Y-147720882D01*
X284627567Y-147720882D01*
X284770424Y-147649453D01*
X284841853Y-147506596D01*
X284841853Y-147363739D01*
X284770424Y-147220882D01*
X284627567Y-147149453D01*
X284270424Y-147149453D01*
X284127567Y-147078025D01*
X283627567Y-146720882D02*
X283056138Y-146720882D01*
X283413281Y-146220882D02*
X283413281Y-147506596D01*
X283341853Y-147649453D01*
X283198996Y-147720882D01*
X283056138Y-147720882D01*
X281913281Y-147649453D02*
X282056138Y-147720882D01*
X282341853Y-147720882D01*
X282484710Y-147649453D01*
X282556138Y-147578025D01*
X282627567Y-147435168D01*
X282627567Y-147006596D01*
X282556138Y-146863739D01*
X282484710Y-146792311D01*
X282341853Y-146720882D01*
X282056138Y-146720882D01*
X281913281Y-146792311D01*
X281270424Y-147720882D02*
X281270424Y-146220882D01*
X280627567Y-147720882D02*
X280627567Y-146935168D01*
X280698996Y-146792311D01*
X280841853Y-146720882D01*
X281056138Y-146720882D01*
X281198996Y-146792311D01*
X281270424Y-146863739D01*
X278770424Y-147720882D02*
X278770424Y-146720882D01*
X278770424Y-147006596D02*
X278698996Y-146863739D01*
X278627567Y-146792311D01*
X278484710Y-146720882D01*
X278341853Y-146720882D01*
X277270424Y-147649453D02*
X277413281Y-147720882D01*
X277698996Y-147720882D01*
X277841853Y-147649453D01*
X277913281Y-147506596D01*
X277913281Y-146935168D01*
X277841853Y-146792311D01*
X277698996Y-146720882D01*
X277413281Y-146720882D01*
X277270424Y-146792311D01*
X277198996Y-146935168D01*
X277198996Y-147078025D01*
X277913281Y-147220882D01*
X276698996Y-146720882D02*
X276341853Y-147720882D01*
X275984710Y-146720882D01*
X274627567Y-147720882D02*
X275484710Y-147720882D01*
X275056138Y-147720882D02*
X275056138Y-146220882D01*
X275198996Y-146435168D01*
X275341853Y-146578025D01*
X275484710Y-146649453D01*
X272198996Y-146720882D02*
X272198996Y-147720882D01*
X272841853Y-146720882D02*
X272841853Y-147506596D01*
X272770424Y-147649453D01*
X272627567Y-147720882D01*
X272413281Y-147720882D01*
X272270424Y-147649453D01*
X272198996Y-147578025D01*
X270413281Y-146149453D02*
X271698996Y-148078025D01*
X269913281Y-146720882D02*
X269913281Y-148220882D01*
X269913281Y-146792311D02*
X269770424Y-146720882D01*
X269484710Y-146720882D01*
X269341853Y-146792311D01*
X269270424Y-146863739D01*
X269198996Y-147006596D01*
X269198996Y-147435168D01*
X269270424Y-147578025D01*
X269341853Y-147649453D01*
X269484710Y-147720882D01*
X269770424Y-147720882D01*
X269913281Y-147649453D01*
X267984710Y-147649453D02*
X268127567Y-147720882D01*
X268413281Y-147720882D01*
X268556138Y-147649453D01*
X268627567Y-147506596D01*
X268627567Y-146935168D01*
X268556138Y-146792311D01*
X268413281Y-146720882D01*
X268127567Y-146720882D01*
X267984710Y-146792311D01*
X267913281Y-146935168D01*
X267913281Y-147078025D01*
X268627567Y-147220882D01*
X266698996Y-147649453D02*
X266841853Y-147720882D01*
X267127567Y-147720882D01*
X267270424Y-147649453D01*
X267341853Y-147506596D01*
X267341853Y-146935168D01*
X267270424Y-146792311D01*
X267127567Y-146720882D01*
X266841853Y-146720882D01*
X266698996Y-146792311D01*
X266627567Y-146935168D01*
X266627567Y-147078025D01*
X267341853Y-147220882D01*
X265984710Y-146720882D02*
X265984710Y-148006596D01*
X266056138Y-148149453D01*
X266198996Y-148220882D01*
X266270424Y-148220882D01*
X265984710Y-146220882D02*
X266056138Y-146292311D01*
X265984710Y-146363739D01*
X265913281Y-146292311D01*
X265984710Y-146220882D01*
X265984710Y-146363739D01*
X264698996Y-147649453D02*
X264841853Y-147720882D01*
X265127567Y-147720882D01*
X265270424Y-147649453D01*
X265341853Y-147506596D01*
X265341853Y-146935168D01*
X265270424Y-146792311D01*
X265127567Y-146720882D01*
X264841853Y-146720882D01*
X264698996Y-146792311D01*
X264627567Y-146935168D01*
X264627567Y-147078025D01*
X265341853Y-147220882D01*
X263984710Y-147720882D02*
X263984710Y-146220882D01*
X263341853Y-147720882D02*
X263341853Y-146935168D01*
X263413281Y-146792311D01*
X263556138Y-146720882D01*
X263770424Y-146720882D01*
X263913281Y-146792311D01*
X263984710Y-146863739D01*
X260698996Y-147720882D02*
X261556138Y-147720882D01*
X261127567Y-147720882D02*
X261127567Y-146220882D01*
X261270424Y-146435168D01*
X261413281Y-146578025D01*
X261556138Y-146649453D01*
X260127567Y-146363739D02*
X260056138Y-146292311D01*
X259913281Y-146220882D01*
X259556138Y-146220882D01*
X259413281Y-146292311D01*
X259341853Y-146363739D01*
X259270424Y-146506596D01*
X259270424Y-146649453D01*
X259341853Y-146863739D01*
X260198996Y-147720882D01*
X259270424Y-147720882D01*
X257556138Y-146149453D02*
X258841853Y-148078025D01*
X257127567Y-146363739D02*
X257056138Y-146292311D01*
X256913281Y-146220882D01*
X256556138Y-146220882D01*
X256413281Y-146292311D01*
X256341853Y-146363739D01*
X256270424Y-146506596D01*
X256270424Y-146649453D01*
X256341853Y-146863739D01*
X257198996Y-147720882D01*
X256270424Y-147720882D01*
X255341853Y-146220882D02*
X255198996Y-146220882D01*
X255056138Y-146292311D01*
X254984710Y-146363739D01*
X254913281Y-146506596D01*
X254841853Y-146792311D01*
X254841853Y-147149453D01*
X254913281Y-147435168D01*
X254984710Y-147578025D01*
X255056138Y-147649453D01*
X255198996Y-147720882D01*
X255341853Y-147720882D01*
X255484710Y-147649453D01*
X255556138Y-147578025D01*
X255627567Y-147435168D01*
X255698996Y-147149453D01*
X255698996Y-146792311D01*
X255627567Y-146506596D01*
X255556138Y-146363739D01*
X255484710Y-146292311D01*
X255341853Y-146220882D01*
X254270424Y-146363739D02*
X254198996Y-146292311D01*
X254056138Y-146220882D01*
X253698996Y-146220882D01*
X253556138Y-146292311D01*
X253484710Y-146363739D01*
X253413281Y-146506596D01*
X253413281Y-146649453D01*
X253484710Y-146863739D01*
X254341853Y-147720882D01*
X253413281Y-147720882D01*
X252484710Y-146220882D02*
X252341853Y-146220882D01*
X252198996Y-146292311D01*
X252127567Y-146363739D01*
X252056138Y-146506596D01*
X251984710Y-146792311D01*
X251984710Y-147149453D01*
X252056138Y-147435168D01*
X252127567Y-147578025D01*
X252198996Y-147649453D01*
X252341853Y-147720882D01*
X252484710Y-147720882D01*
X252627567Y-147649453D01*
X252698996Y-147578025D01*
X252770424Y-147435168D01*
X252841853Y-147149453D01*
X252841853Y-146792311D01*
X252770424Y-146506596D01*
X252698996Y-146363739D01*
X252627567Y-146292311D01*
X252484710Y-146220882D01*
D11*
X233680192Y-64293804D03*
X223520192Y-64293804D03*
D12*
X228600192Y-64293804D03*
D13*
X224790192Y-61753804D03*
X231140192Y-59213804D03*
D14*
X26193772Y-68302247D03*
X26193772Y-73382247D03*
D15*
X27384398Y-139303242D03*
D16*
X27384398Y-146923242D03*
D15*
X56554735Y-133350112D03*
D16*
X64174735Y-133350112D03*
D11*
X176530144Y-102393836D03*
X166370144Y-102393836D03*
D12*
X171450144Y-102393836D03*
D13*
X167640144Y-99853836D03*
X173990144Y-97313836D03*
D11*
X290830240Y-83343820D03*
X280670240Y-83343820D03*
D12*
X285750240Y-83343820D03*
D13*
X281940240Y-80803820D03*
X288290240Y-78263820D03*
D15*
X49410979Y-118467287D03*
D16*
X41790979Y-118467287D03*
D15*
X54173483Y-76795377D03*
D16*
X61793483Y-76795377D03*
X64174735Y-67865682D03*
D15*
X56554735Y-67865682D03*
D11*
X233680192Y-121443852D03*
X223520192Y-121443852D03*
D12*
X228600192Y-121443852D03*
D13*
X224790192Y-118903852D03*
X231140192Y-116363852D03*
D11*
X252730208Y-83343820D03*
X242570208Y-83343820D03*
D12*
X247650208Y-83343820D03*
D13*
X243840208Y-80803820D03*
X250190208Y-78263820D03*
D11*
X252730208Y-64293804D03*
X242570208Y-64293804D03*
D12*
X247650208Y-64293804D03*
D13*
X243840208Y-61753804D03*
X250190208Y-59213804D03*
D11*
X271780224Y-83343820D03*
X261620224Y-83343820D03*
D12*
X266700224Y-83343820D03*
D13*
X262890224Y-80803820D03*
X269240224Y-78263820D03*
D11*
X252730208Y-102393836D03*
X242570208Y-102393836D03*
D12*
X247650208Y-102393836D03*
D13*
X243840208Y-99853836D03*
X250190208Y-97313836D03*
D11*
X290830240Y-102393836D03*
X280670240Y-102393836D03*
D12*
X285750240Y-102393836D03*
D13*
X281940240Y-99853836D03*
X288290240Y-97313836D03*
D11*
X271780224Y-102393836D03*
X261620224Y-102393836D03*
D12*
X266700224Y-102393836D03*
D13*
X262890224Y-99853836D03*
X269240224Y-97313836D03*
D11*
X290830240Y-121443852D03*
X280670240Y-121443852D03*
D12*
X285750240Y-121443852D03*
D13*
X281940240Y-118903852D03*
X288290240Y-116363852D03*
D11*
X271780224Y-121443852D03*
X261620224Y-121443852D03*
D12*
X266700224Y-121443852D03*
D13*
X262890224Y-118903852D03*
X269240224Y-116363852D03*
D11*
X233680192Y-102393836D03*
X223520192Y-102393836D03*
D12*
X228600192Y-102393836D03*
D13*
X224790192Y-99853836D03*
X231140192Y-97313836D03*
D11*
X214630176Y-102393836D03*
X204470176Y-102393836D03*
D12*
X209550176Y-102393836D03*
D13*
X205740176Y-99853836D03*
X212090176Y-97313836D03*
D11*
X290830240Y-140493868D03*
X280670240Y-140493868D03*
D12*
X285750240Y-140493868D03*
D13*
X281940240Y-137953868D03*
X288290240Y-135413868D03*
D11*
X252730208Y-121443852D03*
X242570208Y-121443852D03*
D12*
X247650208Y-121443852D03*
D13*
X243840208Y-118903852D03*
X250190208Y-116363852D03*
D11*
X214630176Y-121443852D03*
X204470176Y-121443852D03*
D12*
X209550176Y-121443852D03*
D13*
X205740176Y-118903852D03*
X212090176Y-116363852D03*
D11*
X271780224Y-140493868D03*
X261620224Y-140493868D03*
D12*
X266700224Y-140493868D03*
D13*
X262890224Y-137953868D03*
X269240224Y-135413868D03*
D11*
X252730208Y-140493868D03*
X242570208Y-140493868D03*
D12*
X247650208Y-140493868D03*
D13*
X243840208Y-137953868D03*
X250190208Y-135413868D03*
D11*
X233680192Y-140493868D03*
X223520192Y-140493868D03*
D12*
X228600192Y-140493868D03*
D13*
X224790192Y-137953868D03*
X231140192Y-135413868D03*
X212090176Y-135413868D03*
X205740176Y-137953868D03*
D12*
X209550176Y-140493868D03*
D11*
X204470176Y-140493868D03*
X214630176Y-140493868D03*
X176530144Y-64293804D03*
X166370144Y-64293804D03*
D12*
X171450144Y-64293804D03*
D13*
X167640144Y-61753804D03*
X173990144Y-59213804D03*
D11*
X176530144Y-83343820D03*
X166370144Y-83343820D03*
D12*
X171450144Y-83343820D03*
D13*
X167640144Y-80803820D03*
X173990144Y-78263820D03*
D11*
X138430112Y-83343820D03*
X128270112Y-83343820D03*
D12*
X133350112Y-83343820D03*
D13*
X129540112Y-80803820D03*
X135890112Y-78263820D03*
D11*
X157480128Y-140493868D03*
X147320128Y-140493868D03*
D12*
X152400128Y-140493868D03*
D13*
X148590128Y-137953868D03*
X154940128Y-135413868D03*
D11*
X119380096Y-140493868D03*
X109220096Y-140493868D03*
D12*
X114300096Y-140493868D03*
D13*
X110490096Y-137953868D03*
X116840096Y-135413868D03*
D11*
X81280064Y-83343820D03*
X71120064Y-83343820D03*
D12*
X76200064Y-83343820D03*
D13*
X72390064Y-80803820D03*
X78740064Y-78263820D03*
D17*
X13096886Y-111323531D03*
X291703370Y-111323531D03*
D18*
X14287512Y-59531300D03*
X61912552Y-59531300D03*
X14287512Y-144661059D03*
X61912552Y-144661059D03*
D11*
X81280016Y-64293750D03*
X71120016Y-64293750D03*
D12*
X76200016Y-64293750D03*
D13*
X72390016Y-61753750D03*
X78740016Y-59213750D03*
D11*
X100330080Y-64293804D03*
X90170080Y-64293804D03*
D12*
X95250080Y-64293804D03*
D13*
X91440080Y-61753804D03*
X97790080Y-59213804D03*
D11*
X119380096Y-64293804D03*
X109220096Y-64293804D03*
D12*
X114300096Y-64293804D03*
D13*
X110490096Y-61753804D03*
X116840096Y-59213804D03*
D11*
X138430112Y-64293804D03*
X128270112Y-64293804D03*
D12*
X133350112Y-64293804D03*
D13*
X129540112Y-61753804D03*
X135890112Y-59213804D03*
D11*
X157480128Y-64293804D03*
X147320128Y-64293804D03*
D12*
X152400128Y-64293804D03*
D13*
X148590128Y-61753804D03*
X154940128Y-59213804D03*
D11*
X290830240Y-64293804D03*
X280670240Y-64293804D03*
D12*
X285750240Y-64293804D03*
D13*
X281940240Y-61753804D03*
X288290240Y-59213804D03*
D11*
X271780224Y-64293804D03*
X261620224Y-64293804D03*
D12*
X266700224Y-64293804D03*
D13*
X262890224Y-61753804D03*
X269240224Y-59213804D03*
D11*
X100330080Y-83343820D03*
X90170080Y-83343820D03*
D12*
X95250080Y-83343820D03*
D13*
X91440080Y-80803820D03*
X97790080Y-78263820D03*
D11*
X119380096Y-83343820D03*
X109220096Y-83343820D03*
D12*
X114300096Y-83343820D03*
D13*
X110490096Y-80803820D03*
X116840096Y-78263820D03*
D11*
X233680192Y-83343820D03*
X223520192Y-83343820D03*
D12*
X228600192Y-83343820D03*
D13*
X224790192Y-80803820D03*
X231140192Y-78263820D03*
D11*
X81280064Y-102393836D03*
X71120064Y-102393836D03*
D12*
X76200064Y-102393836D03*
D13*
X72390064Y-99853836D03*
X78740064Y-97313836D03*
D11*
X100330080Y-102393836D03*
X90170080Y-102393836D03*
D12*
X95250080Y-102393836D03*
D13*
X91440080Y-99853836D03*
X97790080Y-97313836D03*
D11*
X119380096Y-102393836D03*
X109220096Y-102393836D03*
D12*
X114300096Y-102393836D03*
D13*
X110490096Y-99853836D03*
X116840096Y-97313836D03*
D11*
X157480128Y-83343820D03*
X147320128Y-83343820D03*
D12*
X152400128Y-83343820D03*
D13*
X148590128Y-80803820D03*
X154940128Y-78263820D03*
D11*
X214630176Y-83343820D03*
X204470176Y-83343820D03*
D12*
X209550176Y-83343820D03*
D13*
X205740176Y-80803820D03*
X212090176Y-78263820D03*
D11*
X81280064Y-121443852D03*
X71120064Y-121443852D03*
D12*
X76200064Y-121443852D03*
D13*
X72390064Y-118903852D03*
X78740064Y-116363852D03*
D11*
X100330080Y-121443852D03*
X90170080Y-121443852D03*
D12*
X95250080Y-121443852D03*
D13*
X91440080Y-118903852D03*
X97790080Y-116363852D03*
D11*
X138430112Y-102393836D03*
X128270112Y-102393836D03*
D12*
X133350112Y-102393836D03*
D13*
X129540112Y-99853836D03*
X135890112Y-97313836D03*
D11*
X157480128Y-102393836D03*
X147320128Y-102393836D03*
D12*
X152400128Y-102393836D03*
D13*
X148590128Y-99853836D03*
X154940128Y-97313836D03*
D11*
X81280064Y-140493868D03*
X71120064Y-140493868D03*
D12*
X76200064Y-140493868D03*
D13*
X72390064Y-137953868D03*
X78740064Y-135413868D03*
D11*
X119380096Y-121443852D03*
X109220096Y-121443852D03*
D12*
X114300096Y-121443852D03*
D13*
X110490096Y-118903852D03*
X116840096Y-116363852D03*
D11*
X138430112Y-121443852D03*
X128270112Y-121443852D03*
D12*
X133350112Y-121443852D03*
D13*
X129540112Y-118903852D03*
X135890112Y-116363852D03*
D11*
X157480128Y-121443852D03*
X147320128Y-121443852D03*
D12*
X152400128Y-121443852D03*
D13*
X148590128Y-118903852D03*
X154940128Y-116363852D03*
D11*
X100330080Y-140493868D03*
X90170080Y-140493868D03*
D12*
X95250080Y-140493868D03*
D13*
X91440080Y-137953868D03*
X97790080Y-135413868D03*
D11*
X138430112Y-140493868D03*
X128270112Y-140493868D03*
D12*
X133350112Y-140493868D03*
D13*
X129540112Y-137953868D03*
X135890112Y-135413868D03*
D19*
X30051589Y-80962568D03*
D20*
X31551589Y-80962568D03*
D21*
X28337528Y-129182921D03*
X33337528Y-129182921D03*
X33337528Y-132159486D03*
X28337528Y-132159486D03*
X14287512Y-104893836D03*
X14287512Y-102393836D03*
X14287512Y-97036019D03*
X14287512Y-99536019D03*
D22*
X29765650Y-63103178D03*
D23*
X28965650Y-61353178D03*
X28165650Y-63103178D03*
X27365650Y-61353178D03*
X26565650Y-63103178D03*
D24*
X32065650Y-61353178D03*
X32065650Y-56653178D03*
X24265650Y-56653178D03*
X24265650Y-61353178D03*
D25*
X14882825Y-79771942D03*
D26*
X14882825Y-77231942D03*
X17422825Y-79771942D03*
X17422825Y-77231942D03*
X19962825Y-79771942D03*
X19962825Y-77231942D03*
D27*
X54173483Y-59531300D03*
D28*
X51633483Y-59531300D03*
D29*
X19645329Y-124420417D03*
D30*
X14565329Y-124420417D03*
X19645329Y-122039165D03*
D29*
X14565329Y-122039165D03*
D30*
X19645329Y-119657913D03*
D29*
X14565329Y-119657913D03*
X14565329Y-117276661D03*
D30*
X19645329Y-117276661D03*
X36314093Y-60721926D03*
D29*
X41394093Y-60721926D03*
D31*
X19382825Y-72628186D03*
X14882825Y-72628186D03*
X19382825Y-66128186D03*
X14882825Y-66128186D03*
X14882825Y-84582889D03*
X19382825Y-84582889D03*
X14882825Y-91082889D03*
X19382825Y-91082889D03*
D32*
X19050016Y-98226645D03*
X19050016Y-103106645D03*
D15*
X26908154Y-87511011D03*
D16*
X34528154Y-120531011D03*
X26908154Y-90051011D03*
X34528154Y-117991011D03*
X26908154Y-92591011D03*
X34528154Y-115451011D03*
X26908154Y-95131011D03*
X34528154Y-112911011D03*
X26908154Y-97671011D03*
X34528154Y-110371011D03*
X26908154Y-100211011D03*
X34528154Y-107831011D03*
X26908154Y-102751011D03*
X34528154Y-105291011D03*
X26908154Y-105291011D03*
X34528154Y-102751011D03*
X26908154Y-107831011D03*
X34528154Y-100211011D03*
X26908154Y-110371011D03*
X34528154Y-97671011D03*
X26908154Y-112911011D03*
X34528154Y-95131011D03*
X26908154Y-115451011D03*
X34528154Y-92591011D03*
X26908154Y-117991011D03*
X34528154Y-90051011D03*
X26908154Y-120531011D03*
X34528154Y-87511011D03*
D15*
X14406581Y-129182921D03*
D16*
X22026581Y-129182921D03*
X22026581Y-132159486D03*
D15*
X14406581Y-132159486D03*
X54173483Y-64889117D03*
D16*
X61793483Y-64889117D03*
D15*
X49410979Y-64889117D03*
D16*
X41790979Y-64889117D03*
X39409727Y-67865682D03*
D15*
X47029727Y-67865682D03*
X49410979Y-70842247D03*
D16*
X41790979Y-70842247D03*
D15*
X56554735Y-79771942D03*
D16*
X64174735Y-79771942D03*
X39409727Y-79771942D03*
D15*
X47029727Y-79771942D03*
X49410979Y-76795377D03*
D16*
X41790979Y-76795377D03*
D15*
X47029727Y-97631332D03*
D16*
X39409727Y-97631332D03*
D15*
X56554735Y-97631332D03*
D16*
X64174735Y-97631332D03*
X61793483Y-94654767D03*
D15*
X54173483Y-94654767D03*
D16*
X41790979Y-94654767D03*
D15*
X49410979Y-94654767D03*
X54173483Y-70842247D03*
D16*
X61793483Y-70842247D03*
X41790979Y-82748507D03*
D15*
X49410979Y-82748507D03*
X54173483Y-82748507D03*
D16*
X61793483Y-82748507D03*
D15*
X47029727Y-85725072D03*
D16*
X39409727Y-85725072D03*
D15*
X56554735Y-85725072D03*
D16*
X64174735Y-85725072D03*
X41790979Y-100607897D03*
D15*
X49410979Y-100607897D03*
D16*
X61793483Y-100607897D03*
D15*
X54173483Y-100607897D03*
D16*
X39409727Y-103584462D03*
D15*
X47029727Y-103584462D03*
X56554735Y-91678202D03*
D16*
X64174735Y-91678202D03*
D15*
X47029727Y-91678202D03*
D16*
X39409727Y-91678202D03*
D15*
X56554735Y-115490722D03*
D16*
X64174735Y-115490722D03*
D15*
X47029727Y-115490722D03*
D16*
X39409727Y-115490722D03*
D15*
X54173483Y-112514157D03*
D16*
X61793483Y-112514157D03*
D15*
X49410979Y-88701637D03*
D16*
X41790979Y-88701637D03*
X39409727Y-133350112D03*
D15*
X47029727Y-133350112D03*
D16*
X64174735Y-103584462D03*
D15*
X56554735Y-103584462D03*
X49410979Y-106561027D03*
D16*
X41790979Y-106561027D03*
D15*
X54173483Y-106561027D03*
D16*
X61793483Y-106561027D03*
D15*
X54173483Y-118467287D03*
D16*
X61793483Y-118467287D03*
D15*
X49410979Y-112514157D03*
D16*
X41790979Y-112514157D03*
D15*
X56554735Y-109537592D03*
D16*
X64174735Y-109537592D03*
X21431268Y-146923242D03*
D15*
X21431268Y-139303242D03*
D16*
X61793483Y-130373547D03*
D15*
X54173483Y-130373547D03*
D16*
X41790979Y-130373547D03*
D15*
X49410979Y-130373547D03*
D16*
X64174735Y-127396982D03*
D15*
X56554735Y-127396982D03*
D16*
X54768796Y-146923242D03*
D15*
X54768796Y-139303242D03*
D16*
X39409727Y-121443852D03*
D15*
X47029727Y-121443852D03*
D16*
X64174735Y-121443852D03*
D15*
X56554735Y-121443852D03*
D16*
X41790979Y-124420417D03*
D15*
X49410979Y-124420417D03*
X24407833Y-136921990D03*
D16*
X24407833Y-144541990D03*
D15*
X30360963Y-136921990D03*
D16*
X30360963Y-144541990D03*
D15*
X33337528Y-139303242D03*
D16*
X33337528Y-146923242D03*
D15*
X51792231Y-136921990D03*
D16*
X51792231Y-144541990D03*
D15*
X48815666Y-139303242D03*
D16*
X48815666Y-146923242D03*
D15*
X45839101Y-136921990D03*
D16*
X45839101Y-144541990D03*
D15*
X42862536Y-139303242D03*
D16*
X42862536Y-146923242D03*
D27*
X47625040Y-59531300D03*
D28*
X45085040Y-59531300D03*
D30*
X36314093Y-58340674D03*
D29*
X41394093Y-58340674D03*
D16*
X39409727Y-127396982D03*
D15*
X47029727Y-127396982D03*
X36314093Y-136921990D03*
D16*
X36314093Y-144541990D03*
X64174735Y-73818812D03*
D15*
X56554735Y-73818812D03*
X47029727Y-73818812D03*
D16*
X39409727Y-73818812D03*
X61793483Y-88701637D03*
D15*
X54173483Y-88701637D03*
X47029727Y-109537592D03*
D16*
X39409727Y-109537592D03*
X61793483Y-124420417D03*
D15*
X54173483Y-124420417D03*
X39885971Y-136921990D03*
D16*
X39885971Y-144541990D03*
D11*
X176530144Y-121443852D03*
X166370144Y-121443852D03*
D12*
X171450144Y-121443852D03*
D13*
X167640144Y-118903852D03*
X173990144Y-116363852D03*
X173990144Y-135413868D03*
X167640144Y-137953868D03*
D12*
X171450144Y-140493868D03*
D11*
X166370144Y-140493868D03*
X176530144Y-140493868D03*
X214630176Y-64293804D03*
X204470176Y-64293804D03*
D12*
X209550176Y-64293804D03*
D13*
X205740176Y-61753804D03*
X212090176Y-59213804D03*
X193040160Y-59213804D03*
X186690160Y-61753804D03*
D12*
X190500160Y-64293804D03*
D11*
X185420160Y-64293804D03*
X195580160Y-64293804D03*
X195580160Y-83343820D03*
X185420160Y-83343820D03*
D12*
X190500160Y-83343820D03*
D13*
X186690160Y-80803820D03*
X193040160Y-78263820D03*
D11*
X195580160Y-102393836D03*
X185420160Y-102393836D03*
D12*
X190500160Y-102393836D03*
D13*
X186690160Y-99853836D03*
X193040160Y-97313836D03*
X193040160Y-116363852D03*
X186690160Y-118903852D03*
D12*
X190500160Y-121443852D03*
D11*
X185420160Y-121443852D03*
X195580160Y-121443852D03*
D13*
X193040160Y-135413868D03*
X186690160Y-137953868D03*
D12*
X190500160Y-140493868D03*
D11*
X185420160Y-140493868D03*
X195580160Y-140493868D03*
D13*
X164465136Y-135413868D03*
X158115136Y-137953868D03*
D12*
X161925136Y-140493868D03*
D33*
X149987136Y-147478868D03*
X173863136Y-147478868D03*
D12*
X149987136Y-132238868D03*
X173863136Y-132238868D03*
X211963168Y-132238868D03*
X188087168Y-132238868D03*
D33*
X211963168Y-147478868D03*
X188087168Y-147478868D03*
D12*
X200025168Y-140493868D03*
D13*
X196215168Y-137953868D03*
X202565168Y-135413868D03*
M02*
