G04 #@! TF.GenerationSoftware,KiCad,Pcbnew,(5.1.4-0-10_14)*
G04 #@! TF.CreationDate,2020-12-11T22:59:58+01:00*
G04 #@! TF.ProjectId,crosshatch,63726f73-7368-4617-9463-682e6b696361,rev?*
G04 #@! TF.SameCoordinates,Original*
G04 #@! TF.FileFunction,Legend,Top*
G04 #@! TF.FilePolarity,Positive*
%FSLAX46Y46*%
G04 Gerber Fmt 4.6, Leading zero omitted, Abs format (unit mm)*
G04 Created by KiCad (PCBNEW (5.1.4-0-10_14)) date 2020-12-11 22:59:58*
%MOMM*%
%LPD*%
G04 APERTURE LIST*
%ADD10C,0.100000*%
%ADD11C,0.150000*%
%ADD12C,0.120000*%
%ADD13C,0.203200*%
G04 APERTURE END LIST*
D10*
X19900805Y-75371342D02*
X19900805Y-74571342D01*
X20167471Y-75142771D01*
X20434138Y-74571342D01*
X20434138Y-75371342D01*
X20815090Y-75371342D02*
X20815090Y-74571342D01*
X21157948Y-75333247D02*
X21272233Y-75371342D01*
X21462709Y-75371342D01*
X21538900Y-75333247D01*
X21576995Y-75295152D01*
X21615090Y-75218961D01*
X21615090Y-75142771D01*
X21576995Y-75066580D01*
X21538900Y-75028485D01*
X21462709Y-74990390D01*
X21310329Y-74952295D01*
X21234138Y-74914199D01*
X21196043Y-74876104D01*
X21157948Y-74799914D01*
X21157948Y-74723723D01*
X21196043Y-74647533D01*
X21234138Y-74609438D01*
X21310329Y-74571342D01*
X21500805Y-74571342D01*
X21615090Y-74609438D01*
X22110329Y-74571342D02*
X22262709Y-74571342D01*
X22338900Y-74609438D01*
X22415090Y-74685628D01*
X22453186Y-74838009D01*
X22453186Y-75104676D01*
X22415090Y-75257057D01*
X22338900Y-75333247D01*
X22262709Y-75371342D01*
X22110329Y-75371342D01*
X22034138Y-75333247D01*
X21957948Y-75257057D01*
X21919852Y-75104676D01*
X21919852Y-74838009D01*
X21957948Y-74685628D01*
X22034138Y-74609438D01*
X22110329Y-74571342D01*
X16070444Y-75333247D02*
X16184729Y-75371342D01*
X16375205Y-75371342D01*
X16451396Y-75333247D01*
X16489491Y-75295152D01*
X16527586Y-75218961D01*
X16527586Y-75142771D01*
X16489491Y-75066580D01*
X16451396Y-75028485D01*
X16375205Y-74990390D01*
X16222825Y-74952295D01*
X16146634Y-74914199D01*
X16108539Y-74876104D01*
X16070444Y-74799914D01*
X16070444Y-74723723D01*
X16108539Y-74647533D01*
X16146634Y-74609438D01*
X16222825Y-74571342D01*
X16413301Y-74571342D01*
X16527586Y-74609438D01*
X17327586Y-75295152D02*
X17289491Y-75333247D01*
X17175205Y-75371342D01*
X17099015Y-75371342D01*
X16984729Y-75333247D01*
X16908539Y-75257057D01*
X16870444Y-75180866D01*
X16832348Y-75028485D01*
X16832348Y-74914199D01*
X16870444Y-74761818D01*
X16908539Y-74685628D01*
X16984729Y-74609438D01*
X17099015Y-74571342D01*
X17175205Y-74571342D01*
X17289491Y-74609438D01*
X17327586Y-74647533D01*
X18051396Y-75371342D02*
X17670444Y-75371342D01*
X17670444Y-74571342D01*
X18318063Y-75371342D02*
X18318063Y-74571342D01*
X18775205Y-75371342D02*
X18432348Y-74914199D01*
X18775205Y-74571342D02*
X18318063Y-75028485D01*
X16165682Y-82515098D02*
X16165682Y-81715098D01*
X16432348Y-82286527D01*
X16699015Y-81715098D01*
X16699015Y-82515098D01*
X17232348Y-81715098D02*
X17384729Y-81715098D01*
X17460920Y-81753194D01*
X17537110Y-81829384D01*
X17575205Y-81981765D01*
X17575205Y-82248432D01*
X17537110Y-82400813D01*
X17460920Y-82477003D01*
X17384729Y-82515098D01*
X17232348Y-82515098D01*
X17156158Y-82477003D01*
X17079967Y-82400813D01*
X17041872Y-82248432D01*
X17041872Y-81981765D01*
X17079967Y-81829384D01*
X17156158Y-81753194D01*
X17232348Y-81715098D01*
X17879967Y-82477003D02*
X17994253Y-82515098D01*
X18184729Y-82515098D01*
X18260920Y-82477003D01*
X18299015Y-82438908D01*
X18337110Y-82362717D01*
X18337110Y-82286527D01*
X18299015Y-82210336D01*
X18260920Y-82172241D01*
X18184729Y-82134146D01*
X18032348Y-82096051D01*
X17956158Y-82057955D01*
X17918063Y-82019860D01*
X17879967Y-81943670D01*
X17879967Y-81867479D01*
X17918063Y-81791289D01*
X17956158Y-81753194D01*
X18032348Y-81715098D01*
X18222825Y-81715098D01*
X18337110Y-81753194D01*
X18679967Y-82515098D02*
X18679967Y-81715098D01*
X19786519Y-81715098D02*
X20053186Y-82515098D01*
X20319852Y-81715098D01*
X21043662Y-82438908D02*
X21005567Y-82477003D01*
X20891281Y-82515098D01*
X20815090Y-82515098D01*
X20700805Y-82477003D01*
X20624614Y-82400813D01*
X20586519Y-82324622D01*
X20548424Y-82172241D01*
X20548424Y-82057955D01*
X20586519Y-81905574D01*
X20624614Y-81829384D01*
X20700805Y-81753194D01*
X20815090Y-81715098D01*
X20891281Y-81715098D01*
X21005567Y-81753194D01*
X21043662Y-81791289D01*
X21843662Y-82438908D02*
X21805567Y-82477003D01*
X21691281Y-82515098D01*
X21615090Y-82515098D01*
X21500805Y-82477003D01*
X21424614Y-82400813D01*
X21386519Y-82324622D01*
X21348424Y-82172241D01*
X21348424Y-82057955D01*
X21386519Y-81905574D01*
X21424614Y-81829384D01*
X21500805Y-81753194D01*
X21615090Y-81715098D01*
X21691281Y-81715098D01*
X21805567Y-81753194D01*
X21843662Y-81791289D01*
X13584566Y-81753194D02*
X13508376Y-81715098D01*
X13394090Y-81715098D01*
X13279804Y-81753194D01*
X13203614Y-81829384D01*
X13165518Y-81905574D01*
X13127423Y-82057955D01*
X13127423Y-82172241D01*
X13165518Y-82324622D01*
X13203614Y-82400813D01*
X13279804Y-82477003D01*
X13394090Y-82515098D01*
X13470280Y-82515098D01*
X13584566Y-82477003D01*
X13622661Y-82438908D01*
X13622661Y-82172241D01*
X13470280Y-82172241D01*
X13965518Y-82515098D02*
X13965518Y-81715098D01*
X14422661Y-82515098D01*
X14422661Y-81715098D01*
X14803614Y-82515098D02*
X14803614Y-81715098D01*
X14994090Y-81715098D01*
X15108376Y-81753194D01*
X15184566Y-81829384D01*
X15222661Y-81905574D01*
X15260757Y-82057955D01*
X15260757Y-82172241D01*
X15222661Y-82324622D01*
X15184566Y-82400813D01*
X15108376Y-82477003D01*
X14994090Y-82515098D01*
X14803614Y-82515098D01*
X13889328Y-75371342D02*
X13622661Y-74990390D01*
X13432185Y-75371342D02*
X13432185Y-74571342D01*
X13736947Y-74571342D01*
X13813138Y-74609438D01*
X13851233Y-74647533D01*
X13889328Y-74723723D01*
X13889328Y-74838009D01*
X13851233Y-74914199D01*
X13813138Y-74952295D01*
X13736947Y-74990390D01*
X13432185Y-74990390D01*
X14194090Y-75333247D02*
X14308376Y-75371342D01*
X14498852Y-75371342D01*
X14575042Y-75333247D01*
X14613138Y-75295152D01*
X14651233Y-75218961D01*
X14651233Y-75142771D01*
X14613138Y-75066580D01*
X14575042Y-75028485D01*
X14498852Y-74990390D01*
X14346471Y-74952295D01*
X14270280Y-74914199D01*
X14232185Y-74876104D01*
X14194090Y-74799914D01*
X14194090Y-74723723D01*
X14232185Y-74647533D01*
X14270280Y-74609438D01*
X14346471Y-74571342D01*
X14536947Y-74571342D01*
X14651233Y-74609438D01*
X14879804Y-74571342D02*
X15336947Y-74571342D01*
X15108376Y-75371342D02*
X15108376Y-74571342D01*
D11*
X22806546Y-79569958D02*
X21806546Y-79569958D01*
X22758927Y-79141387D02*
X22806546Y-78998529D01*
X22806546Y-78760434D01*
X22758927Y-78665196D01*
X22711308Y-78617577D01*
X22616070Y-78569958D01*
X22520832Y-78569958D01*
X22425594Y-78617577D01*
X22377975Y-78665196D01*
X22330356Y-78760434D01*
X22282737Y-78950910D01*
X22235118Y-79046148D01*
X22187499Y-79093768D01*
X22092261Y-79141387D01*
X21997023Y-79141387D01*
X21901785Y-79093768D01*
X21854166Y-79046148D01*
X21806546Y-78950910D01*
X21806546Y-78712815D01*
X21854166Y-78569958D01*
X22806546Y-78141387D02*
X21806546Y-78141387D01*
X21806546Y-77760434D01*
X21854166Y-77665196D01*
X21901785Y-77617577D01*
X21997023Y-77569958D01*
X22139880Y-77569958D01*
X22235118Y-77617577D01*
X22282737Y-77665196D01*
X22330356Y-77760434D01*
X22330356Y-78141387D01*
D12*
X27701772Y-65902247D02*
X27701772Y-75802247D01*
X24501772Y-65902247D02*
X24501772Y-75782247D01*
X27701772Y-65902247D02*
X24501772Y-65902247D01*
X27701772Y-75802247D02*
X24501772Y-75802247D01*
X28504398Y-140993242D02*
X26264398Y-140993242D01*
X26264398Y-140993242D02*
X26264398Y-145233242D01*
X26264398Y-145233242D02*
X28504398Y-145233242D01*
X28504398Y-145233242D02*
X28504398Y-140993242D01*
X27384398Y-140343242D02*
X27384398Y-140993242D01*
X27384398Y-145883242D02*
X27384398Y-145233242D01*
X28504398Y-141713242D02*
X26264398Y-141713242D01*
X28504398Y-141833242D02*
X26264398Y-141833242D01*
X28504398Y-141593242D02*
X26264398Y-141593242D01*
X58244735Y-132230112D02*
X58244735Y-134470112D01*
X58244735Y-134470112D02*
X62484735Y-134470112D01*
X62484735Y-134470112D02*
X62484735Y-132230112D01*
X62484735Y-132230112D02*
X58244735Y-132230112D01*
X57594735Y-133350112D02*
X58244735Y-133350112D01*
X63134735Y-133350112D02*
X62484735Y-133350112D01*
X58964735Y-132230112D02*
X58964735Y-134470112D01*
X59084735Y-132230112D02*
X59084735Y-134470112D01*
X58844735Y-132230112D02*
X58844735Y-134470112D01*
X47720979Y-119587287D02*
X47720979Y-117347287D01*
X47720979Y-117347287D02*
X43480979Y-117347287D01*
X43480979Y-117347287D02*
X43480979Y-119587287D01*
X43480979Y-119587287D02*
X47720979Y-119587287D01*
X48370979Y-118467287D02*
X47720979Y-118467287D01*
X42830979Y-118467287D02*
X43480979Y-118467287D01*
X47000979Y-119587287D02*
X47000979Y-117347287D01*
X46880979Y-119587287D02*
X46880979Y-117347287D01*
X47120979Y-119587287D02*
X47120979Y-117347287D01*
X55863483Y-75675377D02*
X55863483Y-77915377D01*
X55863483Y-77915377D02*
X60103483Y-77915377D01*
X60103483Y-77915377D02*
X60103483Y-75675377D01*
X60103483Y-75675377D02*
X55863483Y-75675377D01*
X55213483Y-76795377D02*
X55863483Y-76795377D01*
X60753483Y-76795377D02*
X60103483Y-76795377D01*
X56583483Y-75675377D02*
X56583483Y-77915377D01*
X56703483Y-75675377D02*
X56703483Y-77915377D01*
X56463483Y-75675377D02*
X56463483Y-77915377D01*
X58844735Y-66745682D02*
X58844735Y-68985682D01*
X59084735Y-66745682D02*
X59084735Y-68985682D01*
X58964735Y-66745682D02*
X58964735Y-68985682D01*
X63134735Y-67865682D02*
X62484735Y-67865682D01*
X57594735Y-67865682D02*
X58244735Y-67865682D01*
X62484735Y-66745682D02*
X58244735Y-66745682D01*
X62484735Y-68985682D02*
X62484735Y-66745682D01*
X58244735Y-68985682D02*
X62484735Y-68985682D01*
X58244735Y-66745682D02*
X58244735Y-68985682D01*
X32921589Y-80962568D02*
G75*
G03X32921589Y-80962568I-2120000J0D01*
G01*
X30801589Y-81802568D02*
X30801589Y-83042568D01*
X30801589Y-78882568D02*
X30801589Y-80122568D01*
X30841589Y-81802568D02*
X30841589Y-83042568D01*
X30841589Y-78882568D02*
X30841589Y-80122568D01*
X30881589Y-81802568D02*
X30881589Y-83041568D01*
X30881589Y-78883568D02*
X30881589Y-80122568D01*
X30921589Y-78885568D02*
X30921589Y-80122568D01*
X30921589Y-81802568D02*
X30921589Y-83039568D01*
X30961589Y-78888568D02*
X30961589Y-80122568D01*
X30961589Y-81802568D02*
X30961589Y-83036568D01*
X31001589Y-78891568D02*
X31001589Y-80122568D01*
X31001589Y-81802568D02*
X31001589Y-83033568D01*
X31041589Y-78895568D02*
X31041589Y-80122568D01*
X31041589Y-81802568D02*
X31041589Y-83029568D01*
X31081589Y-78900568D02*
X31081589Y-80122568D01*
X31081589Y-81802568D02*
X31081589Y-83024568D01*
X31121589Y-78906568D02*
X31121589Y-80122568D01*
X31121589Y-81802568D02*
X31121589Y-83018568D01*
X31161589Y-78912568D02*
X31161589Y-80122568D01*
X31161589Y-81802568D02*
X31161589Y-83012568D01*
X31201589Y-78920568D02*
X31201589Y-80122568D01*
X31201589Y-81802568D02*
X31201589Y-83004568D01*
X31241589Y-78928568D02*
X31241589Y-80122568D01*
X31241589Y-81802568D02*
X31241589Y-82996568D01*
X31281589Y-78937568D02*
X31281589Y-80122568D01*
X31281589Y-81802568D02*
X31281589Y-82987568D01*
X31321589Y-78946568D02*
X31321589Y-80122568D01*
X31321589Y-81802568D02*
X31321589Y-82978568D01*
X31361589Y-78957568D02*
X31361589Y-80122568D01*
X31361589Y-81802568D02*
X31361589Y-82967568D01*
X31401589Y-78968568D02*
X31401589Y-80122568D01*
X31401589Y-81802568D02*
X31401589Y-82956568D01*
X31441589Y-78980568D02*
X31441589Y-80122568D01*
X31441589Y-81802568D02*
X31441589Y-82944568D01*
X31481589Y-78994568D02*
X31481589Y-80122568D01*
X31481589Y-81802568D02*
X31481589Y-82930568D01*
X31522589Y-79008568D02*
X31522589Y-80122568D01*
X31522589Y-81802568D02*
X31522589Y-82916568D01*
X31562589Y-79022568D02*
X31562589Y-80122568D01*
X31562589Y-81802568D02*
X31562589Y-82902568D01*
X31602589Y-79038568D02*
X31602589Y-80122568D01*
X31602589Y-81802568D02*
X31602589Y-82886568D01*
X31642589Y-79055568D02*
X31642589Y-80122568D01*
X31642589Y-81802568D02*
X31642589Y-82869568D01*
X31682589Y-79073568D02*
X31682589Y-80122568D01*
X31682589Y-81802568D02*
X31682589Y-82851568D01*
X31722589Y-79092568D02*
X31722589Y-80122568D01*
X31722589Y-81802568D02*
X31722589Y-82832568D01*
X31762589Y-79111568D02*
X31762589Y-80122568D01*
X31762589Y-81802568D02*
X31762589Y-82813568D01*
X31802589Y-79132568D02*
X31802589Y-80122568D01*
X31802589Y-81802568D02*
X31802589Y-82792568D01*
X31842589Y-79154568D02*
X31842589Y-80122568D01*
X31842589Y-81802568D02*
X31842589Y-82770568D01*
X31882589Y-79177568D02*
X31882589Y-80122568D01*
X31882589Y-81802568D02*
X31882589Y-82747568D01*
X31922589Y-79202568D02*
X31922589Y-80122568D01*
X31922589Y-81802568D02*
X31922589Y-82722568D01*
X31962589Y-79227568D02*
X31962589Y-80122568D01*
X31962589Y-81802568D02*
X31962589Y-82697568D01*
X32002589Y-79254568D02*
X32002589Y-80122568D01*
X32002589Y-81802568D02*
X32002589Y-82670568D01*
X32042589Y-79282568D02*
X32042589Y-80122568D01*
X32042589Y-81802568D02*
X32042589Y-82642568D01*
X32082589Y-79312568D02*
X32082589Y-80122568D01*
X32082589Y-81802568D02*
X32082589Y-82612568D01*
X32122589Y-79343568D02*
X32122589Y-80122568D01*
X32122589Y-81802568D02*
X32122589Y-82581568D01*
X32162589Y-79375568D02*
X32162589Y-80122568D01*
X32162589Y-81802568D02*
X32162589Y-82549568D01*
X32202589Y-79410568D02*
X32202589Y-80122568D01*
X32202589Y-81802568D02*
X32202589Y-82514568D01*
X32242589Y-79446568D02*
X32242589Y-80122568D01*
X32242589Y-81802568D02*
X32242589Y-82478568D01*
X32282589Y-79484568D02*
X32282589Y-80122568D01*
X32282589Y-81802568D02*
X32282589Y-82440568D01*
X32322589Y-79524568D02*
X32322589Y-80122568D01*
X32322589Y-81802568D02*
X32322589Y-82400568D01*
X32362589Y-79566568D02*
X32362589Y-80122568D01*
X32362589Y-81802568D02*
X32362589Y-82358568D01*
X32402589Y-79611568D02*
X32402589Y-82313568D01*
X32442589Y-79658568D02*
X32442589Y-82266568D01*
X32482589Y-79708568D02*
X32482589Y-82216568D01*
X32522589Y-79762568D02*
X32522589Y-82162568D01*
X32562589Y-79820568D02*
X32562589Y-82104568D01*
X32602589Y-79882568D02*
X32602589Y-82042568D01*
X32642589Y-79949568D02*
X32642589Y-81975568D01*
X32682589Y-80022568D02*
X32682589Y-81902568D01*
X32722589Y-80103568D02*
X32722589Y-81821568D01*
X32762589Y-80194568D02*
X32762589Y-81730568D01*
X32802589Y-80298568D02*
X32802589Y-81626568D01*
X32842589Y-80425568D02*
X32842589Y-81499568D01*
X32882589Y-80592568D02*
X32882589Y-81332568D01*
X28531788Y-79767568D02*
X28931788Y-79767568D01*
X28731788Y-79567568D02*
X28731788Y-79967568D01*
X28567528Y-128112921D02*
X33107528Y-128112921D01*
X28567528Y-130252921D02*
X33107528Y-130252921D01*
X28567528Y-128112921D02*
X28567528Y-128127921D01*
X28567528Y-130237921D02*
X28567528Y-130252921D01*
X33107528Y-128112921D02*
X33107528Y-128127921D01*
X33107528Y-130237921D02*
X33107528Y-130252921D01*
X33107528Y-133214486D02*
X33107528Y-133229486D01*
X33107528Y-131089486D02*
X33107528Y-131104486D01*
X28567528Y-133214486D02*
X28567528Y-133229486D01*
X28567528Y-131089486D02*
X28567528Y-131104486D01*
X28567528Y-133229486D02*
X33107528Y-133229486D01*
X28567528Y-131089486D02*
X33107528Y-131089486D01*
X13367512Y-103014836D02*
X13367512Y-104272836D01*
X15207512Y-103014836D02*
X15207512Y-104272836D01*
X15207512Y-97657019D02*
X15207512Y-98915019D01*
X13367512Y-97657019D02*
X13367512Y-98915019D01*
X21292825Y-81101942D02*
X21292825Y-75901942D01*
X16152825Y-81101942D02*
X21292825Y-81101942D01*
X13552825Y-75901942D02*
X21292825Y-75901942D01*
X16152825Y-81101942D02*
X16152825Y-78501942D01*
X16152825Y-78501942D02*
X13552825Y-78501942D01*
X13552825Y-78501942D02*
X13552825Y-75901942D01*
X14882825Y-81101942D02*
X13552825Y-81101942D01*
X13552825Y-81101942D02*
X13552825Y-79771942D01*
X51231148Y-60609908D02*
G75*
G03X54463483Y-60766816I1672335J1078608D01*
G01*
X51231148Y-58452692D02*
G75*
G02X54463483Y-58295784I1672335J-1078608D01*
G01*
X51862353Y-60611137D02*
G75*
G03X53944444Y-60611300I1041130J1079837D01*
G01*
X51862353Y-58451463D02*
G75*
G02X53944444Y-58451300I1041130J-1079837D01*
G01*
X54463483Y-60767300D02*
X54463483Y-60611300D01*
X54463483Y-58451300D02*
X54463483Y-58295300D01*
X15185329Y-125340417D02*
X19025329Y-125340417D01*
X15185329Y-123500417D02*
X19025329Y-123500417D01*
X19025329Y-122959165D02*
X15185329Y-122959165D01*
X19025329Y-121119165D02*
X15185329Y-121119165D01*
X19025329Y-120577913D02*
X15185329Y-120577913D01*
X19025329Y-118737913D02*
X15185329Y-118737913D01*
X19025329Y-116356661D02*
X15185329Y-116356661D01*
X19025329Y-118196661D02*
X15185329Y-118196661D01*
X36934093Y-59801926D02*
X40774093Y-59801926D01*
X36934093Y-61641926D02*
X40774093Y-61641926D01*
X20382825Y-71628186D02*
X20382825Y-67128186D01*
X16382825Y-72878186D02*
X17882825Y-72878186D01*
X13882825Y-67128186D02*
X13882825Y-71628186D01*
X17882825Y-65878186D02*
X16382825Y-65878186D01*
X17882825Y-84332889D02*
X16382825Y-84332889D01*
X13882825Y-85582889D02*
X13882825Y-90082889D01*
X16382825Y-91332889D02*
X17882825Y-91332889D01*
X20382825Y-90082889D02*
X20382825Y-85582889D01*
X21575016Y-97466645D02*
X21575016Y-103866645D01*
X16525016Y-97466645D02*
X16525016Y-103866645D01*
X16525016Y-97466645D02*
G75*
G02X21575016Y-97466645I2525000J0D01*
G01*
X16525016Y-103866645D02*
G75*
G03X21575016Y-103866645I2525000J0D01*
G01*
X31718154Y-86181011D02*
G75*
G02X29718154Y-86181011I-1000000J0D01*
G01*
X29718154Y-86181011D02*
X28068154Y-86181011D01*
X28068154Y-86181011D02*
X28068154Y-121861011D01*
X28068154Y-121861011D02*
X33368154Y-121861011D01*
X33368154Y-121861011D02*
X33368154Y-86181011D01*
X33368154Y-86181011D02*
X31718154Y-86181011D01*
X16096581Y-128062921D02*
X16096581Y-130302921D01*
X16096581Y-130302921D02*
X20336581Y-130302921D01*
X20336581Y-130302921D02*
X20336581Y-128062921D01*
X20336581Y-128062921D02*
X16096581Y-128062921D01*
X15446581Y-129182921D02*
X16096581Y-129182921D01*
X20986581Y-129182921D02*
X20336581Y-129182921D01*
X16816581Y-128062921D02*
X16816581Y-130302921D01*
X16936581Y-128062921D02*
X16936581Y-130302921D01*
X16696581Y-128062921D02*
X16696581Y-130302921D01*
X16696581Y-131039486D02*
X16696581Y-133279486D01*
X16936581Y-131039486D02*
X16936581Y-133279486D01*
X16816581Y-131039486D02*
X16816581Y-133279486D01*
X20986581Y-132159486D02*
X20336581Y-132159486D01*
X15446581Y-132159486D02*
X16096581Y-132159486D01*
X20336581Y-131039486D02*
X16096581Y-131039486D01*
X20336581Y-133279486D02*
X20336581Y-131039486D01*
X16096581Y-133279486D02*
X20336581Y-133279486D01*
X16096581Y-131039486D02*
X16096581Y-133279486D01*
X55863483Y-63769117D02*
X55863483Y-66009117D01*
X55863483Y-66009117D02*
X60103483Y-66009117D01*
X60103483Y-66009117D02*
X60103483Y-63769117D01*
X60103483Y-63769117D02*
X55863483Y-63769117D01*
X55213483Y-64889117D02*
X55863483Y-64889117D01*
X60753483Y-64889117D02*
X60103483Y-64889117D01*
X56583483Y-63769117D02*
X56583483Y-66009117D01*
X56703483Y-63769117D02*
X56703483Y-66009117D01*
X56463483Y-63769117D02*
X56463483Y-66009117D01*
X47720979Y-66009117D02*
X47720979Y-63769117D01*
X47720979Y-63769117D02*
X43480979Y-63769117D01*
X43480979Y-63769117D02*
X43480979Y-66009117D01*
X43480979Y-66009117D02*
X47720979Y-66009117D01*
X48370979Y-64889117D02*
X47720979Y-64889117D01*
X42830979Y-64889117D02*
X43480979Y-64889117D01*
X47000979Y-66009117D02*
X47000979Y-63769117D01*
X46880979Y-66009117D02*
X46880979Y-63769117D01*
X47120979Y-66009117D02*
X47120979Y-63769117D01*
X44739727Y-68985682D02*
X44739727Y-66745682D01*
X44499727Y-68985682D02*
X44499727Y-66745682D01*
X44619727Y-68985682D02*
X44619727Y-66745682D01*
X40449727Y-67865682D02*
X41099727Y-67865682D01*
X45989727Y-67865682D02*
X45339727Y-67865682D01*
X41099727Y-68985682D02*
X45339727Y-68985682D01*
X41099727Y-66745682D02*
X41099727Y-68985682D01*
X45339727Y-66745682D02*
X41099727Y-66745682D01*
X45339727Y-68985682D02*
X45339727Y-66745682D01*
X47720979Y-71962247D02*
X47720979Y-69722247D01*
X47720979Y-69722247D02*
X43480979Y-69722247D01*
X43480979Y-69722247D02*
X43480979Y-71962247D01*
X43480979Y-71962247D02*
X47720979Y-71962247D01*
X48370979Y-70842247D02*
X47720979Y-70842247D01*
X42830979Y-70842247D02*
X43480979Y-70842247D01*
X47000979Y-71962247D02*
X47000979Y-69722247D01*
X46880979Y-71962247D02*
X46880979Y-69722247D01*
X47120979Y-71962247D02*
X47120979Y-69722247D01*
X58244735Y-78651942D02*
X58244735Y-80891942D01*
X58244735Y-80891942D02*
X62484735Y-80891942D01*
X62484735Y-80891942D02*
X62484735Y-78651942D01*
X62484735Y-78651942D02*
X58244735Y-78651942D01*
X57594735Y-79771942D02*
X58244735Y-79771942D01*
X63134735Y-79771942D02*
X62484735Y-79771942D01*
X58964735Y-78651942D02*
X58964735Y-80891942D01*
X59084735Y-78651942D02*
X59084735Y-80891942D01*
X58844735Y-78651942D02*
X58844735Y-80891942D01*
X44739727Y-80891942D02*
X44739727Y-78651942D01*
X44499727Y-80891942D02*
X44499727Y-78651942D01*
X44619727Y-80891942D02*
X44619727Y-78651942D01*
X40449727Y-79771942D02*
X41099727Y-79771942D01*
X45989727Y-79771942D02*
X45339727Y-79771942D01*
X41099727Y-80891942D02*
X45339727Y-80891942D01*
X41099727Y-78651942D02*
X41099727Y-80891942D01*
X45339727Y-78651942D02*
X41099727Y-78651942D01*
X45339727Y-80891942D02*
X45339727Y-78651942D01*
X47720979Y-77915377D02*
X47720979Y-75675377D01*
X47720979Y-75675377D02*
X43480979Y-75675377D01*
X43480979Y-75675377D02*
X43480979Y-77915377D01*
X43480979Y-77915377D02*
X47720979Y-77915377D01*
X48370979Y-76795377D02*
X47720979Y-76795377D01*
X42830979Y-76795377D02*
X43480979Y-76795377D01*
X47000979Y-77915377D02*
X47000979Y-75675377D01*
X46880979Y-77915377D02*
X46880979Y-75675377D01*
X47120979Y-77915377D02*
X47120979Y-75675377D01*
X45339727Y-98751332D02*
X45339727Y-96511332D01*
X45339727Y-96511332D02*
X41099727Y-96511332D01*
X41099727Y-96511332D02*
X41099727Y-98751332D01*
X41099727Y-98751332D02*
X45339727Y-98751332D01*
X45989727Y-97631332D02*
X45339727Y-97631332D01*
X40449727Y-97631332D02*
X41099727Y-97631332D01*
X44619727Y-98751332D02*
X44619727Y-96511332D01*
X44499727Y-98751332D02*
X44499727Y-96511332D01*
X44739727Y-98751332D02*
X44739727Y-96511332D01*
X58244735Y-96511332D02*
X58244735Y-98751332D01*
X58244735Y-98751332D02*
X62484735Y-98751332D01*
X62484735Y-98751332D02*
X62484735Y-96511332D01*
X62484735Y-96511332D02*
X58244735Y-96511332D01*
X57594735Y-97631332D02*
X58244735Y-97631332D01*
X63134735Y-97631332D02*
X62484735Y-97631332D01*
X58964735Y-96511332D02*
X58964735Y-98751332D01*
X59084735Y-96511332D02*
X59084735Y-98751332D01*
X58844735Y-96511332D02*
X58844735Y-98751332D01*
X56463483Y-93534767D02*
X56463483Y-95774767D01*
X56703483Y-93534767D02*
X56703483Y-95774767D01*
X56583483Y-93534767D02*
X56583483Y-95774767D01*
X60753483Y-94654767D02*
X60103483Y-94654767D01*
X55213483Y-94654767D02*
X55863483Y-94654767D01*
X60103483Y-93534767D02*
X55863483Y-93534767D01*
X60103483Y-95774767D02*
X60103483Y-93534767D01*
X55863483Y-95774767D02*
X60103483Y-95774767D01*
X55863483Y-93534767D02*
X55863483Y-95774767D01*
X47120979Y-95774767D02*
X47120979Y-93534767D01*
X46880979Y-95774767D02*
X46880979Y-93534767D01*
X47000979Y-95774767D02*
X47000979Y-93534767D01*
X42830979Y-94654767D02*
X43480979Y-94654767D01*
X48370979Y-94654767D02*
X47720979Y-94654767D01*
X43480979Y-95774767D02*
X47720979Y-95774767D01*
X43480979Y-93534767D02*
X43480979Y-95774767D01*
X47720979Y-93534767D02*
X43480979Y-93534767D01*
X47720979Y-95774767D02*
X47720979Y-93534767D01*
X55863483Y-69722247D02*
X55863483Y-71962247D01*
X55863483Y-71962247D02*
X60103483Y-71962247D01*
X60103483Y-71962247D02*
X60103483Y-69722247D01*
X60103483Y-69722247D02*
X55863483Y-69722247D01*
X55213483Y-70842247D02*
X55863483Y-70842247D01*
X60753483Y-70842247D02*
X60103483Y-70842247D01*
X56583483Y-69722247D02*
X56583483Y-71962247D01*
X56703483Y-69722247D02*
X56703483Y-71962247D01*
X56463483Y-69722247D02*
X56463483Y-71962247D01*
X47120979Y-83868507D02*
X47120979Y-81628507D01*
X46880979Y-83868507D02*
X46880979Y-81628507D01*
X47000979Y-83868507D02*
X47000979Y-81628507D01*
X42830979Y-82748507D02*
X43480979Y-82748507D01*
X48370979Y-82748507D02*
X47720979Y-82748507D01*
X43480979Y-83868507D02*
X47720979Y-83868507D01*
X43480979Y-81628507D02*
X43480979Y-83868507D01*
X47720979Y-81628507D02*
X43480979Y-81628507D01*
X47720979Y-83868507D02*
X47720979Y-81628507D01*
X55863483Y-81628507D02*
X55863483Y-83868507D01*
X55863483Y-83868507D02*
X60103483Y-83868507D01*
X60103483Y-83868507D02*
X60103483Y-81628507D01*
X60103483Y-81628507D02*
X55863483Y-81628507D01*
X55213483Y-82748507D02*
X55863483Y-82748507D01*
X60753483Y-82748507D02*
X60103483Y-82748507D01*
X56583483Y-81628507D02*
X56583483Y-83868507D01*
X56703483Y-81628507D02*
X56703483Y-83868507D01*
X56463483Y-81628507D02*
X56463483Y-83868507D01*
X45339727Y-86845072D02*
X45339727Y-84605072D01*
X45339727Y-84605072D02*
X41099727Y-84605072D01*
X41099727Y-84605072D02*
X41099727Y-86845072D01*
X41099727Y-86845072D02*
X45339727Y-86845072D01*
X45989727Y-85725072D02*
X45339727Y-85725072D01*
X40449727Y-85725072D02*
X41099727Y-85725072D01*
X44619727Y-86845072D02*
X44619727Y-84605072D01*
X44499727Y-86845072D02*
X44499727Y-84605072D01*
X44739727Y-86845072D02*
X44739727Y-84605072D01*
X58244735Y-84605072D02*
X58244735Y-86845072D01*
X58244735Y-86845072D02*
X62484735Y-86845072D01*
X62484735Y-86845072D02*
X62484735Y-84605072D01*
X62484735Y-84605072D02*
X58244735Y-84605072D01*
X57594735Y-85725072D02*
X58244735Y-85725072D01*
X63134735Y-85725072D02*
X62484735Y-85725072D01*
X58964735Y-84605072D02*
X58964735Y-86845072D01*
X59084735Y-84605072D02*
X59084735Y-86845072D01*
X58844735Y-84605072D02*
X58844735Y-86845072D01*
X47120979Y-101727897D02*
X47120979Y-99487897D01*
X46880979Y-101727897D02*
X46880979Y-99487897D01*
X47000979Y-101727897D02*
X47000979Y-99487897D01*
X42830979Y-100607897D02*
X43480979Y-100607897D01*
X48370979Y-100607897D02*
X47720979Y-100607897D01*
X43480979Y-101727897D02*
X47720979Y-101727897D01*
X43480979Y-99487897D02*
X43480979Y-101727897D01*
X47720979Y-99487897D02*
X43480979Y-99487897D01*
X47720979Y-101727897D02*
X47720979Y-99487897D01*
X56463483Y-99487897D02*
X56463483Y-101727897D01*
X56703483Y-99487897D02*
X56703483Y-101727897D01*
X56583483Y-99487897D02*
X56583483Y-101727897D01*
X60753483Y-100607897D02*
X60103483Y-100607897D01*
X55213483Y-100607897D02*
X55863483Y-100607897D01*
X60103483Y-99487897D02*
X55863483Y-99487897D01*
X60103483Y-101727897D02*
X60103483Y-99487897D01*
X55863483Y-101727897D02*
X60103483Y-101727897D01*
X55863483Y-99487897D02*
X55863483Y-101727897D01*
X44739727Y-104704462D02*
X44739727Y-102464462D01*
X44499727Y-104704462D02*
X44499727Y-102464462D01*
X44619727Y-104704462D02*
X44619727Y-102464462D01*
X40449727Y-103584462D02*
X41099727Y-103584462D01*
X45989727Y-103584462D02*
X45339727Y-103584462D01*
X41099727Y-104704462D02*
X45339727Y-104704462D01*
X41099727Y-102464462D02*
X41099727Y-104704462D01*
X45339727Y-102464462D02*
X41099727Y-102464462D01*
X45339727Y-104704462D02*
X45339727Y-102464462D01*
X58244735Y-90558202D02*
X58244735Y-92798202D01*
X58244735Y-92798202D02*
X62484735Y-92798202D01*
X62484735Y-92798202D02*
X62484735Y-90558202D01*
X62484735Y-90558202D02*
X58244735Y-90558202D01*
X57594735Y-91678202D02*
X58244735Y-91678202D01*
X63134735Y-91678202D02*
X62484735Y-91678202D01*
X58964735Y-90558202D02*
X58964735Y-92798202D01*
X59084735Y-90558202D02*
X59084735Y-92798202D01*
X58844735Y-90558202D02*
X58844735Y-92798202D01*
X45339727Y-92798202D02*
X45339727Y-90558202D01*
X45339727Y-90558202D02*
X41099727Y-90558202D01*
X41099727Y-90558202D02*
X41099727Y-92798202D01*
X41099727Y-92798202D02*
X45339727Y-92798202D01*
X45989727Y-91678202D02*
X45339727Y-91678202D01*
X40449727Y-91678202D02*
X41099727Y-91678202D01*
X44619727Y-92798202D02*
X44619727Y-90558202D01*
X44499727Y-92798202D02*
X44499727Y-90558202D01*
X44739727Y-92798202D02*
X44739727Y-90558202D01*
X58244735Y-114370722D02*
X58244735Y-116610722D01*
X58244735Y-116610722D02*
X62484735Y-116610722D01*
X62484735Y-116610722D02*
X62484735Y-114370722D01*
X62484735Y-114370722D02*
X58244735Y-114370722D01*
X57594735Y-115490722D02*
X58244735Y-115490722D01*
X63134735Y-115490722D02*
X62484735Y-115490722D01*
X58964735Y-114370722D02*
X58964735Y-116610722D01*
X59084735Y-114370722D02*
X59084735Y-116610722D01*
X58844735Y-114370722D02*
X58844735Y-116610722D01*
X45339727Y-116610722D02*
X45339727Y-114370722D01*
X45339727Y-114370722D02*
X41099727Y-114370722D01*
X41099727Y-114370722D02*
X41099727Y-116610722D01*
X41099727Y-116610722D02*
X45339727Y-116610722D01*
X45989727Y-115490722D02*
X45339727Y-115490722D01*
X40449727Y-115490722D02*
X41099727Y-115490722D01*
X44619727Y-116610722D02*
X44619727Y-114370722D01*
X44499727Y-116610722D02*
X44499727Y-114370722D01*
X44739727Y-116610722D02*
X44739727Y-114370722D01*
X55863483Y-111394157D02*
X55863483Y-113634157D01*
X55863483Y-113634157D02*
X60103483Y-113634157D01*
X60103483Y-113634157D02*
X60103483Y-111394157D01*
X60103483Y-111394157D02*
X55863483Y-111394157D01*
X55213483Y-112514157D02*
X55863483Y-112514157D01*
X60753483Y-112514157D02*
X60103483Y-112514157D01*
X56583483Y-111394157D02*
X56583483Y-113634157D01*
X56703483Y-111394157D02*
X56703483Y-113634157D01*
X56463483Y-111394157D02*
X56463483Y-113634157D01*
X47720979Y-89821637D02*
X47720979Y-87581637D01*
X47720979Y-87581637D02*
X43480979Y-87581637D01*
X43480979Y-87581637D02*
X43480979Y-89821637D01*
X43480979Y-89821637D02*
X47720979Y-89821637D01*
X48370979Y-88701637D02*
X47720979Y-88701637D01*
X42830979Y-88701637D02*
X43480979Y-88701637D01*
X47000979Y-89821637D02*
X47000979Y-87581637D01*
X46880979Y-89821637D02*
X46880979Y-87581637D01*
X47120979Y-89821637D02*
X47120979Y-87581637D01*
X44739727Y-134470112D02*
X44739727Y-132230112D01*
X44499727Y-134470112D02*
X44499727Y-132230112D01*
X44619727Y-134470112D02*
X44619727Y-132230112D01*
X40449727Y-133350112D02*
X41099727Y-133350112D01*
X45989727Y-133350112D02*
X45339727Y-133350112D01*
X41099727Y-134470112D02*
X45339727Y-134470112D01*
X41099727Y-132230112D02*
X41099727Y-134470112D01*
X45339727Y-132230112D02*
X41099727Y-132230112D01*
X45339727Y-134470112D02*
X45339727Y-132230112D01*
X58844735Y-102464462D02*
X58844735Y-104704462D01*
X59084735Y-102464462D02*
X59084735Y-104704462D01*
X58964735Y-102464462D02*
X58964735Y-104704462D01*
X63134735Y-103584462D02*
X62484735Y-103584462D01*
X57594735Y-103584462D02*
X58244735Y-103584462D01*
X62484735Y-102464462D02*
X58244735Y-102464462D01*
X62484735Y-104704462D02*
X62484735Y-102464462D01*
X58244735Y-104704462D02*
X62484735Y-104704462D01*
X58244735Y-102464462D02*
X58244735Y-104704462D01*
X47720979Y-107681027D02*
X47720979Y-105441027D01*
X47720979Y-105441027D02*
X43480979Y-105441027D01*
X43480979Y-105441027D02*
X43480979Y-107681027D01*
X43480979Y-107681027D02*
X47720979Y-107681027D01*
X48370979Y-106561027D02*
X47720979Y-106561027D01*
X42830979Y-106561027D02*
X43480979Y-106561027D01*
X47000979Y-107681027D02*
X47000979Y-105441027D01*
X46880979Y-107681027D02*
X46880979Y-105441027D01*
X47120979Y-107681027D02*
X47120979Y-105441027D01*
X55863483Y-105441027D02*
X55863483Y-107681027D01*
X55863483Y-107681027D02*
X60103483Y-107681027D01*
X60103483Y-107681027D02*
X60103483Y-105441027D01*
X60103483Y-105441027D02*
X55863483Y-105441027D01*
X55213483Y-106561027D02*
X55863483Y-106561027D01*
X60753483Y-106561027D02*
X60103483Y-106561027D01*
X56583483Y-105441027D02*
X56583483Y-107681027D01*
X56703483Y-105441027D02*
X56703483Y-107681027D01*
X56463483Y-105441027D02*
X56463483Y-107681027D01*
X55863483Y-117347287D02*
X55863483Y-119587287D01*
X55863483Y-119587287D02*
X60103483Y-119587287D01*
X60103483Y-119587287D02*
X60103483Y-117347287D01*
X60103483Y-117347287D02*
X55863483Y-117347287D01*
X55213483Y-118467287D02*
X55863483Y-118467287D01*
X60753483Y-118467287D02*
X60103483Y-118467287D01*
X56583483Y-117347287D02*
X56583483Y-119587287D01*
X56703483Y-117347287D02*
X56703483Y-119587287D01*
X56463483Y-117347287D02*
X56463483Y-119587287D01*
X47720979Y-113634157D02*
X47720979Y-111394157D01*
X47720979Y-111394157D02*
X43480979Y-111394157D01*
X43480979Y-111394157D02*
X43480979Y-113634157D01*
X43480979Y-113634157D02*
X47720979Y-113634157D01*
X48370979Y-112514157D02*
X47720979Y-112514157D01*
X42830979Y-112514157D02*
X43480979Y-112514157D01*
X47000979Y-113634157D02*
X47000979Y-111394157D01*
X46880979Y-113634157D02*
X46880979Y-111394157D01*
X47120979Y-113634157D02*
X47120979Y-111394157D01*
X58244735Y-108417592D02*
X58244735Y-110657592D01*
X58244735Y-110657592D02*
X62484735Y-110657592D01*
X62484735Y-110657592D02*
X62484735Y-108417592D01*
X62484735Y-108417592D02*
X58244735Y-108417592D01*
X57594735Y-109537592D02*
X58244735Y-109537592D01*
X63134735Y-109537592D02*
X62484735Y-109537592D01*
X58964735Y-108417592D02*
X58964735Y-110657592D01*
X59084735Y-108417592D02*
X59084735Y-110657592D01*
X58844735Y-108417592D02*
X58844735Y-110657592D01*
X22551268Y-141593242D02*
X20311268Y-141593242D01*
X22551268Y-141833242D02*
X20311268Y-141833242D01*
X22551268Y-141713242D02*
X20311268Y-141713242D01*
X21431268Y-145883242D02*
X21431268Y-145233242D01*
X21431268Y-140343242D02*
X21431268Y-140993242D01*
X22551268Y-145233242D02*
X22551268Y-140993242D01*
X20311268Y-145233242D02*
X22551268Y-145233242D01*
X20311268Y-140993242D02*
X20311268Y-145233242D01*
X22551268Y-140993242D02*
X20311268Y-140993242D01*
X56463483Y-129253547D02*
X56463483Y-131493547D01*
X56703483Y-129253547D02*
X56703483Y-131493547D01*
X56583483Y-129253547D02*
X56583483Y-131493547D01*
X60753483Y-130373547D02*
X60103483Y-130373547D01*
X55213483Y-130373547D02*
X55863483Y-130373547D01*
X60103483Y-129253547D02*
X55863483Y-129253547D01*
X60103483Y-131493547D02*
X60103483Y-129253547D01*
X55863483Y-131493547D02*
X60103483Y-131493547D01*
X55863483Y-129253547D02*
X55863483Y-131493547D01*
X47120979Y-131493547D02*
X47120979Y-129253547D01*
X46880979Y-131493547D02*
X46880979Y-129253547D01*
X47000979Y-131493547D02*
X47000979Y-129253547D01*
X42830979Y-130373547D02*
X43480979Y-130373547D01*
X48370979Y-130373547D02*
X47720979Y-130373547D01*
X43480979Y-131493547D02*
X47720979Y-131493547D01*
X43480979Y-129253547D02*
X43480979Y-131493547D01*
X47720979Y-129253547D02*
X43480979Y-129253547D01*
X47720979Y-131493547D02*
X47720979Y-129253547D01*
X58844735Y-126276982D02*
X58844735Y-128516982D01*
X59084735Y-126276982D02*
X59084735Y-128516982D01*
X58964735Y-126276982D02*
X58964735Y-128516982D01*
X63134735Y-127396982D02*
X62484735Y-127396982D01*
X57594735Y-127396982D02*
X58244735Y-127396982D01*
X62484735Y-126276982D02*
X58244735Y-126276982D01*
X62484735Y-128516982D02*
X62484735Y-126276982D01*
X58244735Y-128516982D02*
X62484735Y-128516982D01*
X58244735Y-126276982D02*
X58244735Y-128516982D01*
X55888796Y-141593242D02*
X53648796Y-141593242D01*
X55888796Y-141833242D02*
X53648796Y-141833242D01*
X55888796Y-141713242D02*
X53648796Y-141713242D01*
X54768796Y-145883242D02*
X54768796Y-145233242D01*
X54768796Y-140343242D02*
X54768796Y-140993242D01*
X55888796Y-145233242D02*
X55888796Y-140993242D01*
X53648796Y-145233242D02*
X55888796Y-145233242D01*
X53648796Y-140993242D02*
X53648796Y-145233242D01*
X55888796Y-140993242D02*
X53648796Y-140993242D01*
X44739727Y-122563852D02*
X44739727Y-120323852D01*
X44499727Y-122563852D02*
X44499727Y-120323852D01*
X44619727Y-122563852D02*
X44619727Y-120323852D01*
X40449727Y-121443852D02*
X41099727Y-121443852D01*
X45989727Y-121443852D02*
X45339727Y-121443852D01*
X41099727Y-122563852D02*
X45339727Y-122563852D01*
X41099727Y-120323852D02*
X41099727Y-122563852D01*
X45339727Y-120323852D02*
X41099727Y-120323852D01*
X45339727Y-122563852D02*
X45339727Y-120323852D01*
X58844735Y-120323852D02*
X58844735Y-122563852D01*
X59084735Y-120323852D02*
X59084735Y-122563852D01*
X58964735Y-120323852D02*
X58964735Y-122563852D01*
X63134735Y-121443852D02*
X62484735Y-121443852D01*
X57594735Y-121443852D02*
X58244735Y-121443852D01*
X62484735Y-120323852D02*
X58244735Y-120323852D01*
X62484735Y-122563852D02*
X62484735Y-120323852D01*
X58244735Y-122563852D02*
X62484735Y-122563852D01*
X58244735Y-120323852D02*
X58244735Y-122563852D01*
X47120979Y-125540417D02*
X47120979Y-123300417D01*
X46880979Y-125540417D02*
X46880979Y-123300417D01*
X47000979Y-125540417D02*
X47000979Y-123300417D01*
X42830979Y-124420417D02*
X43480979Y-124420417D01*
X48370979Y-124420417D02*
X47720979Y-124420417D01*
X43480979Y-125540417D02*
X47720979Y-125540417D01*
X43480979Y-123300417D02*
X43480979Y-125540417D01*
X47720979Y-123300417D02*
X43480979Y-123300417D01*
X47720979Y-125540417D02*
X47720979Y-123300417D01*
X25527833Y-138611990D02*
X23287833Y-138611990D01*
X23287833Y-138611990D02*
X23287833Y-142851990D01*
X23287833Y-142851990D02*
X25527833Y-142851990D01*
X25527833Y-142851990D02*
X25527833Y-138611990D01*
X24407833Y-137961990D02*
X24407833Y-138611990D01*
X24407833Y-143501990D02*
X24407833Y-142851990D01*
X25527833Y-139331990D02*
X23287833Y-139331990D01*
X25527833Y-139451990D02*
X23287833Y-139451990D01*
X25527833Y-139211990D02*
X23287833Y-139211990D01*
X31480963Y-138611990D02*
X29240963Y-138611990D01*
X29240963Y-138611990D02*
X29240963Y-142851990D01*
X29240963Y-142851990D02*
X31480963Y-142851990D01*
X31480963Y-142851990D02*
X31480963Y-138611990D01*
X30360963Y-137961990D02*
X30360963Y-138611990D01*
X30360963Y-143501990D02*
X30360963Y-142851990D01*
X31480963Y-139331990D02*
X29240963Y-139331990D01*
X31480963Y-139451990D02*
X29240963Y-139451990D01*
X31480963Y-139211990D02*
X29240963Y-139211990D01*
X34457528Y-140993242D02*
X32217528Y-140993242D01*
X32217528Y-140993242D02*
X32217528Y-145233242D01*
X32217528Y-145233242D02*
X34457528Y-145233242D01*
X34457528Y-145233242D02*
X34457528Y-140993242D01*
X33337528Y-140343242D02*
X33337528Y-140993242D01*
X33337528Y-145883242D02*
X33337528Y-145233242D01*
X34457528Y-141713242D02*
X32217528Y-141713242D01*
X34457528Y-141833242D02*
X32217528Y-141833242D01*
X34457528Y-141593242D02*
X32217528Y-141593242D01*
X52912231Y-138611990D02*
X50672231Y-138611990D01*
X50672231Y-138611990D02*
X50672231Y-142851990D01*
X50672231Y-142851990D02*
X52912231Y-142851990D01*
X52912231Y-142851990D02*
X52912231Y-138611990D01*
X51792231Y-137961990D02*
X51792231Y-138611990D01*
X51792231Y-143501990D02*
X51792231Y-142851990D01*
X52912231Y-139331990D02*
X50672231Y-139331990D01*
X52912231Y-139451990D02*
X50672231Y-139451990D01*
X52912231Y-139211990D02*
X50672231Y-139211990D01*
X49935666Y-140993242D02*
X47695666Y-140993242D01*
X47695666Y-140993242D02*
X47695666Y-145233242D01*
X47695666Y-145233242D02*
X49935666Y-145233242D01*
X49935666Y-145233242D02*
X49935666Y-140993242D01*
X48815666Y-140343242D02*
X48815666Y-140993242D01*
X48815666Y-145883242D02*
X48815666Y-145233242D01*
X49935666Y-141713242D02*
X47695666Y-141713242D01*
X49935666Y-141833242D02*
X47695666Y-141833242D01*
X49935666Y-141593242D02*
X47695666Y-141593242D01*
X46959101Y-138611990D02*
X44719101Y-138611990D01*
X44719101Y-138611990D02*
X44719101Y-142851990D01*
X44719101Y-142851990D02*
X46959101Y-142851990D01*
X46959101Y-142851990D02*
X46959101Y-138611990D01*
X45839101Y-137961990D02*
X45839101Y-138611990D01*
X45839101Y-143501990D02*
X45839101Y-142851990D01*
X46959101Y-139331990D02*
X44719101Y-139331990D01*
X46959101Y-139451990D02*
X44719101Y-139451990D01*
X46959101Y-139211990D02*
X44719101Y-139211990D01*
X43982536Y-140993242D02*
X41742536Y-140993242D01*
X41742536Y-140993242D02*
X41742536Y-145233242D01*
X41742536Y-145233242D02*
X43982536Y-145233242D01*
X43982536Y-145233242D02*
X43982536Y-140993242D01*
X42862536Y-140343242D02*
X42862536Y-140993242D01*
X42862536Y-145883242D02*
X42862536Y-145233242D01*
X43982536Y-141713242D02*
X41742536Y-141713242D01*
X43982536Y-141833242D02*
X41742536Y-141833242D01*
X43982536Y-141593242D02*
X41742536Y-141593242D01*
X44682705Y-60609908D02*
G75*
G03X47915040Y-60766816I1672335J1078608D01*
G01*
X44682705Y-58452692D02*
G75*
G02X47915040Y-58295784I1672335J-1078608D01*
G01*
X45313910Y-60611137D02*
G75*
G03X47396001Y-60611300I1041130J1079837D01*
G01*
X45313910Y-58451463D02*
G75*
G02X47396001Y-58451300I1041130J-1079837D01*
G01*
X47915040Y-60767300D02*
X47915040Y-60611300D01*
X47915040Y-58451300D02*
X47915040Y-58295300D01*
X36934093Y-57420674D02*
X40774093Y-57420674D01*
X36934093Y-59260674D02*
X40774093Y-59260674D01*
X44739727Y-128516982D02*
X44739727Y-126276982D01*
X44499727Y-128516982D02*
X44499727Y-126276982D01*
X44619727Y-128516982D02*
X44619727Y-126276982D01*
X40449727Y-127396982D02*
X41099727Y-127396982D01*
X45989727Y-127396982D02*
X45339727Y-127396982D01*
X41099727Y-128516982D02*
X45339727Y-128516982D01*
X41099727Y-126276982D02*
X41099727Y-128516982D01*
X45339727Y-126276982D02*
X41099727Y-126276982D01*
X45339727Y-128516982D02*
X45339727Y-126276982D01*
X37434093Y-138611990D02*
X35194093Y-138611990D01*
X35194093Y-138611990D02*
X35194093Y-142851990D01*
X35194093Y-142851990D02*
X37434093Y-142851990D01*
X37434093Y-142851990D02*
X37434093Y-138611990D01*
X36314093Y-137961990D02*
X36314093Y-138611990D01*
X36314093Y-143501990D02*
X36314093Y-142851990D01*
X37434093Y-139331990D02*
X35194093Y-139331990D01*
X37434093Y-139451990D02*
X35194093Y-139451990D01*
X37434093Y-139211990D02*
X35194093Y-139211990D01*
X58844735Y-72698812D02*
X58844735Y-74938812D01*
X59084735Y-72698812D02*
X59084735Y-74938812D01*
X58964735Y-72698812D02*
X58964735Y-74938812D01*
X63134735Y-73818812D02*
X62484735Y-73818812D01*
X57594735Y-73818812D02*
X58244735Y-73818812D01*
X62484735Y-72698812D02*
X58244735Y-72698812D01*
X62484735Y-74938812D02*
X62484735Y-72698812D01*
X58244735Y-74938812D02*
X62484735Y-74938812D01*
X58244735Y-72698812D02*
X58244735Y-74938812D01*
X45339727Y-74938812D02*
X45339727Y-72698812D01*
X45339727Y-72698812D02*
X41099727Y-72698812D01*
X41099727Y-72698812D02*
X41099727Y-74938812D01*
X41099727Y-74938812D02*
X45339727Y-74938812D01*
X45989727Y-73818812D02*
X45339727Y-73818812D01*
X40449727Y-73818812D02*
X41099727Y-73818812D01*
X44619727Y-74938812D02*
X44619727Y-72698812D01*
X44499727Y-74938812D02*
X44499727Y-72698812D01*
X44739727Y-74938812D02*
X44739727Y-72698812D01*
X56463483Y-87581637D02*
X56463483Y-89821637D01*
X56703483Y-87581637D02*
X56703483Y-89821637D01*
X56583483Y-87581637D02*
X56583483Y-89821637D01*
X60753483Y-88701637D02*
X60103483Y-88701637D01*
X55213483Y-88701637D02*
X55863483Y-88701637D01*
X60103483Y-87581637D02*
X55863483Y-87581637D01*
X60103483Y-89821637D02*
X60103483Y-87581637D01*
X55863483Y-89821637D02*
X60103483Y-89821637D01*
X55863483Y-87581637D02*
X55863483Y-89821637D01*
X45339727Y-110657592D02*
X45339727Y-108417592D01*
X45339727Y-108417592D02*
X41099727Y-108417592D01*
X41099727Y-108417592D02*
X41099727Y-110657592D01*
X41099727Y-110657592D02*
X45339727Y-110657592D01*
X45989727Y-109537592D02*
X45339727Y-109537592D01*
X40449727Y-109537592D02*
X41099727Y-109537592D01*
X44619727Y-110657592D02*
X44619727Y-108417592D01*
X44499727Y-110657592D02*
X44499727Y-108417592D01*
X44739727Y-110657592D02*
X44739727Y-108417592D01*
X56463483Y-123300417D02*
X56463483Y-125540417D01*
X56703483Y-123300417D02*
X56703483Y-125540417D01*
X56583483Y-123300417D02*
X56583483Y-125540417D01*
X60753483Y-124420417D02*
X60103483Y-124420417D01*
X55213483Y-124420417D02*
X55863483Y-124420417D01*
X60103483Y-123300417D02*
X55863483Y-123300417D01*
X60103483Y-125540417D02*
X60103483Y-123300417D01*
X55863483Y-125540417D02*
X60103483Y-125540417D01*
X55863483Y-123300417D02*
X55863483Y-125540417D01*
X41005971Y-138611990D02*
X38765971Y-138611990D01*
X38765971Y-138611990D02*
X38765971Y-142851990D01*
X38765971Y-142851990D02*
X41005971Y-142851990D01*
X41005971Y-142851990D02*
X41005971Y-138611990D01*
X39885971Y-137961990D02*
X39885971Y-138611990D01*
X39885971Y-143501990D02*
X39885971Y-142851990D01*
X41005971Y-139331990D02*
X38765971Y-139331990D01*
X41005971Y-139451990D02*
X38765971Y-139451990D01*
X41005971Y-139211990D02*
X38765971Y-139211990D01*
D13*
X225915049Y-68868327D02*
X225915049Y-67598327D01*
X226423049Y-68505470D01*
X226931049Y-67598327D01*
X226931049Y-68868327D01*
X227511620Y-67598327D02*
X228527620Y-68868327D01*
X228527620Y-67598327D02*
X227511620Y-68868327D01*
X229761334Y-68021661D02*
X229761334Y-68868327D01*
X229398477Y-67537851D02*
X229035620Y-68444994D01*
X229979049Y-68444994D01*
X230632192Y-68868327D02*
X230922477Y-68868327D01*
X231067620Y-68807851D01*
X231140192Y-68747375D01*
X231285334Y-68565946D01*
X231357906Y-68324042D01*
X231357906Y-67840232D01*
X231285334Y-67719280D01*
X231212763Y-67658804D01*
X231067620Y-67598327D01*
X230777334Y-67598327D01*
X230632192Y-67658804D01*
X230559620Y-67719280D01*
X230487049Y-67840232D01*
X230487049Y-68142613D01*
X230559620Y-68263565D01*
X230632192Y-68324042D01*
X230777334Y-68384518D01*
X231067620Y-68384518D01*
X231212763Y-68324042D01*
X231285334Y-68263565D01*
X231357906Y-68142613D01*
D11*
X25773125Y-76565200D02*
X25439792Y-76565200D01*
X25439792Y-77089009D02*
X25439792Y-76089009D01*
X25915982Y-76089009D01*
X26820744Y-77089009D02*
X26249316Y-77089009D01*
X26535030Y-77089009D02*
X26535030Y-76089009D01*
X26439792Y-76231867D01*
X26344554Y-76327105D01*
X26249316Y-76374724D01*
X27836778Y-137540962D02*
X26836778Y-137540962D01*
X26836778Y-137302867D01*
X26884398Y-137160010D01*
X26979636Y-137064772D01*
X27074874Y-137017153D01*
X27265350Y-136969534D01*
X27408207Y-136969534D01*
X27598683Y-137017153D01*
X27693921Y-137064772D01*
X27789159Y-137160010D01*
X27836778Y-137302867D01*
X27836778Y-137540962D01*
X27836778Y-136017153D02*
X27836778Y-136588581D01*
X27836778Y-136302867D02*
X26836778Y-136302867D01*
X26979636Y-136398105D01*
X27074874Y-136493343D01*
X27122493Y-136588581D01*
X26932017Y-135636200D02*
X26884398Y-135588581D01*
X26836778Y-135493343D01*
X26836778Y-135255248D01*
X26884398Y-135160010D01*
X26932017Y-135112391D01*
X27027255Y-135064772D01*
X27122493Y-135064772D01*
X27265350Y-135112391D01*
X27836778Y-135683819D01*
X27836778Y-135064772D01*
X53435387Y-133802492D02*
X53435387Y-132802492D01*
X53673483Y-132802492D01*
X53816340Y-132850112D01*
X53911578Y-132945350D01*
X53959197Y-133040588D01*
X54006816Y-133231064D01*
X54006816Y-133373921D01*
X53959197Y-133564397D01*
X53911578Y-133659635D01*
X53816340Y-133754873D01*
X53673483Y-133802492D01*
X53435387Y-133802492D01*
X54863959Y-133135826D02*
X54863959Y-133802492D01*
X54625863Y-132754873D02*
X54387768Y-133469159D01*
X55006816Y-133469159D01*
D13*
X168765001Y-106968359D02*
X168765001Y-105698359D01*
X169273001Y-106605502D01*
X169781001Y-105698359D01*
X169781001Y-106968359D01*
X170361572Y-105698359D02*
X171377572Y-106968359D01*
X171377572Y-105698359D02*
X170361572Y-106968359D01*
X171885572Y-105819312D02*
X171958144Y-105758836D01*
X172103286Y-105698359D01*
X172466144Y-105698359D01*
X172611286Y-105758836D01*
X172683858Y-105819312D01*
X172756429Y-105940264D01*
X172756429Y-106061216D01*
X172683858Y-106242645D01*
X171813001Y-106968359D01*
X172756429Y-106968359D01*
X173627286Y-106242645D02*
X173482144Y-106182169D01*
X173409572Y-106121693D01*
X173337001Y-106000740D01*
X173337001Y-105940264D01*
X173409572Y-105819312D01*
X173482144Y-105758836D01*
X173627286Y-105698359D01*
X173917572Y-105698359D01*
X174062715Y-105758836D01*
X174135286Y-105819312D01*
X174207858Y-105940264D01*
X174207858Y-106000740D01*
X174135286Y-106121693D01*
X174062715Y-106182169D01*
X173917572Y-106242645D01*
X173627286Y-106242645D01*
X173482144Y-106303121D01*
X173409572Y-106363597D01*
X173337001Y-106484550D01*
X173337001Y-106726455D01*
X173409572Y-106847407D01*
X173482144Y-106907883D01*
X173627286Y-106968359D01*
X173917572Y-106968359D01*
X174062715Y-106907883D01*
X174135286Y-106847407D01*
X174207858Y-106726455D01*
X174207858Y-106484550D01*
X174135286Y-106363597D01*
X174062715Y-106303121D01*
X173917572Y-106242645D01*
X283065097Y-87918343D02*
X283065097Y-86648343D01*
X283573097Y-87555486D01*
X284081097Y-86648343D01*
X284081097Y-87918343D01*
X284661668Y-86648343D02*
X285677668Y-87918343D01*
X285677668Y-86648343D02*
X284661668Y-87918343D01*
X286113097Y-86648343D02*
X287056525Y-86648343D01*
X286548525Y-87132153D01*
X286766240Y-87132153D01*
X286911382Y-87192629D01*
X286983954Y-87253105D01*
X287056525Y-87374058D01*
X287056525Y-87676439D01*
X286983954Y-87797391D01*
X286911382Y-87857867D01*
X286766240Y-87918343D01*
X286330811Y-87918343D01*
X286185668Y-87857867D01*
X286113097Y-87797391D01*
X287637097Y-86769296D02*
X287709668Y-86708820D01*
X287854811Y-86648343D01*
X288217668Y-86648343D01*
X288362811Y-86708820D01*
X288435382Y-86769296D01*
X288507954Y-86890248D01*
X288507954Y-87011200D01*
X288435382Y-87192629D01*
X287564525Y-87918343D01*
X288507954Y-87918343D01*
D11*
X37481059Y-118919667D02*
X37481059Y-117919667D01*
X37719154Y-117919667D01*
X37862011Y-117967287D01*
X37957249Y-118062525D01*
X38004868Y-118157763D01*
X38052487Y-118348239D01*
X38052487Y-118491096D01*
X38004868Y-118681572D01*
X37957249Y-118776810D01*
X37862011Y-118872048D01*
X37719154Y-118919667D01*
X37481059Y-118919667D01*
X38385821Y-117919667D02*
X39004868Y-117919667D01*
X38671535Y-118300620D01*
X38814392Y-118300620D01*
X38909630Y-118348239D01*
X38957249Y-118395858D01*
X39004868Y-118491096D01*
X39004868Y-118729191D01*
X38957249Y-118824429D01*
X38909630Y-118872048D01*
X38814392Y-118919667D01*
X38528678Y-118919667D01*
X38433440Y-118872048D01*
X38385821Y-118824429D01*
X39862011Y-118253001D02*
X39862011Y-118919667D01*
X39623916Y-117872048D02*
X39385821Y-118586334D01*
X40004868Y-118586334D01*
X63674831Y-77247757D02*
X63674831Y-76247757D01*
X63912926Y-76247757D01*
X64055783Y-76295377D01*
X64151021Y-76390615D01*
X64198640Y-76485853D01*
X64246259Y-76676329D01*
X64246259Y-76819186D01*
X64198640Y-77009662D01*
X64151021Y-77104900D01*
X64055783Y-77200138D01*
X63912926Y-77247757D01*
X63674831Y-77247757D01*
X64579593Y-76247757D02*
X65198640Y-76247757D01*
X64865307Y-76628710D01*
X65008164Y-76628710D01*
X65103402Y-76676329D01*
X65151021Y-76723948D01*
X65198640Y-76819186D01*
X65198640Y-77057281D01*
X65151021Y-77152519D01*
X65103402Y-77200138D01*
X65008164Y-77247757D01*
X64722450Y-77247757D01*
X64627212Y-77200138D01*
X64579593Y-77152519D01*
X65531974Y-76247757D02*
X66198640Y-76247757D01*
X65770069Y-77247757D01*
X52959197Y-68318062D02*
X52959197Y-67318062D01*
X53197292Y-67318062D01*
X53340149Y-67365682D01*
X53435387Y-67460920D01*
X53483006Y-67556158D01*
X53530625Y-67746634D01*
X53530625Y-67889491D01*
X53483006Y-68079967D01*
X53435387Y-68175205D01*
X53340149Y-68270443D01*
X53197292Y-68318062D01*
X52959197Y-68318062D01*
X54483006Y-68318062D02*
X53911578Y-68318062D01*
X54197292Y-68318062D02*
X54197292Y-67318062D01*
X54102054Y-67460920D01*
X54006816Y-67556158D01*
X53911578Y-67603777D01*
X54959197Y-68318062D02*
X55149673Y-68318062D01*
X55244911Y-68270443D01*
X55292530Y-68222824D01*
X55387768Y-68079967D01*
X55435387Y-67889491D01*
X55435387Y-67508539D01*
X55387768Y-67413301D01*
X55340149Y-67365682D01*
X55244911Y-67318062D01*
X55054435Y-67318062D01*
X54959197Y-67365682D01*
X54911578Y-67413301D01*
X54863959Y-67508539D01*
X54863959Y-67746634D01*
X54911578Y-67841872D01*
X54959197Y-67889491D01*
X55054435Y-67937110D01*
X55244911Y-67937110D01*
X55340149Y-67889491D01*
X55387768Y-67841872D01*
X55435387Y-67746634D01*
D13*
X225915049Y-126018375D02*
X225915049Y-124748375D01*
X226423049Y-125655518D01*
X226931049Y-124748375D01*
X226931049Y-126018375D01*
X227511620Y-124748375D02*
X228527620Y-126018375D01*
X228527620Y-124748375D02*
X227511620Y-126018375D01*
X229761334Y-125171709D02*
X229761334Y-126018375D01*
X229398477Y-124687899D02*
X229035620Y-125595042D01*
X229979049Y-125595042D01*
X230414477Y-124748375D02*
X231430477Y-124748375D01*
X230777334Y-126018375D01*
X244965065Y-87918343D02*
X244965065Y-86648343D01*
X245473065Y-87555486D01*
X245981065Y-86648343D01*
X245981065Y-87918343D01*
X246561636Y-86648343D02*
X247577636Y-87918343D01*
X247577636Y-86648343D02*
X246561636Y-87918343D01*
X248811350Y-87071677D02*
X248811350Y-87918343D01*
X248448493Y-86587867D02*
X248085636Y-87495010D01*
X249029065Y-87495010D01*
X250262779Y-87071677D02*
X250262779Y-87918343D01*
X249899922Y-86587867D02*
X249537065Y-87495010D01*
X250480493Y-87495010D01*
X244965065Y-68868327D02*
X244965065Y-67598327D01*
X245473065Y-68505470D01*
X245981065Y-67598327D01*
X245981065Y-68868327D01*
X246561636Y-67598327D02*
X247577636Y-68868327D01*
X247577636Y-67598327D02*
X246561636Y-68868327D01*
X248811350Y-68021661D02*
X248811350Y-68868327D01*
X248448493Y-67537851D02*
X248085636Y-68444994D01*
X249029065Y-68444994D01*
X249464493Y-67598327D02*
X250407922Y-67598327D01*
X249899922Y-68082137D01*
X250117636Y-68082137D01*
X250262779Y-68142613D01*
X250335350Y-68203089D01*
X250407922Y-68324042D01*
X250407922Y-68626423D01*
X250335350Y-68747375D01*
X250262779Y-68807851D01*
X250117636Y-68868327D01*
X249682208Y-68868327D01*
X249537065Y-68807851D01*
X249464493Y-68747375D01*
X264015081Y-87918343D02*
X264015081Y-86648343D01*
X264523081Y-87555486D01*
X265031081Y-86648343D01*
X265031081Y-87918343D01*
X265611652Y-86648343D02*
X266627652Y-87918343D01*
X266627652Y-86648343D02*
X265611652Y-87918343D01*
X267063081Y-86648343D02*
X268006509Y-86648343D01*
X267498509Y-87132153D01*
X267716224Y-87132153D01*
X267861366Y-87192629D01*
X267933938Y-87253105D01*
X268006509Y-87374058D01*
X268006509Y-87676439D01*
X267933938Y-87797391D01*
X267861366Y-87857867D01*
X267716224Y-87918343D01*
X267280795Y-87918343D01*
X267135652Y-87857867D01*
X267063081Y-87797391D01*
X268877366Y-87192629D02*
X268732224Y-87132153D01*
X268659652Y-87071677D01*
X268587081Y-86950724D01*
X268587081Y-86890248D01*
X268659652Y-86769296D01*
X268732224Y-86708820D01*
X268877366Y-86648343D01*
X269167652Y-86648343D01*
X269312795Y-86708820D01*
X269385366Y-86769296D01*
X269457938Y-86890248D01*
X269457938Y-86950724D01*
X269385366Y-87071677D01*
X269312795Y-87132153D01*
X269167652Y-87192629D01*
X268877366Y-87192629D01*
X268732224Y-87253105D01*
X268659652Y-87313581D01*
X268587081Y-87434534D01*
X268587081Y-87676439D01*
X268659652Y-87797391D01*
X268732224Y-87857867D01*
X268877366Y-87918343D01*
X269167652Y-87918343D01*
X269312795Y-87857867D01*
X269385366Y-87797391D01*
X269457938Y-87676439D01*
X269457938Y-87434534D01*
X269385366Y-87313581D01*
X269312795Y-87253105D01*
X269167652Y-87192629D01*
X244965065Y-106968359D02*
X244965065Y-105698359D01*
X245473065Y-106605502D01*
X245981065Y-105698359D01*
X245981065Y-106968359D01*
X246561636Y-105698359D02*
X247577636Y-106968359D01*
X247577636Y-105698359D02*
X246561636Y-106968359D01*
X248811350Y-106121693D02*
X248811350Y-106968359D01*
X248448493Y-105637883D02*
X248085636Y-106545026D01*
X249029065Y-106545026D01*
X250335350Y-105698359D02*
X249609636Y-105698359D01*
X249537065Y-106303121D01*
X249609636Y-106242645D01*
X249754779Y-106182169D01*
X250117636Y-106182169D01*
X250262779Y-106242645D01*
X250335350Y-106303121D01*
X250407922Y-106424074D01*
X250407922Y-106726455D01*
X250335350Y-106847407D01*
X250262779Y-106907883D01*
X250117636Y-106968359D01*
X249754779Y-106968359D01*
X249609636Y-106907883D01*
X249537065Y-106847407D01*
X283065097Y-106968359D02*
X283065097Y-105698359D01*
X283573097Y-106605502D01*
X284081097Y-105698359D01*
X284081097Y-106968359D01*
X284661668Y-105698359D02*
X285677668Y-106968359D01*
X285677668Y-105698359D02*
X284661668Y-106968359D01*
X286113097Y-105698359D02*
X287056525Y-105698359D01*
X286548525Y-106182169D01*
X286766240Y-106182169D01*
X286911382Y-106242645D01*
X286983954Y-106303121D01*
X287056525Y-106424074D01*
X287056525Y-106726455D01*
X286983954Y-106847407D01*
X286911382Y-106907883D01*
X286766240Y-106968359D01*
X286330811Y-106968359D01*
X286185668Y-106907883D01*
X286113097Y-106847407D01*
X287564525Y-105698359D02*
X288507954Y-105698359D01*
X287999954Y-106182169D01*
X288217668Y-106182169D01*
X288362811Y-106242645D01*
X288435382Y-106303121D01*
X288507954Y-106424074D01*
X288507954Y-106726455D01*
X288435382Y-106847407D01*
X288362811Y-106907883D01*
X288217668Y-106968359D01*
X287782240Y-106968359D01*
X287637097Y-106907883D01*
X287564525Y-106847407D01*
X264015081Y-106968359D02*
X264015081Y-105698359D01*
X264523081Y-106605502D01*
X265031081Y-105698359D01*
X265031081Y-106968359D01*
X265611652Y-105698359D02*
X266627652Y-106968359D01*
X266627652Y-105698359D02*
X265611652Y-106968359D01*
X267063081Y-105698359D02*
X268006509Y-105698359D01*
X267498509Y-106182169D01*
X267716224Y-106182169D01*
X267861366Y-106242645D01*
X267933938Y-106303121D01*
X268006509Y-106424074D01*
X268006509Y-106726455D01*
X267933938Y-106847407D01*
X267861366Y-106907883D01*
X267716224Y-106968359D01*
X267280795Y-106968359D01*
X267135652Y-106907883D01*
X267063081Y-106847407D01*
X268732224Y-106968359D02*
X269022509Y-106968359D01*
X269167652Y-106907883D01*
X269240224Y-106847407D01*
X269385366Y-106665978D01*
X269457938Y-106424074D01*
X269457938Y-105940264D01*
X269385366Y-105819312D01*
X269312795Y-105758836D01*
X269167652Y-105698359D01*
X268877366Y-105698359D01*
X268732224Y-105758836D01*
X268659652Y-105819312D01*
X268587081Y-105940264D01*
X268587081Y-106242645D01*
X268659652Y-106363597D01*
X268732224Y-106424074D01*
X268877366Y-106484550D01*
X269167652Y-106484550D01*
X269312795Y-106424074D01*
X269385366Y-106363597D01*
X269457938Y-106242645D01*
X283065097Y-126018375D02*
X283065097Y-124748375D01*
X283573097Y-125655518D01*
X284081097Y-124748375D01*
X284081097Y-126018375D01*
X284661668Y-124748375D02*
X285677668Y-126018375D01*
X285677668Y-124748375D02*
X284661668Y-126018375D01*
X286113097Y-124748375D02*
X287056525Y-124748375D01*
X286548525Y-125232185D01*
X286766240Y-125232185D01*
X286911382Y-125292661D01*
X286983954Y-125353137D01*
X287056525Y-125474090D01*
X287056525Y-125776471D01*
X286983954Y-125897423D01*
X286911382Y-125957899D01*
X286766240Y-126018375D01*
X286330811Y-126018375D01*
X286185668Y-125957899D01*
X286113097Y-125897423D01*
X288362811Y-125171709D02*
X288362811Y-126018375D01*
X287999954Y-124687899D02*
X287637097Y-125595042D01*
X288580525Y-125595042D01*
X264015081Y-126018375D02*
X264015081Y-124748375D01*
X264523081Y-125655518D01*
X265031081Y-124748375D01*
X265031081Y-126018375D01*
X265611652Y-124748375D02*
X266627652Y-126018375D01*
X266627652Y-124748375D02*
X265611652Y-126018375D01*
X267861366Y-125171709D02*
X267861366Y-126018375D01*
X267498509Y-124687899D02*
X267135652Y-125595042D01*
X268079081Y-125595042D01*
X268949938Y-124748375D02*
X269095081Y-124748375D01*
X269240224Y-124808852D01*
X269312795Y-124869328D01*
X269385366Y-124990280D01*
X269457938Y-125232185D01*
X269457938Y-125534566D01*
X269385366Y-125776471D01*
X269312795Y-125897423D01*
X269240224Y-125957899D01*
X269095081Y-126018375D01*
X268949938Y-126018375D01*
X268804795Y-125957899D01*
X268732224Y-125897423D01*
X268659652Y-125776471D01*
X268587081Y-125534566D01*
X268587081Y-125232185D01*
X268659652Y-124990280D01*
X268732224Y-124869328D01*
X268804795Y-124808852D01*
X268949938Y-124748375D01*
X225915049Y-106968359D02*
X225915049Y-105698359D01*
X226423049Y-106605502D01*
X226931049Y-105698359D01*
X226931049Y-106968359D01*
X227511620Y-105698359D02*
X228527620Y-106968359D01*
X228527620Y-105698359D02*
X227511620Y-106968359D01*
X229761334Y-106121693D02*
X229761334Y-106968359D01*
X229398477Y-105637883D02*
X229035620Y-106545026D01*
X229979049Y-106545026D01*
X231212763Y-105698359D02*
X230922477Y-105698359D01*
X230777334Y-105758836D01*
X230704763Y-105819312D01*
X230559620Y-106000740D01*
X230487049Y-106242645D01*
X230487049Y-106726455D01*
X230559620Y-106847407D01*
X230632192Y-106907883D01*
X230777334Y-106968359D01*
X231067620Y-106968359D01*
X231212763Y-106907883D01*
X231285334Y-106847407D01*
X231357906Y-106726455D01*
X231357906Y-106424074D01*
X231285334Y-106303121D01*
X231212763Y-106242645D01*
X231067620Y-106182169D01*
X230777334Y-106182169D01*
X230632192Y-106242645D01*
X230559620Y-106303121D01*
X230487049Y-106424074D01*
X206865033Y-106968359D02*
X206865033Y-105698359D01*
X207373033Y-106605502D01*
X207881033Y-105698359D01*
X207881033Y-106968359D01*
X208461604Y-105698359D02*
X209477604Y-106968359D01*
X209477604Y-105698359D02*
X208461604Y-106968359D01*
X210783890Y-105698359D02*
X210058176Y-105698359D01*
X209985604Y-106303121D01*
X210058176Y-106242645D01*
X210203318Y-106182169D01*
X210566176Y-106182169D01*
X210711318Y-106242645D01*
X210783890Y-106303121D01*
X210856461Y-106424074D01*
X210856461Y-106726455D01*
X210783890Y-106847407D01*
X210711318Y-106907883D01*
X210566176Y-106968359D01*
X210203318Y-106968359D01*
X210058176Y-106907883D01*
X209985604Y-106847407D01*
X211437033Y-105819312D02*
X211509604Y-105758836D01*
X211654747Y-105698359D01*
X212017604Y-105698359D01*
X212162747Y-105758836D01*
X212235318Y-105819312D01*
X212307890Y-105940264D01*
X212307890Y-106061216D01*
X212235318Y-106242645D01*
X211364461Y-106968359D01*
X212307890Y-106968359D01*
X283065097Y-145068391D02*
X283065097Y-143798391D01*
X283573097Y-144705534D01*
X284081097Y-143798391D01*
X284081097Y-145068391D01*
X284661668Y-143798391D02*
X285677668Y-145068391D01*
X285677668Y-143798391D02*
X284661668Y-145068391D01*
X286113097Y-143798391D02*
X287056525Y-143798391D01*
X286548525Y-144282201D01*
X286766240Y-144282201D01*
X286911382Y-144342677D01*
X286983954Y-144403153D01*
X287056525Y-144524106D01*
X287056525Y-144826487D01*
X286983954Y-144947439D01*
X286911382Y-145007915D01*
X286766240Y-145068391D01*
X286330811Y-145068391D01*
X286185668Y-145007915D01*
X286113097Y-144947439D01*
X288435382Y-143798391D02*
X287709668Y-143798391D01*
X287637097Y-144403153D01*
X287709668Y-144342677D01*
X287854811Y-144282201D01*
X288217668Y-144282201D01*
X288362811Y-144342677D01*
X288435382Y-144403153D01*
X288507954Y-144524106D01*
X288507954Y-144826487D01*
X288435382Y-144947439D01*
X288362811Y-145007915D01*
X288217668Y-145068391D01*
X287854811Y-145068391D01*
X287709668Y-145007915D01*
X287637097Y-144947439D01*
X244965065Y-126018375D02*
X244965065Y-124748375D01*
X245473065Y-125655518D01*
X245981065Y-124748375D01*
X245981065Y-126018375D01*
X246561636Y-124748375D02*
X247577636Y-126018375D01*
X247577636Y-124748375D02*
X246561636Y-126018375D01*
X248811350Y-125171709D02*
X248811350Y-126018375D01*
X248448493Y-124687899D02*
X248085636Y-125595042D01*
X249029065Y-125595042D01*
X250407922Y-126018375D02*
X249537065Y-126018375D01*
X249972493Y-126018375D02*
X249972493Y-124748375D01*
X249827350Y-124929804D01*
X249682208Y-125050756D01*
X249537065Y-125111232D01*
X206865033Y-126018375D02*
X206865033Y-124748375D01*
X207373033Y-125655518D01*
X207881033Y-124748375D01*
X207881033Y-126018375D01*
X208461604Y-124748375D02*
X209477604Y-126018375D01*
X209477604Y-124748375D02*
X208461604Y-126018375D01*
X210783890Y-124748375D02*
X210058176Y-124748375D01*
X209985604Y-125353137D01*
X210058176Y-125292661D01*
X210203318Y-125232185D01*
X210566176Y-125232185D01*
X210711318Y-125292661D01*
X210783890Y-125353137D01*
X210856461Y-125474090D01*
X210856461Y-125776471D01*
X210783890Y-125897423D01*
X210711318Y-125957899D01*
X210566176Y-126018375D01*
X210203318Y-126018375D01*
X210058176Y-125957899D01*
X209985604Y-125897423D01*
X211364461Y-124748375D02*
X212307890Y-124748375D01*
X211799890Y-125232185D01*
X212017604Y-125232185D01*
X212162747Y-125292661D01*
X212235318Y-125353137D01*
X212307890Y-125474090D01*
X212307890Y-125776471D01*
X212235318Y-125897423D01*
X212162747Y-125957899D01*
X212017604Y-126018375D01*
X211582176Y-126018375D01*
X211437033Y-125957899D01*
X211364461Y-125897423D01*
X264015081Y-145068391D02*
X264015081Y-143798391D01*
X264523081Y-144705534D01*
X265031081Y-143798391D01*
X265031081Y-145068391D01*
X265611652Y-143798391D02*
X266627652Y-145068391D01*
X266627652Y-143798391D02*
X265611652Y-145068391D01*
X267063081Y-143798391D02*
X268006509Y-143798391D01*
X267498509Y-144282201D01*
X267716224Y-144282201D01*
X267861366Y-144342677D01*
X267933938Y-144403153D01*
X268006509Y-144524106D01*
X268006509Y-144826487D01*
X267933938Y-144947439D01*
X267861366Y-145007915D01*
X267716224Y-145068391D01*
X267280795Y-145068391D01*
X267135652Y-145007915D01*
X267063081Y-144947439D01*
X269312795Y-143798391D02*
X269022509Y-143798391D01*
X268877366Y-143858868D01*
X268804795Y-143919344D01*
X268659652Y-144100772D01*
X268587081Y-144342677D01*
X268587081Y-144826487D01*
X268659652Y-144947439D01*
X268732224Y-145007915D01*
X268877366Y-145068391D01*
X269167652Y-145068391D01*
X269312795Y-145007915D01*
X269385366Y-144947439D01*
X269457938Y-144826487D01*
X269457938Y-144524106D01*
X269385366Y-144403153D01*
X269312795Y-144342677D01*
X269167652Y-144282201D01*
X268877366Y-144282201D01*
X268732224Y-144342677D01*
X268659652Y-144403153D01*
X268587081Y-144524106D01*
X244965065Y-145068391D02*
X244965065Y-143798391D01*
X245473065Y-144705534D01*
X245981065Y-143798391D01*
X245981065Y-145068391D01*
X246561636Y-143798391D02*
X247577636Y-145068391D01*
X247577636Y-143798391D02*
X246561636Y-145068391D01*
X248811350Y-144221725D02*
X248811350Y-145068391D01*
X248448493Y-143737915D02*
X248085636Y-144645058D01*
X249029065Y-144645058D01*
X249537065Y-143919344D02*
X249609636Y-143858868D01*
X249754779Y-143798391D01*
X250117636Y-143798391D01*
X250262779Y-143858868D01*
X250335350Y-143919344D01*
X250407922Y-144040296D01*
X250407922Y-144161248D01*
X250335350Y-144342677D01*
X249464493Y-145068391D01*
X250407922Y-145068391D01*
X225915049Y-145068391D02*
X225915049Y-143798391D01*
X226423049Y-144705534D01*
X226931049Y-143798391D01*
X226931049Y-145068391D01*
X227511620Y-143798391D02*
X228527620Y-145068391D01*
X228527620Y-143798391D02*
X227511620Y-145068391D01*
X229761334Y-144221725D02*
X229761334Y-145068391D01*
X229398477Y-143737915D02*
X229035620Y-144645058D01*
X229979049Y-144645058D01*
X230777334Y-144342677D02*
X230632192Y-144282201D01*
X230559620Y-144221725D01*
X230487049Y-144100772D01*
X230487049Y-144040296D01*
X230559620Y-143919344D01*
X230632192Y-143858868D01*
X230777334Y-143798391D01*
X231067620Y-143798391D01*
X231212763Y-143858868D01*
X231285334Y-143919344D01*
X231357906Y-144040296D01*
X231357906Y-144100772D01*
X231285334Y-144221725D01*
X231212763Y-144282201D01*
X231067620Y-144342677D01*
X230777334Y-144342677D01*
X230632192Y-144403153D01*
X230559620Y-144463629D01*
X230487049Y-144584582D01*
X230487049Y-144826487D01*
X230559620Y-144947439D01*
X230632192Y-145007915D01*
X230777334Y-145068391D01*
X231067620Y-145068391D01*
X231212763Y-145007915D01*
X231285334Y-144947439D01*
X231357906Y-144826487D01*
X231357906Y-144584582D01*
X231285334Y-144463629D01*
X231212763Y-144403153D01*
X231067620Y-144342677D01*
X206865033Y-145068391D02*
X206865033Y-143798391D01*
X207373033Y-144705534D01*
X207881033Y-143798391D01*
X207881033Y-145068391D01*
X208461604Y-143798391D02*
X209477604Y-145068391D01*
X209477604Y-143798391D02*
X208461604Y-145068391D01*
X210783890Y-143798391D02*
X210058176Y-143798391D01*
X209985604Y-144403153D01*
X210058176Y-144342677D01*
X210203318Y-144282201D01*
X210566176Y-144282201D01*
X210711318Y-144342677D01*
X210783890Y-144403153D01*
X210856461Y-144524106D01*
X210856461Y-144826487D01*
X210783890Y-144947439D01*
X210711318Y-145007915D01*
X210566176Y-145068391D01*
X210203318Y-145068391D01*
X210058176Y-145007915D01*
X209985604Y-144947439D01*
X212162747Y-144221725D02*
X212162747Y-145068391D01*
X211799890Y-143737915D02*
X211437033Y-144645058D01*
X212380461Y-144645058D01*
X168765001Y-68868327D02*
X168765001Y-67598327D01*
X169273001Y-68505470D01*
X169781001Y-67598327D01*
X169781001Y-68868327D01*
X170361572Y-67598327D02*
X171377572Y-68868327D01*
X171377572Y-67598327D02*
X170361572Y-68868327D01*
X171885572Y-67719280D02*
X171958144Y-67658804D01*
X172103286Y-67598327D01*
X172466144Y-67598327D01*
X172611286Y-67658804D01*
X172683858Y-67719280D01*
X172756429Y-67840232D01*
X172756429Y-67961184D01*
X172683858Y-68142613D01*
X171813001Y-68868327D01*
X172756429Y-68868327D01*
X174062715Y-67598327D02*
X173772429Y-67598327D01*
X173627286Y-67658804D01*
X173554715Y-67719280D01*
X173409572Y-67900708D01*
X173337001Y-68142613D01*
X173337001Y-68626423D01*
X173409572Y-68747375D01*
X173482144Y-68807851D01*
X173627286Y-68868327D01*
X173917572Y-68868327D01*
X174062715Y-68807851D01*
X174135286Y-68747375D01*
X174207858Y-68626423D01*
X174207858Y-68324042D01*
X174135286Y-68203089D01*
X174062715Y-68142613D01*
X173917572Y-68082137D01*
X173627286Y-68082137D01*
X173482144Y-68142613D01*
X173409572Y-68203089D01*
X173337001Y-68324042D01*
X168765001Y-87918343D02*
X168765001Y-86648343D01*
X169273001Y-87555486D01*
X169781001Y-86648343D01*
X169781001Y-87918343D01*
X170361572Y-86648343D02*
X171377572Y-87918343D01*
X171377572Y-86648343D02*
X170361572Y-87918343D01*
X171885572Y-86769296D02*
X171958144Y-86708820D01*
X172103286Y-86648343D01*
X172466144Y-86648343D01*
X172611286Y-86708820D01*
X172683858Y-86769296D01*
X172756429Y-86890248D01*
X172756429Y-87011200D01*
X172683858Y-87192629D01*
X171813001Y-87918343D01*
X172756429Y-87918343D01*
X173264429Y-86648343D02*
X174280429Y-86648343D01*
X173627286Y-87918343D01*
X130664969Y-87918343D02*
X130664969Y-86648343D01*
X131172969Y-87555486D01*
X131680969Y-86648343D01*
X131680969Y-87918343D01*
X132261540Y-86648343D02*
X133277540Y-87918343D01*
X133277540Y-86648343D02*
X132261540Y-87918343D01*
X133785540Y-86769296D02*
X133858112Y-86708820D01*
X134003254Y-86648343D01*
X134366112Y-86648343D01*
X134511254Y-86708820D01*
X134583826Y-86769296D01*
X134656397Y-86890248D01*
X134656397Y-87011200D01*
X134583826Y-87192629D01*
X133712969Y-87918343D01*
X134656397Y-87918343D01*
X135599826Y-86648343D02*
X135744969Y-86648343D01*
X135890112Y-86708820D01*
X135962683Y-86769296D01*
X136035254Y-86890248D01*
X136107826Y-87132153D01*
X136107826Y-87434534D01*
X136035254Y-87676439D01*
X135962683Y-87797391D01*
X135890112Y-87857867D01*
X135744969Y-87918343D01*
X135599826Y-87918343D01*
X135454683Y-87857867D01*
X135382112Y-87797391D01*
X135309540Y-87676439D01*
X135236969Y-87434534D01*
X135236969Y-87132153D01*
X135309540Y-86890248D01*
X135382112Y-86769296D01*
X135454683Y-86708820D01*
X135599826Y-86648343D01*
X149714985Y-145068391D02*
X149714985Y-143798391D01*
X150222985Y-144705534D01*
X150730985Y-143798391D01*
X150730985Y-145068391D01*
X151311556Y-143798391D02*
X152327556Y-145068391D01*
X152327556Y-143798391D02*
X151311556Y-145068391D01*
X152835556Y-143919344D02*
X152908128Y-143858868D01*
X153053270Y-143798391D01*
X153416128Y-143798391D01*
X153561270Y-143858868D01*
X153633842Y-143919344D01*
X153706413Y-144040296D01*
X153706413Y-144161248D01*
X153633842Y-144342677D01*
X152762985Y-145068391D01*
X153706413Y-145068391D01*
X155012699Y-144221725D02*
X155012699Y-145068391D01*
X154649842Y-143737915D02*
X154286985Y-144645058D01*
X155230413Y-144645058D01*
X111614953Y-145068391D02*
X111614953Y-143798391D01*
X112122953Y-144705534D01*
X112630953Y-143798391D01*
X112630953Y-145068391D01*
X113211524Y-143798391D02*
X114227524Y-145068391D01*
X114227524Y-143798391D02*
X113211524Y-145068391D01*
X115606381Y-145068391D02*
X114735524Y-145068391D01*
X115170953Y-145068391D02*
X115170953Y-143798391D01*
X115025810Y-143979820D01*
X114880667Y-144100772D01*
X114735524Y-144161248D01*
X116186953Y-143919344D02*
X116259524Y-143858868D01*
X116404667Y-143798391D01*
X116767524Y-143798391D01*
X116912667Y-143858868D01*
X116985238Y-143919344D01*
X117057810Y-144040296D01*
X117057810Y-144161248D01*
X116985238Y-144342677D01*
X116114381Y-145068391D01*
X117057810Y-145068391D01*
X74240635Y-87918343D02*
X74240635Y-86648343D01*
X74748635Y-87555486D01*
X75256635Y-86648343D01*
X75256635Y-87918343D01*
X75837206Y-86648343D02*
X76853206Y-87918343D01*
X76853206Y-86648343D02*
X75837206Y-87918343D01*
X77361206Y-86769296D02*
X77433778Y-86708820D01*
X77578921Y-86648343D01*
X77941778Y-86648343D01*
X78086921Y-86708820D01*
X78159492Y-86769296D01*
X78232064Y-86890248D01*
X78232064Y-87011200D01*
X78159492Y-87192629D01*
X77288635Y-87918343D01*
X78232064Y-87918343D01*
X74240587Y-68868273D02*
X74240587Y-67598273D01*
X74748587Y-68505416D01*
X75256587Y-67598273D01*
X75256587Y-68868273D01*
X75837158Y-67598273D02*
X76853158Y-68868273D01*
X76853158Y-67598273D02*
X75837158Y-68868273D01*
X78232016Y-68868273D02*
X77361158Y-68868273D01*
X77796587Y-68868273D02*
X77796587Y-67598273D01*
X77651444Y-67779702D01*
X77506301Y-67900654D01*
X77361158Y-67961130D01*
X93290651Y-68868327D02*
X93290651Y-67598327D01*
X93798651Y-68505470D01*
X94306651Y-67598327D01*
X94306651Y-68868327D01*
X94887222Y-67598327D02*
X95903222Y-68868327D01*
X95903222Y-67598327D02*
X94887222Y-68868327D01*
X96338651Y-67598327D02*
X97354651Y-67598327D01*
X96701508Y-68868327D01*
X111614953Y-68868327D02*
X111614953Y-67598327D01*
X112122953Y-68505470D01*
X112630953Y-67598327D01*
X112630953Y-68868327D01*
X113211524Y-67598327D02*
X114227524Y-68868327D01*
X114227524Y-67598327D02*
X113211524Y-68868327D01*
X115606381Y-68868327D02*
X114735524Y-68868327D01*
X115170953Y-68868327D02*
X115170953Y-67598327D01*
X115025810Y-67779756D01*
X114880667Y-67900708D01*
X114735524Y-67961184D01*
X116114381Y-67598327D02*
X117057810Y-67598327D01*
X116549810Y-68082137D01*
X116767524Y-68082137D01*
X116912667Y-68142613D01*
X116985238Y-68203089D01*
X117057810Y-68324042D01*
X117057810Y-68626423D01*
X116985238Y-68747375D01*
X116912667Y-68807851D01*
X116767524Y-68868327D01*
X116332096Y-68868327D01*
X116186953Y-68807851D01*
X116114381Y-68747375D01*
X130664969Y-68868327D02*
X130664969Y-67598327D01*
X131172969Y-68505470D01*
X131680969Y-67598327D01*
X131680969Y-68868327D01*
X132261540Y-67598327D02*
X133277540Y-68868327D01*
X133277540Y-67598327D02*
X132261540Y-68868327D01*
X134656397Y-68868327D02*
X133785540Y-68868327D01*
X134220969Y-68868327D02*
X134220969Y-67598327D01*
X134075826Y-67779756D01*
X133930683Y-67900708D01*
X133785540Y-67961184D01*
X135382112Y-68868327D02*
X135672397Y-68868327D01*
X135817540Y-68807851D01*
X135890112Y-68747375D01*
X136035254Y-68565946D01*
X136107826Y-68324042D01*
X136107826Y-67840232D01*
X136035254Y-67719280D01*
X135962683Y-67658804D01*
X135817540Y-67598327D01*
X135527254Y-67598327D01*
X135382112Y-67658804D01*
X135309540Y-67719280D01*
X135236969Y-67840232D01*
X135236969Y-68142613D01*
X135309540Y-68263565D01*
X135382112Y-68324042D01*
X135527254Y-68384518D01*
X135817540Y-68384518D01*
X135962683Y-68324042D01*
X136035254Y-68263565D01*
X136107826Y-68142613D01*
X149714985Y-68868327D02*
X149714985Y-67598327D01*
X150222985Y-68505470D01*
X150730985Y-67598327D01*
X150730985Y-68868327D01*
X151311556Y-67598327D02*
X152327556Y-68868327D01*
X152327556Y-67598327D02*
X151311556Y-68868327D01*
X152835556Y-67719280D02*
X152908128Y-67658804D01*
X153053270Y-67598327D01*
X153416128Y-67598327D01*
X153561270Y-67658804D01*
X153633842Y-67719280D01*
X153706413Y-67840232D01*
X153706413Y-67961184D01*
X153633842Y-68142613D01*
X152762985Y-68868327D01*
X153706413Y-68868327D01*
X155085270Y-67598327D02*
X154359556Y-67598327D01*
X154286985Y-68203089D01*
X154359556Y-68142613D01*
X154504699Y-68082137D01*
X154867556Y-68082137D01*
X155012699Y-68142613D01*
X155085270Y-68203089D01*
X155157842Y-68324042D01*
X155157842Y-68626423D01*
X155085270Y-68747375D01*
X155012699Y-68807851D01*
X154867556Y-68868327D01*
X154504699Y-68868327D01*
X154359556Y-68807851D01*
X154286985Y-68747375D01*
X283065097Y-68868327D02*
X283065097Y-67598327D01*
X283573097Y-68505470D01*
X284081097Y-67598327D01*
X284081097Y-68868327D01*
X284661668Y-67598327D02*
X285677668Y-68868327D01*
X285677668Y-67598327D02*
X284661668Y-68868327D01*
X286113097Y-67598327D02*
X287056525Y-67598327D01*
X286548525Y-68082137D01*
X286766240Y-68082137D01*
X286911382Y-68142613D01*
X286983954Y-68203089D01*
X287056525Y-68324042D01*
X287056525Y-68626423D01*
X286983954Y-68747375D01*
X286911382Y-68807851D01*
X286766240Y-68868327D01*
X286330811Y-68868327D01*
X286185668Y-68807851D01*
X286113097Y-68747375D01*
X288507954Y-68868327D02*
X287637097Y-68868327D01*
X288072525Y-68868327D02*
X288072525Y-67598327D01*
X287927382Y-67779756D01*
X287782240Y-67900708D01*
X287637097Y-67961184D01*
X264015081Y-68868327D02*
X264015081Y-67598327D01*
X264523081Y-68505470D01*
X265031081Y-67598327D01*
X265031081Y-68868327D01*
X265611652Y-67598327D02*
X266627652Y-68868327D01*
X266627652Y-67598327D02*
X265611652Y-68868327D01*
X267063081Y-67598327D02*
X268006509Y-67598327D01*
X267498509Y-68082137D01*
X267716224Y-68082137D01*
X267861366Y-68142613D01*
X267933938Y-68203089D01*
X268006509Y-68324042D01*
X268006509Y-68626423D01*
X267933938Y-68747375D01*
X267861366Y-68807851D01*
X267716224Y-68868327D01*
X267280795Y-68868327D01*
X267135652Y-68807851D01*
X267063081Y-68747375D01*
X268514509Y-67598327D02*
X269530509Y-67598327D01*
X268877366Y-68868327D01*
X93290651Y-87918343D02*
X93290651Y-86648343D01*
X93798651Y-87555486D01*
X94306651Y-86648343D01*
X94306651Y-87918343D01*
X94887222Y-86648343D02*
X95903222Y-87918343D01*
X95903222Y-86648343D02*
X94887222Y-87918343D01*
X96701508Y-87192629D02*
X96556365Y-87132153D01*
X96483794Y-87071677D01*
X96411222Y-86950724D01*
X96411222Y-86890248D01*
X96483794Y-86769296D01*
X96556365Y-86708820D01*
X96701508Y-86648343D01*
X96991794Y-86648343D01*
X97136937Y-86708820D01*
X97209508Y-86769296D01*
X97282080Y-86890248D01*
X97282080Y-86950724D01*
X97209508Y-87071677D01*
X97136937Y-87132153D01*
X96991794Y-87192629D01*
X96701508Y-87192629D01*
X96556365Y-87253105D01*
X96483794Y-87313581D01*
X96411222Y-87434534D01*
X96411222Y-87676439D01*
X96483794Y-87797391D01*
X96556365Y-87857867D01*
X96701508Y-87918343D01*
X96991794Y-87918343D01*
X97136937Y-87857867D01*
X97209508Y-87797391D01*
X97282080Y-87676439D01*
X97282080Y-87434534D01*
X97209508Y-87313581D01*
X97136937Y-87253105D01*
X96991794Y-87192629D01*
X111614953Y-87918343D02*
X111614953Y-86648343D01*
X112122953Y-87555486D01*
X112630953Y-86648343D01*
X112630953Y-87918343D01*
X113211524Y-86648343D02*
X114227524Y-87918343D01*
X114227524Y-86648343D02*
X113211524Y-87918343D01*
X115606381Y-87918343D02*
X114735524Y-87918343D01*
X115170953Y-87918343D02*
X115170953Y-86648343D01*
X115025810Y-86829772D01*
X114880667Y-86950724D01*
X114735524Y-87011200D01*
X116912667Y-87071677D02*
X116912667Y-87918343D01*
X116549810Y-86587867D02*
X116186953Y-87495010D01*
X117130381Y-87495010D01*
X225915049Y-87918343D02*
X225915049Y-86648343D01*
X226423049Y-87555486D01*
X226931049Y-86648343D01*
X226931049Y-87918343D01*
X227511620Y-86648343D02*
X228527620Y-87918343D01*
X228527620Y-86648343D02*
X227511620Y-87918343D01*
X229833906Y-86648343D02*
X229108192Y-86648343D01*
X229035620Y-87253105D01*
X229108192Y-87192629D01*
X229253334Y-87132153D01*
X229616192Y-87132153D01*
X229761334Y-87192629D01*
X229833906Y-87253105D01*
X229906477Y-87374058D01*
X229906477Y-87676439D01*
X229833906Y-87797391D01*
X229761334Y-87857867D01*
X229616192Y-87918343D01*
X229253334Y-87918343D01*
X229108192Y-87857867D01*
X229035620Y-87797391D01*
X230849906Y-86648343D02*
X230995049Y-86648343D01*
X231140192Y-86708820D01*
X231212763Y-86769296D01*
X231285334Y-86890248D01*
X231357906Y-87132153D01*
X231357906Y-87434534D01*
X231285334Y-87676439D01*
X231212763Y-87797391D01*
X231140192Y-87857867D01*
X230995049Y-87918343D01*
X230849906Y-87918343D01*
X230704763Y-87857867D01*
X230632192Y-87797391D01*
X230559620Y-87676439D01*
X230487049Y-87434534D01*
X230487049Y-87132153D01*
X230559620Y-86890248D01*
X230632192Y-86769296D01*
X230704763Y-86708820D01*
X230849906Y-86648343D01*
X74240635Y-106968359D02*
X74240635Y-105698359D01*
X74748635Y-106605502D01*
X75256635Y-105698359D01*
X75256635Y-106968359D01*
X75837206Y-105698359D02*
X76853206Y-106968359D01*
X76853206Y-105698359D02*
X75837206Y-106968359D01*
X77288635Y-105698359D02*
X78232064Y-105698359D01*
X77724064Y-106182169D01*
X77941778Y-106182169D01*
X78086921Y-106242645D01*
X78159492Y-106303121D01*
X78232064Y-106424074D01*
X78232064Y-106726455D01*
X78159492Y-106847407D01*
X78086921Y-106907883D01*
X77941778Y-106968359D01*
X77506349Y-106968359D01*
X77361206Y-106907883D01*
X77288635Y-106847407D01*
X93290651Y-106968359D02*
X93290651Y-105698359D01*
X93798651Y-106605502D01*
X94306651Y-105698359D01*
X94306651Y-106968359D01*
X94887222Y-105698359D02*
X95903222Y-106968359D01*
X95903222Y-105698359D02*
X94887222Y-106968359D01*
X96556365Y-106968359D02*
X96846651Y-106968359D01*
X96991794Y-106907883D01*
X97064365Y-106847407D01*
X97209508Y-106665978D01*
X97282080Y-106424074D01*
X97282080Y-105940264D01*
X97209508Y-105819312D01*
X97136937Y-105758836D01*
X96991794Y-105698359D01*
X96701508Y-105698359D01*
X96556365Y-105758836D01*
X96483794Y-105819312D01*
X96411222Y-105940264D01*
X96411222Y-106242645D01*
X96483794Y-106363597D01*
X96556365Y-106424074D01*
X96701508Y-106484550D01*
X96991794Y-106484550D01*
X97136937Y-106424074D01*
X97209508Y-106363597D01*
X97282080Y-106242645D01*
X111614953Y-106968359D02*
X111614953Y-105698359D01*
X112122953Y-106605502D01*
X112630953Y-105698359D01*
X112630953Y-106968359D01*
X113211524Y-105698359D02*
X114227524Y-106968359D01*
X114227524Y-105698359D02*
X113211524Y-106968359D01*
X115606381Y-106968359D02*
X114735524Y-106968359D01*
X115170953Y-106968359D02*
X115170953Y-105698359D01*
X115025810Y-105879788D01*
X114880667Y-106000740D01*
X114735524Y-106061216D01*
X116985238Y-105698359D02*
X116259524Y-105698359D01*
X116186953Y-106303121D01*
X116259524Y-106242645D01*
X116404667Y-106182169D01*
X116767524Y-106182169D01*
X116912667Y-106242645D01*
X116985238Y-106303121D01*
X117057810Y-106424074D01*
X117057810Y-106726455D01*
X116985238Y-106847407D01*
X116912667Y-106907883D01*
X116767524Y-106968359D01*
X116404667Y-106968359D01*
X116259524Y-106907883D01*
X116186953Y-106847407D01*
X149714985Y-87918343D02*
X149714985Y-86648343D01*
X150222985Y-87555486D01*
X150730985Y-86648343D01*
X150730985Y-87918343D01*
X151311556Y-86648343D02*
X152327556Y-87918343D01*
X152327556Y-86648343D02*
X151311556Y-87918343D01*
X152835556Y-86769296D02*
X152908128Y-86708820D01*
X153053270Y-86648343D01*
X153416128Y-86648343D01*
X153561270Y-86708820D01*
X153633842Y-86769296D01*
X153706413Y-86890248D01*
X153706413Y-87011200D01*
X153633842Y-87192629D01*
X152762985Y-87918343D01*
X153706413Y-87918343D01*
X155157842Y-87918343D02*
X154286985Y-87918343D01*
X154722413Y-87918343D02*
X154722413Y-86648343D01*
X154577270Y-86829772D01*
X154432128Y-86950724D01*
X154286985Y-87011200D01*
X206865033Y-87918343D02*
X206865033Y-86648343D01*
X207373033Y-87555486D01*
X207881033Y-86648343D01*
X207881033Y-87918343D01*
X208461604Y-86648343D02*
X209477604Y-87918343D01*
X209477604Y-86648343D02*
X208461604Y-87918343D01*
X210783890Y-86648343D02*
X210058176Y-86648343D01*
X209985604Y-87253105D01*
X210058176Y-87192629D01*
X210203318Y-87132153D01*
X210566176Y-87132153D01*
X210711318Y-87192629D01*
X210783890Y-87253105D01*
X210856461Y-87374058D01*
X210856461Y-87676439D01*
X210783890Y-87797391D01*
X210711318Y-87857867D01*
X210566176Y-87918343D01*
X210203318Y-87918343D01*
X210058176Y-87857867D01*
X209985604Y-87797391D01*
X212307890Y-87918343D02*
X211437033Y-87918343D01*
X211872461Y-87918343D02*
X211872461Y-86648343D01*
X211727318Y-86829772D01*
X211582176Y-86950724D01*
X211437033Y-87011200D01*
X74240635Y-126018375D02*
X74240635Y-124748375D01*
X74748635Y-125655518D01*
X75256635Y-124748375D01*
X75256635Y-126018375D01*
X75837206Y-124748375D02*
X76853206Y-126018375D01*
X76853206Y-124748375D02*
X75837206Y-126018375D01*
X78086921Y-125171709D02*
X78086921Y-126018375D01*
X77724064Y-124687899D02*
X77361206Y-125595042D01*
X78304635Y-125595042D01*
X92564937Y-126018375D02*
X92564937Y-124748375D01*
X93072937Y-125655518D01*
X93580937Y-124748375D01*
X93580937Y-126018375D01*
X94161508Y-124748375D02*
X95177508Y-126018375D01*
X95177508Y-124748375D02*
X94161508Y-126018375D01*
X96556365Y-126018375D02*
X95685508Y-126018375D01*
X96120937Y-126018375D02*
X96120937Y-124748375D01*
X95975794Y-124929804D01*
X95830651Y-125050756D01*
X95685508Y-125111232D01*
X97499794Y-124748375D02*
X97644937Y-124748375D01*
X97790080Y-124808852D01*
X97862651Y-124869328D01*
X97935222Y-124990280D01*
X98007794Y-125232185D01*
X98007794Y-125534566D01*
X97935222Y-125776471D01*
X97862651Y-125897423D01*
X97790080Y-125957899D01*
X97644937Y-126018375D01*
X97499794Y-126018375D01*
X97354651Y-125957899D01*
X97282080Y-125897423D01*
X97209508Y-125776471D01*
X97136937Y-125534566D01*
X97136937Y-125232185D01*
X97209508Y-124990280D01*
X97282080Y-124869328D01*
X97354651Y-124808852D01*
X97499794Y-124748375D01*
X130664969Y-106968359D02*
X130664969Y-105698359D01*
X131172969Y-106605502D01*
X131680969Y-105698359D01*
X131680969Y-106968359D01*
X132261540Y-105698359D02*
X133277540Y-106968359D01*
X133277540Y-105698359D02*
X132261540Y-106968359D01*
X134656397Y-106968359D02*
X133785540Y-106968359D01*
X134220969Y-106968359D02*
X134220969Y-105698359D01*
X134075826Y-105879788D01*
X133930683Y-106000740D01*
X133785540Y-106061216D01*
X135962683Y-105698359D02*
X135672397Y-105698359D01*
X135527254Y-105758836D01*
X135454683Y-105819312D01*
X135309540Y-106000740D01*
X135236969Y-106242645D01*
X135236969Y-106726455D01*
X135309540Y-106847407D01*
X135382112Y-106907883D01*
X135527254Y-106968359D01*
X135817540Y-106968359D01*
X135962683Y-106907883D01*
X136035254Y-106847407D01*
X136107826Y-106726455D01*
X136107826Y-106424074D01*
X136035254Y-106303121D01*
X135962683Y-106242645D01*
X135817540Y-106182169D01*
X135527254Y-106182169D01*
X135382112Y-106242645D01*
X135309540Y-106303121D01*
X135236969Y-106424074D01*
X149714985Y-106968359D02*
X149714985Y-105698359D01*
X150222985Y-106605502D01*
X150730985Y-105698359D01*
X150730985Y-106968359D01*
X151311556Y-105698359D02*
X152327556Y-106968359D01*
X152327556Y-105698359D02*
X151311556Y-106968359D01*
X152835556Y-105819312D02*
X152908128Y-105758836D01*
X153053270Y-105698359D01*
X153416128Y-105698359D01*
X153561270Y-105758836D01*
X153633842Y-105819312D01*
X153706413Y-105940264D01*
X153706413Y-106061216D01*
X153633842Y-106242645D01*
X152762985Y-106968359D01*
X153706413Y-106968359D01*
X154286985Y-105819312D02*
X154359556Y-105758836D01*
X154504699Y-105698359D01*
X154867556Y-105698359D01*
X155012699Y-105758836D01*
X155085270Y-105819312D01*
X155157842Y-105940264D01*
X155157842Y-106061216D01*
X155085270Y-106242645D01*
X154214413Y-106968359D01*
X155157842Y-106968359D01*
X74240635Y-145068391D02*
X74240635Y-143798391D01*
X74748635Y-144705534D01*
X75256635Y-143798391D01*
X75256635Y-145068391D01*
X75837206Y-143798391D02*
X76853206Y-145068391D01*
X76853206Y-143798391D02*
X75837206Y-145068391D01*
X78159492Y-143798391D02*
X77433778Y-143798391D01*
X77361206Y-144403153D01*
X77433778Y-144342677D01*
X77578921Y-144282201D01*
X77941778Y-144282201D01*
X78086921Y-144342677D01*
X78159492Y-144403153D01*
X78232064Y-144524106D01*
X78232064Y-144826487D01*
X78159492Y-144947439D01*
X78086921Y-145007915D01*
X77941778Y-145068391D01*
X77578921Y-145068391D01*
X77433778Y-145007915D01*
X77361206Y-144947439D01*
X111614953Y-126018375D02*
X111614953Y-124748375D01*
X112122953Y-125655518D01*
X112630953Y-124748375D01*
X112630953Y-126018375D01*
X113211524Y-124748375D02*
X114227524Y-126018375D01*
X114227524Y-124748375D02*
X113211524Y-126018375D01*
X115606381Y-126018375D02*
X114735524Y-126018375D01*
X115170953Y-126018375D02*
X115170953Y-124748375D01*
X115025810Y-124929804D01*
X114880667Y-125050756D01*
X114735524Y-125111232D01*
X117057810Y-126018375D02*
X116186953Y-126018375D01*
X116622381Y-126018375D02*
X116622381Y-124748375D01*
X116477238Y-124929804D01*
X116332096Y-125050756D01*
X116186953Y-125111232D01*
X130664969Y-126018375D02*
X130664969Y-124748375D01*
X131172969Y-125655518D01*
X131680969Y-124748375D01*
X131680969Y-126018375D01*
X132261540Y-124748375D02*
X133277540Y-126018375D01*
X133277540Y-124748375D02*
X132261540Y-126018375D01*
X134656397Y-126018375D02*
X133785540Y-126018375D01*
X134220969Y-126018375D02*
X134220969Y-124748375D01*
X134075826Y-124929804D01*
X133930683Y-125050756D01*
X133785540Y-125111232D01*
X135164397Y-124748375D02*
X136180397Y-124748375D01*
X135527254Y-126018375D01*
X149714985Y-126018375D02*
X149714985Y-124748375D01*
X150222985Y-125655518D01*
X150730985Y-124748375D01*
X150730985Y-126018375D01*
X151311556Y-124748375D02*
X152327556Y-126018375D01*
X152327556Y-124748375D02*
X151311556Y-126018375D01*
X152835556Y-124869328D02*
X152908128Y-124808852D01*
X153053270Y-124748375D01*
X153416128Y-124748375D01*
X153561270Y-124808852D01*
X153633842Y-124869328D01*
X153706413Y-124990280D01*
X153706413Y-125111232D01*
X153633842Y-125292661D01*
X152762985Y-126018375D01*
X153706413Y-126018375D01*
X154214413Y-124748375D02*
X155157842Y-124748375D01*
X154649842Y-125232185D01*
X154867556Y-125232185D01*
X155012699Y-125292661D01*
X155085270Y-125353137D01*
X155157842Y-125474090D01*
X155157842Y-125776471D01*
X155085270Y-125897423D01*
X155012699Y-125957899D01*
X154867556Y-126018375D01*
X154432128Y-126018375D01*
X154286985Y-125957899D01*
X154214413Y-125897423D01*
X93290651Y-145068391D02*
X93290651Y-143798391D01*
X93798651Y-144705534D01*
X94306651Y-143798391D01*
X94306651Y-145068391D01*
X94887222Y-143798391D02*
X95903222Y-145068391D01*
X95903222Y-143798391D02*
X94887222Y-145068391D01*
X97136937Y-143798391D02*
X96846651Y-143798391D01*
X96701508Y-143858868D01*
X96628937Y-143919344D01*
X96483794Y-144100772D01*
X96411222Y-144342677D01*
X96411222Y-144826487D01*
X96483794Y-144947439D01*
X96556365Y-145007915D01*
X96701508Y-145068391D01*
X96991794Y-145068391D01*
X97136937Y-145007915D01*
X97209508Y-144947439D01*
X97282080Y-144826487D01*
X97282080Y-144524106D01*
X97209508Y-144403153D01*
X97136937Y-144342677D01*
X96991794Y-144282201D01*
X96701508Y-144282201D01*
X96556365Y-144342677D01*
X96483794Y-144403153D01*
X96411222Y-144524106D01*
X130664969Y-145068391D02*
X130664969Y-143798391D01*
X131172969Y-144705534D01*
X131680969Y-143798391D01*
X131680969Y-145068391D01*
X132261540Y-143798391D02*
X133277540Y-145068391D01*
X133277540Y-143798391D02*
X132261540Y-145068391D01*
X134656397Y-145068391D02*
X133785540Y-145068391D01*
X134220969Y-145068391D02*
X134220969Y-143798391D01*
X134075826Y-143979820D01*
X133930683Y-144100772D01*
X133785540Y-144161248D01*
X135527254Y-144342677D02*
X135382112Y-144282201D01*
X135309540Y-144221725D01*
X135236969Y-144100772D01*
X135236969Y-144040296D01*
X135309540Y-143919344D01*
X135382112Y-143858868D01*
X135527254Y-143798391D01*
X135817540Y-143798391D01*
X135962683Y-143858868D01*
X136035254Y-143919344D01*
X136107826Y-144040296D01*
X136107826Y-144100772D01*
X136035254Y-144221725D01*
X135962683Y-144282201D01*
X135817540Y-144342677D01*
X135527254Y-144342677D01*
X135382112Y-144403153D01*
X135309540Y-144463629D01*
X135236969Y-144584582D01*
X135236969Y-144826487D01*
X135309540Y-144947439D01*
X135382112Y-145007915D01*
X135527254Y-145068391D01*
X135817540Y-145068391D01*
X135962683Y-145007915D01*
X136035254Y-144947439D01*
X136107826Y-144826487D01*
X136107826Y-144584582D01*
X136035254Y-144463629D01*
X135962683Y-144403153D01*
X135817540Y-144342677D01*
D11*
X34575922Y-81129234D02*
X34623541Y-81176853D01*
X34671160Y-81319710D01*
X34671160Y-81414948D01*
X34623541Y-81557806D01*
X34528303Y-81653044D01*
X34433065Y-81700663D01*
X34242589Y-81748282D01*
X34099732Y-81748282D01*
X33909256Y-81700663D01*
X33814018Y-81653044D01*
X33718780Y-81557806D01*
X33671160Y-81414948D01*
X33671160Y-81319710D01*
X33718780Y-81176853D01*
X33766399Y-81129234D01*
X33671160Y-80795901D02*
X33671160Y-80176853D01*
X34052113Y-80510187D01*
X34052113Y-80367329D01*
X34099732Y-80272091D01*
X34147351Y-80224472D01*
X34242589Y-80176853D01*
X34480684Y-80176853D01*
X34575922Y-80224472D01*
X34623541Y-80272091D01*
X34671160Y-80367329D01*
X34671160Y-80653044D01*
X34623541Y-80748282D01*
X34575922Y-80795901D01*
X36075922Y-129349587D02*
X36123541Y-129397206D01*
X36171160Y-129540063D01*
X36171160Y-129635301D01*
X36123541Y-129778159D01*
X36028303Y-129873397D01*
X35933065Y-129921016D01*
X35742589Y-129968635D01*
X35599732Y-129968635D01*
X35409256Y-129921016D01*
X35314018Y-129873397D01*
X35218780Y-129778159D01*
X35171160Y-129635301D01*
X35171160Y-129540063D01*
X35218780Y-129397206D01*
X35266399Y-129349587D01*
X35504494Y-128492444D02*
X36171160Y-128492444D01*
X35123541Y-128730540D02*
X35837827Y-128968635D01*
X35837827Y-128349587D01*
X29942289Y-129544825D02*
X29485147Y-129544825D01*
X29713718Y-129544825D02*
X29713718Y-128744825D01*
X29637528Y-128859111D01*
X29561337Y-128935301D01*
X29485147Y-128973397D01*
X30437528Y-128744825D02*
X30513718Y-128744825D01*
X30589908Y-128782921D01*
X30628004Y-128821016D01*
X30666099Y-128897206D01*
X30704194Y-129049587D01*
X30704194Y-129240063D01*
X30666099Y-129392444D01*
X30628004Y-129468635D01*
X30589908Y-129506730D01*
X30513718Y-129544825D01*
X30437528Y-129544825D01*
X30361337Y-129506730D01*
X30323242Y-129468635D01*
X30285147Y-129392444D01*
X30247051Y-129240063D01*
X30247051Y-129049587D01*
X30285147Y-128897206D01*
X30323242Y-128821016D01*
X30361337Y-128782921D01*
X30437528Y-128744825D01*
X31199432Y-128744825D02*
X31275623Y-128744825D01*
X31351813Y-128782921D01*
X31389908Y-128821016D01*
X31428004Y-128897206D01*
X31466099Y-129049587D01*
X31466099Y-129240063D01*
X31428004Y-129392444D01*
X31389908Y-129468635D01*
X31351813Y-129506730D01*
X31275623Y-129544825D01*
X31199432Y-129544825D01*
X31123242Y-129506730D01*
X31085147Y-129468635D01*
X31047051Y-129392444D01*
X31008956Y-129240063D01*
X31008956Y-129049587D01*
X31047051Y-128897206D01*
X31085147Y-128821016D01*
X31123242Y-128782921D01*
X31199432Y-128744825D01*
X31808956Y-129011492D02*
X31808956Y-129544825D01*
X31808956Y-129087682D02*
X31847051Y-129049587D01*
X31923242Y-129011492D01*
X32037528Y-129011492D01*
X32113718Y-129049587D01*
X32151813Y-129125778D01*
X32151813Y-129544825D01*
X36075922Y-132326152D02*
X36123541Y-132373771D01*
X36171160Y-132516628D01*
X36171160Y-132611866D01*
X36123541Y-132754724D01*
X36028303Y-132849962D01*
X35933065Y-132897581D01*
X35742589Y-132945200D01*
X35599732Y-132945200D01*
X35409256Y-132897581D01*
X35314018Y-132849962D01*
X35218780Y-132754724D01*
X35171160Y-132611866D01*
X35171160Y-132516628D01*
X35218780Y-132373771D01*
X35266399Y-132326152D01*
X35171160Y-131421390D02*
X35171160Y-131897581D01*
X35647351Y-131945200D01*
X35599732Y-131897581D01*
X35552113Y-131802343D01*
X35552113Y-131564247D01*
X35599732Y-131469009D01*
X35647351Y-131421390D01*
X35742589Y-131373771D01*
X35980684Y-131373771D01*
X36075922Y-131421390D01*
X36123541Y-131469009D01*
X36171160Y-131564247D01*
X36171160Y-131802343D01*
X36123541Y-131897581D01*
X36075922Y-131945200D01*
X30061037Y-132521390D02*
X29603895Y-132521390D01*
X29832466Y-132521390D02*
X29832466Y-131721390D01*
X29756276Y-131835676D01*
X29680085Y-131911866D01*
X29603895Y-131949962D01*
X30556276Y-131721390D02*
X30632466Y-131721390D01*
X30708656Y-131759486D01*
X30746752Y-131797581D01*
X30784847Y-131873771D01*
X30822942Y-132026152D01*
X30822942Y-132216628D01*
X30784847Y-132369009D01*
X30746752Y-132445200D01*
X30708656Y-132483295D01*
X30632466Y-132521390D01*
X30556276Y-132521390D01*
X30480085Y-132483295D01*
X30441990Y-132445200D01*
X30403895Y-132369009D01*
X30365799Y-132216628D01*
X30365799Y-132026152D01*
X30403895Y-131873771D01*
X30441990Y-131797581D01*
X30480085Y-131759486D01*
X30556276Y-131721390D01*
X31318180Y-131721390D02*
X31394371Y-131721390D01*
X31470561Y-131759486D01*
X31508656Y-131797581D01*
X31546752Y-131873771D01*
X31584847Y-132026152D01*
X31584847Y-132216628D01*
X31546752Y-132369009D01*
X31508656Y-132445200D01*
X31470561Y-132483295D01*
X31394371Y-132521390D01*
X31318180Y-132521390D01*
X31241990Y-132483295D01*
X31203895Y-132445200D01*
X31165799Y-132369009D01*
X31127704Y-132216628D01*
X31127704Y-132026152D01*
X31165799Y-131873771D01*
X31203895Y-131797581D01*
X31241990Y-131759486D01*
X31318180Y-131721390D01*
X31927704Y-131988057D02*
X31927704Y-132521390D01*
X31927704Y-132064247D02*
X31965799Y-132026152D01*
X32041990Y-131988057D01*
X32156276Y-131988057D01*
X32232466Y-132026152D01*
X32270561Y-132102343D01*
X32270561Y-132521390D01*
X12858715Y-103810502D02*
X12906334Y-103858121D01*
X12953953Y-104000978D01*
X12953953Y-104096216D01*
X12906334Y-104239074D01*
X12811096Y-104334312D01*
X12715858Y-104381931D01*
X12525382Y-104429550D01*
X12382525Y-104429550D01*
X12192049Y-104381931D01*
X12096811Y-104334312D01*
X12001573Y-104239074D01*
X11953953Y-104096216D01*
X11953953Y-104000978D01*
X12001573Y-103858121D01*
X12049192Y-103810502D01*
X12953953Y-102858121D02*
X12953953Y-103429550D01*
X12953953Y-103143836D02*
X11953953Y-103143836D01*
X12096811Y-103239074D01*
X12192049Y-103334312D01*
X12239668Y-103429550D01*
X12858715Y-98452685D02*
X12906334Y-98500304D01*
X12953953Y-98643161D01*
X12953953Y-98738399D01*
X12906334Y-98881257D01*
X12811096Y-98976495D01*
X12715858Y-99024114D01*
X12525382Y-99071733D01*
X12382525Y-99071733D01*
X12192049Y-99024114D01*
X12096811Y-98976495D01*
X12001573Y-98881257D01*
X11953953Y-98738399D01*
X11953953Y-98643161D01*
X12001573Y-98500304D01*
X12049192Y-98452685D01*
X12049192Y-98071733D02*
X12001573Y-98024114D01*
X11953953Y-97928876D01*
X11953953Y-97690780D01*
X12001573Y-97595542D01*
X12049192Y-97547923D01*
X12144430Y-97500304D01*
X12239668Y-97500304D01*
X12382525Y-97547923D01*
X12953953Y-98119352D01*
X12953953Y-97500304D01*
X11953953Y-78926768D02*
X12668239Y-78926768D01*
X12811096Y-78974387D01*
X12906334Y-79069625D01*
X12953953Y-79212482D01*
X12953953Y-79307720D01*
X12049192Y-78498196D02*
X12001573Y-78450577D01*
X11953953Y-78355339D01*
X11953953Y-78117244D01*
X12001573Y-78022006D01*
X12049192Y-77974387D01*
X12144430Y-77926768D01*
X12239668Y-77926768D01*
X12382525Y-77974387D01*
X12953953Y-78545815D01*
X12953953Y-77926768D01*
X51705061Y-57007115D02*
X51228870Y-57007115D01*
X51228870Y-56007115D01*
X52038394Y-56483306D02*
X52371728Y-56483306D01*
X52514585Y-57007115D02*
X52038394Y-57007115D01*
X52038394Y-56007115D01*
X52514585Y-56007115D01*
X52943156Y-57007115D02*
X52943156Y-56007115D01*
X53181251Y-56007115D01*
X53324109Y-56054735D01*
X53419347Y-56149973D01*
X53466966Y-56245211D01*
X53514585Y-56435687D01*
X53514585Y-56578544D01*
X53466966Y-56769020D01*
X53419347Y-56864258D01*
X53324109Y-56959496D01*
X53181251Y-57007115D01*
X52943156Y-57007115D01*
X53895537Y-56102354D02*
X53943156Y-56054735D01*
X54038394Y-56007115D01*
X54276489Y-56007115D01*
X54371728Y-56054735D01*
X54419347Y-56102354D01*
X54466966Y-56197592D01*
X54466966Y-56292830D01*
X54419347Y-56435687D01*
X53847918Y-57007115D01*
X54466966Y-57007115D01*
X21883648Y-124587083D02*
X21407458Y-124920417D01*
X21883648Y-125158512D02*
X20883648Y-125158512D01*
X20883648Y-124777559D01*
X20931268Y-124682321D01*
X20978887Y-124634702D01*
X21074125Y-124587083D01*
X21216982Y-124587083D01*
X21312220Y-124634702D01*
X21359839Y-124682321D01*
X21407458Y-124777559D01*
X21407458Y-125158512D01*
X21883648Y-123634702D02*
X21883648Y-124206131D01*
X21883648Y-123920417D02*
X20883648Y-123920417D01*
X21026506Y-124015655D01*
X21121744Y-124110893D01*
X21169363Y-124206131D01*
X16438662Y-124782321D02*
X15981519Y-124782321D01*
X16210090Y-124782321D02*
X16210090Y-123982321D01*
X16133900Y-124096607D01*
X16057709Y-124172797D01*
X15981519Y-124210893D01*
X16781519Y-124706131D02*
X16819614Y-124744226D01*
X16781519Y-124782321D01*
X16743424Y-124744226D01*
X16781519Y-124706131D01*
X16781519Y-124782321D01*
X17543424Y-123982321D02*
X17162471Y-123982321D01*
X17124376Y-124363274D01*
X17162471Y-124325178D01*
X17238662Y-124287083D01*
X17429138Y-124287083D01*
X17505329Y-124325178D01*
X17543424Y-124363274D01*
X17581519Y-124439464D01*
X17581519Y-124629940D01*
X17543424Y-124706131D01*
X17505329Y-124744226D01*
X17429138Y-124782321D01*
X17238662Y-124782321D01*
X17162471Y-124744226D01*
X17124376Y-124706131D01*
X17924376Y-124782321D02*
X17924376Y-123982321D01*
X18000567Y-124477559D02*
X18229138Y-124782321D01*
X18229138Y-124248988D02*
X17924376Y-124553750D01*
X21883648Y-122205831D02*
X21407458Y-122539165D01*
X21883648Y-122777260D02*
X20883648Y-122777260D01*
X20883648Y-122396307D01*
X20931268Y-122301069D01*
X20978887Y-122253450D01*
X21074125Y-122205831D01*
X21216982Y-122205831D01*
X21312220Y-122253450D01*
X21359839Y-122301069D01*
X21407458Y-122396307D01*
X21407458Y-122777260D01*
X20978887Y-121824879D02*
X20931268Y-121777260D01*
X20883648Y-121682022D01*
X20883648Y-121443926D01*
X20931268Y-121348688D01*
X20978887Y-121301069D01*
X21074125Y-121253450D01*
X21169363Y-121253450D01*
X21312220Y-121301069D01*
X21883648Y-121872498D01*
X21883648Y-121253450D01*
X16057709Y-121601069D02*
X16591043Y-121601069D01*
X16248186Y-122401069D01*
X17276757Y-121601069D02*
X16895805Y-121601069D01*
X16857709Y-121982022D01*
X16895805Y-121943926D01*
X16971995Y-121905831D01*
X17162471Y-121905831D01*
X17238662Y-121943926D01*
X17276757Y-121982022D01*
X17314852Y-122058212D01*
X17314852Y-122248688D01*
X17276757Y-122324879D01*
X17238662Y-122362974D01*
X17162471Y-122401069D01*
X16971995Y-122401069D01*
X16895805Y-122362974D01*
X16857709Y-122324879D01*
X18114852Y-122401069D02*
X17848186Y-122020117D01*
X17657709Y-122401069D02*
X17657709Y-121601069D01*
X17962471Y-121601069D01*
X18038662Y-121639165D01*
X18076757Y-121677260D01*
X18114852Y-121753450D01*
X18114852Y-121867736D01*
X18076757Y-121943926D01*
X18038662Y-121982022D01*
X17962471Y-122020117D01*
X17657709Y-122020117D01*
X21883648Y-119824579D02*
X21407458Y-120157913D01*
X21883648Y-120396008D02*
X20883648Y-120396008D01*
X20883648Y-120015055D01*
X20931268Y-119919817D01*
X20978887Y-119872198D01*
X21074125Y-119824579D01*
X21216982Y-119824579D01*
X21312220Y-119872198D01*
X21359839Y-119919817D01*
X21407458Y-120015055D01*
X21407458Y-120396008D01*
X20883648Y-119491246D02*
X20883648Y-118872198D01*
X21264601Y-119205532D01*
X21264601Y-119062674D01*
X21312220Y-118967436D01*
X21359839Y-118919817D01*
X21455077Y-118872198D01*
X21693172Y-118872198D01*
X21788410Y-118919817D01*
X21836029Y-118967436D01*
X21883648Y-119062674D01*
X21883648Y-119348389D01*
X21836029Y-119443627D01*
X21788410Y-119491246D01*
X16057709Y-119219817D02*
X16591043Y-119219817D01*
X16248186Y-120019817D01*
X17276757Y-119219817D02*
X16895805Y-119219817D01*
X16857709Y-119600770D01*
X16895805Y-119562674D01*
X16971995Y-119524579D01*
X17162471Y-119524579D01*
X17238662Y-119562674D01*
X17276757Y-119600770D01*
X17314852Y-119676960D01*
X17314852Y-119867436D01*
X17276757Y-119943627D01*
X17238662Y-119981722D01*
X17162471Y-120019817D01*
X16971995Y-120019817D01*
X16895805Y-119981722D01*
X16857709Y-119943627D01*
X18114852Y-120019817D02*
X17848186Y-119638865D01*
X17657709Y-120019817D02*
X17657709Y-119219817D01*
X17962471Y-119219817D01*
X18038662Y-119257913D01*
X18076757Y-119296008D01*
X18114852Y-119372198D01*
X18114852Y-119486484D01*
X18076757Y-119562674D01*
X18038662Y-119600770D01*
X17962471Y-119638865D01*
X17657709Y-119638865D01*
X21883648Y-117443327D02*
X21407458Y-117776661D01*
X21883648Y-118014756D02*
X20883648Y-118014756D01*
X20883648Y-117633803D01*
X20931268Y-117538565D01*
X20978887Y-117490946D01*
X21074125Y-117443327D01*
X21216982Y-117443327D01*
X21312220Y-117490946D01*
X21359839Y-117538565D01*
X21407458Y-117633803D01*
X21407458Y-118014756D01*
X21216982Y-116586184D02*
X21883648Y-116586184D01*
X20836029Y-116824280D02*
X21550315Y-117062375D01*
X21550315Y-116443327D01*
X16787886Y-117638565D02*
X16330743Y-117638565D01*
X16559315Y-117638565D02*
X16559315Y-116838565D01*
X16483124Y-116952851D01*
X16406934Y-117029041D01*
X16330743Y-117067137D01*
X17283124Y-116838565D02*
X17359315Y-116838565D01*
X17435505Y-116876661D01*
X17473600Y-116914756D01*
X17511696Y-116990946D01*
X17549791Y-117143327D01*
X17549791Y-117333803D01*
X17511696Y-117486184D01*
X17473600Y-117562375D01*
X17435505Y-117600470D01*
X17359315Y-117638565D01*
X17283124Y-117638565D01*
X17206934Y-117600470D01*
X17168838Y-117562375D01*
X17130743Y-117486184D01*
X17092648Y-117333803D01*
X17092648Y-117143327D01*
X17130743Y-116990946D01*
X17168838Y-116914756D01*
X17206934Y-116876661D01*
X17283124Y-116838565D01*
X17892648Y-117638565D02*
X17892648Y-116838565D01*
X17968838Y-117333803D02*
X18197410Y-117638565D01*
X18197410Y-117105232D02*
X17892648Y-117409994D01*
X34980534Y-60888592D02*
X34504344Y-61221926D01*
X34980534Y-61460021D02*
X33980534Y-61460021D01*
X33980534Y-61079068D01*
X34028154Y-60983830D01*
X34075773Y-60936211D01*
X34171011Y-60888592D01*
X34313868Y-60888592D01*
X34409106Y-60936211D01*
X34456725Y-60983830D01*
X34504344Y-61079068D01*
X34504344Y-61460021D01*
X34409106Y-60317164D02*
X34361487Y-60412402D01*
X34313868Y-60460021D01*
X34218630Y-60507640D01*
X34171011Y-60507640D01*
X34075773Y-60460021D01*
X34028154Y-60412402D01*
X33980534Y-60317164D01*
X33980534Y-60126687D01*
X34028154Y-60031449D01*
X34075773Y-59983830D01*
X34171011Y-59936211D01*
X34218630Y-59936211D01*
X34313868Y-59983830D01*
X34361487Y-60031449D01*
X34409106Y-60126687D01*
X34409106Y-60317164D01*
X34456725Y-60412402D01*
X34504344Y-60460021D01*
X34599582Y-60507640D01*
X34790058Y-60507640D01*
X34885296Y-60460021D01*
X34932915Y-60412402D01*
X34980534Y-60317164D01*
X34980534Y-60126687D01*
X34932915Y-60031449D01*
X34885296Y-59983830D01*
X34790058Y-59936211D01*
X34599582Y-59936211D01*
X34504344Y-59983830D01*
X34456725Y-60031449D01*
X34409106Y-60126687D01*
X38187426Y-61083830D02*
X37730283Y-61083830D01*
X37958854Y-61083830D02*
X37958854Y-60283830D01*
X37882664Y-60398116D01*
X37806473Y-60474306D01*
X37730283Y-60512402D01*
X38530283Y-61007640D02*
X38568378Y-61045735D01*
X38530283Y-61083830D01*
X38492188Y-61045735D01*
X38530283Y-61007640D01*
X38530283Y-61083830D01*
X39292188Y-60283830D02*
X38911235Y-60283830D01*
X38873140Y-60664783D01*
X38911235Y-60626687D01*
X38987426Y-60588592D01*
X39177902Y-60588592D01*
X39254093Y-60626687D01*
X39292188Y-60664783D01*
X39330283Y-60740973D01*
X39330283Y-60931449D01*
X39292188Y-61007640D01*
X39254093Y-61045735D01*
X39177902Y-61083830D01*
X38987426Y-61083830D01*
X38911235Y-61045735D01*
X38873140Y-61007640D01*
X39673140Y-61083830D02*
X39673140Y-60283830D01*
X39749331Y-60779068D02*
X39977902Y-61083830D01*
X39977902Y-60550497D02*
X39673140Y-60855259D01*
X13287586Y-70711519D02*
X13335205Y-70568662D01*
X13335205Y-70330566D01*
X13287586Y-70235328D01*
X13239967Y-70187709D01*
X13144729Y-70140090D01*
X13049491Y-70140090D01*
X12954253Y-70187709D01*
X12906634Y-70235328D01*
X12859015Y-70330566D01*
X12811396Y-70521043D01*
X12763777Y-70616281D01*
X12716158Y-70663900D01*
X12620920Y-70711519D01*
X12525682Y-70711519D01*
X12430444Y-70663900D01*
X12382825Y-70616281D01*
X12335205Y-70521043D01*
X12335205Y-70282947D01*
X12382825Y-70140090D01*
X12335205Y-69806757D02*
X13335205Y-69568662D01*
X12620920Y-69378186D01*
X13335205Y-69187709D01*
X12335205Y-68949614D01*
X13335205Y-68044852D02*
X13335205Y-68616281D01*
X13335205Y-68330566D02*
X12335205Y-68330566D01*
X12478063Y-68425805D01*
X12573301Y-68521043D01*
X12620920Y-68616281D01*
X21883648Y-71104001D02*
X21407458Y-71437335D01*
X21883648Y-71675430D02*
X20883648Y-71675430D01*
X20883648Y-71294478D01*
X20931268Y-71199240D01*
X20978887Y-71151621D01*
X21074125Y-71104001D01*
X21216982Y-71104001D01*
X21312220Y-71151621D01*
X21359839Y-71199240D01*
X21407458Y-71294478D01*
X21407458Y-71675430D01*
X21359839Y-70675430D02*
X21359839Y-70342097D01*
X21883648Y-70199240D02*
X21883648Y-70675430D01*
X20883648Y-70675430D01*
X20883648Y-70199240D01*
X21836029Y-69818287D02*
X21883648Y-69675430D01*
X21883648Y-69437335D01*
X21836029Y-69342097D01*
X21788410Y-69294478D01*
X21693172Y-69246859D01*
X21597934Y-69246859D01*
X21502696Y-69294478D01*
X21455077Y-69342097D01*
X21407458Y-69437335D01*
X21359839Y-69627811D01*
X21312220Y-69723049D01*
X21264601Y-69770668D01*
X21169363Y-69818287D01*
X21074125Y-69818287D01*
X20978887Y-69770668D01*
X20931268Y-69723049D01*
X20883648Y-69627811D01*
X20883648Y-69389716D01*
X20931268Y-69246859D01*
X21359839Y-68818287D02*
X21359839Y-68484954D01*
X21883648Y-68342097D02*
X21883648Y-68818287D01*
X20883648Y-68818287D01*
X20883648Y-68342097D01*
X20883648Y-68056382D02*
X20883648Y-67484954D01*
X21883648Y-67770668D02*
X20883648Y-67770668D01*
X13287586Y-89166222D02*
X13335205Y-89023365D01*
X13335205Y-88785269D01*
X13287586Y-88690031D01*
X13239967Y-88642412D01*
X13144729Y-88594793D01*
X13049491Y-88594793D01*
X12954253Y-88642412D01*
X12906634Y-88690031D01*
X12859015Y-88785269D01*
X12811396Y-88975746D01*
X12763777Y-89070984D01*
X12716158Y-89118603D01*
X12620920Y-89166222D01*
X12525682Y-89166222D01*
X12430444Y-89118603D01*
X12382825Y-89070984D01*
X12335205Y-88975746D01*
X12335205Y-88737650D01*
X12382825Y-88594793D01*
X12335205Y-88261460D02*
X13335205Y-88023365D01*
X12620920Y-87832889D01*
X13335205Y-87642412D01*
X12335205Y-87404317D01*
X12430444Y-87070984D02*
X12382825Y-87023365D01*
X12335205Y-86928127D01*
X12335205Y-86690031D01*
X12382825Y-86594793D01*
X12430444Y-86547174D01*
X12525682Y-86499555D01*
X12620920Y-86499555D01*
X12763777Y-86547174D01*
X13335205Y-87118603D01*
X13335205Y-86499555D01*
X21359839Y-89463466D02*
X21407458Y-89320609D01*
X21455077Y-89272990D01*
X21550315Y-89225371D01*
X21693172Y-89225371D01*
X21788410Y-89272990D01*
X21836029Y-89320609D01*
X21883648Y-89415847D01*
X21883648Y-89796800D01*
X20883648Y-89796800D01*
X20883648Y-89463466D01*
X20931268Y-89368228D01*
X20978887Y-89320609D01*
X21074125Y-89272990D01*
X21169363Y-89272990D01*
X21264601Y-89320609D01*
X21312220Y-89368228D01*
X21359839Y-89463466D01*
X21359839Y-89796800D01*
X20883648Y-88606324D02*
X20883648Y-88415847D01*
X20931268Y-88320609D01*
X21026506Y-88225371D01*
X21216982Y-88177752D01*
X21550315Y-88177752D01*
X21740791Y-88225371D01*
X21836029Y-88320609D01*
X21883648Y-88415847D01*
X21883648Y-88606324D01*
X21836029Y-88701562D01*
X21740791Y-88796800D01*
X21550315Y-88844419D01*
X21216982Y-88844419D01*
X21026506Y-88796800D01*
X20931268Y-88701562D01*
X20883648Y-88606324D01*
X20883648Y-87558704D02*
X20883648Y-87368228D01*
X20931268Y-87272990D01*
X21026506Y-87177752D01*
X21216982Y-87130133D01*
X21550315Y-87130133D01*
X21740791Y-87177752D01*
X21836029Y-87272990D01*
X21883648Y-87368228D01*
X21883648Y-87558704D01*
X21836029Y-87653943D01*
X21740791Y-87749181D01*
X21550315Y-87796800D01*
X21216982Y-87796800D01*
X21026506Y-87749181D01*
X20931268Y-87653943D01*
X20883648Y-87558704D01*
X20883648Y-86844419D02*
X20883648Y-86272990D01*
X21883648Y-86558704D02*
X20883648Y-86558704D01*
X22598084Y-101084087D02*
X23074274Y-101084087D01*
X22074274Y-101417420D02*
X22598084Y-101084087D01*
X22074274Y-100750754D01*
X23074274Y-99893611D02*
X23074274Y-100465039D01*
X23074274Y-100179325D02*
X22074274Y-100179325D01*
X22217132Y-100274563D01*
X22312370Y-100369801D01*
X22359989Y-100465039D01*
X35885542Y-104941679D02*
X36695066Y-104941679D01*
X36790304Y-104894060D01*
X36837923Y-104846441D01*
X36885542Y-104751203D01*
X36885542Y-104560727D01*
X36837923Y-104465489D01*
X36790304Y-104417870D01*
X36695066Y-104370251D01*
X35885542Y-104370251D01*
X36885542Y-103370251D02*
X36885542Y-103941679D01*
X36885542Y-103655965D02*
X35885542Y-103655965D01*
X36028400Y-103751203D01*
X36123638Y-103846441D01*
X36171257Y-103941679D01*
X24848847Y-130105979D02*
X23848847Y-130105979D01*
X23848847Y-129867884D01*
X23896467Y-129725027D01*
X23991705Y-129629789D01*
X24086943Y-129582170D01*
X24277419Y-129534551D01*
X24420276Y-129534551D01*
X24610752Y-129582170D01*
X24705990Y-129629789D01*
X24801228Y-129725027D01*
X24848847Y-129867884D01*
X24848847Y-130105979D01*
X23848847Y-128677408D02*
X23848847Y-128867884D01*
X23896467Y-128963122D01*
X23944086Y-129010741D01*
X24086943Y-129105979D01*
X24277419Y-129153598D01*
X24658371Y-129153598D01*
X24753609Y-129105979D01*
X24801228Y-129058360D01*
X24848847Y-128963122D01*
X24848847Y-128772646D01*
X24801228Y-128677408D01*
X24753609Y-128629789D01*
X24658371Y-128582170D01*
X24420276Y-128582170D01*
X24325038Y-128629789D01*
X24277419Y-128677408D01*
X24229800Y-128772646D01*
X24229800Y-128963122D01*
X24277419Y-129058360D01*
X24325038Y-129105979D01*
X24420276Y-129153598D01*
X23848847Y-127725027D02*
X23848847Y-127915503D01*
X23896467Y-128010741D01*
X23944086Y-128058360D01*
X24086943Y-128153598D01*
X24277419Y-128201217D01*
X24658371Y-128201217D01*
X24753609Y-128153598D01*
X24801228Y-128105979D01*
X24848847Y-128010741D01*
X24848847Y-127820265D01*
X24801228Y-127725027D01*
X24753609Y-127677408D01*
X24658371Y-127629789D01*
X24420276Y-127629789D01*
X24325038Y-127677408D01*
X24277419Y-127725027D01*
X24229800Y-127820265D01*
X24229800Y-128010741D01*
X24277419Y-128105979D01*
X24325038Y-128153598D01*
X24420276Y-128201217D01*
X17392819Y-128744825D02*
X17888057Y-128744825D01*
X17621391Y-129049587D01*
X17735676Y-129049587D01*
X17811867Y-129087682D01*
X17849962Y-129125778D01*
X17888057Y-129201968D01*
X17888057Y-129392444D01*
X17849962Y-129468635D01*
X17811867Y-129506730D01*
X17735676Y-129544825D01*
X17507105Y-129544825D01*
X17430914Y-129506730D01*
X17392819Y-129468635D01*
X18230914Y-129468635D02*
X18269010Y-129506730D01*
X18230914Y-129544825D01*
X18192819Y-129506730D01*
X18230914Y-129468635D01*
X18230914Y-129544825D01*
X18954724Y-128744825D02*
X18802343Y-128744825D01*
X18726152Y-128782921D01*
X18688057Y-128821016D01*
X18611867Y-128935301D01*
X18573772Y-129087682D01*
X18573772Y-129392444D01*
X18611867Y-129468635D01*
X18649962Y-129506730D01*
X18726152Y-129544825D01*
X18878533Y-129544825D01*
X18954724Y-129506730D01*
X18992819Y-129468635D01*
X19030914Y-129392444D01*
X19030914Y-129201968D01*
X18992819Y-129125778D01*
X18954724Y-129087682D01*
X18878533Y-129049587D01*
X18726152Y-129049587D01*
X18649962Y-129087682D01*
X18611867Y-129125778D01*
X18573772Y-129201968D01*
X19259486Y-128744825D02*
X19526152Y-129544825D01*
X19792819Y-128744825D01*
X24871578Y-133720331D02*
X23871578Y-133720331D01*
X23871578Y-133482236D01*
X23919198Y-133339379D01*
X24014436Y-133244141D01*
X24109674Y-133196522D01*
X24300150Y-133148903D01*
X24443007Y-133148903D01*
X24633483Y-133196522D01*
X24728721Y-133244141D01*
X24823959Y-133339379D01*
X24871578Y-133482236D01*
X24871578Y-133720331D01*
X23871578Y-132291760D02*
X23871578Y-132482236D01*
X23919198Y-132577474D01*
X23966817Y-132625093D01*
X24109674Y-132720331D01*
X24300150Y-132767950D01*
X24681102Y-132767950D01*
X24776340Y-132720331D01*
X24823959Y-132672712D01*
X24871578Y-132577474D01*
X24871578Y-132386998D01*
X24823959Y-132291760D01*
X24776340Y-132244141D01*
X24681102Y-132196522D01*
X24443007Y-132196522D01*
X24347769Y-132244141D01*
X24300150Y-132291760D01*
X24252531Y-132386998D01*
X24252531Y-132577474D01*
X24300150Y-132672712D01*
X24347769Y-132720331D01*
X24443007Y-132767950D01*
X23871578Y-131863188D02*
X23871578Y-131196522D01*
X24871578Y-131625093D01*
X17392819Y-131721390D02*
X17888057Y-131721390D01*
X17621391Y-132026152D01*
X17735676Y-132026152D01*
X17811867Y-132064247D01*
X17849962Y-132102343D01*
X17888057Y-132178533D01*
X17888057Y-132369009D01*
X17849962Y-132445200D01*
X17811867Y-132483295D01*
X17735676Y-132521390D01*
X17507105Y-132521390D01*
X17430914Y-132483295D01*
X17392819Y-132445200D01*
X18230914Y-132445200D02*
X18269010Y-132483295D01*
X18230914Y-132521390D01*
X18192819Y-132483295D01*
X18230914Y-132445200D01*
X18230914Y-132521390D01*
X18954724Y-131721390D02*
X18802343Y-131721390D01*
X18726152Y-131759486D01*
X18688057Y-131797581D01*
X18611867Y-131911866D01*
X18573772Y-132064247D01*
X18573772Y-132369009D01*
X18611867Y-132445200D01*
X18649962Y-132483295D01*
X18726152Y-132521390D01*
X18878533Y-132521390D01*
X18954724Y-132483295D01*
X18992819Y-132445200D01*
X19030914Y-132369009D01*
X19030914Y-132178533D01*
X18992819Y-132102343D01*
X18954724Y-132064247D01*
X18878533Y-132026152D01*
X18726152Y-132026152D01*
X18649962Y-132064247D01*
X18611867Y-132102343D01*
X18573772Y-132178533D01*
X19259486Y-131721390D02*
X19526152Y-132521390D01*
X19792819Y-131721390D01*
X63555708Y-65341497D02*
X63555708Y-64341497D01*
X63793804Y-64341497D01*
X63936661Y-64389117D01*
X64031899Y-64484355D01*
X64079518Y-64579593D01*
X64127137Y-64770069D01*
X64127137Y-64912926D01*
X64079518Y-65103402D01*
X64031899Y-65198640D01*
X63936661Y-65293878D01*
X63793804Y-65341497D01*
X63555708Y-65341497D01*
X65079518Y-65341497D02*
X64508089Y-65341497D01*
X64793804Y-65341497D02*
X64793804Y-64341497D01*
X64698565Y-64484355D01*
X64603327Y-64579593D01*
X64508089Y-64627212D01*
X38552562Y-65341497D02*
X38552562Y-64341497D01*
X38790658Y-64341497D01*
X38933515Y-64389117D01*
X39028753Y-64484355D01*
X39076372Y-64579593D01*
X39123991Y-64770069D01*
X39123991Y-64912926D01*
X39076372Y-65103402D01*
X39028753Y-65198640D01*
X38933515Y-65293878D01*
X38790658Y-65341497D01*
X38552562Y-65341497D01*
X39457324Y-64341497D02*
X40123991Y-64341497D01*
X39695419Y-65341497D01*
X48792006Y-68318062D02*
X48792006Y-67318062D01*
X49030101Y-67318062D01*
X49172958Y-67365682D01*
X49268196Y-67460920D01*
X49315815Y-67556158D01*
X49363434Y-67746634D01*
X49363434Y-67889491D01*
X49315815Y-68079967D01*
X49268196Y-68175205D01*
X49172958Y-68270443D01*
X49030101Y-68318062D01*
X48792006Y-68318062D01*
X50315815Y-68318062D02*
X49744387Y-68318062D01*
X50030101Y-68318062D02*
X50030101Y-67318062D01*
X49934863Y-67460920D01*
X49839625Y-67556158D01*
X49744387Y-67603777D01*
X50649149Y-67318062D02*
X51268196Y-67318062D01*
X50934863Y-67699015D01*
X51077720Y-67699015D01*
X51172958Y-67746634D01*
X51220577Y-67794253D01*
X51268196Y-67889491D01*
X51268196Y-68127586D01*
X51220577Y-68222824D01*
X51172958Y-68270443D01*
X51077720Y-68318062D01*
X50792006Y-68318062D01*
X50696768Y-68270443D01*
X50649149Y-68222824D01*
X37481059Y-71294627D02*
X37481059Y-70294627D01*
X37719154Y-70294627D01*
X37862011Y-70342247D01*
X37957249Y-70437485D01*
X38004868Y-70532723D01*
X38052487Y-70723199D01*
X38052487Y-70866056D01*
X38004868Y-71056532D01*
X37957249Y-71151770D01*
X37862011Y-71247008D01*
X37719154Y-71294627D01*
X37481059Y-71294627D01*
X38433440Y-70389866D02*
X38481059Y-70342247D01*
X38576297Y-70294627D01*
X38814392Y-70294627D01*
X38909630Y-70342247D01*
X38957249Y-70389866D01*
X39004868Y-70485104D01*
X39004868Y-70580342D01*
X38957249Y-70723199D01*
X38385821Y-71294627D01*
X39004868Y-71294627D01*
X39909630Y-70294627D02*
X39433440Y-70294627D01*
X39385821Y-70770818D01*
X39433440Y-70723199D01*
X39528678Y-70675580D01*
X39766773Y-70675580D01*
X39862011Y-70723199D01*
X39909630Y-70770818D01*
X39957249Y-70866056D01*
X39957249Y-71104151D01*
X39909630Y-71199389D01*
X39862011Y-71247008D01*
X39766773Y-71294627D01*
X39528678Y-71294627D01*
X39433440Y-71247008D01*
X39385821Y-71199389D01*
X52363884Y-80224322D02*
X52363884Y-79224322D01*
X52601979Y-79224322D01*
X52744836Y-79271942D01*
X52840074Y-79367180D01*
X52887693Y-79462418D01*
X52935312Y-79652894D01*
X52935312Y-79795751D01*
X52887693Y-79986227D01*
X52840074Y-80081465D01*
X52744836Y-80176703D01*
X52601979Y-80224322D01*
X52363884Y-80224322D01*
X53268646Y-79224322D02*
X53887693Y-79224322D01*
X53554360Y-79605275D01*
X53697217Y-79605275D01*
X53792455Y-79652894D01*
X53840074Y-79700513D01*
X53887693Y-79795751D01*
X53887693Y-80033846D01*
X53840074Y-80129084D01*
X53792455Y-80176703D01*
X53697217Y-80224322D01*
X53411503Y-80224322D01*
X53316265Y-80176703D01*
X53268646Y-80129084D01*
X54840074Y-80224322D02*
X54268646Y-80224322D01*
X54554360Y-80224322D02*
X54554360Y-79224322D01*
X54459122Y-79367180D01*
X54363884Y-79462418D01*
X54268646Y-79510037D01*
X48792006Y-80224322D02*
X48792006Y-79224322D01*
X49030101Y-79224322D01*
X49172958Y-79271942D01*
X49268196Y-79367180D01*
X49315815Y-79462418D01*
X49363434Y-79652894D01*
X49363434Y-79795751D01*
X49315815Y-79986227D01*
X49268196Y-80081465D01*
X49172958Y-80176703D01*
X49030101Y-80224322D01*
X48792006Y-80224322D01*
X50220577Y-79557656D02*
X50220577Y-80224322D01*
X49982482Y-79176703D02*
X49744387Y-79890989D01*
X50363434Y-79890989D01*
X50649149Y-79224322D02*
X51268196Y-79224322D01*
X50934863Y-79605275D01*
X51077720Y-79605275D01*
X51172958Y-79652894D01*
X51220577Y-79700513D01*
X51268196Y-79795751D01*
X51268196Y-80033846D01*
X51220577Y-80129084D01*
X51172958Y-80176703D01*
X51077720Y-80224322D01*
X50792006Y-80224322D01*
X50696768Y-80176703D01*
X50649149Y-80129084D01*
X37481059Y-77247757D02*
X37481059Y-76247757D01*
X37719154Y-76247757D01*
X37862011Y-76295377D01*
X37957249Y-76390615D01*
X38004868Y-76485853D01*
X38052487Y-76676329D01*
X38052487Y-76819186D01*
X38004868Y-77009662D01*
X37957249Y-77104900D01*
X37862011Y-77200138D01*
X37719154Y-77247757D01*
X37481059Y-77247757D01*
X38909630Y-76581091D02*
X38909630Y-77247757D01*
X38671535Y-76200138D02*
X38433440Y-76914424D01*
X39052487Y-76914424D01*
X39481059Y-77247757D02*
X39671535Y-77247757D01*
X39766773Y-77200138D01*
X39814392Y-77152519D01*
X39909630Y-77009662D01*
X39957249Y-76819186D01*
X39957249Y-76438234D01*
X39909630Y-76342996D01*
X39862011Y-76295377D01*
X39766773Y-76247757D01*
X39576297Y-76247757D01*
X39481059Y-76295377D01*
X39433440Y-76342996D01*
X39385821Y-76438234D01*
X39385821Y-76676329D01*
X39433440Y-76771567D01*
X39481059Y-76819186D01*
X39576297Y-76866805D01*
X39766773Y-76866805D01*
X39862011Y-76819186D01*
X39909630Y-76771567D01*
X39957249Y-76676329D01*
X48672883Y-98083712D02*
X48672883Y-97083712D01*
X48910979Y-97083712D01*
X49053836Y-97131332D01*
X49149074Y-97226570D01*
X49196693Y-97321808D01*
X49244312Y-97512284D01*
X49244312Y-97655141D01*
X49196693Y-97845617D01*
X49149074Y-97940855D01*
X49053836Y-98036093D01*
X48910979Y-98083712D01*
X48672883Y-98083712D01*
X49625264Y-97178951D02*
X49672883Y-97131332D01*
X49768121Y-97083712D01*
X50006217Y-97083712D01*
X50101455Y-97131332D01*
X50149074Y-97178951D01*
X50196693Y-97274189D01*
X50196693Y-97369427D01*
X50149074Y-97512284D01*
X49577645Y-98083712D01*
X50196693Y-98083712D01*
X53435387Y-98083712D02*
X53435387Y-97083712D01*
X53673483Y-97083712D01*
X53816340Y-97131332D01*
X53911578Y-97226570D01*
X53959197Y-97321808D01*
X54006816Y-97512284D01*
X54006816Y-97655141D01*
X53959197Y-97845617D01*
X53911578Y-97940855D01*
X53816340Y-98036093D01*
X53673483Y-98083712D01*
X53435387Y-98083712D01*
X54578244Y-97512284D02*
X54483006Y-97464665D01*
X54435387Y-97417046D01*
X54387768Y-97321808D01*
X54387768Y-97274189D01*
X54435387Y-97178951D01*
X54483006Y-97131332D01*
X54578244Y-97083712D01*
X54768721Y-97083712D01*
X54863959Y-97131332D01*
X54911578Y-97178951D01*
X54959197Y-97274189D01*
X54959197Y-97321808D01*
X54911578Y-97417046D01*
X54863959Y-97464665D01*
X54768721Y-97512284D01*
X54578244Y-97512284D01*
X54483006Y-97559903D01*
X54435387Y-97607522D01*
X54387768Y-97702760D01*
X54387768Y-97893236D01*
X54435387Y-97988474D01*
X54483006Y-98036093D01*
X54578244Y-98083712D01*
X54768721Y-98083712D01*
X54863959Y-98036093D01*
X54911578Y-97988474D01*
X54959197Y-97893236D01*
X54959197Y-97702760D01*
X54911578Y-97607522D01*
X54863959Y-97559903D01*
X54768721Y-97512284D01*
X63674831Y-95107147D02*
X63674831Y-94107147D01*
X63912926Y-94107147D01*
X64055783Y-94154767D01*
X64151021Y-94250005D01*
X64198640Y-94345243D01*
X64246259Y-94535719D01*
X64246259Y-94678576D01*
X64198640Y-94869052D01*
X64151021Y-94964290D01*
X64055783Y-95059528D01*
X63912926Y-95107147D01*
X63674831Y-95107147D01*
X65198640Y-95107147D02*
X64627212Y-95107147D01*
X64912926Y-95107147D02*
X64912926Y-94107147D01*
X64817688Y-94250005D01*
X64722450Y-94345243D01*
X64627212Y-94392862D01*
X66055783Y-94440481D02*
X66055783Y-95107147D01*
X65817688Y-94059528D02*
X65579593Y-94773814D01*
X66198640Y-94773814D01*
X37481059Y-95107147D02*
X37481059Y-94107147D01*
X37719154Y-94107147D01*
X37862011Y-94154767D01*
X37957249Y-94250005D01*
X38004868Y-94345243D01*
X38052487Y-94535719D01*
X38052487Y-94678576D01*
X38004868Y-94869052D01*
X37957249Y-94964290D01*
X37862011Y-95059528D01*
X37719154Y-95107147D01*
X37481059Y-95107147D01*
X38433440Y-94202386D02*
X38481059Y-94154767D01*
X38576297Y-94107147D01*
X38814392Y-94107147D01*
X38909630Y-94154767D01*
X38957249Y-94202386D01*
X39004868Y-94297624D01*
X39004868Y-94392862D01*
X38957249Y-94535719D01*
X38385821Y-95107147D01*
X39004868Y-95107147D01*
X39623916Y-94107147D02*
X39719154Y-94107147D01*
X39814392Y-94154767D01*
X39862011Y-94202386D01*
X39909630Y-94297624D01*
X39957249Y-94488100D01*
X39957249Y-94726195D01*
X39909630Y-94916671D01*
X39862011Y-95011909D01*
X39814392Y-95059528D01*
X39719154Y-95107147D01*
X39623916Y-95107147D01*
X39528678Y-95059528D01*
X39481059Y-95011909D01*
X39433440Y-94916671D01*
X39385821Y-94726195D01*
X39385821Y-94488100D01*
X39433440Y-94297624D01*
X39481059Y-94202386D01*
X39528678Y-94154767D01*
X39623916Y-94107147D01*
X63674831Y-71294627D02*
X63674831Y-70294627D01*
X63912926Y-70294627D01*
X64055783Y-70342247D01*
X64151021Y-70437485D01*
X64198640Y-70532723D01*
X64246259Y-70723199D01*
X64246259Y-70866056D01*
X64198640Y-71056532D01*
X64151021Y-71151770D01*
X64055783Y-71247008D01*
X63912926Y-71294627D01*
X63674831Y-71294627D01*
X64627212Y-70389866D02*
X64674831Y-70342247D01*
X64770069Y-70294627D01*
X65008164Y-70294627D01*
X65103402Y-70342247D01*
X65151021Y-70389866D01*
X65198640Y-70485104D01*
X65198640Y-70580342D01*
X65151021Y-70723199D01*
X64579593Y-71294627D01*
X65198640Y-71294627D01*
X66055783Y-70294627D02*
X65865307Y-70294627D01*
X65770069Y-70342247D01*
X65722450Y-70389866D01*
X65627212Y-70532723D01*
X65579593Y-70723199D01*
X65579593Y-71104151D01*
X65627212Y-71199389D01*
X65674831Y-71247008D01*
X65770069Y-71294627D01*
X65960545Y-71294627D01*
X66055783Y-71247008D01*
X66103402Y-71199389D01*
X66151021Y-71104151D01*
X66151021Y-70866056D01*
X66103402Y-70770818D01*
X66055783Y-70723199D01*
X65960545Y-70675580D01*
X65770069Y-70675580D01*
X65674831Y-70723199D01*
X65627212Y-70770818D01*
X65579593Y-70866056D01*
X37481059Y-83200887D02*
X37481059Y-82200887D01*
X37719154Y-82200887D01*
X37862011Y-82248507D01*
X37957249Y-82343745D01*
X38004868Y-82438983D01*
X38052487Y-82629459D01*
X38052487Y-82772316D01*
X38004868Y-82962792D01*
X37957249Y-83058030D01*
X37862011Y-83153268D01*
X37719154Y-83200887D01*
X37481059Y-83200887D01*
X38385821Y-82200887D02*
X39004868Y-82200887D01*
X38671535Y-82581840D01*
X38814392Y-82581840D01*
X38909630Y-82629459D01*
X38957249Y-82677078D01*
X39004868Y-82772316D01*
X39004868Y-83010411D01*
X38957249Y-83105649D01*
X38909630Y-83153268D01*
X38814392Y-83200887D01*
X38528678Y-83200887D01*
X38433440Y-83153268D01*
X38385821Y-83105649D01*
X39385821Y-82296126D02*
X39433440Y-82248507D01*
X39528678Y-82200887D01*
X39766773Y-82200887D01*
X39862011Y-82248507D01*
X39909630Y-82296126D01*
X39957249Y-82391364D01*
X39957249Y-82486602D01*
X39909630Y-82629459D01*
X39338202Y-83200887D01*
X39957249Y-83200887D01*
X63674831Y-83200887D02*
X63674831Y-82200887D01*
X63912926Y-82200887D01*
X64055783Y-82248507D01*
X64151021Y-82343745D01*
X64198640Y-82438983D01*
X64246259Y-82629459D01*
X64246259Y-82772316D01*
X64198640Y-82962792D01*
X64151021Y-83058030D01*
X64055783Y-83153268D01*
X63912926Y-83200887D01*
X63674831Y-83200887D01*
X64579593Y-82200887D02*
X65198640Y-82200887D01*
X64865307Y-82581840D01*
X65008164Y-82581840D01*
X65103402Y-82629459D01*
X65151021Y-82677078D01*
X65198640Y-82772316D01*
X65198640Y-83010411D01*
X65151021Y-83105649D01*
X65103402Y-83153268D01*
X65008164Y-83200887D01*
X64722450Y-83200887D01*
X64627212Y-83153268D01*
X64579593Y-83105649D01*
X65770069Y-82629459D02*
X65674831Y-82581840D01*
X65627212Y-82534221D01*
X65579593Y-82438983D01*
X65579593Y-82391364D01*
X65627212Y-82296126D01*
X65674831Y-82248507D01*
X65770069Y-82200887D01*
X65960545Y-82200887D01*
X66055783Y-82248507D01*
X66103402Y-82296126D01*
X66151021Y-82391364D01*
X66151021Y-82438983D01*
X66103402Y-82534221D01*
X66055783Y-82581840D01*
X65960545Y-82629459D01*
X65770069Y-82629459D01*
X65674831Y-82677078D01*
X65627212Y-82724697D01*
X65579593Y-82819935D01*
X65579593Y-83010411D01*
X65627212Y-83105649D01*
X65674831Y-83153268D01*
X65770069Y-83200887D01*
X65960545Y-83200887D01*
X66055783Y-83153268D01*
X66103402Y-83105649D01*
X66151021Y-83010411D01*
X66151021Y-82819935D01*
X66103402Y-82724697D01*
X66055783Y-82677078D01*
X65960545Y-82629459D01*
X48792006Y-86177452D02*
X48792006Y-85177452D01*
X49030101Y-85177452D01*
X49172958Y-85225072D01*
X49268196Y-85320310D01*
X49315815Y-85415548D01*
X49363434Y-85606024D01*
X49363434Y-85748881D01*
X49315815Y-85939357D01*
X49268196Y-86034595D01*
X49172958Y-86129833D01*
X49030101Y-86177452D01*
X48792006Y-86177452D01*
X50220577Y-85510786D02*
X50220577Y-86177452D01*
X49982482Y-85129833D02*
X49744387Y-85844119D01*
X50363434Y-85844119D01*
X51172958Y-85510786D02*
X51172958Y-86177452D01*
X50934863Y-85129833D02*
X50696768Y-85844119D01*
X51315815Y-85844119D01*
X52363884Y-86177452D02*
X52363884Y-85177452D01*
X52601979Y-85177452D01*
X52744836Y-85225072D01*
X52840074Y-85320310D01*
X52887693Y-85415548D01*
X52935312Y-85606024D01*
X52935312Y-85748881D01*
X52887693Y-85939357D01*
X52840074Y-86034595D01*
X52744836Y-86129833D01*
X52601979Y-86177452D01*
X52363884Y-86177452D01*
X53840074Y-85177452D02*
X53363884Y-85177452D01*
X53316265Y-85653643D01*
X53363884Y-85606024D01*
X53459122Y-85558405D01*
X53697217Y-85558405D01*
X53792455Y-85606024D01*
X53840074Y-85653643D01*
X53887693Y-85748881D01*
X53887693Y-85986976D01*
X53840074Y-86082214D01*
X53792455Y-86129833D01*
X53697217Y-86177452D01*
X53459122Y-86177452D01*
X53363884Y-86129833D01*
X53316265Y-86082214D01*
X54506741Y-85177452D02*
X54601979Y-85177452D01*
X54697217Y-85225072D01*
X54744836Y-85272691D01*
X54792455Y-85367929D01*
X54840074Y-85558405D01*
X54840074Y-85796500D01*
X54792455Y-85986976D01*
X54744836Y-86082214D01*
X54697217Y-86129833D01*
X54601979Y-86177452D01*
X54506741Y-86177452D01*
X54411503Y-86129833D01*
X54363884Y-86082214D01*
X54316265Y-85986976D01*
X54268646Y-85796500D01*
X54268646Y-85558405D01*
X54316265Y-85367929D01*
X54363884Y-85272691D01*
X54411503Y-85225072D01*
X54506741Y-85177452D01*
X38552562Y-101060277D02*
X38552562Y-100060277D01*
X38790658Y-100060277D01*
X38933515Y-100107897D01*
X39028753Y-100203135D01*
X39076372Y-100298373D01*
X39123991Y-100488849D01*
X39123991Y-100631706D01*
X39076372Y-100822182D01*
X39028753Y-100917420D01*
X38933515Y-101012658D01*
X38790658Y-101060277D01*
X38552562Y-101060277D01*
X39457324Y-100060277D02*
X40076372Y-100060277D01*
X39743038Y-100441230D01*
X39885896Y-100441230D01*
X39981134Y-100488849D01*
X40028753Y-100536468D01*
X40076372Y-100631706D01*
X40076372Y-100869801D01*
X40028753Y-100965039D01*
X39981134Y-101012658D01*
X39885896Y-101060277D01*
X39600181Y-101060277D01*
X39504943Y-101012658D01*
X39457324Y-100965039D01*
X63555708Y-101060277D02*
X63555708Y-100060277D01*
X63793804Y-100060277D01*
X63936661Y-100107897D01*
X64031899Y-100203135D01*
X64079518Y-100298373D01*
X64127137Y-100488849D01*
X64127137Y-100631706D01*
X64079518Y-100822182D01*
X64031899Y-100917420D01*
X63936661Y-101012658D01*
X63793804Y-101060277D01*
X63555708Y-101060277D01*
X64603327Y-101060277D02*
X64793804Y-101060277D01*
X64889042Y-101012658D01*
X64936661Y-100965039D01*
X65031899Y-100822182D01*
X65079518Y-100631706D01*
X65079518Y-100250754D01*
X65031899Y-100155516D01*
X64984280Y-100107897D01*
X64889042Y-100060277D01*
X64698565Y-100060277D01*
X64603327Y-100107897D01*
X64555708Y-100155516D01*
X64508089Y-100250754D01*
X64508089Y-100488849D01*
X64555708Y-100584087D01*
X64603327Y-100631706D01*
X64698565Y-100679325D01*
X64889042Y-100679325D01*
X64984280Y-100631706D01*
X65031899Y-100584087D01*
X65079518Y-100488849D01*
X48792006Y-104036842D02*
X48792006Y-103036842D01*
X49030101Y-103036842D01*
X49172958Y-103084462D01*
X49268196Y-103179700D01*
X49315815Y-103274938D01*
X49363434Y-103465414D01*
X49363434Y-103608271D01*
X49315815Y-103798747D01*
X49268196Y-103893985D01*
X49172958Y-103989223D01*
X49030101Y-104036842D01*
X48792006Y-104036842D01*
X50315815Y-104036842D02*
X49744387Y-104036842D01*
X50030101Y-104036842D02*
X50030101Y-103036842D01*
X49934863Y-103179700D01*
X49839625Y-103274938D01*
X49744387Y-103322557D01*
X51220577Y-103036842D02*
X50744387Y-103036842D01*
X50696768Y-103513033D01*
X50744387Y-103465414D01*
X50839625Y-103417795D01*
X51077720Y-103417795D01*
X51172958Y-103465414D01*
X51220577Y-103513033D01*
X51268196Y-103608271D01*
X51268196Y-103846366D01*
X51220577Y-103941604D01*
X51172958Y-103989223D01*
X51077720Y-104036842D01*
X50839625Y-104036842D01*
X50744387Y-103989223D01*
X50696768Y-103941604D01*
X52363884Y-92130582D02*
X52363884Y-91130582D01*
X52601979Y-91130582D01*
X52744836Y-91178202D01*
X52840074Y-91273440D01*
X52887693Y-91368678D01*
X52935312Y-91559154D01*
X52935312Y-91702011D01*
X52887693Y-91892487D01*
X52840074Y-91987725D01*
X52744836Y-92082963D01*
X52601979Y-92130582D01*
X52363884Y-92130582D01*
X53316265Y-91225821D02*
X53363884Y-91178202D01*
X53459122Y-91130582D01*
X53697217Y-91130582D01*
X53792455Y-91178202D01*
X53840074Y-91225821D01*
X53887693Y-91321059D01*
X53887693Y-91416297D01*
X53840074Y-91559154D01*
X53268646Y-92130582D01*
X53887693Y-92130582D01*
X54840074Y-92130582D02*
X54268646Y-92130582D01*
X54554360Y-92130582D02*
X54554360Y-91130582D01*
X54459122Y-91273440D01*
X54363884Y-91368678D01*
X54268646Y-91416297D01*
X48792006Y-92130582D02*
X48792006Y-91130582D01*
X49030101Y-91130582D01*
X49172958Y-91178202D01*
X49268196Y-91273440D01*
X49315815Y-91368678D01*
X49363434Y-91559154D01*
X49363434Y-91702011D01*
X49315815Y-91892487D01*
X49268196Y-91987725D01*
X49172958Y-92082963D01*
X49030101Y-92130582D01*
X48792006Y-92130582D01*
X49744387Y-91225821D02*
X49792006Y-91178202D01*
X49887244Y-91130582D01*
X50125339Y-91130582D01*
X50220577Y-91178202D01*
X50268196Y-91225821D01*
X50315815Y-91321059D01*
X50315815Y-91416297D01*
X50268196Y-91559154D01*
X49696768Y-92130582D01*
X50315815Y-92130582D01*
X50649149Y-91130582D02*
X51315815Y-91130582D01*
X50887244Y-92130582D01*
X52363884Y-115943102D02*
X52363884Y-114943102D01*
X52601979Y-114943102D01*
X52744836Y-114990722D01*
X52840074Y-115085960D01*
X52887693Y-115181198D01*
X52935312Y-115371674D01*
X52935312Y-115514531D01*
X52887693Y-115705007D01*
X52840074Y-115800245D01*
X52744836Y-115895483D01*
X52601979Y-115943102D01*
X52363884Y-115943102D01*
X53268646Y-114943102D02*
X53887693Y-114943102D01*
X53554360Y-115324055D01*
X53697217Y-115324055D01*
X53792455Y-115371674D01*
X53840074Y-115419293D01*
X53887693Y-115514531D01*
X53887693Y-115752626D01*
X53840074Y-115847864D01*
X53792455Y-115895483D01*
X53697217Y-115943102D01*
X53411503Y-115943102D01*
X53316265Y-115895483D01*
X53268646Y-115847864D01*
X54221027Y-114943102D02*
X54840074Y-114943102D01*
X54506741Y-115324055D01*
X54649598Y-115324055D01*
X54744836Y-115371674D01*
X54792455Y-115419293D01*
X54840074Y-115514531D01*
X54840074Y-115752626D01*
X54792455Y-115847864D01*
X54744836Y-115895483D01*
X54649598Y-115943102D01*
X54363884Y-115943102D01*
X54268646Y-115895483D01*
X54221027Y-115847864D01*
X48792006Y-115943102D02*
X48792006Y-114943102D01*
X49030101Y-114943102D01*
X49172958Y-114990722D01*
X49268196Y-115085960D01*
X49315815Y-115181198D01*
X49363434Y-115371674D01*
X49363434Y-115514531D01*
X49315815Y-115705007D01*
X49268196Y-115800245D01*
X49172958Y-115895483D01*
X49030101Y-115943102D01*
X48792006Y-115943102D01*
X49696768Y-114943102D02*
X50315815Y-114943102D01*
X49982482Y-115324055D01*
X50125339Y-115324055D01*
X50220577Y-115371674D01*
X50268196Y-115419293D01*
X50315815Y-115514531D01*
X50315815Y-115752626D01*
X50268196Y-115847864D01*
X50220577Y-115895483D01*
X50125339Y-115943102D01*
X49839625Y-115943102D01*
X49744387Y-115895483D01*
X49696768Y-115847864D01*
X50792006Y-115943102D02*
X50982482Y-115943102D01*
X51077720Y-115895483D01*
X51125339Y-115847864D01*
X51220577Y-115705007D01*
X51268196Y-115514531D01*
X51268196Y-115133579D01*
X51220577Y-115038341D01*
X51172958Y-114990722D01*
X51077720Y-114943102D01*
X50887244Y-114943102D01*
X50792006Y-114990722D01*
X50744387Y-115038341D01*
X50696768Y-115133579D01*
X50696768Y-115371674D01*
X50744387Y-115466912D01*
X50792006Y-115514531D01*
X50887244Y-115562150D01*
X51077720Y-115562150D01*
X51172958Y-115514531D01*
X51220577Y-115466912D01*
X51268196Y-115371674D01*
X63674831Y-112966537D02*
X63674831Y-111966537D01*
X63912926Y-111966537D01*
X64055783Y-112014157D01*
X64151021Y-112109395D01*
X64198640Y-112204633D01*
X64246259Y-112395109D01*
X64246259Y-112537966D01*
X64198640Y-112728442D01*
X64151021Y-112823680D01*
X64055783Y-112918918D01*
X63912926Y-112966537D01*
X63674831Y-112966537D01*
X65103402Y-112299871D02*
X65103402Y-112966537D01*
X64865307Y-111918918D02*
X64627212Y-112633204D01*
X65246259Y-112633204D01*
X66103402Y-111966537D02*
X65627212Y-111966537D01*
X65579593Y-112442728D01*
X65627212Y-112395109D01*
X65722450Y-112347490D01*
X65960545Y-112347490D01*
X66055783Y-112395109D01*
X66103402Y-112442728D01*
X66151021Y-112537966D01*
X66151021Y-112776061D01*
X66103402Y-112871299D01*
X66055783Y-112918918D01*
X65960545Y-112966537D01*
X65722450Y-112966537D01*
X65627212Y-112918918D01*
X65579593Y-112871299D01*
X37481059Y-89154017D02*
X37481059Y-88154017D01*
X37719154Y-88154017D01*
X37862011Y-88201637D01*
X37957249Y-88296875D01*
X38004868Y-88392113D01*
X38052487Y-88582589D01*
X38052487Y-88725446D01*
X38004868Y-88915922D01*
X37957249Y-89011160D01*
X37862011Y-89106398D01*
X37719154Y-89154017D01*
X37481059Y-89154017D01*
X38957249Y-88154017D02*
X38481059Y-88154017D01*
X38433440Y-88630208D01*
X38481059Y-88582589D01*
X38576297Y-88534970D01*
X38814392Y-88534970D01*
X38909630Y-88582589D01*
X38957249Y-88630208D01*
X39004868Y-88725446D01*
X39004868Y-88963541D01*
X38957249Y-89058779D01*
X38909630Y-89106398D01*
X38814392Y-89154017D01*
X38576297Y-89154017D01*
X38481059Y-89106398D01*
X38433440Y-89058779D01*
X39957249Y-89154017D02*
X39385821Y-89154017D01*
X39671535Y-89154017D02*
X39671535Y-88154017D01*
X39576297Y-88296875D01*
X39481059Y-88392113D01*
X39385821Y-88439732D01*
X48792006Y-133802492D02*
X48792006Y-132802492D01*
X49030101Y-132802492D01*
X49172958Y-132850112D01*
X49268196Y-132945350D01*
X49315815Y-133040588D01*
X49363434Y-133231064D01*
X49363434Y-133373921D01*
X49315815Y-133564397D01*
X49268196Y-133659635D01*
X49172958Y-133754873D01*
X49030101Y-133802492D01*
X48792006Y-133802492D01*
X50315815Y-133802492D02*
X49744387Y-133802492D01*
X50030101Y-133802492D02*
X50030101Y-132802492D01*
X49934863Y-132945350D01*
X49839625Y-133040588D01*
X49744387Y-133088207D01*
X50934863Y-132802492D02*
X51030101Y-132802492D01*
X51125339Y-132850112D01*
X51172958Y-132897731D01*
X51220577Y-132992969D01*
X51268196Y-133183445D01*
X51268196Y-133421540D01*
X51220577Y-133612016D01*
X51172958Y-133707254D01*
X51125339Y-133754873D01*
X51030101Y-133802492D01*
X50934863Y-133802492D01*
X50839625Y-133754873D01*
X50792006Y-133707254D01*
X50744387Y-133612016D01*
X50696768Y-133421540D01*
X50696768Y-133183445D01*
X50744387Y-132992969D01*
X50792006Y-132897731D01*
X50839625Y-132850112D01*
X50934863Y-132802492D01*
X52363884Y-104036842D02*
X52363884Y-103036842D01*
X52601979Y-103036842D01*
X52744836Y-103084462D01*
X52840074Y-103179700D01*
X52887693Y-103274938D01*
X52935312Y-103465414D01*
X52935312Y-103608271D01*
X52887693Y-103798747D01*
X52840074Y-103893985D01*
X52744836Y-103989223D01*
X52601979Y-104036842D01*
X52363884Y-104036842D01*
X53887693Y-104036842D02*
X53316265Y-104036842D01*
X53601979Y-104036842D02*
X53601979Y-103036842D01*
X53506741Y-103179700D01*
X53411503Y-103274938D01*
X53316265Y-103322557D01*
X54744836Y-103036842D02*
X54554360Y-103036842D01*
X54459122Y-103084462D01*
X54411503Y-103132081D01*
X54316265Y-103274938D01*
X54268646Y-103465414D01*
X54268646Y-103846366D01*
X54316265Y-103941604D01*
X54363884Y-103989223D01*
X54459122Y-104036842D01*
X54649598Y-104036842D01*
X54744836Y-103989223D01*
X54792455Y-103941604D01*
X54840074Y-103846366D01*
X54840074Y-103608271D01*
X54792455Y-103513033D01*
X54744836Y-103465414D01*
X54649598Y-103417795D01*
X54459122Y-103417795D01*
X54363884Y-103465414D01*
X54316265Y-103513033D01*
X54268646Y-103608271D01*
X37481059Y-107013407D02*
X37481059Y-106013407D01*
X37719154Y-106013407D01*
X37862011Y-106061027D01*
X37957249Y-106156265D01*
X38004868Y-106251503D01*
X38052487Y-106441979D01*
X38052487Y-106584836D01*
X38004868Y-106775312D01*
X37957249Y-106870550D01*
X37862011Y-106965788D01*
X37719154Y-107013407D01*
X37481059Y-107013407D01*
X38433440Y-106108646D02*
X38481059Y-106061027D01*
X38576297Y-106013407D01*
X38814392Y-106013407D01*
X38909630Y-106061027D01*
X38957249Y-106108646D01*
X39004868Y-106203884D01*
X39004868Y-106299122D01*
X38957249Y-106441979D01*
X38385821Y-107013407D01*
X39004868Y-107013407D01*
X39385821Y-106108646D02*
X39433440Y-106061027D01*
X39528678Y-106013407D01*
X39766773Y-106013407D01*
X39862011Y-106061027D01*
X39909630Y-106108646D01*
X39957249Y-106203884D01*
X39957249Y-106299122D01*
X39909630Y-106441979D01*
X39338202Y-107013407D01*
X39957249Y-107013407D01*
X63674831Y-107013407D02*
X63674831Y-106013407D01*
X63912926Y-106013407D01*
X64055783Y-106061027D01*
X64151021Y-106156265D01*
X64198640Y-106251503D01*
X64246259Y-106441979D01*
X64246259Y-106584836D01*
X64198640Y-106775312D01*
X64151021Y-106870550D01*
X64055783Y-106965788D01*
X63912926Y-107013407D01*
X63674831Y-107013407D01*
X64627212Y-106108646D02*
X64674831Y-106061027D01*
X64770069Y-106013407D01*
X65008164Y-106013407D01*
X65103402Y-106061027D01*
X65151021Y-106108646D01*
X65198640Y-106203884D01*
X65198640Y-106299122D01*
X65151021Y-106441979D01*
X64579593Y-107013407D01*
X65198640Y-107013407D01*
X65770069Y-106441979D02*
X65674831Y-106394360D01*
X65627212Y-106346741D01*
X65579593Y-106251503D01*
X65579593Y-106203884D01*
X65627212Y-106108646D01*
X65674831Y-106061027D01*
X65770069Y-106013407D01*
X65960545Y-106013407D01*
X66055783Y-106061027D01*
X66103402Y-106108646D01*
X66151021Y-106203884D01*
X66151021Y-106251503D01*
X66103402Y-106346741D01*
X66055783Y-106394360D01*
X65960545Y-106441979D01*
X65770069Y-106441979D01*
X65674831Y-106489598D01*
X65627212Y-106537217D01*
X65579593Y-106632455D01*
X65579593Y-106822931D01*
X65627212Y-106918169D01*
X65674831Y-106965788D01*
X65770069Y-107013407D01*
X65960545Y-107013407D01*
X66055783Y-106965788D01*
X66103402Y-106918169D01*
X66151021Y-106822931D01*
X66151021Y-106632455D01*
X66103402Y-106537217D01*
X66055783Y-106489598D01*
X65960545Y-106441979D01*
X63674831Y-118919667D02*
X63674831Y-117919667D01*
X63912926Y-117919667D01*
X64055783Y-117967287D01*
X64151021Y-118062525D01*
X64198640Y-118157763D01*
X64246259Y-118348239D01*
X64246259Y-118491096D01*
X64198640Y-118681572D01*
X64151021Y-118776810D01*
X64055783Y-118872048D01*
X63912926Y-118919667D01*
X63674831Y-118919667D01*
X65103402Y-118253001D02*
X65103402Y-118919667D01*
X64865307Y-117872048D02*
X64627212Y-118586334D01*
X65246259Y-118586334D01*
X65817688Y-117919667D02*
X65912926Y-117919667D01*
X66008164Y-117967287D01*
X66055783Y-118014906D01*
X66103402Y-118110144D01*
X66151021Y-118300620D01*
X66151021Y-118538715D01*
X66103402Y-118729191D01*
X66055783Y-118824429D01*
X66008164Y-118872048D01*
X65912926Y-118919667D01*
X65817688Y-118919667D01*
X65722450Y-118872048D01*
X65674831Y-118824429D01*
X65627212Y-118729191D01*
X65579593Y-118538715D01*
X65579593Y-118300620D01*
X65627212Y-118110144D01*
X65674831Y-118014906D01*
X65722450Y-117967287D01*
X65817688Y-117919667D01*
X37481059Y-112966537D02*
X37481059Y-111966537D01*
X37719154Y-111966537D01*
X37862011Y-112014157D01*
X37957249Y-112109395D01*
X38004868Y-112204633D01*
X38052487Y-112395109D01*
X38052487Y-112537966D01*
X38004868Y-112728442D01*
X37957249Y-112823680D01*
X37862011Y-112918918D01*
X37719154Y-112966537D01*
X37481059Y-112966537D01*
X38909630Y-112299871D02*
X38909630Y-112966537D01*
X38671535Y-111918918D02*
X38433440Y-112633204D01*
X39052487Y-112633204D01*
X39862011Y-111966537D02*
X39671535Y-111966537D01*
X39576297Y-112014157D01*
X39528678Y-112061776D01*
X39433440Y-112204633D01*
X39385821Y-112395109D01*
X39385821Y-112776061D01*
X39433440Y-112871299D01*
X39481059Y-112918918D01*
X39576297Y-112966537D01*
X39766773Y-112966537D01*
X39862011Y-112918918D01*
X39909630Y-112871299D01*
X39957249Y-112776061D01*
X39957249Y-112537966D01*
X39909630Y-112442728D01*
X39862011Y-112395109D01*
X39766773Y-112347490D01*
X39576297Y-112347490D01*
X39481059Y-112395109D01*
X39433440Y-112442728D01*
X39385821Y-112537966D01*
X52363884Y-109989972D02*
X52363884Y-108989972D01*
X52601979Y-108989972D01*
X52744836Y-109037592D01*
X52840074Y-109132830D01*
X52887693Y-109228068D01*
X52935312Y-109418544D01*
X52935312Y-109561401D01*
X52887693Y-109751877D01*
X52840074Y-109847115D01*
X52744836Y-109942353D01*
X52601979Y-109989972D01*
X52363884Y-109989972D01*
X53840074Y-108989972D02*
X53363884Y-108989972D01*
X53316265Y-109466163D01*
X53363884Y-109418544D01*
X53459122Y-109370925D01*
X53697217Y-109370925D01*
X53792455Y-109418544D01*
X53840074Y-109466163D01*
X53887693Y-109561401D01*
X53887693Y-109799496D01*
X53840074Y-109894734D01*
X53792455Y-109942353D01*
X53697217Y-109989972D01*
X53459122Y-109989972D01*
X53363884Y-109942353D01*
X53316265Y-109894734D01*
X54268646Y-109085211D02*
X54316265Y-109037592D01*
X54411503Y-108989972D01*
X54649598Y-108989972D01*
X54744836Y-109037592D01*
X54792455Y-109085211D01*
X54840074Y-109180449D01*
X54840074Y-109275687D01*
X54792455Y-109418544D01*
X54221027Y-109989972D01*
X54840074Y-109989972D01*
X21883648Y-137660085D02*
X20883648Y-137660085D01*
X20883648Y-137421990D01*
X20931268Y-137279132D01*
X21026506Y-137183894D01*
X21121744Y-137136275D01*
X21312220Y-137088656D01*
X21455077Y-137088656D01*
X21645553Y-137136275D01*
X21740791Y-137183894D01*
X21836029Y-137279132D01*
X21883648Y-137421990D01*
X21883648Y-137660085D01*
X20883648Y-136183894D02*
X20883648Y-136660085D01*
X21359839Y-136707704D01*
X21312220Y-136660085D01*
X21264601Y-136564847D01*
X21264601Y-136326751D01*
X21312220Y-136231513D01*
X21359839Y-136183894D01*
X21455077Y-136136275D01*
X21693172Y-136136275D01*
X21788410Y-136183894D01*
X21836029Y-136231513D01*
X21883648Y-136326751D01*
X21883648Y-136564847D01*
X21836029Y-136660085D01*
X21788410Y-136707704D01*
X63674831Y-130825927D02*
X63674831Y-129825927D01*
X63912926Y-129825927D01*
X64055783Y-129873547D01*
X64151021Y-129968785D01*
X64198640Y-130064023D01*
X64246259Y-130254499D01*
X64246259Y-130397356D01*
X64198640Y-130587832D01*
X64151021Y-130683070D01*
X64055783Y-130778308D01*
X63912926Y-130825927D01*
X63674831Y-130825927D01*
X65198640Y-130825927D02*
X64627212Y-130825927D01*
X64912926Y-130825927D02*
X64912926Y-129825927D01*
X64817688Y-129968785D01*
X64722450Y-130064023D01*
X64627212Y-130111642D01*
X66151021Y-130825927D02*
X65579593Y-130825927D01*
X65865307Y-130825927D02*
X65865307Y-129825927D01*
X65770069Y-129968785D01*
X65674831Y-130064023D01*
X65579593Y-130111642D01*
X37481059Y-130825927D02*
X37481059Y-129825927D01*
X37719154Y-129825927D01*
X37862011Y-129873547D01*
X37957249Y-129968785D01*
X38004868Y-130064023D01*
X38052487Y-130254499D01*
X38052487Y-130397356D01*
X38004868Y-130587832D01*
X37957249Y-130683070D01*
X37862011Y-130778308D01*
X37719154Y-130825927D01*
X37481059Y-130825927D01*
X39004868Y-130825927D02*
X38433440Y-130825927D01*
X38719154Y-130825927D02*
X38719154Y-129825927D01*
X38623916Y-129968785D01*
X38528678Y-130064023D01*
X38433440Y-130111642D01*
X39338202Y-129825927D02*
X40004868Y-129825927D01*
X39576297Y-130825927D01*
X52363884Y-127849362D02*
X52363884Y-126849362D01*
X52601979Y-126849362D01*
X52744836Y-126896982D01*
X52840074Y-126992220D01*
X52887693Y-127087458D01*
X52935312Y-127277934D01*
X52935312Y-127420791D01*
X52887693Y-127611267D01*
X52840074Y-127706505D01*
X52744836Y-127801743D01*
X52601979Y-127849362D01*
X52363884Y-127849362D01*
X53316265Y-126944601D02*
X53363884Y-126896982D01*
X53459122Y-126849362D01*
X53697217Y-126849362D01*
X53792455Y-126896982D01*
X53840074Y-126944601D01*
X53887693Y-127039839D01*
X53887693Y-127135077D01*
X53840074Y-127277934D01*
X53268646Y-127849362D01*
X53887693Y-127849362D01*
X54221027Y-126849362D02*
X54840074Y-126849362D01*
X54506741Y-127230315D01*
X54649598Y-127230315D01*
X54744836Y-127277934D01*
X54792455Y-127325553D01*
X54840074Y-127420791D01*
X54840074Y-127658886D01*
X54792455Y-127754124D01*
X54744836Y-127801743D01*
X54649598Y-127849362D01*
X54363884Y-127849362D01*
X54268646Y-127801743D01*
X54221027Y-127754124D01*
X54625863Y-137540962D02*
X53625863Y-137540962D01*
X53625863Y-137302867D01*
X53673483Y-137160010D01*
X53768721Y-137064772D01*
X53863959Y-137017153D01*
X54054435Y-136969534D01*
X54197292Y-136969534D01*
X54387768Y-137017153D01*
X54483006Y-137064772D01*
X54578244Y-137160010D01*
X54625863Y-137302867D01*
X54625863Y-137540962D01*
X53625863Y-136636200D02*
X53625863Y-136017153D01*
X54006816Y-136350486D01*
X54006816Y-136207629D01*
X54054435Y-136112391D01*
X54102054Y-136064772D01*
X54197292Y-136017153D01*
X54435387Y-136017153D01*
X54530625Y-136064772D01*
X54578244Y-136112391D01*
X54625863Y-136207629D01*
X54625863Y-136493343D01*
X54578244Y-136588581D01*
X54530625Y-136636200D01*
X53625863Y-135112391D02*
X53625863Y-135588581D01*
X54102054Y-135636200D01*
X54054435Y-135588581D01*
X54006816Y-135493343D01*
X54006816Y-135255248D01*
X54054435Y-135160010D01*
X54102054Y-135112391D01*
X54197292Y-135064772D01*
X54435387Y-135064772D01*
X54530625Y-135112391D01*
X54578244Y-135160010D01*
X54625863Y-135255248D01*
X54625863Y-135493343D01*
X54578244Y-135588581D01*
X54530625Y-135636200D01*
X48792006Y-121896232D02*
X48792006Y-120896232D01*
X49030101Y-120896232D01*
X49172958Y-120943852D01*
X49268196Y-121039090D01*
X49315815Y-121134328D01*
X49363434Y-121324804D01*
X49363434Y-121467661D01*
X49315815Y-121658137D01*
X49268196Y-121753375D01*
X49172958Y-121848613D01*
X49030101Y-121896232D01*
X48792006Y-121896232D01*
X50220577Y-121229566D02*
X50220577Y-121896232D01*
X49982482Y-120848613D02*
X49744387Y-121562899D01*
X50363434Y-121562899D01*
X51268196Y-121896232D02*
X50696768Y-121896232D01*
X50982482Y-121896232D02*
X50982482Y-120896232D01*
X50887244Y-121039090D01*
X50792006Y-121134328D01*
X50696768Y-121181947D01*
X52363884Y-121896232D02*
X52363884Y-120896232D01*
X52601979Y-120896232D01*
X52744836Y-120943852D01*
X52840074Y-121039090D01*
X52887693Y-121134328D01*
X52935312Y-121324804D01*
X52935312Y-121467661D01*
X52887693Y-121658137D01*
X52840074Y-121753375D01*
X52744836Y-121848613D01*
X52601979Y-121896232D01*
X52363884Y-121896232D01*
X53792455Y-121229566D02*
X53792455Y-121896232D01*
X53554360Y-120848613D02*
X53316265Y-121562899D01*
X53935312Y-121562899D01*
X54221027Y-120896232D02*
X54887693Y-120896232D01*
X54459122Y-121896232D01*
X37481059Y-124872797D02*
X37481059Y-123872797D01*
X37719154Y-123872797D01*
X37862011Y-123920417D01*
X37957249Y-124015655D01*
X38004868Y-124110893D01*
X38052487Y-124301369D01*
X38052487Y-124444226D01*
X38004868Y-124634702D01*
X37957249Y-124729940D01*
X37862011Y-124825178D01*
X37719154Y-124872797D01*
X37481059Y-124872797D01*
X38957249Y-123872797D02*
X38481059Y-123872797D01*
X38433440Y-124348988D01*
X38481059Y-124301369D01*
X38576297Y-124253750D01*
X38814392Y-124253750D01*
X38909630Y-124301369D01*
X38957249Y-124348988D01*
X39004868Y-124444226D01*
X39004868Y-124682321D01*
X38957249Y-124777559D01*
X38909630Y-124825178D01*
X38814392Y-124872797D01*
X38576297Y-124872797D01*
X38481059Y-124825178D01*
X38433440Y-124777559D01*
X39338202Y-123872797D02*
X39957249Y-123872797D01*
X39623916Y-124253750D01*
X39766773Y-124253750D01*
X39862011Y-124301369D01*
X39909630Y-124348988D01*
X39957249Y-124444226D01*
X39957249Y-124682321D01*
X39909630Y-124777559D01*
X39862011Y-124825178D01*
X39766773Y-124872797D01*
X39481059Y-124872797D01*
X39385821Y-124825178D01*
X39338202Y-124777559D01*
X24860213Y-147780406D02*
X23860213Y-147780406D01*
X23860213Y-147542311D01*
X23907833Y-147399453D01*
X24003071Y-147304215D01*
X24098309Y-147256596D01*
X24288785Y-147208977D01*
X24431642Y-147208977D01*
X24622118Y-147256596D01*
X24717356Y-147304215D01*
X24812594Y-147399453D01*
X24860213Y-147542311D01*
X24860213Y-147780406D01*
X23860213Y-146351834D02*
X23860213Y-146542311D01*
X23907833Y-146637549D01*
X23955452Y-146685168D01*
X24098309Y-146780406D01*
X24288785Y-146828025D01*
X24669737Y-146828025D01*
X24764975Y-146780406D01*
X24812594Y-146732787D01*
X24860213Y-146637549D01*
X24860213Y-146447072D01*
X24812594Y-146351834D01*
X24764975Y-146304215D01*
X24669737Y-146256596D01*
X24431642Y-146256596D01*
X24336404Y-146304215D01*
X24288785Y-146351834D01*
X24241166Y-146447072D01*
X24241166Y-146637549D01*
X24288785Y-146732787D01*
X24336404Y-146780406D01*
X24431642Y-146828025D01*
X30813343Y-148851909D02*
X29813343Y-148851909D01*
X29813343Y-148613814D01*
X29860963Y-148470957D01*
X29956201Y-148375719D01*
X30051439Y-148328100D01*
X30241915Y-148280481D01*
X30384772Y-148280481D01*
X30575248Y-148328100D01*
X30670486Y-148375719D01*
X30765724Y-148470957D01*
X30813343Y-148613814D01*
X30813343Y-148851909D01*
X30813343Y-147328100D02*
X30813343Y-147899528D01*
X30813343Y-147613814D02*
X29813343Y-147613814D01*
X29956201Y-147709052D01*
X30051439Y-147804290D01*
X30099058Y-147899528D01*
X30241915Y-146756671D02*
X30194296Y-146851909D01*
X30146677Y-146899528D01*
X30051439Y-146947147D01*
X30003820Y-146947147D01*
X29908582Y-146899528D01*
X29860963Y-146851909D01*
X29813343Y-146756671D01*
X29813343Y-146566195D01*
X29860963Y-146470957D01*
X29908582Y-146423338D01*
X30003820Y-146375719D01*
X30051439Y-146375719D01*
X30146677Y-146423338D01*
X30194296Y-146470957D01*
X30241915Y-146566195D01*
X30241915Y-146756671D01*
X30289534Y-146851909D01*
X30337153Y-146899528D01*
X30432391Y-146947147D01*
X30622867Y-146947147D01*
X30718105Y-146899528D01*
X30765724Y-146851909D01*
X30813343Y-146756671D01*
X30813343Y-146566195D01*
X30765724Y-146470957D01*
X30718105Y-146423338D01*
X30622867Y-146375719D01*
X30432391Y-146375719D01*
X30337153Y-146423338D01*
X30289534Y-146470957D01*
X30241915Y-146566195D01*
X33789908Y-137540962D02*
X32789908Y-137540962D01*
X32789908Y-137302867D01*
X32837528Y-137160010D01*
X32932766Y-137064772D01*
X33028004Y-137017153D01*
X33218480Y-136969534D01*
X33361337Y-136969534D01*
X33551813Y-137017153D01*
X33647051Y-137064772D01*
X33742289Y-137160010D01*
X33789908Y-137302867D01*
X33789908Y-137540962D01*
X32885147Y-136588581D02*
X32837528Y-136540962D01*
X32789908Y-136445724D01*
X32789908Y-136207629D01*
X32837528Y-136112391D01*
X32885147Y-136064772D01*
X32980385Y-136017153D01*
X33075623Y-136017153D01*
X33218480Y-136064772D01*
X33789908Y-136636200D01*
X33789908Y-136017153D01*
X33123242Y-135160010D02*
X33789908Y-135160010D01*
X32742289Y-135398105D02*
X33456575Y-135636200D01*
X33456575Y-135017153D01*
X52244611Y-148851909D02*
X51244611Y-148851909D01*
X51244611Y-148613814D01*
X51292231Y-148470957D01*
X51387469Y-148375719D01*
X51482707Y-148328100D01*
X51673183Y-148280481D01*
X51816040Y-148280481D01*
X52006516Y-148328100D01*
X52101754Y-148375719D01*
X52196992Y-148470957D01*
X52244611Y-148613814D01*
X52244611Y-148851909D01*
X51244611Y-147947147D02*
X51244611Y-147328100D01*
X51625564Y-147661433D01*
X51625564Y-147518576D01*
X51673183Y-147423338D01*
X51720802Y-147375719D01*
X51816040Y-147328100D01*
X52054135Y-147328100D01*
X52149373Y-147375719D01*
X52196992Y-147423338D01*
X52244611Y-147518576D01*
X52244611Y-147804290D01*
X52196992Y-147899528D01*
X52149373Y-147947147D01*
X51244611Y-146470957D02*
X51244611Y-146661433D01*
X51292231Y-146756671D01*
X51339850Y-146804290D01*
X51482707Y-146899528D01*
X51673183Y-146947147D01*
X52054135Y-146947147D01*
X52149373Y-146899528D01*
X52196992Y-146851909D01*
X52244611Y-146756671D01*
X52244611Y-146566195D01*
X52196992Y-146470957D01*
X52149373Y-146423338D01*
X52054135Y-146375719D01*
X51816040Y-146375719D01*
X51720802Y-146423338D01*
X51673183Y-146470957D01*
X51625564Y-146566195D01*
X51625564Y-146756671D01*
X51673183Y-146851909D01*
X51720802Y-146899528D01*
X51816040Y-146947147D01*
X49268046Y-137540962D02*
X48268046Y-137540962D01*
X48268046Y-137302867D01*
X48315666Y-137160010D01*
X48410904Y-137064772D01*
X48506142Y-137017153D01*
X48696618Y-136969534D01*
X48839475Y-136969534D01*
X49029951Y-137017153D01*
X49125189Y-137064772D01*
X49220427Y-137160010D01*
X49268046Y-137302867D01*
X49268046Y-137540962D01*
X48601380Y-136112391D02*
X49268046Y-136112391D01*
X48220427Y-136350486D02*
X48934713Y-136588581D01*
X48934713Y-135969534D01*
X48363285Y-135636200D02*
X48315666Y-135588581D01*
X48268046Y-135493343D01*
X48268046Y-135255248D01*
X48315666Y-135160010D01*
X48363285Y-135112391D01*
X48458523Y-135064772D01*
X48553761Y-135064772D01*
X48696618Y-135112391D01*
X49268046Y-135683819D01*
X49268046Y-135064772D01*
X46291481Y-148851909D02*
X45291481Y-148851909D01*
X45291481Y-148613814D01*
X45339101Y-148470957D01*
X45434339Y-148375719D01*
X45529577Y-148328100D01*
X45720053Y-148280481D01*
X45862910Y-148280481D01*
X46053386Y-148328100D01*
X46148624Y-148375719D01*
X46243862Y-148470957D01*
X46291481Y-148613814D01*
X46291481Y-148851909D01*
X45624815Y-147423338D02*
X46291481Y-147423338D01*
X45243862Y-147661433D02*
X45958148Y-147899528D01*
X45958148Y-147280481D01*
X45720053Y-146756671D02*
X45672434Y-146851909D01*
X45624815Y-146899528D01*
X45529577Y-146947147D01*
X45481958Y-146947147D01*
X45386720Y-146899528D01*
X45339101Y-146851909D01*
X45291481Y-146756671D01*
X45291481Y-146566195D01*
X45339101Y-146470957D01*
X45386720Y-146423338D01*
X45481958Y-146375719D01*
X45529577Y-146375719D01*
X45624815Y-146423338D01*
X45672434Y-146470957D01*
X45720053Y-146566195D01*
X45720053Y-146756671D01*
X45767672Y-146851909D01*
X45815291Y-146899528D01*
X45910529Y-146947147D01*
X46101005Y-146947147D01*
X46196243Y-146899528D01*
X46243862Y-146851909D01*
X46291481Y-146756671D01*
X46291481Y-146566195D01*
X46243862Y-146470957D01*
X46196243Y-146423338D01*
X46101005Y-146375719D01*
X45910529Y-146375719D01*
X45815291Y-146423338D01*
X45767672Y-146470957D01*
X45720053Y-146566195D01*
X43314916Y-137540962D02*
X42314916Y-137540962D01*
X42314916Y-137302867D01*
X42362536Y-137160010D01*
X42457774Y-137064772D01*
X42553012Y-137017153D01*
X42743488Y-136969534D01*
X42886345Y-136969534D01*
X43076821Y-137017153D01*
X43172059Y-137064772D01*
X43267297Y-137160010D01*
X43314916Y-137302867D01*
X43314916Y-137540962D01*
X42314916Y-136064772D02*
X42314916Y-136540962D01*
X42791107Y-136588581D01*
X42743488Y-136540962D01*
X42695869Y-136445724D01*
X42695869Y-136207629D01*
X42743488Y-136112391D01*
X42791107Y-136064772D01*
X42886345Y-136017153D01*
X43124440Y-136017153D01*
X43219678Y-136064772D01*
X43267297Y-136112391D01*
X43314916Y-136207629D01*
X43314916Y-136445724D01*
X43267297Y-136540962D01*
X43219678Y-136588581D01*
X42648250Y-135160010D02*
X43314916Y-135160010D01*
X42267297Y-135398105D02*
X42981583Y-135636200D01*
X42981583Y-135017153D01*
X45315366Y-57007115D02*
X44839175Y-57007115D01*
X44839175Y-56007115D01*
X45648699Y-56483306D02*
X45982033Y-56483306D01*
X46124890Y-57007115D02*
X45648699Y-57007115D01*
X45648699Y-56007115D01*
X46124890Y-56007115D01*
X46553461Y-57007115D02*
X46553461Y-56007115D01*
X46791556Y-56007115D01*
X46934414Y-56054735D01*
X47029652Y-56149973D01*
X47077271Y-56245211D01*
X47124890Y-56435687D01*
X47124890Y-56578544D01*
X47077271Y-56769020D01*
X47029652Y-56864258D01*
X46934414Y-56959496D01*
X46791556Y-57007115D01*
X46553461Y-57007115D01*
X48077271Y-57007115D02*
X47505842Y-57007115D01*
X47791556Y-57007115D02*
X47791556Y-56007115D01*
X47696318Y-56149973D01*
X47601080Y-56245211D01*
X47505842Y-56292830D01*
X34980534Y-58507340D02*
X34504344Y-58840674D01*
X34980534Y-59078769D02*
X33980534Y-59078769D01*
X33980534Y-58697816D01*
X34028154Y-58602578D01*
X34075773Y-58554959D01*
X34171011Y-58507340D01*
X34313868Y-58507340D01*
X34409106Y-58554959D01*
X34456725Y-58602578D01*
X34504344Y-58697816D01*
X34504344Y-59078769D01*
X33980534Y-58174007D02*
X33980534Y-57507340D01*
X34980534Y-57935912D01*
X38187426Y-58702578D02*
X37730283Y-58702578D01*
X37958854Y-58702578D02*
X37958854Y-57902578D01*
X37882664Y-58016864D01*
X37806473Y-58093054D01*
X37730283Y-58131150D01*
X38530283Y-58626388D02*
X38568378Y-58664483D01*
X38530283Y-58702578D01*
X38492188Y-58664483D01*
X38530283Y-58626388D01*
X38530283Y-58702578D01*
X39292188Y-57902578D02*
X38911235Y-57902578D01*
X38873140Y-58283531D01*
X38911235Y-58245435D01*
X38987426Y-58207340D01*
X39177902Y-58207340D01*
X39254093Y-58245435D01*
X39292188Y-58283531D01*
X39330283Y-58359721D01*
X39330283Y-58550197D01*
X39292188Y-58626388D01*
X39254093Y-58664483D01*
X39177902Y-58702578D01*
X38987426Y-58702578D01*
X38911235Y-58664483D01*
X38873140Y-58626388D01*
X39673140Y-58702578D02*
X39673140Y-57902578D01*
X39749331Y-58397816D02*
X39977902Y-58702578D01*
X39977902Y-58169245D02*
X39673140Y-58474007D01*
X48792006Y-127849362D02*
X48792006Y-126849362D01*
X49030101Y-126849362D01*
X49172958Y-126896982D01*
X49268196Y-126992220D01*
X49315815Y-127087458D01*
X49363434Y-127277934D01*
X49363434Y-127420791D01*
X49315815Y-127611267D01*
X49268196Y-127706505D01*
X49172958Y-127801743D01*
X49030101Y-127849362D01*
X48792006Y-127849362D01*
X49744387Y-126944601D02*
X49792006Y-126896982D01*
X49887244Y-126849362D01*
X50125339Y-126849362D01*
X50220577Y-126896982D01*
X50268196Y-126944601D01*
X50315815Y-127039839D01*
X50315815Y-127135077D01*
X50268196Y-127277934D01*
X49696768Y-127849362D01*
X50315815Y-127849362D01*
X50792006Y-127849362D02*
X50982482Y-127849362D01*
X51077720Y-127801743D01*
X51125339Y-127754124D01*
X51220577Y-127611267D01*
X51268196Y-127420791D01*
X51268196Y-127039839D01*
X51220577Y-126944601D01*
X51172958Y-126896982D01*
X51077720Y-126849362D01*
X50887244Y-126849362D01*
X50792006Y-126896982D01*
X50744387Y-126944601D01*
X50696768Y-127039839D01*
X50696768Y-127277934D01*
X50744387Y-127373172D01*
X50792006Y-127420791D01*
X50887244Y-127468410D01*
X51077720Y-127468410D01*
X51172958Y-127420791D01*
X51220577Y-127373172D01*
X51268196Y-127277934D01*
X36766473Y-148851909D02*
X35766473Y-148851909D01*
X35766473Y-148613814D01*
X35814093Y-148470957D01*
X35909331Y-148375719D01*
X36004569Y-148328100D01*
X36195045Y-148280481D01*
X36337902Y-148280481D01*
X36528378Y-148328100D01*
X36623616Y-148375719D01*
X36718854Y-148470957D01*
X36766473Y-148613814D01*
X36766473Y-148851909D01*
X35766473Y-147947147D02*
X35766473Y-147328100D01*
X36147426Y-147661433D01*
X36147426Y-147518576D01*
X36195045Y-147423338D01*
X36242664Y-147375719D01*
X36337902Y-147328100D01*
X36575997Y-147328100D01*
X36671235Y-147375719D01*
X36718854Y-147423338D01*
X36766473Y-147518576D01*
X36766473Y-147804290D01*
X36718854Y-147899528D01*
X36671235Y-147947147D01*
X35766473Y-146709052D02*
X35766473Y-146613814D01*
X35814093Y-146518576D01*
X35861712Y-146470957D01*
X35956950Y-146423338D01*
X36147426Y-146375719D01*
X36385521Y-146375719D01*
X36575997Y-146423338D01*
X36671235Y-146470957D01*
X36718854Y-146518576D01*
X36766473Y-146613814D01*
X36766473Y-146709052D01*
X36718854Y-146804290D01*
X36671235Y-146851909D01*
X36575997Y-146899528D01*
X36385521Y-146947147D01*
X36147426Y-146947147D01*
X35956950Y-146899528D01*
X35861712Y-146851909D01*
X35814093Y-146804290D01*
X35766473Y-146709052D01*
X52363884Y-74271192D02*
X52363884Y-73271192D01*
X52601979Y-73271192D01*
X52744836Y-73318812D01*
X52840074Y-73414050D01*
X52887693Y-73509288D01*
X52935312Y-73699764D01*
X52935312Y-73842621D01*
X52887693Y-74033097D01*
X52840074Y-74128335D01*
X52744836Y-74223573D01*
X52601979Y-74271192D01*
X52363884Y-74271192D01*
X53840074Y-73271192D02*
X53363884Y-73271192D01*
X53316265Y-73747383D01*
X53363884Y-73699764D01*
X53459122Y-73652145D01*
X53697217Y-73652145D01*
X53792455Y-73699764D01*
X53840074Y-73747383D01*
X53887693Y-73842621D01*
X53887693Y-74080716D01*
X53840074Y-74175954D01*
X53792455Y-74223573D01*
X53697217Y-74271192D01*
X53459122Y-74271192D01*
X53363884Y-74223573D01*
X53316265Y-74175954D01*
X54792455Y-73271192D02*
X54316265Y-73271192D01*
X54268646Y-73747383D01*
X54316265Y-73699764D01*
X54411503Y-73652145D01*
X54649598Y-73652145D01*
X54744836Y-73699764D01*
X54792455Y-73747383D01*
X54840074Y-73842621D01*
X54840074Y-74080716D01*
X54792455Y-74175954D01*
X54744836Y-74223573D01*
X54649598Y-74271192D01*
X54411503Y-74271192D01*
X54316265Y-74223573D01*
X54268646Y-74175954D01*
X48792006Y-74271192D02*
X48792006Y-73271192D01*
X49030101Y-73271192D01*
X49172958Y-73318812D01*
X49268196Y-73414050D01*
X49315815Y-73509288D01*
X49363434Y-73699764D01*
X49363434Y-73842621D01*
X49315815Y-74033097D01*
X49268196Y-74128335D01*
X49172958Y-74223573D01*
X49030101Y-74271192D01*
X48792006Y-74271192D01*
X50268196Y-73271192D02*
X49792006Y-73271192D01*
X49744387Y-73747383D01*
X49792006Y-73699764D01*
X49887244Y-73652145D01*
X50125339Y-73652145D01*
X50220577Y-73699764D01*
X50268196Y-73747383D01*
X50315815Y-73842621D01*
X50315815Y-74080716D01*
X50268196Y-74175954D01*
X50220577Y-74223573D01*
X50125339Y-74271192D01*
X49887244Y-74271192D01*
X49792006Y-74223573D01*
X49744387Y-74175954D01*
X51172958Y-73271192D02*
X50982482Y-73271192D01*
X50887244Y-73318812D01*
X50839625Y-73366431D01*
X50744387Y-73509288D01*
X50696768Y-73699764D01*
X50696768Y-74080716D01*
X50744387Y-74175954D01*
X50792006Y-74223573D01*
X50887244Y-74271192D01*
X51077720Y-74271192D01*
X51172958Y-74223573D01*
X51220577Y-74175954D01*
X51268196Y-74080716D01*
X51268196Y-73842621D01*
X51220577Y-73747383D01*
X51172958Y-73699764D01*
X51077720Y-73652145D01*
X50887244Y-73652145D01*
X50792006Y-73699764D01*
X50744387Y-73747383D01*
X50696768Y-73842621D01*
X63674831Y-89154017D02*
X63674831Y-88154017D01*
X63912926Y-88154017D01*
X64055783Y-88201637D01*
X64151021Y-88296875D01*
X64198640Y-88392113D01*
X64246259Y-88582589D01*
X64246259Y-88725446D01*
X64198640Y-88915922D01*
X64151021Y-89011160D01*
X64055783Y-89106398D01*
X63912926Y-89154017D01*
X63674831Y-89154017D01*
X65151021Y-88154017D02*
X64674831Y-88154017D01*
X64627212Y-88630208D01*
X64674831Y-88582589D01*
X64770069Y-88534970D01*
X65008164Y-88534970D01*
X65103402Y-88582589D01*
X65151021Y-88630208D01*
X65198640Y-88725446D01*
X65198640Y-88963541D01*
X65151021Y-89058779D01*
X65103402Y-89106398D01*
X65008164Y-89154017D01*
X64770069Y-89154017D01*
X64674831Y-89106398D01*
X64627212Y-89058779D01*
X65531974Y-88154017D02*
X66198640Y-88154017D01*
X65770069Y-89154017D01*
X48792006Y-109989972D02*
X48792006Y-108989972D01*
X49030101Y-108989972D01*
X49172958Y-109037592D01*
X49268196Y-109132830D01*
X49315815Y-109228068D01*
X49363434Y-109418544D01*
X49363434Y-109561401D01*
X49315815Y-109751877D01*
X49268196Y-109847115D01*
X49172958Y-109942353D01*
X49030101Y-109989972D01*
X48792006Y-109989972D01*
X50268196Y-108989972D02*
X49792006Y-108989972D01*
X49744387Y-109466163D01*
X49792006Y-109418544D01*
X49887244Y-109370925D01*
X50125339Y-109370925D01*
X50220577Y-109418544D01*
X50268196Y-109466163D01*
X50315815Y-109561401D01*
X50315815Y-109799496D01*
X50268196Y-109894734D01*
X50220577Y-109942353D01*
X50125339Y-109989972D01*
X49887244Y-109989972D01*
X49792006Y-109942353D01*
X49744387Y-109894734D01*
X50887244Y-109418544D02*
X50792006Y-109370925D01*
X50744387Y-109323306D01*
X50696768Y-109228068D01*
X50696768Y-109180449D01*
X50744387Y-109085211D01*
X50792006Y-109037592D01*
X50887244Y-108989972D01*
X51077720Y-108989972D01*
X51172958Y-109037592D01*
X51220577Y-109085211D01*
X51268196Y-109180449D01*
X51268196Y-109228068D01*
X51220577Y-109323306D01*
X51172958Y-109370925D01*
X51077720Y-109418544D01*
X50887244Y-109418544D01*
X50792006Y-109466163D01*
X50744387Y-109513782D01*
X50696768Y-109609020D01*
X50696768Y-109799496D01*
X50744387Y-109894734D01*
X50792006Y-109942353D01*
X50887244Y-109989972D01*
X51077720Y-109989972D01*
X51172958Y-109942353D01*
X51220577Y-109894734D01*
X51268196Y-109799496D01*
X51268196Y-109609020D01*
X51220577Y-109513782D01*
X51172958Y-109466163D01*
X51077720Y-109418544D01*
X63674831Y-124872797D02*
X63674831Y-123872797D01*
X63912926Y-123872797D01*
X64055783Y-123920417D01*
X64151021Y-124015655D01*
X64198640Y-124110893D01*
X64246259Y-124301369D01*
X64246259Y-124444226D01*
X64198640Y-124634702D01*
X64151021Y-124729940D01*
X64055783Y-124825178D01*
X63912926Y-124872797D01*
X63674831Y-124872797D01*
X65151021Y-123872797D02*
X64674831Y-123872797D01*
X64627212Y-124348988D01*
X64674831Y-124301369D01*
X64770069Y-124253750D01*
X65008164Y-124253750D01*
X65103402Y-124301369D01*
X65151021Y-124348988D01*
X65198640Y-124444226D01*
X65198640Y-124682321D01*
X65151021Y-124777559D01*
X65103402Y-124825178D01*
X65008164Y-124872797D01*
X64770069Y-124872797D01*
X64674831Y-124825178D01*
X64627212Y-124777559D01*
X65674831Y-124872797D02*
X65865307Y-124872797D01*
X65960545Y-124825178D01*
X66008164Y-124777559D01*
X66103402Y-124634702D01*
X66151021Y-124444226D01*
X66151021Y-124063274D01*
X66103402Y-123968036D01*
X66055783Y-123920417D01*
X65960545Y-123872797D01*
X65770069Y-123872797D01*
X65674831Y-123920417D01*
X65627212Y-123968036D01*
X65579593Y-124063274D01*
X65579593Y-124301369D01*
X65627212Y-124396607D01*
X65674831Y-124444226D01*
X65770069Y-124491845D01*
X65960545Y-124491845D01*
X66055783Y-124444226D01*
X66103402Y-124396607D01*
X66151021Y-124301369D01*
X40338351Y-148851909D02*
X39338351Y-148851909D01*
X39338351Y-148613814D01*
X39385971Y-148470957D01*
X39481209Y-148375719D01*
X39576447Y-148328100D01*
X39766923Y-148280481D01*
X39909780Y-148280481D01*
X40100256Y-148328100D01*
X40195494Y-148375719D01*
X40290732Y-148470957D01*
X40338351Y-148613814D01*
X40338351Y-148851909D01*
X39338351Y-147423338D02*
X39338351Y-147613814D01*
X39385971Y-147709052D01*
X39433590Y-147756671D01*
X39576447Y-147851909D01*
X39766923Y-147899528D01*
X40147875Y-147899528D01*
X40243113Y-147851909D01*
X40290732Y-147804290D01*
X40338351Y-147709052D01*
X40338351Y-147518576D01*
X40290732Y-147423338D01*
X40243113Y-147375719D01*
X40147875Y-147328100D01*
X39909780Y-147328100D01*
X39814542Y-147375719D01*
X39766923Y-147423338D01*
X39719304Y-147518576D01*
X39719304Y-147709052D01*
X39766923Y-147804290D01*
X39814542Y-147851909D01*
X39909780Y-147899528D01*
X39338351Y-146709052D02*
X39338351Y-146613814D01*
X39385971Y-146518576D01*
X39433590Y-146470957D01*
X39528828Y-146423338D01*
X39719304Y-146375719D01*
X39957399Y-146375719D01*
X40147875Y-146423338D01*
X40243113Y-146470957D01*
X40290732Y-146518576D01*
X40338351Y-146613814D01*
X40338351Y-146709052D01*
X40290732Y-146804290D01*
X40243113Y-146851909D01*
X40147875Y-146899528D01*
X39957399Y-146947147D01*
X39719304Y-146947147D01*
X39528828Y-146899528D01*
X39433590Y-146851909D01*
X39385971Y-146804290D01*
X39338351Y-146709052D01*
D13*
X168765001Y-126018375D02*
X168765001Y-124748375D01*
X169273001Y-125655518D01*
X169781001Y-124748375D01*
X169781001Y-126018375D01*
X170361572Y-124748375D02*
X171377572Y-126018375D01*
X171377572Y-124748375D02*
X170361572Y-126018375D01*
X171885572Y-124869328D02*
X171958144Y-124808852D01*
X172103286Y-124748375D01*
X172466144Y-124748375D01*
X172611286Y-124808852D01*
X172683858Y-124869328D01*
X172756429Y-124990280D01*
X172756429Y-125111232D01*
X172683858Y-125292661D01*
X171813001Y-126018375D01*
X172756429Y-126018375D01*
X173482144Y-126018375D02*
X173772429Y-126018375D01*
X173917572Y-125957899D01*
X173990144Y-125897423D01*
X174135286Y-125715994D01*
X174207858Y-125474090D01*
X174207858Y-124990280D01*
X174135286Y-124869328D01*
X174062715Y-124808852D01*
X173917572Y-124748375D01*
X173627286Y-124748375D01*
X173482144Y-124808852D01*
X173409572Y-124869328D01*
X173337001Y-124990280D01*
X173337001Y-125292661D01*
X173409572Y-125413613D01*
X173482144Y-125474090D01*
X173627286Y-125534566D01*
X173917572Y-125534566D01*
X174062715Y-125474090D01*
X174135286Y-125413613D01*
X174207858Y-125292661D01*
X168765001Y-145068391D02*
X168765001Y-143798391D01*
X169273001Y-144705534D01*
X169781001Y-143798391D01*
X169781001Y-145068391D01*
X170361572Y-143798391D02*
X171377572Y-145068391D01*
X171377572Y-143798391D02*
X170361572Y-145068391D01*
X171813001Y-143798391D02*
X172756429Y-143798391D01*
X172248429Y-144282201D01*
X172466144Y-144282201D01*
X172611286Y-144342677D01*
X172683858Y-144403153D01*
X172756429Y-144524106D01*
X172756429Y-144826487D01*
X172683858Y-144947439D01*
X172611286Y-145007915D01*
X172466144Y-145068391D01*
X172030715Y-145068391D01*
X171885572Y-145007915D01*
X171813001Y-144947439D01*
X173699858Y-143798391D02*
X173845001Y-143798391D01*
X173990144Y-143858868D01*
X174062715Y-143919344D01*
X174135286Y-144040296D01*
X174207858Y-144282201D01*
X174207858Y-144584582D01*
X174135286Y-144826487D01*
X174062715Y-144947439D01*
X173990144Y-145007915D01*
X173845001Y-145068391D01*
X173699858Y-145068391D01*
X173554715Y-145007915D01*
X173482144Y-144947439D01*
X173409572Y-144826487D01*
X173337001Y-144584582D01*
X173337001Y-144282201D01*
X173409572Y-144040296D01*
X173482144Y-143919344D01*
X173554715Y-143858868D01*
X173699858Y-143798391D01*
X206865033Y-68868327D02*
X206865033Y-67598327D01*
X207373033Y-68505470D01*
X207881033Y-67598327D01*
X207881033Y-68868327D01*
X208461604Y-67598327D02*
X209477604Y-68868327D01*
X209477604Y-67598327D02*
X208461604Y-68868327D01*
X210783890Y-67598327D02*
X210058176Y-67598327D01*
X209985604Y-68203089D01*
X210058176Y-68142613D01*
X210203318Y-68082137D01*
X210566176Y-68082137D01*
X210711318Y-68142613D01*
X210783890Y-68203089D01*
X210856461Y-68324042D01*
X210856461Y-68626423D01*
X210783890Y-68747375D01*
X210711318Y-68807851D01*
X210566176Y-68868327D01*
X210203318Y-68868327D01*
X210058176Y-68807851D01*
X209985604Y-68747375D01*
X212235318Y-67598327D02*
X211509604Y-67598327D01*
X211437033Y-68203089D01*
X211509604Y-68142613D01*
X211654747Y-68082137D01*
X212017604Y-68082137D01*
X212162747Y-68142613D01*
X212235318Y-68203089D01*
X212307890Y-68324042D01*
X212307890Y-68626423D01*
X212235318Y-68747375D01*
X212162747Y-68807851D01*
X212017604Y-68868327D01*
X211654747Y-68868327D01*
X211509604Y-68807851D01*
X211437033Y-68747375D01*
X187815017Y-68868327D02*
X187815017Y-67598327D01*
X188323017Y-68505470D01*
X188831017Y-67598327D01*
X188831017Y-68868327D01*
X189411588Y-67598327D02*
X190427588Y-68868327D01*
X190427588Y-67598327D02*
X189411588Y-68868327D01*
X191733874Y-67598327D02*
X191008160Y-67598327D01*
X190935588Y-68203089D01*
X191008160Y-68142613D01*
X191153302Y-68082137D01*
X191516160Y-68082137D01*
X191661302Y-68142613D01*
X191733874Y-68203089D01*
X191806445Y-68324042D01*
X191806445Y-68626423D01*
X191733874Y-68747375D01*
X191661302Y-68807851D01*
X191516160Y-68868327D01*
X191153302Y-68868327D01*
X191008160Y-68807851D01*
X190935588Y-68747375D01*
X193112731Y-67598327D02*
X192822445Y-67598327D01*
X192677302Y-67658804D01*
X192604731Y-67719280D01*
X192459588Y-67900708D01*
X192387017Y-68142613D01*
X192387017Y-68626423D01*
X192459588Y-68747375D01*
X192532160Y-68807851D01*
X192677302Y-68868327D01*
X192967588Y-68868327D01*
X193112731Y-68807851D01*
X193185302Y-68747375D01*
X193257874Y-68626423D01*
X193257874Y-68324042D01*
X193185302Y-68203089D01*
X193112731Y-68142613D01*
X192967588Y-68082137D01*
X192677302Y-68082137D01*
X192532160Y-68142613D01*
X192459588Y-68203089D01*
X192387017Y-68324042D01*
X187815017Y-87918343D02*
X187815017Y-86648343D01*
X188323017Y-87555486D01*
X188831017Y-86648343D01*
X188831017Y-87918343D01*
X189411588Y-86648343D02*
X190427588Y-87918343D01*
X190427588Y-86648343D02*
X189411588Y-87918343D01*
X191733874Y-86648343D02*
X191008160Y-86648343D01*
X190935588Y-87253105D01*
X191008160Y-87192629D01*
X191153302Y-87132153D01*
X191516160Y-87132153D01*
X191661302Y-87192629D01*
X191733874Y-87253105D01*
X191806445Y-87374058D01*
X191806445Y-87676439D01*
X191733874Y-87797391D01*
X191661302Y-87857867D01*
X191516160Y-87918343D01*
X191153302Y-87918343D01*
X191008160Y-87857867D01*
X190935588Y-87797391D01*
X192314445Y-86648343D02*
X193330445Y-86648343D01*
X192677302Y-87918343D01*
X187815017Y-106968359D02*
X187815017Y-105698359D01*
X188323017Y-106605502D01*
X188831017Y-105698359D01*
X188831017Y-106968359D01*
X189411588Y-105698359D02*
X190427588Y-106968359D01*
X190427588Y-105698359D02*
X189411588Y-106968359D01*
X191733874Y-105698359D02*
X191008160Y-105698359D01*
X190935588Y-106303121D01*
X191008160Y-106242645D01*
X191153302Y-106182169D01*
X191516160Y-106182169D01*
X191661302Y-106242645D01*
X191733874Y-106303121D01*
X191806445Y-106424074D01*
X191806445Y-106726455D01*
X191733874Y-106847407D01*
X191661302Y-106907883D01*
X191516160Y-106968359D01*
X191153302Y-106968359D01*
X191008160Y-106907883D01*
X190935588Y-106847407D01*
X192677302Y-106242645D02*
X192532160Y-106182169D01*
X192459588Y-106121693D01*
X192387017Y-106000740D01*
X192387017Y-105940264D01*
X192459588Y-105819312D01*
X192532160Y-105758836D01*
X192677302Y-105698359D01*
X192967588Y-105698359D01*
X193112731Y-105758836D01*
X193185302Y-105819312D01*
X193257874Y-105940264D01*
X193257874Y-106000740D01*
X193185302Y-106121693D01*
X193112731Y-106182169D01*
X192967588Y-106242645D01*
X192677302Y-106242645D01*
X192532160Y-106303121D01*
X192459588Y-106363597D01*
X192387017Y-106484550D01*
X192387017Y-106726455D01*
X192459588Y-106847407D01*
X192532160Y-106907883D01*
X192677302Y-106968359D01*
X192967588Y-106968359D01*
X193112731Y-106907883D01*
X193185302Y-106847407D01*
X193257874Y-106726455D01*
X193257874Y-106484550D01*
X193185302Y-106363597D01*
X193112731Y-106303121D01*
X192967588Y-106242645D01*
X187815017Y-126018375D02*
X187815017Y-124748375D01*
X188323017Y-125655518D01*
X188831017Y-124748375D01*
X188831017Y-126018375D01*
X189411588Y-124748375D02*
X190427588Y-126018375D01*
X190427588Y-124748375D02*
X189411588Y-126018375D01*
X191733874Y-124748375D02*
X191008160Y-124748375D01*
X190935588Y-125353137D01*
X191008160Y-125292661D01*
X191153302Y-125232185D01*
X191516160Y-125232185D01*
X191661302Y-125292661D01*
X191733874Y-125353137D01*
X191806445Y-125474090D01*
X191806445Y-125776471D01*
X191733874Y-125897423D01*
X191661302Y-125957899D01*
X191516160Y-126018375D01*
X191153302Y-126018375D01*
X191008160Y-125957899D01*
X190935588Y-125897423D01*
X192532160Y-126018375D02*
X192822445Y-126018375D01*
X192967588Y-125957899D01*
X193040160Y-125897423D01*
X193185302Y-125715994D01*
X193257874Y-125474090D01*
X193257874Y-124990280D01*
X193185302Y-124869328D01*
X193112731Y-124808852D01*
X192967588Y-124748375D01*
X192677302Y-124748375D01*
X192532160Y-124808852D01*
X192459588Y-124869328D01*
X192387017Y-124990280D01*
X192387017Y-125292661D01*
X192459588Y-125413613D01*
X192532160Y-125474090D01*
X192677302Y-125534566D01*
X192967588Y-125534566D01*
X193112731Y-125474090D01*
X193185302Y-125413613D01*
X193257874Y-125292661D01*
X187815017Y-145068391D02*
X187815017Y-143798391D01*
X188323017Y-144705534D01*
X188831017Y-143798391D01*
X188831017Y-145068391D01*
X189411588Y-143798391D02*
X190427588Y-145068391D01*
X190427588Y-143798391D02*
X189411588Y-145068391D01*
X191661302Y-143798391D02*
X191371017Y-143798391D01*
X191225874Y-143858868D01*
X191153302Y-143919344D01*
X191008160Y-144100772D01*
X190935588Y-144342677D01*
X190935588Y-144826487D01*
X191008160Y-144947439D01*
X191080731Y-145007915D01*
X191225874Y-145068391D01*
X191516160Y-145068391D01*
X191661302Y-145007915D01*
X191733874Y-144947439D01*
X191806445Y-144826487D01*
X191806445Y-144524106D01*
X191733874Y-144403153D01*
X191661302Y-144342677D01*
X191516160Y-144282201D01*
X191225874Y-144282201D01*
X191080731Y-144342677D01*
X191008160Y-144403153D01*
X190935588Y-144524106D01*
X192749874Y-143798391D02*
X192895017Y-143798391D01*
X193040160Y-143858868D01*
X193112731Y-143919344D01*
X193185302Y-144040296D01*
X193257874Y-144282201D01*
X193257874Y-144584582D01*
X193185302Y-144826487D01*
X193112731Y-144947439D01*
X193040160Y-145007915D01*
X192895017Y-145068391D01*
X192749874Y-145068391D01*
X192604731Y-145007915D01*
X192532160Y-144947439D01*
X192459588Y-144826487D01*
X192387017Y-144584582D01*
X192387017Y-144282201D01*
X192459588Y-144040296D01*
X192532160Y-143919344D01*
X192604731Y-143858868D01*
X192749874Y-143798391D01*
X157171707Y-132180275D02*
X157244278Y-132119799D01*
X157389421Y-132059322D01*
X157752278Y-132059322D01*
X157897421Y-132119799D01*
X157969993Y-132180275D01*
X158042564Y-132301227D01*
X158042564Y-132422179D01*
X157969993Y-132603608D01*
X157099136Y-133329322D01*
X158042564Y-133329322D01*
X159348850Y-132482656D02*
X159348850Y-133329322D01*
X158695707Y-132482656D02*
X158695707Y-133147894D01*
X158768278Y-133268846D01*
X158913421Y-133329322D01*
X159131136Y-133329322D01*
X159276278Y-133268846D01*
X159348850Y-133208370D01*
X159711707Y-133450275D02*
X160872850Y-133450275D01*
X161235707Y-133329322D02*
X161235707Y-132059322D01*
X161743707Y-132966465D01*
X162251707Y-132059322D01*
X162251707Y-133329322D01*
X162832278Y-132059322D02*
X163848278Y-133329322D01*
X163848278Y-132059322D02*
X162832278Y-133329322D01*
X164283707Y-132059322D02*
X165227136Y-132059322D01*
X164719136Y-132543132D01*
X164936850Y-132543132D01*
X165081993Y-132603608D01*
X165154564Y-132664084D01*
X165227136Y-132785037D01*
X165227136Y-133087418D01*
X165154564Y-133208370D01*
X165081993Y-133268846D01*
X164936850Y-133329322D01*
X164501421Y-133329322D01*
X164356278Y-133268846D01*
X164283707Y-133208370D01*
X166170564Y-132059322D02*
X166315707Y-132059322D01*
X166460850Y-132119799D01*
X166533421Y-132180275D01*
X166605993Y-132301227D01*
X166678564Y-132543132D01*
X166678564Y-132845513D01*
X166605993Y-133087418D01*
X166533421Y-133208370D01*
X166460850Y-133268846D01*
X166315707Y-133329322D01*
X166170564Y-133329322D01*
X166025421Y-133268846D01*
X165952850Y-133208370D01*
X165880278Y-133087418D01*
X165807707Y-132845513D01*
X165807707Y-132543132D01*
X165880278Y-132301227D01*
X165952850Y-132180275D01*
X166025421Y-132119799D01*
X166170564Y-132059322D01*
X195271739Y-132180275D02*
X195344310Y-132119799D01*
X195489453Y-132059322D01*
X195852310Y-132059322D01*
X195997453Y-132119799D01*
X196070025Y-132180275D01*
X196142596Y-132301227D01*
X196142596Y-132422179D01*
X196070025Y-132603608D01*
X195199168Y-133329322D01*
X196142596Y-133329322D01*
X197448882Y-132482656D02*
X197448882Y-133329322D01*
X196795739Y-132482656D02*
X196795739Y-133147894D01*
X196868310Y-133268846D01*
X197013453Y-133329322D01*
X197231168Y-133329322D01*
X197376310Y-133268846D01*
X197448882Y-133208370D01*
X197811739Y-133450275D02*
X198972882Y-133450275D01*
X199335739Y-133329322D02*
X199335739Y-132059322D01*
X199843739Y-132966465D01*
X200351739Y-132059322D01*
X200351739Y-133329322D01*
X200932310Y-132059322D02*
X201948310Y-133329322D01*
X201948310Y-132059322D02*
X200932310Y-133329322D01*
X203182025Y-132059322D02*
X202891739Y-132059322D01*
X202746596Y-132119799D01*
X202674025Y-132180275D01*
X202528882Y-132361703D01*
X202456310Y-132603608D01*
X202456310Y-133087418D01*
X202528882Y-133208370D01*
X202601453Y-133268846D01*
X202746596Y-133329322D01*
X203036882Y-133329322D01*
X203182025Y-133268846D01*
X203254596Y-133208370D01*
X203327168Y-133087418D01*
X203327168Y-132785037D01*
X203254596Y-132664084D01*
X203182025Y-132603608D01*
X203036882Y-132543132D01*
X202746596Y-132543132D01*
X202601453Y-132603608D01*
X202528882Y-132664084D01*
X202456310Y-132785037D01*
X204270596Y-132059322D02*
X204415739Y-132059322D01*
X204560882Y-132119799D01*
X204633453Y-132180275D01*
X204706025Y-132301227D01*
X204778596Y-132543132D01*
X204778596Y-132845513D01*
X204706025Y-133087418D01*
X204633453Y-133208370D01*
X204560882Y-133268846D01*
X204415739Y-133329322D01*
X204270596Y-133329322D01*
X204125453Y-133268846D01*
X204052882Y-133208370D01*
X203980310Y-133087418D01*
X203907739Y-132845513D01*
X203907739Y-132543132D01*
X203980310Y-132301227D01*
X204052882Y-132180275D01*
X204125453Y-132119799D01*
X204270596Y-132059322D01*
M02*
