G04 #@! TF.GenerationSoftware,KiCad,Pcbnew,(5.1.4-0-10_14)*
G04 #@! TF.CreationDate,2020-12-11T22:59:58+01:00*
G04 #@! TF.ProjectId,crosshatch,63726f73-7368-4617-9463-682e6b696361,rev?*
G04 #@! TF.SameCoordinates,Original*
G04 #@! TF.FileFunction,Copper,L2,Bot*
G04 #@! TF.FilePolarity,Positive*
%FSLAX46Y46*%
G04 Gerber Fmt 4.6, Leading zero omitted, Abs format (unit mm)*
G04 Created by KiCad (PCBNEW (5.1.4-0-10_14)) date 2020-12-11 22:59:58*
%MOMM*%
%LPD*%
G04 APERTURE LIST*
%ADD10C,2.286000*%
%ADD11C,1.710000*%
%ADD12R,1.600000X1.600000*%
%ADD13O,1.600000X1.600000*%
%ADD14O,11.600000X5.000000*%
%ADD15C,5.000000*%
%ADD16R,1.200000X1.200000*%
%ADD17C,1.200000*%
%ADD18C,1.600000*%
%ADD19R,1.100000X1.100000*%
%ADD20C,1.100000*%
%ADD21O,2.000000X2.000000*%
%ADD22R,1.700000X1.700000*%
%ADD23O,1.700000X1.700000*%
%ADD24R,1.800000X1.800000*%
%ADD25C,1.800000*%
%ADD26O,1.400000X1.400000*%
%ADD27C,1.400000*%
%ADD28C,2.000000*%
%ADD29C,1.500000*%
%ADD30C,0.600000*%
%ADD31C,0.800000*%
%ADD32C,0.250000*%
%ADD33C,0.254000*%
G04 APERTURE END LIST*
D10*
X224790192Y-61753804D03*
X231140192Y-59213804D03*
D11*
X26193772Y-68302247D03*
X26193772Y-73382247D03*
D12*
X27384398Y-139303242D03*
D13*
X27384398Y-146923242D03*
D12*
X56554735Y-133350112D03*
D13*
X64174735Y-133350112D03*
D10*
X167640144Y-99853836D03*
X173990144Y-97313836D03*
X281940240Y-80803820D03*
X288290240Y-78263820D03*
D12*
X49410979Y-118467287D03*
D13*
X41790979Y-118467287D03*
D12*
X54173483Y-76795377D03*
D13*
X61793483Y-76795377D03*
X64174735Y-67865682D03*
D12*
X56554735Y-67865682D03*
D10*
X224790192Y-118903852D03*
X231140192Y-116363852D03*
X243840208Y-80803820D03*
X250190208Y-78263820D03*
X243840208Y-61753804D03*
X250190208Y-59213804D03*
X262890224Y-80803820D03*
X269240224Y-78263820D03*
X243840208Y-99853836D03*
X250190208Y-97313836D03*
X281940240Y-99853836D03*
X288290240Y-97313836D03*
X262890224Y-99853836D03*
X269240224Y-97313836D03*
X281940240Y-118903852D03*
X288290240Y-116363852D03*
X262890224Y-118903852D03*
X269240224Y-116363852D03*
X224790192Y-99853836D03*
X231140192Y-97313836D03*
X205740176Y-99853836D03*
X212090176Y-97313836D03*
X281940240Y-137953868D03*
X288290240Y-135413868D03*
X243840208Y-118903852D03*
X250190208Y-116363852D03*
X205740176Y-118903852D03*
X212090176Y-116363852D03*
X262890224Y-137953868D03*
X269240224Y-135413868D03*
X243840208Y-137953868D03*
X250190208Y-135413868D03*
X224790192Y-137953868D03*
X231140192Y-135413868D03*
X212090176Y-135413868D03*
X205740176Y-137953868D03*
X167640144Y-61753804D03*
X173990144Y-59213804D03*
X167640144Y-80803820D03*
X173990144Y-78263820D03*
X129540112Y-80803820D03*
X135890112Y-78263820D03*
X148590128Y-137953868D03*
X154940128Y-135413868D03*
X110490096Y-137953868D03*
X116840096Y-135413868D03*
X72390064Y-80803820D03*
X78740064Y-78263820D03*
D14*
X13096886Y-111323531D03*
X291703370Y-111323531D03*
D15*
X14287512Y-59531300D03*
X61912552Y-59531300D03*
X14287512Y-144661059D03*
X61912552Y-144661059D03*
D10*
X72390016Y-61753750D03*
X78740016Y-59213750D03*
X91440080Y-61753804D03*
X97790080Y-59213804D03*
X110490096Y-61753804D03*
X116840096Y-59213804D03*
X129540112Y-61753804D03*
X135890112Y-59213804D03*
X148590128Y-61753804D03*
X154940128Y-59213804D03*
X281940240Y-61753804D03*
X288290240Y-59213804D03*
X262890224Y-61753804D03*
X269240224Y-59213804D03*
X91440080Y-80803820D03*
X97790080Y-78263820D03*
X110490096Y-80803820D03*
X116840096Y-78263820D03*
X224790192Y-80803820D03*
X231140192Y-78263820D03*
X72390064Y-99853836D03*
X78740064Y-97313836D03*
X91440080Y-99853836D03*
X97790080Y-97313836D03*
X110490096Y-99853836D03*
X116840096Y-97313836D03*
X148590128Y-80803820D03*
X154940128Y-78263820D03*
X205740176Y-80803820D03*
X212090176Y-78263820D03*
X72390064Y-118903852D03*
X78740064Y-116363852D03*
X91440080Y-118903852D03*
X97790080Y-116363852D03*
X129540112Y-99853836D03*
X135890112Y-97313836D03*
X148590128Y-99853836D03*
X154940128Y-97313836D03*
X72390064Y-137953868D03*
X78740064Y-135413868D03*
X110490096Y-118903852D03*
X116840096Y-116363852D03*
X129540112Y-118903852D03*
X135890112Y-116363852D03*
X148590128Y-118903852D03*
X154940128Y-116363852D03*
X91440080Y-137953868D03*
X97790080Y-135413868D03*
X129540112Y-137953868D03*
X135890112Y-135413868D03*
D16*
X30051589Y-80962568D03*
D17*
X31551589Y-80962568D03*
D18*
X28337528Y-129182921D03*
X33337528Y-129182921D03*
X33337528Y-132159486D03*
X28337528Y-132159486D03*
X14287512Y-104893836D03*
X14287512Y-102393836D03*
X14287512Y-97036019D03*
X14287512Y-99536019D03*
D19*
X29765650Y-63103178D03*
D20*
X28965650Y-61353178D03*
X28165650Y-63103178D03*
X27365650Y-61353178D03*
X26565650Y-63103178D03*
D21*
X32065650Y-61353178D03*
X32065650Y-56653178D03*
X24265650Y-56653178D03*
X24265650Y-61353178D03*
D22*
X14882825Y-79771942D03*
D23*
X14882825Y-77231942D03*
X17422825Y-79771942D03*
X17422825Y-77231942D03*
X19962825Y-79771942D03*
X19962825Y-77231942D03*
D24*
X54173483Y-59531300D03*
D25*
X51633483Y-59531300D03*
D26*
X19645329Y-124420417D03*
D27*
X14565329Y-124420417D03*
X19645329Y-122039165D03*
D26*
X14565329Y-122039165D03*
D27*
X19645329Y-119657913D03*
D26*
X14565329Y-119657913D03*
X14565329Y-117276661D03*
D27*
X19645329Y-117276661D03*
X36314093Y-60721926D03*
D26*
X41394093Y-60721926D03*
D28*
X19382825Y-72628186D03*
X14882825Y-72628186D03*
X19382825Y-66128186D03*
X14882825Y-66128186D03*
X14882825Y-84582889D03*
X19382825Y-84582889D03*
X14882825Y-91082889D03*
X19382825Y-91082889D03*
D29*
X19050016Y-98226645D03*
X19050016Y-103106645D03*
D12*
X26908154Y-87511011D03*
D13*
X34528154Y-120531011D03*
X26908154Y-90051011D03*
X34528154Y-117991011D03*
X26908154Y-92591011D03*
X34528154Y-115451011D03*
X26908154Y-95131011D03*
X34528154Y-112911011D03*
X26908154Y-97671011D03*
X34528154Y-110371011D03*
X26908154Y-100211011D03*
X34528154Y-107831011D03*
X26908154Y-102751011D03*
X34528154Y-105291011D03*
X26908154Y-105291011D03*
X34528154Y-102751011D03*
X26908154Y-107831011D03*
X34528154Y-100211011D03*
X26908154Y-110371011D03*
X34528154Y-97671011D03*
X26908154Y-112911011D03*
X34528154Y-95131011D03*
X26908154Y-115451011D03*
X34528154Y-92591011D03*
X26908154Y-117991011D03*
X34528154Y-90051011D03*
X26908154Y-120531011D03*
X34528154Y-87511011D03*
D12*
X14406581Y-129182921D03*
D13*
X22026581Y-129182921D03*
X22026581Y-132159486D03*
D12*
X14406581Y-132159486D03*
X54173483Y-64889117D03*
D13*
X61793483Y-64889117D03*
D12*
X49410979Y-64889117D03*
D13*
X41790979Y-64889117D03*
X39409727Y-67865682D03*
D12*
X47029727Y-67865682D03*
X49410979Y-70842247D03*
D13*
X41790979Y-70842247D03*
D12*
X56554735Y-79771942D03*
D13*
X64174735Y-79771942D03*
X39409727Y-79771942D03*
D12*
X47029727Y-79771942D03*
X49410979Y-76795377D03*
D13*
X41790979Y-76795377D03*
D12*
X47029727Y-97631332D03*
D13*
X39409727Y-97631332D03*
D12*
X56554735Y-97631332D03*
D13*
X64174735Y-97631332D03*
X61793483Y-94654767D03*
D12*
X54173483Y-94654767D03*
D13*
X41790979Y-94654767D03*
D12*
X49410979Y-94654767D03*
X54173483Y-70842247D03*
D13*
X61793483Y-70842247D03*
X41790979Y-82748507D03*
D12*
X49410979Y-82748507D03*
X54173483Y-82748507D03*
D13*
X61793483Y-82748507D03*
D12*
X47029727Y-85725072D03*
D13*
X39409727Y-85725072D03*
D12*
X56554735Y-85725072D03*
D13*
X64174735Y-85725072D03*
X41790979Y-100607897D03*
D12*
X49410979Y-100607897D03*
D13*
X61793483Y-100607897D03*
D12*
X54173483Y-100607897D03*
D13*
X39409727Y-103584462D03*
D12*
X47029727Y-103584462D03*
X56554735Y-91678202D03*
D13*
X64174735Y-91678202D03*
D12*
X47029727Y-91678202D03*
D13*
X39409727Y-91678202D03*
D12*
X56554735Y-115490722D03*
D13*
X64174735Y-115490722D03*
D12*
X47029727Y-115490722D03*
D13*
X39409727Y-115490722D03*
D12*
X54173483Y-112514157D03*
D13*
X61793483Y-112514157D03*
D12*
X49410979Y-88701637D03*
D13*
X41790979Y-88701637D03*
X39409727Y-133350112D03*
D12*
X47029727Y-133350112D03*
D13*
X64174735Y-103584462D03*
D12*
X56554735Y-103584462D03*
X49410979Y-106561027D03*
D13*
X41790979Y-106561027D03*
D12*
X54173483Y-106561027D03*
D13*
X61793483Y-106561027D03*
D12*
X54173483Y-118467287D03*
D13*
X61793483Y-118467287D03*
D12*
X49410979Y-112514157D03*
D13*
X41790979Y-112514157D03*
D12*
X56554735Y-109537592D03*
D13*
X64174735Y-109537592D03*
X21431268Y-146923242D03*
D12*
X21431268Y-139303242D03*
D13*
X61793483Y-130373547D03*
D12*
X54173483Y-130373547D03*
D13*
X41790979Y-130373547D03*
D12*
X49410979Y-130373547D03*
D13*
X64174735Y-127396982D03*
D12*
X56554735Y-127396982D03*
D13*
X54768796Y-146923242D03*
D12*
X54768796Y-139303242D03*
D13*
X39409727Y-121443852D03*
D12*
X47029727Y-121443852D03*
D13*
X64174735Y-121443852D03*
D12*
X56554735Y-121443852D03*
D13*
X41790979Y-124420417D03*
D12*
X49410979Y-124420417D03*
X24407833Y-136921990D03*
D13*
X24407833Y-144541990D03*
D12*
X30360963Y-136921990D03*
D13*
X30360963Y-144541990D03*
D12*
X33337528Y-139303242D03*
D13*
X33337528Y-146923242D03*
D12*
X51792231Y-136921990D03*
D13*
X51792231Y-144541990D03*
D12*
X48815666Y-139303242D03*
D13*
X48815666Y-146923242D03*
D12*
X45839101Y-136921990D03*
D13*
X45839101Y-144541990D03*
D12*
X42862536Y-139303242D03*
D13*
X42862536Y-146923242D03*
D24*
X47625040Y-59531300D03*
D25*
X45085040Y-59531300D03*
D27*
X36314093Y-58340674D03*
D26*
X41394093Y-58340674D03*
D13*
X39409727Y-127396982D03*
D12*
X47029727Y-127396982D03*
X36314093Y-136921990D03*
D13*
X36314093Y-144541990D03*
X64174735Y-73818812D03*
D12*
X56554735Y-73818812D03*
X47029727Y-73818812D03*
D13*
X39409727Y-73818812D03*
X61793483Y-88701637D03*
D12*
X54173483Y-88701637D03*
X47029727Y-109537592D03*
D13*
X39409727Y-109537592D03*
X61793483Y-124420417D03*
D12*
X54173483Y-124420417D03*
X39885971Y-136921990D03*
D13*
X39885971Y-144541990D03*
D10*
X167640144Y-118903852D03*
X173990144Y-116363852D03*
X173990144Y-135413868D03*
X167640144Y-137953868D03*
X205740176Y-61753804D03*
X212090176Y-59213804D03*
X193040160Y-59213804D03*
X186690160Y-61753804D03*
X186690160Y-80803820D03*
X193040160Y-78263820D03*
X186690160Y-99853836D03*
X193040160Y-97313836D03*
X193040160Y-116363852D03*
X186690160Y-118903852D03*
X193040160Y-135413868D03*
X186690160Y-137953868D03*
X164465136Y-135413868D03*
X158115136Y-137953868D03*
X196215168Y-137953868D03*
X202565168Y-135413868D03*
D30*
X23217207Y-119062600D03*
X29765650Y-101798523D03*
X29170337Y-106561027D03*
X29170337Y-109537592D03*
X32742215Y-104179775D03*
X28575024Y-94059454D03*
X28575024Y-97036019D03*
X28575024Y-91082889D03*
X32742215Y-95845393D03*
X22621894Y-98226645D03*
X23812520Y-102393836D03*
X23812520Y-105965714D03*
X23217207Y-122039165D03*
X32146902Y-119062600D03*
X32146902Y-114895409D03*
X38100032Y-101798523D03*
X37504719Y-110728218D03*
X37504719Y-106561027D03*
X31551589Y-84534446D03*
X32742215Y-98821958D03*
X33654928Y-74428376D03*
X36909406Y-74414125D03*
X36314093Y-94059454D03*
X37504719Y-124420417D03*
X36909406Y-114895409D03*
X38695345Y-117871974D03*
X32146902Y-123229791D03*
X23217207Y-114300096D03*
X30956276Y-77390690D03*
X28575024Y-74414125D03*
X23812520Y-87511011D03*
X22621894Y-84534446D03*
X23812520Y-94654767D03*
X29170337Y-67865682D03*
X22621894Y-67865682D03*
X36909406Y-67865682D03*
X30956276Y-72628186D03*
X26789085Y-84534446D03*
X69651613Y-96440706D03*
X37504719Y-62507865D03*
D31*
X28651589Y-80962568D02*
X30051589Y-80962568D01*
X26193772Y-78504751D02*
X28651589Y-80962568D01*
X26193772Y-73382247D02*
X26193772Y-78504751D01*
X24926581Y-79771942D02*
X26193772Y-78504751D01*
X19962825Y-79771942D02*
X24926581Y-79771942D01*
X28337528Y-129182921D02*
X28337528Y-132159486D01*
X30051589Y-127468860D02*
X28337528Y-129182921D01*
X30051589Y-112307576D02*
X30051589Y-127468860D01*
X34528154Y-107831011D02*
X30051589Y-112307576D01*
X30051589Y-99607576D02*
X26908154Y-102751011D01*
X30051589Y-80962568D02*
X30051589Y-99607576D01*
X28336886Y-102751011D02*
X33337528Y-107751653D01*
X34448796Y-107751653D02*
X34528154Y-107831011D01*
X33337528Y-107751653D02*
X34448796Y-107751653D01*
X26908154Y-102751011D02*
X28336886Y-102751011D01*
X17859390Y-119062600D02*
X19645329Y-117276661D01*
X17859390Y-122634478D02*
X17859390Y-119062600D01*
X19645329Y-124420417D02*
X17859390Y-122634478D01*
D32*
X47029727Y-115490722D02*
X56554735Y-115490722D01*
X49410979Y-118467287D02*
X54173483Y-118467287D01*
X56554735Y-133350112D02*
X47029727Y-133350112D01*
X52593795Y-138178241D02*
X23606269Y-138178241D01*
X53718796Y-139303242D02*
X52593795Y-138178241D01*
X22481268Y-139303242D02*
X21431268Y-139303242D01*
X23606269Y-138178241D02*
X22481268Y-139303242D01*
X54768796Y-139303242D02*
X53718796Y-139303242D01*
X45904726Y-122568853D02*
X47029727Y-121443852D01*
X34528154Y-118227281D02*
X38869726Y-122568853D01*
X38869726Y-122568853D02*
X45904726Y-122568853D01*
X34528154Y-117991011D02*
X34528154Y-118227281D01*
X42584719Y-59531300D02*
X45085040Y-59531300D01*
X41394093Y-58340674D02*
X42584719Y-59531300D01*
X129540112Y-80803820D02*
X148590128Y-80803820D01*
X16523462Y-92723526D02*
X14882825Y-91082889D01*
X16523462Y-102526319D02*
X16523462Y-92723526D01*
X26908154Y-112911011D02*
X16523462Y-102526319D01*
X144582127Y-95845835D02*
X148590128Y-99853836D01*
X70246484Y-95845835D02*
X144582127Y-95845835D01*
X69651613Y-96440706D02*
X70246484Y-95845835D01*
X72390064Y-137953868D02*
X91440080Y-137953868D01*
X25889064Y-121550101D02*
X25889064Y-133127600D01*
X26908154Y-120531011D02*
X25889064Y-121550101D01*
X69876956Y-135440760D02*
X72390064Y-137953868D01*
X28202224Y-135440760D02*
X69876956Y-135440760D01*
X25889064Y-133127600D02*
X28202224Y-135440760D01*
X91440080Y-118903852D02*
X110490096Y-118903852D01*
X105741038Y-133204810D02*
X110490096Y-137953868D01*
X28388624Y-134990749D02*
X75154740Y-134990749D01*
X28033155Y-126111815D02*
X26339075Y-127805894D01*
X28033155Y-119116012D02*
X28033155Y-126111815D01*
X75154740Y-134990749D02*
X76940679Y-133204810D01*
X26339076Y-132941200D02*
X28388624Y-134990749D01*
X26339075Y-127805894D02*
X26339076Y-132941200D01*
X76940679Y-133204810D02*
X105741038Y-133204810D01*
X26908154Y-117991011D02*
X28033155Y-119116012D01*
X26789085Y-132754799D02*
X28575024Y-134540738D01*
X28575024Y-134540738D02*
X74968341Y-134540738D01*
X26908154Y-115451011D02*
X28575024Y-117117881D01*
X28575024Y-117117881D02*
X28575024Y-126206356D01*
X28575024Y-126206356D02*
X26789086Y-127992294D01*
X26789086Y-127992294D02*
X26789085Y-132754799D01*
X74968341Y-134540738D02*
X76754280Y-132754799D01*
X76754280Y-132754799D02*
X114072719Y-132754799D01*
X114072719Y-132754799D02*
X127923666Y-118903852D01*
X127923666Y-118903852D02*
X129540112Y-118903852D01*
X158115136Y-137953868D02*
X167640144Y-137953868D01*
X30070357Y-69942227D02*
X37504719Y-62507865D01*
X12657805Y-86318871D02*
X12657805Y-72892204D01*
X15607782Y-69942227D02*
X30070357Y-69942227D01*
X12657805Y-72892204D02*
X15607782Y-69942227D01*
X26549945Y-100211011D02*
X12657805Y-86318871D01*
X26908154Y-100211011D02*
X26549945Y-100211011D01*
X30687679Y-70392237D02*
X19021361Y-70392237D01*
X24780482Y-92591011D02*
X26908154Y-92591011D01*
X13107814Y-80918344D02*
X24780482Y-92591011D01*
X276145858Y-55959422D02*
X60667018Y-55959422D01*
X281940240Y-61753804D02*
X276145858Y-55959422D01*
X60667018Y-55959422D02*
X54873295Y-61753145D01*
X54873295Y-61753145D02*
X39326771Y-61753145D01*
X39326771Y-61753145D02*
X30687679Y-70392237D01*
X19021361Y-70392237D02*
X13107814Y-76305784D01*
X13107814Y-76305784D02*
X13107814Y-80918344D01*
X262890224Y-118903852D02*
X243840208Y-118903852D01*
X257545853Y-56409433D02*
X262890224Y-61753804D01*
X60853418Y-56409433D02*
X257545853Y-56409433D01*
X30874079Y-70842248D02*
X39513171Y-62203156D01*
X22876892Y-90051011D02*
X13557825Y-80731944D01*
X13557825Y-76492184D02*
X19207761Y-70842248D01*
X19207761Y-70842248D02*
X30874079Y-70842248D01*
X39513171Y-62203156D02*
X55059695Y-62203156D01*
X13557825Y-80731944D02*
X13557825Y-76492184D01*
X26908154Y-90051011D02*
X22876892Y-90051011D01*
X55059695Y-62203156D02*
X60853418Y-56409433D01*
X220186436Y-95250080D02*
X224790192Y-99853836D01*
X65443333Y-98821958D02*
X69015211Y-95250080D01*
X35679101Y-98821958D02*
X65443333Y-98821958D01*
X69015211Y-95250080D02*
X220186436Y-95250080D01*
X34528154Y-97671011D02*
X35679101Y-98821958D01*
X205740176Y-80803820D02*
X224790192Y-80803820D01*
X219895832Y-56859444D02*
X224790192Y-61753804D01*
X71687066Y-56859444D02*
X219895832Y-56859444D01*
X65893344Y-62653167D02*
X71687066Y-56859444D01*
X39699571Y-62653167D02*
X65893344Y-62653167D01*
X32742215Y-69610523D02*
X39699571Y-62653167D01*
X32742215Y-93345072D02*
X32742215Y-69610523D01*
X34528154Y-95131011D02*
X32742215Y-93345072D01*
X26314382Y-110371011D02*
X26908154Y-110371011D01*
X19050016Y-103106645D02*
X26314382Y-110371011D01*
X19050016Y-99972873D02*
X26908154Y-107831011D01*
X19050016Y-98226645D02*
X19050016Y-99972873D01*
D31*
X26565650Y-67930369D02*
X26193772Y-68302247D01*
X26565650Y-63103178D02*
X26565650Y-67930369D01*
D32*
X71837305Y-59213750D02*
X66161938Y-64889117D01*
X78740016Y-59213750D02*
X71837305Y-59213750D01*
X66161938Y-64889117D02*
X61793483Y-64889117D01*
X78740064Y-84235794D02*
X67130465Y-95845393D01*
X78740064Y-78263820D02*
X78740064Y-84235794D01*
X41195666Y-95845393D02*
X39409727Y-97631332D01*
X67130465Y-95845393D02*
X41195666Y-95845393D01*
X65484430Y-99417271D02*
X42981605Y-99417271D01*
X78740064Y-97313836D02*
X67587865Y-97313836D01*
X42981605Y-99417271D02*
X41790979Y-100607897D01*
X67587865Y-97313836D02*
X65484430Y-99417271D01*
X68925104Y-119728076D02*
X68925104Y-128599743D01*
X68925104Y-128599743D02*
X64174735Y-133350112D01*
X72289329Y-116363852D02*
X68925104Y-119728076D01*
X78740064Y-116363852D02*
X72289329Y-116363852D01*
X66584903Y-66079743D02*
X42981605Y-66079743D01*
X97790080Y-59213804D02*
X97790080Y-65185778D01*
X67705004Y-67199844D02*
X66584903Y-66079743D01*
X42981605Y-66079743D02*
X41790979Y-64889117D01*
X95776014Y-67199844D02*
X67705004Y-67199844D01*
X97790080Y-65185778D02*
X95776014Y-67199844D01*
X65980936Y-97631332D02*
X64174735Y-97631332D01*
X79190073Y-84422195D02*
X65980936Y-97631332D01*
X79190073Y-82139750D02*
X79190073Y-84422195D01*
X83066003Y-78263820D02*
X79190073Y-82139750D01*
X97790080Y-78263820D02*
X83066003Y-78263820D01*
X64293804Y-100607897D02*
X61793483Y-100607897D01*
X68535772Y-104849865D02*
X64293804Y-100607897D01*
X97790080Y-97313836D02*
X97790080Y-103285810D01*
X96226025Y-104849865D02*
X68535772Y-104849865D01*
X97790080Y-103285810D02*
X96226025Y-104849865D01*
X68475093Y-119541678D02*
X68475093Y-126034448D01*
X40534728Y-132225111D02*
X39409727Y-133350112D01*
X62284428Y-132225111D02*
X40534728Y-132225111D01*
X97790080Y-116363852D02*
X95726324Y-114300096D01*
X95726324Y-114300096D02*
X73716674Y-114300096D01*
X73716674Y-114300096D02*
X68475093Y-119541678D01*
X68475093Y-126034448D02*
X62284428Y-132225111D01*
X68025082Y-125848048D02*
X63499582Y-130373547D01*
X73530274Y-113850085D02*
X68025082Y-119355277D01*
X114326329Y-113850085D02*
X73530274Y-113850085D01*
X68025082Y-119355277D02*
X68025082Y-125848048D01*
X63499582Y-130373547D02*
X61793483Y-130373547D01*
X116840096Y-116363852D02*
X114326329Y-113850085D01*
X116840096Y-59213804D02*
X116840096Y-65185778D01*
X114376019Y-67649855D02*
X67518605Y-67649855D01*
X40534728Y-66740681D02*
X39409727Y-67865682D01*
X66609431Y-66740681D02*
X40534728Y-66740681D01*
X116840096Y-65185778D02*
X114376019Y-67649855D01*
X67518605Y-67649855D02*
X66609431Y-66740681D01*
X63499582Y-94654767D02*
X61793483Y-94654767D01*
X110775565Y-76200064D02*
X73223499Y-76200064D01*
X116840096Y-78263820D02*
X112839321Y-78263820D01*
X69534525Y-79889038D02*
X69534525Y-88619825D01*
X69534525Y-88619825D02*
X63499582Y-94654767D01*
X112839321Y-78263820D02*
X110775565Y-76200064D01*
X73223499Y-76200064D02*
X69534525Y-79889038D01*
X41195666Y-101798523D02*
X39409727Y-103584462D01*
X68349372Y-105299876D02*
X64848020Y-101798523D01*
X116840096Y-97313836D02*
X116840096Y-103285810D01*
X114826030Y-105299876D02*
X68349372Y-105299876D01*
X64848020Y-101798523D02*
X41195666Y-101798523D01*
X116840096Y-103285810D02*
X114826030Y-105299876D01*
X65997549Y-103584462D02*
X64174735Y-103584462D01*
X68162972Y-105749887D02*
X65997549Y-103584462D01*
X133565939Y-105749887D02*
X68162972Y-105749887D01*
X135890112Y-103425714D02*
X133565939Y-105749887D01*
X135890112Y-97313836D02*
X135890112Y-103425714D01*
X63988173Y-129248546D02*
X42915980Y-129248546D01*
X67575071Y-119168877D02*
X67575071Y-125661648D01*
X135890112Y-116363852D02*
X132926334Y-113400074D01*
X73343874Y-113400074D02*
X67575071Y-119168877D01*
X42915980Y-129248546D02*
X41790979Y-130373547D01*
X132926334Y-113400074D02*
X73343874Y-113400074D01*
X67575071Y-125661648D02*
X63988173Y-129248546D01*
X135890112Y-65185778D02*
X132976024Y-68099866D01*
X135890112Y-59213804D02*
X135890112Y-65185778D01*
X65540289Y-68099866D02*
X65306105Y-67865682D01*
X65306105Y-67865682D02*
X64174735Y-67865682D01*
X132976024Y-68099866D02*
X65540289Y-68099866D01*
X64649111Y-92868828D02*
X43576918Y-92868828D01*
X43576918Y-92868828D02*
X41790979Y-94654767D01*
X69084514Y-88433425D02*
X64649111Y-92868828D01*
X69084514Y-79702638D02*
X69084514Y-88433425D01*
X73037099Y-75750053D02*
X69084514Y-79702638D01*
X133376345Y-75750053D02*
X73037099Y-75750053D01*
X135890112Y-78263820D02*
X133376345Y-75750053D01*
X68634503Y-87218434D02*
X64174735Y-91678202D01*
X151976350Y-75300042D02*
X72850699Y-75300042D01*
X72850699Y-75300042D02*
X68634503Y-79516238D01*
X154940128Y-78263820D02*
X151976350Y-75300042D01*
X68634503Y-79516238D02*
X68634503Y-87218434D01*
X42915980Y-105436026D02*
X41790979Y-106561027D01*
X67212702Y-105436026D02*
X42915980Y-105436026D01*
X67976572Y-106199898D02*
X67212702Y-105436026D01*
X152165944Y-106199898D02*
X67976572Y-106199898D01*
X154940128Y-103425714D02*
X152165944Y-106199898D01*
X154940128Y-97313836D02*
X154940128Y-103425714D01*
X67125060Y-124446657D02*
X64174735Y-127396982D01*
X151526339Y-112950063D02*
X73157474Y-112950063D01*
X67125060Y-118982477D02*
X67125060Y-124446657D01*
X73157474Y-112950063D02*
X67125060Y-118982477D01*
X154940128Y-116363852D02*
X151526339Y-112950063D01*
X154940128Y-59213804D02*
X154940128Y-65185778D01*
X42915980Y-69717246D02*
X41790979Y-70842247D01*
X151576029Y-68549877D02*
X67954453Y-68549877D01*
X154940128Y-65185778D02*
X151576029Y-68549877D01*
X66787084Y-69717246D02*
X42915980Y-69717246D01*
X67954453Y-68549877D02*
X66787084Y-69717246D01*
X67240601Y-70842247D02*
X61793483Y-70842247D01*
X69082960Y-68999888D02*
X67240601Y-70842247D01*
X170176034Y-68999888D02*
X69082960Y-68999888D01*
X173990144Y-59213804D02*
X173990144Y-65185778D01*
X173990144Y-65185778D02*
X170176034Y-68999888D01*
X63013735Y-106649909D02*
X62924853Y-106561027D01*
X170611940Y-106664014D02*
X154150044Y-106664014D01*
X173990144Y-97313836D02*
X173990144Y-103285810D01*
X62924853Y-106561027D02*
X61793483Y-106561027D01*
X173990144Y-103285810D02*
X170611940Y-106664014D01*
X154135939Y-106649909D02*
X63013735Y-106649909D01*
X154150044Y-106664014D02*
X154135939Y-106649909D01*
X170140449Y-112514157D02*
X151726844Y-112514157D01*
X40534728Y-126271981D02*
X39409727Y-127396982D01*
X62524436Y-126271981D02*
X40534728Y-126271981D01*
X151726844Y-112514157D02*
X151712739Y-112500052D01*
X173990144Y-116363852D02*
X170140449Y-112514157D01*
X66675049Y-118796077D02*
X66675049Y-122121368D01*
X72971074Y-112500052D02*
X66675049Y-118796077D01*
X66675049Y-122121368D02*
X62524436Y-126271981D01*
X151712739Y-112500052D02*
X72971074Y-112500052D01*
X288290240Y-66516308D02*
X288290240Y-59213804D01*
X64174735Y-79771942D02*
X64974734Y-78971943D01*
X283106594Y-71699954D02*
X288290240Y-66516308D01*
X71359499Y-71699954D02*
X283106594Y-71699954D01*
X64974734Y-78084719D02*
X71359499Y-71699954D01*
X64974734Y-78971943D02*
X64974734Y-78084719D01*
X288290240Y-78263820D02*
X282176385Y-72149965D01*
X65484426Y-78211438D02*
X65484426Y-80326161D01*
X71545899Y-72149965D02*
X65484426Y-78211438D01*
X64848019Y-80962568D02*
X43576918Y-80962568D01*
X65484426Y-80326161D02*
X64848019Y-80962568D01*
X43576918Y-80962568D02*
X41790979Y-82748507D01*
X282176385Y-72149965D02*
X71545899Y-72149965D01*
X288290240Y-97313836D02*
X288290240Y-103285810D01*
X153017539Y-109349975D02*
X71666274Y-109349975D01*
X65525527Y-115490722D02*
X64174735Y-115490722D01*
X71666274Y-109349975D02*
X65525527Y-115490722D01*
X282211970Y-109364080D02*
X153031644Y-109364080D01*
X288290240Y-103285810D02*
X282211970Y-109364080D01*
X153031644Y-109364080D02*
X153017539Y-109349975D01*
X42915980Y-117342286D02*
X41790979Y-118467287D01*
X152831139Y-109799986D02*
X71852674Y-109799986D01*
X64228179Y-117342286D02*
X42915980Y-117342286D01*
X65629731Y-115940733D02*
X64228179Y-117342286D01*
X288290240Y-116363852D02*
X281740479Y-109814091D01*
X71852674Y-109799986D02*
X65711927Y-115940733D01*
X152845244Y-109814091D02*
X152831139Y-109799986D01*
X281740479Y-109814091D02*
X152845244Y-109814091D01*
X65711927Y-115940733D02*
X65629731Y-115940733D01*
X288290240Y-141525746D02*
X288290240Y-135413868D01*
X67865682Y-145256372D02*
X284559614Y-145256372D01*
X56673804Y-148828250D02*
X64293804Y-148828250D01*
X284559614Y-145256372D02*
X288290240Y-141525746D01*
X64293804Y-148828250D02*
X67865682Y-145256372D01*
X54768796Y-146923242D02*
X56673804Y-148828250D01*
X269240224Y-141385842D02*
X269240224Y-135413868D01*
X67679282Y-144806361D02*
X265819705Y-144806361D01*
X59717698Y-148378239D02*
X64107405Y-148378239D01*
X265819705Y-144806361D02*
X269240224Y-141385842D01*
X51792231Y-144541990D02*
X55881450Y-144541990D01*
X55881450Y-144541990D02*
X59717698Y-148378239D01*
X64107405Y-148378239D02*
X67679282Y-144806361D01*
X61793483Y-76795377D02*
X65627665Y-76795377D01*
X65627665Y-76795377D02*
X71173099Y-71249943D01*
X269240224Y-66516308D02*
X269240224Y-59213804D01*
X264506589Y-71249943D02*
X269240224Y-66516308D01*
X71173099Y-71249943D02*
X264506589Y-71249943D01*
X63698490Y-82748507D02*
X61793483Y-82748507D01*
X65934437Y-80512561D02*
X63698490Y-82748507D01*
X65934437Y-78397838D02*
X65934437Y-80512561D01*
X71732299Y-72599976D02*
X65934437Y-78397838D01*
X263576380Y-72599976D02*
X71732299Y-72599976D01*
X269240224Y-78263820D02*
X263576380Y-72599976D01*
X153218044Y-108914069D02*
X153203939Y-108899964D01*
X269240224Y-97313836D02*
X269240224Y-103285810D01*
X263611965Y-108914069D02*
X153218044Y-108914069D01*
X71479874Y-108899964D02*
X66014118Y-114365721D01*
X153203939Y-108899964D02*
X71479874Y-108899964D01*
X269240224Y-103285810D02*
X263611965Y-108914069D01*
X40534728Y-114365721D02*
X39409727Y-115490722D01*
X66014118Y-114365721D02*
X40534728Y-114365721D01*
X63739588Y-118467287D02*
X61793483Y-118467287D01*
X65898327Y-116390744D02*
X65816131Y-116390744D01*
X152644739Y-110249997D02*
X72039074Y-110249997D01*
X152658844Y-110264102D02*
X152644739Y-110249997D01*
X263140474Y-110264102D02*
X152658844Y-110264102D01*
X269240224Y-116363852D02*
X263140474Y-110264102D01*
X65816131Y-116390744D02*
X63739588Y-118467287D01*
X72039074Y-110249997D02*
X65898327Y-116390744D01*
X41195666Y-83939133D02*
X39409727Y-85725072D01*
X63144275Y-83939133D02*
X41195666Y-83939133D01*
X66384448Y-78584238D02*
X66384448Y-80698961D01*
X66384448Y-80698961D02*
X63144275Y-83939133D01*
X71918699Y-73049987D02*
X66384448Y-78584238D01*
X244976375Y-73049987D02*
X71918699Y-73049987D01*
X250190208Y-78263820D02*
X244976375Y-73049987D01*
X245011960Y-108464058D02*
X153404444Y-108464058D01*
X250190208Y-97313836D02*
X250190208Y-103285810D01*
X66675056Y-112514157D02*
X61793483Y-112514157D01*
X153390339Y-108449953D02*
X70739260Y-108449953D01*
X250190208Y-103285810D02*
X245011960Y-108464058D01*
X153404444Y-108464058D02*
X153390339Y-108449953D01*
X70739260Y-108449953D02*
X66675056Y-112514157D01*
X226411955Y-108014047D02*
X153590844Y-108014047D01*
X153590844Y-108014047D02*
X153576739Y-107999942D01*
X70496198Y-107999942D02*
X67767923Y-110728218D01*
X67767923Y-110728218D02*
X43576918Y-110728218D01*
X231140192Y-97313836D02*
X231140192Y-103285810D01*
X43576918Y-110728218D02*
X41790979Y-112514157D01*
X153576739Y-107999942D02*
X70496198Y-107999942D01*
X231140192Y-103285810D02*
X226411955Y-108014047D01*
X152271939Y-111150019D02*
X72411874Y-111150019D01*
X225940464Y-111164124D02*
X152286044Y-111164124D01*
X72411874Y-111150019D02*
X64174735Y-119387158D01*
X64174735Y-119387158D02*
X64174735Y-121443852D01*
X231140192Y-116363852D02*
X225940464Y-111164124D01*
X152286044Y-111164124D02*
X152271939Y-111150019D01*
X43431615Y-75154741D02*
X41790979Y-76795377D01*
X70739260Y-70349921D02*
X65934440Y-75154741D01*
X226711266Y-70349921D02*
X70739260Y-70349921D01*
X231140192Y-65920995D02*
X226711266Y-70349921D01*
X65934440Y-75154741D02*
X43431615Y-75154741D01*
X231140192Y-59213804D02*
X231140192Y-65920995D01*
X231140192Y-78263820D02*
X226376370Y-73499998D01*
X66834459Y-83065348D02*
X64174735Y-85725072D01*
X226376370Y-73499998D02*
X72105099Y-73499998D01*
X72105099Y-73499998D02*
X66834459Y-78770638D01*
X66834459Y-78770638D02*
X66834459Y-83065348D01*
X67284470Y-84280339D02*
X64649111Y-86915698D01*
X43576918Y-86915698D02*
X41790979Y-88701637D01*
X67284470Y-78957038D02*
X67284470Y-84280339D01*
X207776365Y-73950009D02*
X72291499Y-73950009D01*
X64649111Y-86915698D02*
X43576918Y-86915698D01*
X72291499Y-73950009D02*
X67284470Y-78957038D01*
X212090176Y-78263820D02*
X207776365Y-73950009D01*
X207811950Y-107564036D02*
X153777244Y-107564036D01*
X212090176Y-103285810D02*
X207811950Y-107564036D01*
X212090176Y-97313836D02*
X212090176Y-103285810D01*
X153777244Y-107564036D02*
X153763139Y-107549931D01*
X70309798Y-107549931D02*
X68322138Y-109537592D01*
X153763139Y-107549931D02*
X70309798Y-107549931D01*
X68322138Y-109537592D02*
X64174735Y-109537592D01*
X65775027Y-121748568D02*
X64228179Y-123295416D01*
X65775027Y-118423277D02*
X65775027Y-121748568D01*
X152085539Y-111600030D02*
X72598274Y-111600030D01*
X212090176Y-116363852D02*
X207340459Y-111614135D01*
X42915980Y-123295416D02*
X41790979Y-124420417D01*
X72598274Y-111600030D02*
X65775027Y-118423277D01*
X152099644Y-111614135D02*
X152085539Y-111600030D01*
X207340459Y-111614135D02*
X152099644Y-111614135D01*
X64228179Y-123295416D02*
X42915980Y-123295416D01*
X42862536Y-146923242D02*
X42862536Y-145791872D01*
X42862536Y-145791872D02*
X47419925Y-141234483D01*
X212090176Y-141385842D02*
X212090176Y-135413868D01*
X65677735Y-141234483D02*
X67899579Y-143456328D01*
X47419925Y-141234483D02*
X65677735Y-141234483D01*
X210019690Y-143456328D02*
X212090176Y-141385842D01*
X67899579Y-143456328D02*
X210019690Y-143456328D01*
X212090176Y-59213804D02*
X212090176Y-65185778D01*
X212090176Y-65185778D02*
X207376044Y-69899910D01*
X65536857Y-73818812D02*
X64174735Y-73818812D01*
X207376044Y-69899910D02*
X69455759Y-69899910D01*
X69455759Y-69899910D02*
X65536857Y-73818812D01*
X69269360Y-69449899D02*
X66025448Y-72693811D01*
X40534728Y-72693811D02*
X39409727Y-73818812D01*
X66025448Y-72693811D02*
X40534728Y-72693811D01*
X188776039Y-69449899D02*
X69269360Y-69449899D01*
X193040160Y-59213804D02*
X193040160Y-65185778D01*
X193040160Y-65185778D02*
X188776039Y-69449899D01*
X63499582Y-88701637D02*
X61793483Y-88701637D01*
X67734481Y-79143438D02*
X67734481Y-84466739D01*
X72477899Y-74400020D02*
X67734481Y-79143438D01*
X189176360Y-74400020D02*
X72477899Y-74400020D01*
X193040160Y-78263820D02*
X189176360Y-74400020D01*
X67734481Y-84466739D02*
X63499582Y-88701637D01*
X68810728Y-108412591D02*
X40534728Y-108412591D01*
X153949539Y-107099920D02*
X70123398Y-107099920D01*
X40534728Y-108412591D02*
X39409727Y-109537592D01*
X70123398Y-107099920D02*
X68810728Y-108412591D01*
X193040160Y-103285810D02*
X189211945Y-107114025D01*
X189211945Y-107114025D02*
X153963644Y-107114025D01*
X193040160Y-97313836D02*
X193040160Y-103285810D01*
X153963644Y-107114025D02*
X153949539Y-107099920D01*
X63739589Y-124420417D02*
X61793483Y-124420417D01*
X66225038Y-121934968D02*
X63739589Y-124420417D01*
X66225038Y-118609677D02*
X66225038Y-121934968D01*
X151913244Y-112064146D02*
X151899139Y-112050041D01*
X193040160Y-116363852D02*
X188740454Y-112064146D01*
X72784674Y-112050041D02*
X66225038Y-118609677D01*
X151899139Y-112050041D02*
X72784674Y-112050041D01*
X188740454Y-112064146D02*
X151913244Y-112064146D01*
X14565329Y-122039165D02*
X14565329Y-124420417D01*
X14565329Y-129024173D02*
X14406581Y-129182921D01*
X14565329Y-124420417D02*
X14565329Y-129024173D01*
X14565329Y-119657913D02*
X12501573Y-121721669D01*
X13356581Y-132159486D02*
X14406581Y-132159486D01*
X12501573Y-131304478D02*
X13356581Y-132159486D01*
X12501573Y-121721669D02*
X12501573Y-131304478D01*
X62524435Y-120318851D02*
X40534728Y-120318851D01*
X152472444Y-110714113D02*
X152458339Y-110700008D01*
X244540469Y-110714113D02*
X152472444Y-110714113D01*
X250190208Y-116363852D02*
X244540469Y-110714113D01*
X40534728Y-120318851D02*
X39409727Y-121443852D01*
X72225474Y-110700008D02*
X66084727Y-116840755D01*
X152458339Y-110700008D02*
X72225474Y-110700008D01*
X66084727Y-116840755D02*
X66002531Y-116840755D01*
X66002531Y-116840755D02*
X62524435Y-120318851D01*
X55392859Y-143416989D02*
X59904098Y-147928228D01*
X250190208Y-141385842D02*
X250190208Y-135413868D01*
X48815666Y-145791872D02*
X51190549Y-143416989D01*
X51190549Y-143416989D02*
X55392859Y-143416989D01*
X48815666Y-146923242D02*
X48815666Y-145791872D01*
X59904098Y-147928228D02*
X63921005Y-147928228D01*
X67492882Y-144356350D02*
X247219700Y-144356350D01*
X63921005Y-147928228D02*
X67492882Y-144356350D01*
X247219700Y-144356350D02*
X250190208Y-141385842D01*
X41076597Y-79771942D02*
X45243787Y-75604752D01*
X250190208Y-66516308D02*
X250190208Y-59213804D01*
X66181881Y-75604751D02*
X70986699Y-70799932D01*
X245906584Y-70799932D02*
X250190208Y-66516308D01*
X70986699Y-70799932D02*
X245906584Y-70799932D01*
X45243787Y-75604752D02*
X66181881Y-75604751D01*
X39409727Y-79771942D02*
X41076597Y-79771942D01*
X231140192Y-141385842D02*
X231140192Y-135413868D01*
X228619695Y-143906339D02*
X231140192Y-141385842D01*
X65491335Y-141684494D02*
X67713180Y-143906339D01*
X48696597Y-141684494D02*
X65491335Y-141684494D01*
X45839101Y-144541990D02*
X48696597Y-141684494D01*
X67713180Y-143906339D02*
X228619695Y-143906339D01*
X49417856Y-57315673D02*
X51633483Y-59531300D01*
X40902092Y-57315673D02*
X49417856Y-57315673D01*
X40369092Y-57848673D02*
X40902092Y-57315673D01*
X40369092Y-59696925D02*
X40369092Y-57848673D01*
X41394093Y-60721926D02*
X40369092Y-59696925D01*
X41195666Y-89892263D02*
X39409727Y-91678202D01*
X68184492Y-84653139D02*
X62945366Y-89892263D01*
X62945366Y-89892263D02*
X41195666Y-89892263D01*
X173990144Y-78263820D02*
X170576355Y-74850031D01*
X68184492Y-79329838D02*
X68184492Y-84653139D01*
X72664299Y-74850031D02*
X68184492Y-79329838D01*
X170576355Y-74850031D02*
X72664299Y-74850031D01*
X182245811Y-57309455D02*
X186690160Y-61753804D01*
X38100032Y-64889117D02*
X39885971Y-63103178D01*
X66079743Y-63103178D02*
X71873466Y-57309455D01*
X34528154Y-92591011D02*
X38100032Y-89019133D01*
X38100032Y-89019133D02*
X38100032Y-64889117D01*
X71873466Y-57309455D02*
X182245811Y-57309455D01*
X39885971Y-63103178D02*
X66079743Y-63103178D01*
X164465136Y-135413868D02*
X173990144Y-135413868D01*
X193040160Y-135413868D02*
X202565168Y-135413868D01*
X65864135Y-140784472D02*
X68085978Y-143006317D01*
X39885971Y-144541990D02*
X43643489Y-140784472D01*
X193040160Y-141525746D02*
X193040160Y-135413868D01*
X191559589Y-143006317D02*
X193040160Y-141525746D01*
X68085978Y-143006317D02*
X191559589Y-143006317D01*
X43643489Y-140784472D02*
X65864135Y-140784472D01*
D33*
G36*
X23103936Y-55491464D02*
G01*
X22899619Y-55740426D01*
X22747798Y-56024463D01*
X22654307Y-56332662D01*
X22622739Y-56653178D01*
X22654307Y-56973694D01*
X22747798Y-57281893D01*
X22899619Y-57565930D01*
X23103936Y-57814892D01*
X23352898Y-58019209D01*
X23636935Y-58171030D01*
X23945134Y-58264521D01*
X24185328Y-58288178D01*
X24345972Y-58288178D01*
X24586166Y-58264521D01*
X24894365Y-58171030D01*
X25178402Y-58019209D01*
X25427364Y-57814892D01*
X25631681Y-57565930D01*
X25783502Y-57281893D01*
X25876993Y-56973694D01*
X25908561Y-56653178D01*
X25876993Y-56332662D01*
X25783502Y-56024463D01*
X25631681Y-55740426D01*
X25427364Y-55491464D01*
X25411872Y-55478750D01*
X30919428Y-55478750D01*
X30903936Y-55491464D01*
X30699619Y-55740426D01*
X30547798Y-56024463D01*
X30454307Y-56332662D01*
X30422739Y-56653178D01*
X30454307Y-56973694D01*
X30547798Y-57281893D01*
X30699619Y-57565930D01*
X30903936Y-57814892D01*
X31152898Y-58019209D01*
X31436935Y-58171030D01*
X31745134Y-58264521D01*
X31985328Y-58288178D01*
X32145972Y-58288178D01*
X32386166Y-58264521D01*
X32694365Y-58171030D01*
X32978402Y-58019209D01*
X33227364Y-57814892D01*
X33431681Y-57565930D01*
X33583502Y-57281893D01*
X33676993Y-56973694D01*
X33708561Y-56653178D01*
X33676993Y-56332662D01*
X33583502Y-56024463D01*
X33431681Y-55740426D01*
X33227364Y-55491464D01*
X33211872Y-55478750D01*
X60072888Y-55478750D01*
X55708613Y-59843026D01*
X55708483Y-59817050D01*
X55549733Y-59658300D01*
X54300483Y-59658300D01*
X54300483Y-59678300D01*
X54046483Y-59678300D01*
X54046483Y-59658300D01*
X54026483Y-59658300D01*
X54026483Y-59404300D01*
X54046483Y-59404300D01*
X54046483Y-58155050D01*
X54300483Y-58155050D01*
X54300483Y-59404300D01*
X55549733Y-59404300D01*
X55708483Y-59245550D01*
X55711555Y-58631300D01*
X55699295Y-58506818D01*
X55662985Y-58387120D01*
X55604020Y-58276806D01*
X55524668Y-58180115D01*
X55427977Y-58100763D01*
X55317663Y-58041798D01*
X55197965Y-58005488D01*
X55073483Y-57993228D01*
X54459233Y-57996300D01*
X54300483Y-58155050D01*
X54046483Y-58155050D01*
X53887733Y-57996300D01*
X53273483Y-57993228D01*
X53149001Y-58005488D01*
X53029303Y-58041798D01*
X52918989Y-58100763D01*
X52822298Y-58180115D01*
X52742946Y-58276806D01*
X52683981Y-58387120D01*
X52678427Y-58405427D01*
X52611988Y-58338988D01*
X52360578Y-58171001D01*
X52081226Y-58055289D01*
X51784667Y-57996300D01*
X51482299Y-57996300D01*
X51224553Y-58047569D01*
X49981660Y-56804676D01*
X49957857Y-56775672D01*
X49842132Y-56680699D01*
X49710103Y-56610127D01*
X49566842Y-56566670D01*
X49455189Y-56555673D01*
X49455178Y-56555673D01*
X49417856Y-56551997D01*
X49380534Y-56555673D01*
X40939415Y-56555673D01*
X40902092Y-56551997D01*
X40864769Y-56555673D01*
X40864759Y-56555673D01*
X40753106Y-56566670D01*
X40609845Y-56610127D01*
X40477816Y-56680699D01*
X40362091Y-56775672D01*
X40338292Y-56804671D01*
X39858090Y-57284874D01*
X39829092Y-57308672D01*
X39805294Y-57337670D01*
X39805293Y-57337671D01*
X39734118Y-57424397D01*
X39663546Y-57556427D01*
X39647767Y-57608447D01*
X39620090Y-57699687D01*
X39616120Y-57739999D01*
X39605416Y-57848673D01*
X39609093Y-57886005D01*
X39609092Y-59659602D01*
X39605416Y-59696925D01*
X39609092Y-59734247D01*
X39609092Y-59734257D01*
X39620089Y-59845910D01*
X39658868Y-59973750D01*
X39663546Y-59989171D01*
X39734118Y-60121201D01*
X39771108Y-60166273D01*
X39829091Y-60236926D01*
X39858094Y-60260729D01*
X40076543Y-60479177D01*
X40052634Y-60721926D01*
X40078410Y-60983632D01*
X40081296Y-60993145D01*
X39364093Y-60993145D01*
X39326770Y-60989469D01*
X39289447Y-60993145D01*
X39289438Y-60993145D01*
X39177785Y-61004142D01*
X39083766Y-61032662D01*
X39034524Y-61047599D01*
X38902494Y-61118171D01*
X38868340Y-61146201D01*
X38786770Y-61213144D01*
X38762972Y-61242142D01*
X38162129Y-61842985D01*
X38100747Y-61781603D01*
X37947608Y-61679279D01*
X37777448Y-61608797D01*
X37596808Y-61572865D01*
X37412630Y-61572865D01*
X37335858Y-61588136D01*
X37351055Y-61572939D01*
X37497154Y-61354285D01*
X37597789Y-61111331D01*
X37649093Y-60853412D01*
X37649093Y-60590440D01*
X37597789Y-60332521D01*
X37497154Y-60089567D01*
X37351055Y-59870913D01*
X37165106Y-59684964D01*
X36946452Y-59538865D01*
X36928189Y-59531300D01*
X36946452Y-59523735D01*
X37165106Y-59377636D01*
X37351055Y-59191687D01*
X37497154Y-58973033D01*
X37597789Y-58730079D01*
X37649093Y-58472160D01*
X37649093Y-58209188D01*
X37597789Y-57951269D01*
X37497154Y-57708315D01*
X37351055Y-57489661D01*
X37165106Y-57303712D01*
X36946452Y-57157613D01*
X36703498Y-57056978D01*
X36445579Y-57005674D01*
X36182607Y-57005674D01*
X35924688Y-57056978D01*
X35681734Y-57157613D01*
X35463080Y-57303712D01*
X35277131Y-57489661D01*
X35131032Y-57708315D01*
X35030397Y-57951269D01*
X34979093Y-58209188D01*
X34979093Y-58472160D01*
X35030397Y-58730079D01*
X35131032Y-58973033D01*
X35277131Y-59191687D01*
X35463080Y-59377636D01*
X35681734Y-59523735D01*
X35699997Y-59531300D01*
X35681734Y-59538865D01*
X35463080Y-59684964D01*
X35277131Y-59870913D01*
X35131032Y-60089567D01*
X35030397Y-60332521D01*
X34979093Y-60590440D01*
X34979093Y-60853412D01*
X35030397Y-61111331D01*
X35131032Y-61354285D01*
X35277131Y-61572939D01*
X35463080Y-61758888D01*
X35681734Y-61904987D01*
X35924688Y-62005622D01*
X36182607Y-62056926D01*
X36445579Y-62056926D01*
X36703498Y-62005622D01*
X36720497Y-61998581D01*
X36676133Y-62064976D01*
X36605651Y-62235136D01*
X36581566Y-62356216D01*
X29755556Y-69182227D01*
X27397795Y-69182227D01*
X27514192Y-69008026D01*
X27626512Y-68736864D01*
X27683772Y-68448999D01*
X27683772Y-68155495D01*
X27626512Y-67867630D01*
X27600650Y-67805194D01*
X27600650Y-64150845D01*
X27604342Y-64153312D01*
X27819998Y-64242639D01*
X28048938Y-64288178D01*
X28282362Y-64288178D01*
X28511302Y-64242639D01*
X28726958Y-64153312D01*
X28780509Y-64117530D01*
X28861156Y-64183715D01*
X28971470Y-64242680D01*
X29091168Y-64278990D01*
X29215650Y-64291250D01*
X29479900Y-64288178D01*
X29638650Y-64129428D01*
X29638650Y-63230178D01*
X29892650Y-63230178D01*
X29892650Y-64129428D01*
X30051400Y-64288178D01*
X30315650Y-64291250D01*
X30440132Y-64278990D01*
X30559830Y-64242680D01*
X30670144Y-64183715D01*
X30766835Y-64104363D01*
X30846187Y-64007672D01*
X30905152Y-63897358D01*
X30941462Y-63777660D01*
X30953722Y-63653178D01*
X30950650Y-63388928D01*
X30791900Y-63230178D01*
X29892650Y-63230178D01*
X29638650Y-63230178D01*
X29618650Y-63230178D01*
X29618650Y-62976178D01*
X29638650Y-62976178D01*
X29638650Y-62956178D01*
X29892650Y-62956178D01*
X29892650Y-62976178D01*
X30791900Y-62976178D01*
X30950650Y-62817428D01*
X30953692Y-62555726D01*
X31152898Y-62719209D01*
X31436935Y-62871030D01*
X31745134Y-62964521D01*
X31985328Y-62988178D01*
X32145972Y-62988178D01*
X32386166Y-62964521D01*
X32694365Y-62871030D01*
X32978402Y-62719209D01*
X33227364Y-62514892D01*
X33431681Y-62265930D01*
X33583502Y-61981893D01*
X33676993Y-61673694D01*
X33708561Y-61353178D01*
X33676993Y-61032662D01*
X33583502Y-60724463D01*
X33431681Y-60440426D01*
X33227364Y-60191464D01*
X32978402Y-59987147D01*
X32694365Y-59835326D01*
X32386166Y-59741835D01*
X32145972Y-59718178D01*
X31985328Y-59718178D01*
X31745134Y-59741835D01*
X31436935Y-59835326D01*
X31152898Y-59987147D01*
X30903936Y-60191464D01*
X30699619Y-60440426D01*
X30547798Y-60724463D01*
X30454307Y-61032662D01*
X30422739Y-61353178D01*
X30454307Y-61673694D01*
X30540493Y-61957810D01*
X30440132Y-61927366D01*
X30315650Y-61915106D01*
X30051400Y-61918178D01*
X29936631Y-62032947D01*
X30015784Y-61914486D01*
X30105111Y-61698830D01*
X30150650Y-61469890D01*
X30150650Y-61236466D01*
X30105111Y-61007526D01*
X30015784Y-60791870D01*
X29886100Y-60597784D01*
X29721044Y-60432728D01*
X29526958Y-60303044D01*
X29311302Y-60213717D01*
X29082362Y-60168178D01*
X28848938Y-60168178D01*
X28619998Y-60213717D01*
X28404342Y-60303044D01*
X28210256Y-60432728D01*
X28165650Y-60477334D01*
X28121044Y-60432728D01*
X27926958Y-60303044D01*
X27711302Y-60213717D01*
X27482362Y-60168178D01*
X27248938Y-60168178D01*
X27019998Y-60213717D01*
X26804342Y-60303044D01*
X26610256Y-60432728D01*
X26445200Y-60597784D01*
X26315516Y-60791870D01*
X26226189Y-61007526D01*
X26180650Y-61236466D01*
X26180650Y-61469890D01*
X26226189Y-61698830D01*
X26315516Y-61914486D01*
X26333346Y-61941171D01*
X26219998Y-61963717D01*
X26004342Y-62053044D01*
X25810256Y-62182728D01*
X25645200Y-62347784D01*
X25515516Y-62541870D01*
X25426189Y-62757526D01*
X25380650Y-62986466D01*
X25380650Y-63219890D01*
X25426189Y-63448830D01*
X25515516Y-63664486D01*
X25530650Y-63687136D01*
X25530651Y-66964157D01*
X25487993Y-66981827D01*
X25243953Y-67144889D01*
X25036414Y-67352428D01*
X24873352Y-67596468D01*
X24761032Y-67867630D01*
X24703772Y-68155495D01*
X24703772Y-68448999D01*
X24761032Y-68736864D01*
X24873352Y-69008026D01*
X24989749Y-69182227D01*
X15645104Y-69182227D01*
X15607781Y-69178551D01*
X15570458Y-69182227D01*
X15570449Y-69182227D01*
X15458796Y-69193224D01*
X15315535Y-69236681D01*
X15183506Y-69307253D01*
X15170074Y-69318276D01*
X15096778Y-69378428D01*
X15096774Y-69378432D01*
X15067781Y-69402226D01*
X15043987Y-69431219D01*
X12146803Y-72328405D01*
X12117805Y-72352203D01*
X12094007Y-72381201D01*
X12094006Y-72381202D01*
X12022831Y-72467928D01*
X11952259Y-72599958D01*
X11908803Y-72743219D01*
X11894129Y-72892204D01*
X11897806Y-72929536D01*
X11897805Y-86281549D01*
X11894129Y-86318871D01*
X11897805Y-86356193D01*
X11897805Y-86356203D01*
X11908802Y-86467856D01*
X11952259Y-86611117D01*
X12022831Y-86743147D01*
X12044255Y-86769252D01*
X12117804Y-86858872D01*
X12146808Y-86882675D01*
X14713643Y-89449510D01*
X14405913Y-89510721D01*
X14108362Y-89633971D01*
X13840573Y-89812902D01*
X13612838Y-90040637D01*
X13433907Y-90308426D01*
X13310657Y-90605977D01*
X13247825Y-90921856D01*
X13247825Y-91243922D01*
X13310657Y-91559801D01*
X13433907Y-91857352D01*
X13612838Y-92125141D01*
X13840573Y-92352876D01*
X14108362Y-92531807D01*
X14405913Y-92655057D01*
X14721792Y-92717889D01*
X15043858Y-92717889D01*
X15359737Y-92655057D01*
X15374200Y-92649066D01*
X15763463Y-93038329D01*
X15763462Y-102488997D01*
X15759786Y-102526319D01*
X15763462Y-102563641D01*
X15763462Y-102563651D01*
X15774459Y-102675304D01*
X15807237Y-102783361D01*
X15817916Y-102818565D01*
X15888488Y-102950595D01*
X15923752Y-102993564D01*
X15983461Y-103066320D01*
X16012465Y-103090123D01*
X25507446Y-112585105D01*
X25493918Y-112629702D01*
X25466211Y-112911011D01*
X25493918Y-113192320D01*
X25575972Y-113462819D01*
X25709222Y-113712112D01*
X25888546Y-113930619D01*
X26107053Y-114109943D01*
X26240012Y-114181011D01*
X26107053Y-114252079D01*
X25888546Y-114431403D01*
X25709222Y-114649910D01*
X25575972Y-114899203D01*
X25493918Y-115169702D01*
X25466211Y-115451011D01*
X25493918Y-115732320D01*
X25575972Y-116002819D01*
X25709222Y-116252112D01*
X25888546Y-116470619D01*
X26107053Y-116649943D01*
X26240012Y-116721011D01*
X26107053Y-116792079D01*
X25888546Y-116971403D01*
X25709222Y-117189910D01*
X25575972Y-117439203D01*
X25493918Y-117709702D01*
X25466211Y-117991011D01*
X25493918Y-118272320D01*
X25575972Y-118542819D01*
X25709222Y-118792112D01*
X25888546Y-119010619D01*
X26107053Y-119189943D01*
X26240012Y-119261011D01*
X26107053Y-119332079D01*
X25888546Y-119511403D01*
X25709222Y-119729910D01*
X25575972Y-119979203D01*
X25493918Y-120249702D01*
X25466211Y-120531011D01*
X25493918Y-120812320D01*
X25507446Y-120856917D01*
X25378066Y-120986297D01*
X25349063Y-121010100D01*
X25301667Y-121067853D01*
X25254090Y-121125825D01*
X25209863Y-121208568D01*
X25183518Y-121257855D01*
X25140061Y-121401116D01*
X25129064Y-121512769D01*
X25129064Y-121512779D01*
X25125388Y-121550101D01*
X25129064Y-121587423D01*
X25129065Y-133090268D01*
X25125388Y-133127600D01*
X25129065Y-133164933D01*
X25139820Y-133274123D01*
X25140062Y-133276585D01*
X25183518Y-133419846D01*
X25254090Y-133551876D01*
X25317456Y-133629087D01*
X25349064Y-133667601D01*
X25378062Y-133691399D01*
X27638424Y-135951762D01*
X27662223Y-135980761D01*
X27777948Y-136075734D01*
X27909977Y-136146306D01*
X28053238Y-136189763D01*
X28164891Y-136200760D01*
X28164900Y-136200760D01*
X28202223Y-136204436D01*
X28239546Y-136200760D01*
X28922891Y-136200760D01*
X28922891Y-137418241D01*
X25845905Y-137418241D01*
X25845905Y-136121990D01*
X25833645Y-135997508D01*
X25797335Y-135877810D01*
X25738370Y-135767496D01*
X25659018Y-135670805D01*
X25562327Y-135591453D01*
X25452013Y-135532488D01*
X25332315Y-135496178D01*
X25207833Y-135483918D01*
X23607833Y-135483918D01*
X23483351Y-135496178D01*
X23363653Y-135532488D01*
X23253339Y-135591453D01*
X23156648Y-135670805D01*
X23077296Y-135767496D01*
X23018331Y-135877810D01*
X22982021Y-135997508D01*
X22969761Y-136121990D01*
X22969761Y-137721990D01*
X22971371Y-137738337D01*
X22668831Y-138040878D01*
X22585762Y-137972705D01*
X22475448Y-137913740D01*
X22355750Y-137877430D01*
X22231268Y-137865170D01*
X20631268Y-137865170D01*
X20506786Y-137877430D01*
X20387088Y-137913740D01*
X20276774Y-137972705D01*
X20180083Y-138052057D01*
X20100731Y-138148748D01*
X20041766Y-138259062D01*
X20005456Y-138378760D01*
X19993196Y-138503242D01*
X19993196Y-140103242D01*
X20005456Y-140227724D01*
X20041766Y-140347422D01*
X20100731Y-140457736D01*
X20180083Y-140554427D01*
X20276774Y-140633779D01*
X20387088Y-140692744D01*
X20506786Y-140729054D01*
X20631268Y-140741314D01*
X22231268Y-140741314D01*
X22355750Y-140729054D01*
X22475448Y-140692744D01*
X22585762Y-140633779D01*
X22682453Y-140554427D01*
X22761805Y-140457736D01*
X22820770Y-140347422D01*
X22857080Y-140227724D01*
X22869340Y-140103242D01*
X22869340Y-139957568D01*
X22905544Y-139938216D01*
X23021269Y-139843243D01*
X23045072Y-139814240D01*
X23921071Y-138938241D01*
X25946326Y-138938241D01*
X25946326Y-140103242D01*
X25958586Y-140227724D01*
X25994896Y-140347422D01*
X26053861Y-140457736D01*
X26133213Y-140554427D01*
X26229904Y-140633779D01*
X26340218Y-140692744D01*
X26459916Y-140729054D01*
X26584398Y-140741314D01*
X28184398Y-140741314D01*
X28308880Y-140729054D01*
X28428578Y-140692744D01*
X28538892Y-140633779D01*
X28635583Y-140554427D01*
X28714935Y-140457736D01*
X28773900Y-140347422D01*
X28810210Y-140227724D01*
X28822470Y-140103242D01*
X28822470Y-138938241D01*
X31899456Y-138938241D01*
X31899456Y-140103242D01*
X31911716Y-140227724D01*
X31948026Y-140347422D01*
X32006991Y-140457736D01*
X32086343Y-140554427D01*
X32183034Y-140633779D01*
X32293348Y-140692744D01*
X32413046Y-140729054D01*
X32537528Y-140741314D01*
X34137528Y-140741314D01*
X34262010Y-140729054D01*
X34381708Y-140692744D01*
X34492022Y-140633779D01*
X34588713Y-140554427D01*
X34668065Y-140457736D01*
X34727030Y-140347422D01*
X34763340Y-140227724D01*
X34775600Y-140103242D01*
X34775600Y-138938241D01*
X41424464Y-138938241D01*
X41424464Y-140103242D01*
X41436724Y-140227724D01*
X41473034Y-140347422D01*
X41531999Y-140457736D01*
X41611351Y-140554427D01*
X41708042Y-140633779D01*
X41818356Y-140692744D01*
X41938054Y-140729054D01*
X42062536Y-140741314D01*
X42611845Y-140741314D01*
X40211877Y-143141282D01*
X40167280Y-143127754D01*
X39956463Y-143106990D01*
X39815479Y-143106990D01*
X39604662Y-143127754D01*
X39334163Y-143209808D01*
X39084870Y-143343058D01*
X38866363Y-143522382D01*
X38687039Y-143740889D01*
X38553789Y-143990182D01*
X38471735Y-144260681D01*
X38444028Y-144541990D01*
X38471735Y-144823299D01*
X38553789Y-145093798D01*
X38687039Y-145343091D01*
X38866363Y-145561598D01*
X39084870Y-145740922D01*
X39334163Y-145874172D01*
X39604662Y-145956226D01*
X39815479Y-145976990D01*
X39956463Y-145976990D01*
X40167280Y-145956226D01*
X40437779Y-145874172D01*
X40687072Y-145740922D01*
X40905579Y-145561598D01*
X41084903Y-145343091D01*
X41218153Y-145093798D01*
X41300207Y-144823299D01*
X41327914Y-144541990D01*
X41300207Y-144260681D01*
X41286679Y-144216084D01*
X43958291Y-141544472D01*
X46035134Y-141544472D01*
X42351534Y-145228073D01*
X42322536Y-145251871D01*
X42298738Y-145280869D01*
X42298737Y-145280870D01*
X42227562Y-145367596D01*
X42156990Y-145499626D01*
X42113534Y-145642887D01*
X42107964Y-145699440D01*
X42061435Y-145724310D01*
X41842928Y-145903634D01*
X41663604Y-146122141D01*
X41530354Y-146371434D01*
X41448300Y-146641933D01*
X41420593Y-146923242D01*
X41448300Y-147204551D01*
X41530354Y-147475050D01*
X41663604Y-147724343D01*
X41842928Y-147942850D01*
X42061435Y-148122174D01*
X42310728Y-148255424D01*
X42581227Y-148337478D01*
X42792044Y-148358242D01*
X42933028Y-148358242D01*
X43143845Y-148337478D01*
X43414344Y-148255424D01*
X43663637Y-148122174D01*
X43882144Y-147942850D01*
X44061468Y-147724343D01*
X44194718Y-147475050D01*
X44276772Y-147204551D01*
X44304479Y-146923242D01*
X44276772Y-146641933D01*
X44194718Y-146371434D01*
X44061468Y-146122141D01*
X43882144Y-145903634D01*
X43851074Y-145878135D01*
X44551676Y-145177533D01*
X44640169Y-145343091D01*
X44819493Y-145561598D01*
X45038000Y-145740922D01*
X45287293Y-145874172D01*
X45557792Y-145956226D01*
X45768609Y-145976990D01*
X45909593Y-145976990D01*
X46120410Y-145956226D01*
X46390909Y-145874172D01*
X46640202Y-145740922D01*
X46858709Y-145561598D01*
X47038033Y-145343091D01*
X47171283Y-145093798D01*
X47253337Y-144823299D01*
X47281044Y-144541990D01*
X47253337Y-144260681D01*
X47239809Y-144216084D01*
X49011399Y-142444494D01*
X59695557Y-142444494D01*
X59477438Y-142662613D01*
X59134351Y-143176080D01*
X58898028Y-143746613D01*
X58777552Y-144352288D01*
X58777552Y-144969830D01*
X58898028Y-145575505D01*
X59090256Y-146039584D01*
X55956663Y-142905992D01*
X55932860Y-142876988D01*
X55817135Y-142782015D01*
X55685106Y-142711443D01*
X55541845Y-142667986D01*
X55430192Y-142656989D01*
X55430181Y-142656989D01*
X55392859Y-142653313D01*
X55355537Y-142656989D01*
X51227874Y-142656989D01*
X51190549Y-142653313D01*
X51153224Y-142656989D01*
X51153216Y-142656989D01*
X51041563Y-142667986D01*
X50898302Y-142711443D01*
X50766273Y-142782015D01*
X50650548Y-142876988D01*
X50626750Y-142905986D01*
X48304664Y-145228073D01*
X48275666Y-145251871D01*
X48251868Y-145280869D01*
X48251867Y-145280870D01*
X48180692Y-145367596D01*
X48110120Y-145499626D01*
X48066664Y-145642887D01*
X48061094Y-145699440D01*
X48014565Y-145724310D01*
X47796058Y-145903634D01*
X47616734Y-146122141D01*
X47483484Y-146371434D01*
X47401430Y-146641933D01*
X47373723Y-146923242D01*
X47401430Y-147204551D01*
X47483484Y-147475050D01*
X47616734Y-147724343D01*
X47796058Y-147942850D01*
X48014565Y-148122174D01*
X48263858Y-148255424D01*
X48534357Y-148337478D01*
X48745174Y-148358242D01*
X48886158Y-148358242D01*
X49096975Y-148337478D01*
X49367474Y-148255424D01*
X49616767Y-148122174D01*
X49835274Y-147942850D01*
X50014598Y-147724343D01*
X50147848Y-147475050D01*
X50229902Y-147204551D01*
X50257609Y-146923242D01*
X50229902Y-146641933D01*
X50147848Y-146371434D01*
X50014598Y-146122141D01*
X49835274Y-145903634D01*
X49804204Y-145878135D01*
X50504806Y-145177533D01*
X50593299Y-145343091D01*
X50772623Y-145561598D01*
X50991130Y-145740922D01*
X51240423Y-145874172D01*
X51510922Y-145956226D01*
X51721739Y-145976990D01*
X51862723Y-145976990D01*
X52073540Y-145956226D01*
X52344039Y-145874172D01*
X52593332Y-145740922D01*
X52811839Y-145561598D01*
X52991163Y-145343091D01*
X53013132Y-145301990D01*
X55566649Y-145301990D01*
X58332907Y-148068250D01*
X56988606Y-148068250D01*
X56169504Y-147249148D01*
X56183032Y-147204551D01*
X56210739Y-146923242D01*
X56183032Y-146641933D01*
X56100978Y-146371434D01*
X55967728Y-146122141D01*
X55788404Y-145903634D01*
X55569897Y-145724310D01*
X55320604Y-145591060D01*
X55050105Y-145509006D01*
X54839288Y-145488242D01*
X54698304Y-145488242D01*
X54487487Y-145509006D01*
X54216988Y-145591060D01*
X53967695Y-145724310D01*
X53749188Y-145903634D01*
X53569864Y-146122141D01*
X53436614Y-146371434D01*
X53354560Y-146641933D01*
X53326853Y-146923242D01*
X53354560Y-147204551D01*
X53436614Y-147475050D01*
X53569864Y-147724343D01*
X53749188Y-147942850D01*
X53967695Y-148122174D01*
X54216988Y-148255424D01*
X54487487Y-148337478D01*
X54698304Y-148358242D01*
X54839288Y-148358242D01*
X55050105Y-148337478D01*
X55094702Y-148323950D01*
X55742002Y-148971250D01*
X12315971Y-148971250D01*
X11957299Y-148936082D01*
X11645682Y-148841999D01*
X11358278Y-148689184D01*
X11106028Y-148483453D01*
X10898544Y-148232647D01*
X10743725Y-147946316D01*
X10647470Y-147635367D01*
X10610000Y-147278859D01*
X10610000Y-144352288D01*
X11152512Y-144352288D01*
X11152512Y-144969830D01*
X11272988Y-145575505D01*
X11509311Y-146146038D01*
X11852398Y-146659505D01*
X12289066Y-147096173D01*
X12802533Y-147439260D01*
X13373066Y-147675583D01*
X13978741Y-147796059D01*
X14596283Y-147796059D01*
X15201958Y-147675583D01*
X15772491Y-147439260D01*
X16285958Y-147096173D01*
X16458889Y-146923242D01*
X19989325Y-146923242D01*
X20017032Y-147204551D01*
X20099086Y-147475050D01*
X20232336Y-147724343D01*
X20411660Y-147942850D01*
X20630167Y-148122174D01*
X20879460Y-148255424D01*
X21149959Y-148337478D01*
X21360776Y-148358242D01*
X21501760Y-148358242D01*
X21712577Y-148337478D01*
X21983076Y-148255424D01*
X22232369Y-148122174D01*
X22450876Y-147942850D01*
X22630200Y-147724343D01*
X22763450Y-147475050D01*
X22845504Y-147204551D01*
X22873211Y-146923242D01*
X25942455Y-146923242D01*
X25970162Y-147204551D01*
X26052216Y-147475050D01*
X26185466Y-147724343D01*
X26364790Y-147942850D01*
X26583297Y-148122174D01*
X26832590Y-148255424D01*
X27103089Y-148337478D01*
X27313906Y-148358242D01*
X27454890Y-148358242D01*
X27665707Y-148337478D01*
X27936206Y-148255424D01*
X28185499Y-148122174D01*
X28404006Y-147942850D01*
X28583330Y-147724343D01*
X28716580Y-147475050D01*
X28798634Y-147204551D01*
X28826341Y-146923242D01*
X31895585Y-146923242D01*
X31923292Y-147204551D01*
X32005346Y-147475050D01*
X32138596Y-147724343D01*
X32317920Y-147942850D01*
X32536427Y-148122174D01*
X32785720Y-148255424D01*
X33056219Y-148337478D01*
X33267036Y-148358242D01*
X33408020Y-148358242D01*
X33618837Y-148337478D01*
X33889336Y-148255424D01*
X34138629Y-148122174D01*
X34357136Y-147942850D01*
X34536460Y-147724343D01*
X34669710Y-147475050D01*
X34751764Y-147204551D01*
X34779471Y-146923242D01*
X34751764Y-146641933D01*
X34669710Y-146371434D01*
X34536460Y-146122141D01*
X34357136Y-145903634D01*
X34138629Y-145724310D01*
X33889336Y-145591060D01*
X33618837Y-145509006D01*
X33408020Y-145488242D01*
X33267036Y-145488242D01*
X33056219Y-145509006D01*
X32785720Y-145591060D01*
X32536427Y-145724310D01*
X32317920Y-145903634D01*
X32138596Y-146122141D01*
X32005346Y-146371434D01*
X31923292Y-146641933D01*
X31895585Y-146923242D01*
X28826341Y-146923242D01*
X28798634Y-146641933D01*
X28716580Y-146371434D01*
X28583330Y-146122141D01*
X28404006Y-145903634D01*
X28185499Y-145724310D01*
X27936206Y-145591060D01*
X27665707Y-145509006D01*
X27454890Y-145488242D01*
X27313906Y-145488242D01*
X27103089Y-145509006D01*
X26832590Y-145591060D01*
X26583297Y-145724310D01*
X26364790Y-145903634D01*
X26185466Y-146122141D01*
X26052216Y-146371434D01*
X25970162Y-146641933D01*
X25942455Y-146923242D01*
X22873211Y-146923242D01*
X22845504Y-146641933D01*
X22763450Y-146371434D01*
X22630200Y-146122141D01*
X22450876Y-145903634D01*
X22232369Y-145724310D01*
X21983076Y-145591060D01*
X21712577Y-145509006D01*
X21501760Y-145488242D01*
X21360776Y-145488242D01*
X21149959Y-145509006D01*
X20879460Y-145591060D01*
X20630167Y-145724310D01*
X20411660Y-145903634D01*
X20232336Y-146122141D01*
X20099086Y-146371434D01*
X20017032Y-146641933D01*
X19989325Y-146923242D01*
X16458889Y-146923242D01*
X16722626Y-146659505D01*
X17065713Y-146146038D01*
X17302036Y-145575505D01*
X17422512Y-144969830D01*
X17422512Y-144541990D01*
X22965890Y-144541990D01*
X22993597Y-144823299D01*
X23075651Y-145093798D01*
X23208901Y-145343091D01*
X23388225Y-145561598D01*
X23606732Y-145740922D01*
X23856025Y-145874172D01*
X24126524Y-145956226D01*
X24337341Y-145976990D01*
X24478325Y-145976990D01*
X24689142Y-145956226D01*
X24959641Y-145874172D01*
X25208934Y-145740922D01*
X25427441Y-145561598D01*
X25606765Y-145343091D01*
X25740015Y-145093798D01*
X25822069Y-144823299D01*
X25849776Y-144541990D01*
X28919020Y-144541990D01*
X28946727Y-144823299D01*
X29028781Y-145093798D01*
X29162031Y-145343091D01*
X29341355Y-145561598D01*
X29559862Y-145740922D01*
X29809155Y-145874172D01*
X30079654Y-145956226D01*
X30290471Y-145976990D01*
X30431455Y-145976990D01*
X30642272Y-145956226D01*
X30912771Y-145874172D01*
X31162064Y-145740922D01*
X31380571Y-145561598D01*
X31559895Y-145343091D01*
X31693145Y-145093798D01*
X31775199Y-144823299D01*
X31802906Y-144541990D01*
X34872150Y-144541990D01*
X34899857Y-144823299D01*
X34981911Y-145093798D01*
X35115161Y-145343091D01*
X35294485Y-145561598D01*
X35512992Y-145740922D01*
X35762285Y-145874172D01*
X36032784Y-145956226D01*
X36243601Y-145976990D01*
X36384585Y-145976990D01*
X36595402Y-145956226D01*
X36865901Y-145874172D01*
X37115194Y-145740922D01*
X37333701Y-145561598D01*
X37513025Y-145343091D01*
X37646275Y-145093798D01*
X37728329Y-144823299D01*
X37756036Y-144541990D01*
X37728329Y-144260681D01*
X37646275Y-143990182D01*
X37513025Y-143740889D01*
X37333701Y-143522382D01*
X37115194Y-143343058D01*
X36865901Y-143209808D01*
X36595402Y-143127754D01*
X36384585Y-143106990D01*
X36243601Y-143106990D01*
X36032784Y-143127754D01*
X35762285Y-143209808D01*
X35512992Y-143343058D01*
X35294485Y-143522382D01*
X35115161Y-143740889D01*
X34981911Y-143990182D01*
X34899857Y-144260681D01*
X34872150Y-144541990D01*
X31802906Y-144541990D01*
X31775199Y-144260681D01*
X31693145Y-143990182D01*
X31559895Y-143740889D01*
X31380571Y-143522382D01*
X31162064Y-143343058D01*
X30912771Y-143209808D01*
X30642272Y-143127754D01*
X30431455Y-143106990D01*
X30290471Y-143106990D01*
X30079654Y-143127754D01*
X29809155Y-143209808D01*
X29559862Y-143343058D01*
X29341355Y-143522382D01*
X29162031Y-143740889D01*
X29028781Y-143990182D01*
X28946727Y-144260681D01*
X28919020Y-144541990D01*
X25849776Y-144541990D01*
X25822069Y-144260681D01*
X25740015Y-143990182D01*
X25606765Y-143740889D01*
X25427441Y-143522382D01*
X25208934Y-143343058D01*
X24959641Y-143209808D01*
X24689142Y-143127754D01*
X24478325Y-143106990D01*
X24337341Y-143106990D01*
X24126524Y-143127754D01*
X23856025Y-143209808D01*
X23606732Y-143343058D01*
X23388225Y-143522382D01*
X23208901Y-143740889D01*
X23075651Y-143990182D01*
X22993597Y-144260681D01*
X22965890Y-144541990D01*
X17422512Y-144541990D01*
X17422512Y-144352288D01*
X17302036Y-143746613D01*
X17065713Y-143176080D01*
X16722626Y-142662613D01*
X16285958Y-142225945D01*
X15772491Y-141882858D01*
X15201958Y-141646535D01*
X14596283Y-141526059D01*
X13978741Y-141526059D01*
X13373066Y-141646535D01*
X12802533Y-141882858D01*
X12289066Y-142225945D01*
X11852398Y-142662613D01*
X11509311Y-143176080D01*
X11272988Y-143746613D01*
X11152512Y-144352288D01*
X10610000Y-144352288D01*
X10610000Y-121721669D01*
X11737897Y-121721669D01*
X11741573Y-121758991D01*
X11741574Y-131267146D01*
X11737897Y-131304478D01*
X11741574Y-131341811D01*
X11752571Y-131453464D01*
X11754989Y-131461435D01*
X11796027Y-131596724D01*
X11866599Y-131728754D01*
X11937774Y-131815480D01*
X11961573Y-131844479D01*
X11990571Y-131868277D01*
X12792782Y-132670489D01*
X12816580Y-132699487D01*
X12845578Y-132723285D01*
X12932304Y-132794460D01*
X12968509Y-132813812D01*
X12968509Y-132959486D01*
X12980769Y-133083968D01*
X13017079Y-133203666D01*
X13076044Y-133313980D01*
X13155396Y-133410671D01*
X13252087Y-133490023D01*
X13362401Y-133548988D01*
X13482099Y-133585298D01*
X13606581Y-133597558D01*
X15206581Y-133597558D01*
X15331063Y-133585298D01*
X15450761Y-133548988D01*
X15561075Y-133490023D01*
X15657766Y-133410671D01*
X15737118Y-133313980D01*
X15796083Y-133203666D01*
X15832393Y-133083968D01*
X15844653Y-132959486D01*
X15844653Y-132508525D01*
X20634677Y-132508525D01*
X20675335Y-132642573D01*
X20795544Y-132896906D01*
X20963062Y-133122900D01*
X21171450Y-133311871D01*
X21412700Y-133456556D01*
X21677541Y-133551395D01*
X21899581Y-133430110D01*
X21899581Y-132286486D01*
X22153581Y-132286486D01*
X22153581Y-133430110D01*
X22375621Y-133551395D01*
X22640462Y-133456556D01*
X22881712Y-133311871D01*
X23090100Y-133122900D01*
X23257618Y-132896906D01*
X23377827Y-132642573D01*
X23418485Y-132508525D01*
X23296496Y-132286486D01*
X22153581Y-132286486D01*
X21899581Y-132286486D01*
X20756666Y-132286486D01*
X20634677Y-132508525D01*
X15844653Y-132508525D01*
X15844653Y-131810447D01*
X20634677Y-131810447D01*
X20756666Y-132032486D01*
X21899581Y-132032486D01*
X21899581Y-130888862D01*
X22153581Y-130888862D01*
X22153581Y-132032486D01*
X23296496Y-132032486D01*
X23418485Y-131810447D01*
X23377827Y-131676399D01*
X23257618Y-131422066D01*
X23090100Y-131196072D01*
X22881712Y-131007101D01*
X22640462Y-130862416D01*
X22375621Y-130767577D01*
X22153581Y-130888862D01*
X21899581Y-130888862D01*
X21677541Y-130767577D01*
X21412700Y-130862416D01*
X21171450Y-131007101D01*
X20963062Y-131196072D01*
X20795544Y-131422066D01*
X20675335Y-131676399D01*
X20634677Y-131810447D01*
X15844653Y-131810447D01*
X15844653Y-131359486D01*
X15832393Y-131235004D01*
X15796083Y-131115306D01*
X15737118Y-131004992D01*
X15657766Y-130908301D01*
X15561075Y-130828949D01*
X15450761Y-130769984D01*
X15331063Y-130733674D01*
X15206581Y-130721414D01*
X13606581Y-130721414D01*
X13482099Y-130733674D01*
X13362401Y-130769984D01*
X13261573Y-130823879D01*
X13261573Y-130518528D01*
X13362401Y-130572423D01*
X13482099Y-130608733D01*
X13606581Y-130620993D01*
X15206581Y-130620993D01*
X15331063Y-130608733D01*
X15450761Y-130572423D01*
X15561075Y-130513458D01*
X15657766Y-130434106D01*
X15737118Y-130337415D01*
X15796083Y-130227101D01*
X15832393Y-130107403D01*
X15844653Y-129982921D01*
X15844653Y-129531960D01*
X20634677Y-129531960D01*
X20675335Y-129666008D01*
X20795544Y-129920341D01*
X20963062Y-130146335D01*
X21171450Y-130335306D01*
X21412700Y-130479991D01*
X21677541Y-130574830D01*
X21899581Y-130453545D01*
X21899581Y-129309921D01*
X22153581Y-129309921D01*
X22153581Y-130453545D01*
X22375621Y-130574830D01*
X22640462Y-130479991D01*
X22881712Y-130335306D01*
X23090100Y-130146335D01*
X23257618Y-129920341D01*
X23377827Y-129666008D01*
X23418485Y-129531960D01*
X23296496Y-129309921D01*
X22153581Y-129309921D01*
X21899581Y-129309921D01*
X20756666Y-129309921D01*
X20634677Y-129531960D01*
X15844653Y-129531960D01*
X15844653Y-128833882D01*
X20634677Y-128833882D01*
X20756666Y-129055921D01*
X21899581Y-129055921D01*
X21899581Y-127912297D01*
X22153581Y-127912297D01*
X22153581Y-129055921D01*
X23296496Y-129055921D01*
X23418485Y-128833882D01*
X23377827Y-128699834D01*
X23257618Y-128445501D01*
X23090100Y-128219507D01*
X22881712Y-128030536D01*
X22640462Y-127885851D01*
X22375621Y-127791012D01*
X22153581Y-127912297D01*
X21899581Y-127912297D01*
X21677541Y-127791012D01*
X21412700Y-127885851D01*
X21171450Y-128030536D01*
X20963062Y-128219507D01*
X20795544Y-128445501D01*
X20675335Y-128699834D01*
X20634677Y-128833882D01*
X15844653Y-128833882D01*
X15844653Y-128382921D01*
X15832393Y-128258439D01*
X15796083Y-128138741D01*
X15737118Y-128028427D01*
X15657766Y-127931736D01*
X15561075Y-127852384D01*
X15450761Y-127793419D01*
X15331063Y-127757109D01*
X15325329Y-127756544D01*
X15325329Y-125518192D01*
X15416342Y-125457379D01*
X15602291Y-125271430D01*
X15748390Y-125052776D01*
X15849025Y-124809822D01*
X15900329Y-124551903D01*
X15900329Y-124288931D01*
X15849025Y-124031012D01*
X15748390Y-123788058D01*
X15602291Y-123569404D01*
X15416342Y-123383455D01*
X15325329Y-123322642D01*
X15325329Y-123142463D01*
X15513884Y-122987720D01*
X15680711Y-122784440D01*
X15804676Y-122552519D01*
X15881012Y-122300871D01*
X15906788Y-122039165D01*
X15881012Y-121777459D01*
X15804676Y-121525811D01*
X15680711Y-121293890D01*
X15513884Y-121090610D01*
X15310604Y-120923783D01*
X15169833Y-120848539D01*
X15310604Y-120773295D01*
X15513884Y-120606468D01*
X15680711Y-120403188D01*
X15804676Y-120171267D01*
X15881012Y-119919619D01*
X15906788Y-119657913D01*
X15881012Y-119396207D01*
X15804676Y-119144559D01*
X15760868Y-119062600D01*
X16819384Y-119062600D01*
X16824391Y-119113438D01*
X16824390Y-122583650D01*
X16819384Y-122634478D01*
X16824390Y-122685306D01*
X16824390Y-122685315D01*
X16839366Y-122837372D01*
X16898549Y-123032470D01*
X16994656Y-123212275D01*
X17123994Y-123369874D01*
X17163487Y-123402285D01*
X18317226Y-124556025D01*
X18329646Y-124682123D01*
X18405982Y-124933771D01*
X18529947Y-125165692D01*
X18696774Y-125368972D01*
X18900054Y-125535799D01*
X19131975Y-125659764D01*
X19383623Y-125736100D01*
X19579750Y-125755417D01*
X19710908Y-125755417D01*
X19907035Y-125736100D01*
X20158683Y-125659764D01*
X20390604Y-125535799D01*
X20593884Y-125368972D01*
X20760711Y-125165692D01*
X20884676Y-124933771D01*
X20961012Y-124682123D01*
X20986788Y-124420417D01*
X20961012Y-124158711D01*
X20884676Y-123907063D01*
X20760711Y-123675142D01*
X20593884Y-123471862D01*
X20390604Y-123305035D01*
X20254021Y-123232029D01*
X20277688Y-123222226D01*
X20496342Y-123076127D01*
X20682291Y-122890178D01*
X20828390Y-122671524D01*
X20929025Y-122428570D01*
X20980329Y-122170651D01*
X20980329Y-121907679D01*
X20929025Y-121649760D01*
X20828390Y-121406806D01*
X20682291Y-121188152D01*
X20496342Y-121002203D01*
X20277688Y-120856104D01*
X20259425Y-120848539D01*
X20277688Y-120840974D01*
X20496342Y-120694875D01*
X20682291Y-120508926D01*
X20828390Y-120290272D01*
X20929025Y-120047318D01*
X20980329Y-119789399D01*
X20980329Y-119526427D01*
X20929025Y-119268508D01*
X20828390Y-119025554D01*
X20682291Y-118806900D01*
X20496342Y-118620951D01*
X20277688Y-118474852D01*
X20259425Y-118467287D01*
X20277688Y-118459722D01*
X20496342Y-118313623D01*
X20682291Y-118127674D01*
X20828390Y-117909020D01*
X20929025Y-117666066D01*
X20980329Y-117408147D01*
X20980329Y-117145175D01*
X20929025Y-116887256D01*
X20828390Y-116644302D01*
X20682291Y-116425648D01*
X20496342Y-116239699D01*
X20277688Y-116093600D01*
X20034734Y-115992965D01*
X19776815Y-115941661D01*
X19513843Y-115941661D01*
X19255924Y-115992965D01*
X19012970Y-116093600D01*
X18794316Y-116239699D01*
X18608367Y-116425648D01*
X18462268Y-116644302D01*
X18361633Y-116887256D01*
X18310329Y-117145175D01*
X18310329Y-117147950D01*
X17163482Y-118294798D01*
X17123995Y-118327204D01*
X17091588Y-118366692D01*
X17091587Y-118366693D01*
X16994656Y-118484803D01*
X16898550Y-118664607D01*
X16839367Y-118859705D01*
X16819384Y-119062600D01*
X15760868Y-119062600D01*
X15680711Y-118912638D01*
X15513884Y-118709358D01*
X15310604Y-118542531D01*
X15169833Y-118467287D01*
X15310604Y-118392043D01*
X15513884Y-118225216D01*
X15680711Y-118021936D01*
X15804676Y-117790015D01*
X15881012Y-117538367D01*
X15906788Y-117276661D01*
X15881012Y-117014955D01*
X15804676Y-116763307D01*
X15680711Y-116531386D01*
X15513884Y-116328106D01*
X15310604Y-116161279D01*
X15078683Y-116037314D01*
X14827035Y-115960978D01*
X14630908Y-115941661D01*
X14499750Y-115941661D01*
X14303623Y-115960978D01*
X14051975Y-116037314D01*
X13820054Y-116161279D01*
X13616774Y-116328106D01*
X13449947Y-116531386D01*
X13325982Y-116763307D01*
X13249646Y-117014955D01*
X13223870Y-117276661D01*
X13249646Y-117538367D01*
X13325982Y-117790015D01*
X13449947Y-118021936D01*
X13616774Y-118225216D01*
X13820054Y-118392043D01*
X13960825Y-118467287D01*
X13820054Y-118542531D01*
X13616774Y-118709358D01*
X13449947Y-118912638D01*
X13325982Y-119144559D01*
X13249646Y-119396207D01*
X13223870Y-119657913D01*
X13247779Y-119900662D01*
X11990576Y-121157865D01*
X11961572Y-121181668D01*
X11922382Y-121229422D01*
X11866599Y-121297393D01*
X11827165Y-121371169D01*
X11796027Y-121429423D01*
X11752570Y-121572684D01*
X11741573Y-121684337D01*
X11741573Y-121684347D01*
X11737897Y-121721669D01*
X10610000Y-121721669D01*
X10610000Y-114458531D01*
X16550888Y-114458531D01*
X17011453Y-114413169D01*
X17602403Y-114233907D01*
X18147026Y-113942800D01*
X18624391Y-113551036D01*
X19016155Y-113073671D01*
X19307262Y-112529048D01*
X19486524Y-111938098D01*
X19547054Y-111323531D01*
X19486524Y-110708964D01*
X19307262Y-110118014D01*
X19016155Y-109573391D01*
X18624391Y-109096026D01*
X18147026Y-108704262D01*
X17602403Y-108413155D01*
X17011453Y-108233893D01*
X16550888Y-108188531D01*
X10610000Y-108188531D01*
X10610000Y-105886538D01*
X13474415Y-105886538D01*
X13545998Y-106130507D01*
X13801508Y-106251407D01*
X14075696Y-106320136D01*
X14358024Y-106334053D01*
X14637642Y-106292623D01*
X14903804Y-106197439D01*
X15029026Y-106130507D01*
X15100609Y-105886538D01*
X14287512Y-105073441D01*
X13474415Y-105886538D01*
X10610000Y-105886538D01*
X10610000Y-104964348D01*
X12847295Y-104964348D01*
X12888725Y-105243966D01*
X12983909Y-105510128D01*
X13050841Y-105635350D01*
X13294810Y-105706933D01*
X14107907Y-104893836D01*
X14467117Y-104893836D01*
X15280214Y-105706933D01*
X15524183Y-105635350D01*
X15645083Y-105379840D01*
X15713812Y-105105652D01*
X15727729Y-104823324D01*
X15686299Y-104543706D01*
X15591115Y-104277544D01*
X15524183Y-104152322D01*
X15280214Y-104080739D01*
X14467117Y-104893836D01*
X14107907Y-104893836D01*
X13294810Y-104080739D01*
X13050841Y-104152322D01*
X12929941Y-104407832D01*
X12861212Y-104682020D01*
X12847295Y-104964348D01*
X10610000Y-104964348D01*
X10610000Y-102252501D01*
X12852512Y-102252501D01*
X12852512Y-102535171D01*
X12907659Y-102812410D01*
X13015832Y-103073563D01*
X13172875Y-103308595D01*
X13372753Y-103508473D01*
X13573381Y-103642528D01*
X13545998Y-103657165D01*
X13474415Y-103901134D01*
X14287512Y-104714231D01*
X15100609Y-103901134D01*
X15029026Y-103657165D01*
X15000171Y-103643512D01*
X15202271Y-103508473D01*
X15402149Y-103308595D01*
X15559192Y-103073563D01*
X15667365Y-102812410D01*
X15722512Y-102535171D01*
X15722512Y-102252501D01*
X15667365Y-101975262D01*
X15559192Y-101714109D01*
X15402149Y-101479077D01*
X15202271Y-101279199D01*
X14967239Y-101122156D01*
X14706086Y-101013983D01*
X14448746Y-100962794D01*
X14637642Y-100934806D01*
X14903804Y-100839622D01*
X15029026Y-100772690D01*
X15100609Y-100528721D01*
X14287512Y-99715624D01*
X13474415Y-100528721D01*
X13545998Y-100772690D01*
X13801508Y-100893590D01*
X14075696Y-100962319D01*
X14118147Y-100964412D01*
X13868938Y-101013983D01*
X13607785Y-101122156D01*
X13372753Y-101279199D01*
X13172875Y-101479077D01*
X13015832Y-101714109D01*
X12907659Y-101975262D01*
X12852512Y-102252501D01*
X10610000Y-102252501D01*
X10610000Y-99606531D01*
X12847295Y-99606531D01*
X12888725Y-99886149D01*
X12983909Y-100152311D01*
X13050841Y-100277533D01*
X13294810Y-100349116D01*
X14107907Y-99536019D01*
X14467117Y-99536019D01*
X15280214Y-100349116D01*
X15524183Y-100277533D01*
X15645083Y-100022023D01*
X15713812Y-99747835D01*
X15727729Y-99465507D01*
X15686299Y-99185889D01*
X15591115Y-98919727D01*
X15524183Y-98794505D01*
X15280214Y-98722922D01*
X14467117Y-99536019D01*
X14107907Y-99536019D01*
X13294810Y-98722922D01*
X13050841Y-98794505D01*
X12929941Y-99050015D01*
X12861212Y-99324203D01*
X12847295Y-99606531D01*
X10610000Y-99606531D01*
X10610000Y-96894684D01*
X12852512Y-96894684D01*
X12852512Y-97177354D01*
X12907659Y-97454593D01*
X13015832Y-97715746D01*
X13172875Y-97950778D01*
X13372753Y-98150656D01*
X13573381Y-98284711D01*
X13545998Y-98299348D01*
X13474415Y-98543317D01*
X14287512Y-99356414D01*
X15100609Y-98543317D01*
X15029026Y-98299348D01*
X15000171Y-98285695D01*
X15202271Y-98150656D01*
X15402149Y-97950778D01*
X15559192Y-97715746D01*
X15667365Y-97454593D01*
X15722512Y-97177354D01*
X15722512Y-96894684D01*
X15667365Y-96617445D01*
X15559192Y-96356292D01*
X15402149Y-96121260D01*
X15202271Y-95921382D01*
X14967239Y-95764339D01*
X14706086Y-95656166D01*
X14428847Y-95601019D01*
X14146177Y-95601019D01*
X13868938Y-95656166D01*
X13607785Y-95764339D01*
X13372753Y-95921382D01*
X13172875Y-96121260D01*
X13015832Y-96356292D01*
X12907659Y-96617445D01*
X12852512Y-96894684D01*
X10610000Y-96894684D01*
X10610000Y-65967153D01*
X13247825Y-65967153D01*
X13247825Y-66289219D01*
X13310657Y-66605098D01*
X13433907Y-66902649D01*
X13612838Y-67170438D01*
X13840573Y-67398173D01*
X14108362Y-67577104D01*
X14405913Y-67700354D01*
X14721792Y-67763186D01*
X15043858Y-67763186D01*
X15359737Y-67700354D01*
X15657288Y-67577104D01*
X15925077Y-67398173D01*
X16059651Y-67263599D01*
X18427017Y-67263599D01*
X18522781Y-67528000D01*
X18812396Y-67668890D01*
X19123933Y-67750570D01*
X19445420Y-67769904D01*
X19764500Y-67726147D01*
X20068913Y-67620981D01*
X20242869Y-67528000D01*
X20338633Y-67263599D01*
X19382825Y-66307791D01*
X18427017Y-67263599D01*
X16059651Y-67263599D01*
X16152812Y-67170438D01*
X16331743Y-66902649D01*
X16454993Y-66605098D01*
X16517825Y-66289219D01*
X16517825Y-66190781D01*
X17741107Y-66190781D01*
X17784864Y-66509861D01*
X17890030Y-66814274D01*
X17983011Y-66988230D01*
X18247412Y-67083994D01*
X19203220Y-66128186D01*
X19562430Y-66128186D01*
X20518238Y-67083994D01*
X20782639Y-66988230D01*
X20923529Y-66698615D01*
X21005209Y-66387078D01*
X21024543Y-66065591D01*
X20980786Y-65746511D01*
X20875620Y-65442098D01*
X20782639Y-65268142D01*
X20518238Y-65172378D01*
X19562430Y-66128186D01*
X19203220Y-66128186D01*
X18247412Y-65172378D01*
X17983011Y-65268142D01*
X17842121Y-65557757D01*
X17760441Y-65869294D01*
X17741107Y-66190781D01*
X16517825Y-66190781D01*
X16517825Y-65967153D01*
X16454993Y-65651274D01*
X16331743Y-65353723D01*
X16152812Y-65085934D01*
X16059651Y-64992773D01*
X18427017Y-64992773D01*
X19382825Y-65948581D01*
X20338633Y-64992773D01*
X20242869Y-64728372D01*
X19953254Y-64587482D01*
X19641717Y-64505802D01*
X19320230Y-64486468D01*
X19001150Y-64530225D01*
X18696737Y-64635391D01*
X18522781Y-64728372D01*
X18427017Y-64992773D01*
X16059651Y-64992773D01*
X15925077Y-64858199D01*
X15657288Y-64679268D01*
X15359737Y-64556018D01*
X15043858Y-64493186D01*
X14721792Y-64493186D01*
X14405913Y-64556018D01*
X14108362Y-64679268D01*
X13840573Y-64858199D01*
X13612838Y-65085934D01*
X13433907Y-65353723D01*
X13310657Y-65651274D01*
X13247825Y-65967153D01*
X10610000Y-65967153D01*
X10610000Y-59222529D01*
X11152512Y-59222529D01*
X11152512Y-59840071D01*
X11272988Y-60445746D01*
X11509311Y-61016279D01*
X11852398Y-61529746D01*
X12289066Y-61966414D01*
X12802533Y-62309501D01*
X13373066Y-62545824D01*
X13978741Y-62666300D01*
X14596283Y-62666300D01*
X15201958Y-62545824D01*
X15772491Y-62309501D01*
X16285958Y-61966414D01*
X16722626Y-61529746D01*
X16840604Y-61353178D01*
X22622739Y-61353178D01*
X22654307Y-61673694D01*
X22747798Y-61981893D01*
X22899619Y-62265930D01*
X23103936Y-62514892D01*
X23352898Y-62719209D01*
X23636935Y-62871030D01*
X23945134Y-62964521D01*
X24185328Y-62988178D01*
X24345972Y-62988178D01*
X24586166Y-62964521D01*
X24894365Y-62871030D01*
X25178402Y-62719209D01*
X25427364Y-62514892D01*
X25631681Y-62265930D01*
X25783502Y-61981893D01*
X25876993Y-61673694D01*
X25908561Y-61353178D01*
X25876993Y-61032662D01*
X25783502Y-60724463D01*
X25631681Y-60440426D01*
X25427364Y-60191464D01*
X25178402Y-59987147D01*
X24894365Y-59835326D01*
X24586166Y-59741835D01*
X24345972Y-59718178D01*
X24185328Y-59718178D01*
X23945134Y-59741835D01*
X23636935Y-59835326D01*
X23352898Y-59987147D01*
X23103936Y-60191464D01*
X22899619Y-60440426D01*
X22747798Y-60724463D01*
X22654307Y-61032662D01*
X22622739Y-61353178D01*
X16840604Y-61353178D01*
X17065713Y-61016279D01*
X17302036Y-60445746D01*
X17422512Y-59840071D01*
X17422512Y-59222529D01*
X17302036Y-58616854D01*
X17065713Y-58046321D01*
X16722626Y-57532854D01*
X16285958Y-57096186D01*
X15772491Y-56753099D01*
X15201958Y-56516776D01*
X14596283Y-56396300D01*
X13978741Y-56396300D01*
X13373066Y-56516776D01*
X12802533Y-56753099D01*
X12289066Y-57096186D01*
X11852398Y-57532854D01*
X11509311Y-58046321D01*
X11272988Y-58616854D01*
X11152512Y-59222529D01*
X10610000Y-59222529D01*
X10610000Y-57184721D01*
X10645168Y-56826049D01*
X10739252Y-56514431D01*
X10892065Y-56227030D01*
X11097793Y-55974782D01*
X11348603Y-55767294D01*
X11634935Y-55612475D01*
X11945879Y-55516221D01*
X12302391Y-55478750D01*
X23119428Y-55478750D01*
X23103936Y-55491464D01*
X23103936Y-55491464D01*
G37*
X23103936Y-55491464D02*
X22899619Y-55740426D01*
X22747798Y-56024463D01*
X22654307Y-56332662D01*
X22622739Y-56653178D01*
X22654307Y-56973694D01*
X22747798Y-57281893D01*
X22899619Y-57565930D01*
X23103936Y-57814892D01*
X23352898Y-58019209D01*
X23636935Y-58171030D01*
X23945134Y-58264521D01*
X24185328Y-58288178D01*
X24345972Y-58288178D01*
X24586166Y-58264521D01*
X24894365Y-58171030D01*
X25178402Y-58019209D01*
X25427364Y-57814892D01*
X25631681Y-57565930D01*
X25783502Y-57281893D01*
X25876993Y-56973694D01*
X25908561Y-56653178D01*
X25876993Y-56332662D01*
X25783502Y-56024463D01*
X25631681Y-55740426D01*
X25427364Y-55491464D01*
X25411872Y-55478750D01*
X30919428Y-55478750D01*
X30903936Y-55491464D01*
X30699619Y-55740426D01*
X30547798Y-56024463D01*
X30454307Y-56332662D01*
X30422739Y-56653178D01*
X30454307Y-56973694D01*
X30547798Y-57281893D01*
X30699619Y-57565930D01*
X30903936Y-57814892D01*
X31152898Y-58019209D01*
X31436935Y-58171030D01*
X31745134Y-58264521D01*
X31985328Y-58288178D01*
X32145972Y-58288178D01*
X32386166Y-58264521D01*
X32694365Y-58171030D01*
X32978402Y-58019209D01*
X33227364Y-57814892D01*
X33431681Y-57565930D01*
X33583502Y-57281893D01*
X33676993Y-56973694D01*
X33708561Y-56653178D01*
X33676993Y-56332662D01*
X33583502Y-56024463D01*
X33431681Y-55740426D01*
X33227364Y-55491464D01*
X33211872Y-55478750D01*
X60072888Y-55478750D01*
X55708613Y-59843026D01*
X55708483Y-59817050D01*
X55549733Y-59658300D01*
X54300483Y-59658300D01*
X54300483Y-59678300D01*
X54046483Y-59678300D01*
X54046483Y-59658300D01*
X54026483Y-59658300D01*
X54026483Y-59404300D01*
X54046483Y-59404300D01*
X54046483Y-58155050D01*
X54300483Y-58155050D01*
X54300483Y-59404300D01*
X55549733Y-59404300D01*
X55708483Y-59245550D01*
X55711555Y-58631300D01*
X55699295Y-58506818D01*
X55662985Y-58387120D01*
X55604020Y-58276806D01*
X55524668Y-58180115D01*
X55427977Y-58100763D01*
X55317663Y-58041798D01*
X55197965Y-58005488D01*
X55073483Y-57993228D01*
X54459233Y-57996300D01*
X54300483Y-58155050D01*
X54046483Y-58155050D01*
X53887733Y-57996300D01*
X53273483Y-57993228D01*
X53149001Y-58005488D01*
X53029303Y-58041798D01*
X52918989Y-58100763D01*
X52822298Y-58180115D01*
X52742946Y-58276806D01*
X52683981Y-58387120D01*
X52678427Y-58405427D01*
X52611988Y-58338988D01*
X52360578Y-58171001D01*
X52081226Y-58055289D01*
X51784667Y-57996300D01*
X51482299Y-57996300D01*
X51224553Y-58047569D01*
X49981660Y-56804676D01*
X49957857Y-56775672D01*
X49842132Y-56680699D01*
X49710103Y-56610127D01*
X49566842Y-56566670D01*
X49455189Y-56555673D01*
X49455178Y-56555673D01*
X49417856Y-56551997D01*
X49380534Y-56555673D01*
X40939415Y-56555673D01*
X40902092Y-56551997D01*
X40864769Y-56555673D01*
X40864759Y-56555673D01*
X40753106Y-56566670D01*
X40609845Y-56610127D01*
X40477816Y-56680699D01*
X40362091Y-56775672D01*
X40338292Y-56804671D01*
X39858090Y-57284874D01*
X39829092Y-57308672D01*
X39805294Y-57337670D01*
X39805293Y-57337671D01*
X39734118Y-57424397D01*
X39663546Y-57556427D01*
X39647767Y-57608447D01*
X39620090Y-57699687D01*
X39616120Y-57739999D01*
X39605416Y-57848673D01*
X39609093Y-57886005D01*
X39609092Y-59659602D01*
X39605416Y-59696925D01*
X39609092Y-59734247D01*
X39609092Y-59734257D01*
X39620089Y-59845910D01*
X39658868Y-59973750D01*
X39663546Y-59989171D01*
X39734118Y-60121201D01*
X39771108Y-60166273D01*
X39829091Y-60236926D01*
X39858094Y-60260729D01*
X40076543Y-60479177D01*
X40052634Y-60721926D01*
X40078410Y-60983632D01*
X40081296Y-60993145D01*
X39364093Y-60993145D01*
X39326770Y-60989469D01*
X39289447Y-60993145D01*
X39289438Y-60993145D01*
X39177785Y-61004142D01*
X39083766Y-61032662D01*
X39034524Y-61047599D01*
X38902494Y-61118171D01*
X38868340Y-61146201D01*
X38786770Y-61213144D01*
X38762972Y-61242142D01*
X38162129Y-61842985D01*
X38100747Y-61781603D01*
X37947608Y-61679279D01*
X37777448Y-61608797D01*
X37596808Y-61572865D01*
X37412630Y-61572865D01*
X37335858Y-61588136D01*
X37351055Y-61572939D01*
X37497154Y-61354285D01*
X37597789Y-61111331D01*
X37649093Y-60853412D01*
X37649093Y-60590440D01*
X37597789Y-60332521D01*
X37497154Y-60089567D01*
X37351055Y-59870913D01*
X37165106Y-59684964D01*
X36946452Y-59538865D01*
X36928189Y-59531300D01*
X36946452Y-59523735D01*
X37165106Y-59377636D01*
X37351055Y-59191687D01*
X37497154Y-58973033D01*
X37597789Y-58730079D01*
X37649093Y-58472160D01*
X37649093Y-58209188D01*
X37597789Y-57951269D01*
X37497154Y-57708315D01*
X37351055Y-57489661D01*
X37165106Y-57303712D01*
X36946452Y-57157613D01*
X36703498Y-57056978D01*
X36445579Y-57005674D01*
X36182607Y-57005674D01*
X35924688Y-57056978D01*
X35681734Y-57157613D01*
X35463080Y-57303712D01*
X35277131Y-57489661D01*
X35131032Y-57708315D01*
X35030397Y-57951269D01*
X34979093Y-58209188D01*
X34979093Y-58472160D01*
X35030397Y-58730079D01*
X35131032Y-58973033D01*
X35277131Y-59191687D01*
X35463080Y-59377636D01*
X35681734Y-59523735D01*
X35699997Y-59531300D01*
X35681734Y-59538865D01*
X35463080Y-59684964D01*
X35277131Y-59870913D01*
X35131032Y-60089567D01*
X35030397Y-60332521D01*
X34979093Y-60590440D01*
X34979093Y-60853412D01*
X35030397Y-61111331D01*
X35131032Y-61354285D01*
X35277131Y-61572939D01*
X35463080Y-61758888D01*
X35681734Y-61904987D01*
X35924688Y-62005622D01*
X36182607Y-62056926D01*
X36445579Y-62056926D01*
X36703498Y-62005622D01*
X36720497Y-61998581D01*
X36676133Y-62064976D01*
X36605651Y-62235136D01*
X36581566Y-62356216D01*
X29755556Y-69182227D01*
X27397795Y-69182227D01*
X27514192Y-69008026D01*
X27626512Y-68736864D01*
X27683772Y-68448999D01*
X27683772Y-68155495D01*
X27626512Y-67867630D01*
X27600650Y-67805194D01*
X27600650Y-64150845D01*
X27604342Y-64153312D01*
X27819998Y-64242639D01*
X28048938Y-64288178D01*
X28282362Y-64288178D01*
X28511302Y-64242639D01*
X28726958Y-64153312D01*
X28780509Y-64117530D01*
X28861156Y-64183715D01*
X28971470Y-64242680D01*
X29091168Y-64278990D01*
X29215650Y-64291250D01*
X29479900Y-64288178D01*
X29638650Y-64129428D01*
X29638650Y-63230178D01*
X29892650Y-63230178D01*
X29892650Y-64129428D01*
X30051400Y-64288178D01*
X30315650Y-64291250D01*
X30440132Y-64278990D01*
X30559830Y-64242680D01*
X30670144Y-64183715D01*
X30766835Y-64104363D01*
X30846187Y-64007672D01*
X30905152Y-63897358D01*
X30941462Y-63777660D01*
X30953722Y-63653178D01*
X30950650Y-63388928D01*
X30791900Y-63230178D01*
X29892650Y-63230178D01*
X29638650Y-63230178D01*
X29618650Y-63230178D01*
X29618650Y-62976178D01*
X29638650Y-62976178D01*
X29638650Y-62956178D01*
X29892650Y-62956178D01*
X29892650Y-62976178D01*
X30791900Y-62976178D01*
X30950650Y-62817428D01*
X30953692Y-62555726D01*
X31152898Y-62719209D01*
X31436935Y-62871030D01*
X31745134Y-62964521D01*
X31985328Y-62988178D01*
X32145972Y-62988178D01*
X32386166Y-62964521D01*
X32694365Y-62871030D01*
X32978402Y-62719209D01*
X33227364Y-62514892D01*
X33431681Y-62265930D01*
X33583502Y-61981893D01*
X33676993Y-61673694D01*
X33708561Y-61353178D01*
X33676993Y-61032662D01*
X33583502Y-60724463D01*
X33431681Y-60440426D01*
X33227364Y-60191464D01*
X32978402Y-59987147D01*
X32694365Y-59835326D01*
X32386166Y-59741835D01*
X32145972Y-59718178D01*
X31985328Y-59718178D01*
X31745134Y-59741835D01*
X31436935Y-59835326D01*
X31152898Y-59987147D01*
X30903936Y-60191464D01*
X30699619Y-60440426D01*
X30547798Y-60724463D01*
X30454307Y-61032662D01*
X30422739Y-61353178D01*
X30454307Y-61673694D01*
X30540493Y-61957810D01*
X30440132Y-61927366D01*
X30315650Y-61915106D01*
X30051400Y-61918178D01*
X29936631Y-62032947D01*
X30015784Y-61914486D01*
X30105111Y-61698830D01*
X30150650Y-61469890D01*
X30150650Y-61236466D01*
X30105111Y-61007526D01*
X30015784Y-60791870D01*
X29886100Y-60597784D01*
X29721044Y-60432728D01*
X29526958Y-60303044D01*
X29311302Y-60213717D01*
X29082362Y-60168178D01*
X28848938Y-60168178D01*
X28619998Y-60213717D01*
X28404342Y-60303044D01*
X28210256Y-60432728D01*
X28165650Y-60477334D01*
X28121044Y-60432728D01*
X27926958Y-60303044D01*
X27711302Y-60213717D01*
X27482362Y-60168178D01*
X27248938Y-60168178D01*
X27019998Y-60213717D01*
X26804342Y-60303044D01*
X26610256Y-60432728D01*
X26445200Y-60597784D01*
X26315516Y-60791870D01*
X26226189Y-61007526D01*
X26180650Y-61236466D01*
X26180650Y-61469890D01*
X26226189Y-61698830D01*
X26315516Y-61914486D01*
X26333346Y-61941171D01*
X26219998Y-61963717D01*
X26004342Y-62053044D01*
X25810256Y-62182728D01*
X25645200Y-62347784D01*
X25515516Y-62541870D01*
X25426189Y-62757526D01*
X25380650Y-62986466D01*
X25380650Y-63219890D01*
X25426189Y-63448830D01*
X25515516Y-63664486D01*
X25530650Y-63687136D01*
X25530651Y-66964157D01*
X25487993Y-66981827D01*
X25243953Y-67144889D01*
X25036414Y-67352428D01*
X24873352Y-67596468D01*
X24761032Y-67867630D01*
X24703772Y-68155495D01*
X24703772Y-68448999D01*
X24761032Y-68736864D01*
X24873352Y-69008026D01*
X24989749Y-69182227D01*
X15645104Y-69182227D01*
X15607781Y-69178551D01*
X15570458Y-69182227D01*
X15570449Y-69182227D01*
X15458796Y-69193224D01*
X15315535Y-69236681D01*
X15183506Y-69307253D01*
X15170074Y-69318276D01*
X15096778Y-69378428D01*
X15096774Y-69378432D01*
X15067781Y-69402226D01*
X15043987Y-69431219D01*
X12146803Y-72328405D01*
X12117805Y-72352203D01*
X12094007Y-72381201D01*
X12094006Y-72381202D01*
X12022831Y-72467928D01*
X11952259Y-72599958D01*
X11908803Y-72743219D01*
X11894129Y-72892204D01*
X11897806Y-72929536D01*
X11897805Y-86281549D01*
X11894129Y-86318871D01*
X11897805Y-86356193D01*
X11897805Y-86356203D01*
X11908802Y-86467856D01*
X11952259Y-86611117D01*
X12022831Y-86743147D01*
X12044255Y-86769252D01*
X12117804Y-86858872D01*
X12146808Y-86882675D01*
X14713643Y-89449510D01*
X14405913Y-89510721D01*
X14108362Y-89633971D01*
X13840573Y-89812902D01*
X13612838Y-90040637D01*
X13433907Y-90308426D01*
X13310657Y-90605977D01*
X13247825Y-90921856D01*
X13247825Y-91243922D01*
X13310657Y-91559801D01*
X13433907Y-91857352D01*
X13612838Y-92125141D01*
X13840573Y-92352876D01*
X14108362Y-92531807D01*
X14405913Y-92655057D01*
X14721792Y-92717889D01*
X15043858Y-92717889D01*
X15359737Y-92655057D01*
X15374200Y-92649066D01*
X15763463Y-93038329D01*
X15763462Y-102488997D01*
X15759786Y-102526319D01*
X15763462Y-102563641D01*
X15763462Y-102563651D01*
X15774459Y-102675304D01*
X15807237Y-102783361D01*
X15817916Y-102818565D01*
X15888488Y-102950595D01*
X15923752Y-102993564D01*
X15983461Y-103066320D01*
X16012465Y-103090123D01*
X25507446Y-112585105D01*
X25493918Y-112629702D01*
X25466211Y-112911011D01*
X25493918Y-113192320D01*
X25575972Y-113462819D01*
X25709222Y-113712112D01*
X25888546Y-113930619D01*
X26107053Y-114109943D01*
X26240012Y-114181011D01*
X26107053Y-114252079D01*
X25888546Y-114431403D01*
X25709222Y-114649910D01*
X25575972Y-114899203D01*
X25493918Y-115169702D01*
X25466211Y-115451011D01*
X25493918Y-115732320D01*
X25575972Y-116002819D01*
X25709222Y-116252112D01*
X25888546Y-116470619D01*
X26107053Y-116649943D01*
X26240012Y-116721011D01*
X26107053Y-116792079D01*
X25888546Y-116971403D01*
X25709222Y-117189910D01*
X25575972Y-117439203D01*
X25493918Y-117709702D01*
X25466211Y-117991011D01*
X25493918Y-118272320D01*
X25575972Y-118542819D01*
X25709222Y-118792112D01*
X25888546Y-119010619D01*
X26107053Y-119189943D01*
X26240012Y-119261011D01*
X26107053Y-119332079D01*
X25888546Y-119511403D01*
X25709222Y-119729910D01*
X25575972Y-119979203D01*
X25493918Y-120249702D01*
X25466211Y-120531011D01*
X25493918Y-120812320D01*
X25507446Y-120856917D01*
X25378066Y-120986297D01*
X25349063Y-121010100D01*
X25301667Y-121067853D01*
X25254090Y-121125825D01*
X25209863Y-121208568D01*
X25183518Y-121257855D01*
X25140061Y-121401116D01*
X25129064Y-121512769D01*
X25129064Y-121512779D01*
X25125388Y-121550101D01*
X25129064Y-121587423D01*
X25129065Y-133090268D01*
X25125388Y-133127600D01*
X25129065Y-133164933D01*
X25139820Y-133274123D01*
X25140062Y-133276585D01*
X25183518Y-133419846D01*
X25254090Y-133551876D01*
X25317456Y-133629087D01*
X25349064Y-133667601D01*
X25378062Y-133691399D01*
X27638424Y-135951762D01*
X27662223Y-135980761D01*
X27777948Y-136075734D01*
X27909977Y-136146306D01*
X28053238Y-136189763D01*
X28164891Y-136200760D01*
X28164900Y-136200760D01*
X28202223Y-136204436D01*
X28239546Y-136200760D01*
X28922891Y-136200760D01*
X28922891Y-137418241D01*
X25845905Y-137418241D01*
X25845905Y-136121990D01*
X25833645Y-135997508D01*
X25797335Y-135877810D01*
X25738370Y-135767496D01*
X25659018Y-135670805D01*
X25562327Y-135591453D01*
X25452013Y-135532488D01*
X25332315Y-135496178D01*
X25207833Y-135483918D01*
X23607833Y-135483918D01*
X23483351Y-135496178D01*
X23363653Y-135532488D01*
X23253339Y-135591453D01*
X23156648Y-135670805D01*
X23077296Y-135767496D01*
X23018331Y-135877810D01*
X22982021Y-135997508D01*
X22969761Y-136121990D01*
X22969761Y-137721990D01*
X22971371Y-137738337D01*
X22668831Y-138040878D01*
X22585762Y-137972705D01*
X22475448Y-137913740D01*
X22355750Y-137877430D01*
X22231268Y-137865170D01*
X20631268Y-137865170D01*
X20506786Y-137877430D01*
X20387088Y-137913740D01*
X20276774Y-137972705D01*
X20180083Y-138052057D01*
X20100731Y-138148748D01*
X20041766Y-138259062D01*
X20005456Y-138378760D01*
X19993196Y-138503242D01*
X19993196Y-140103242D01*
X20005456Y-140227724D01*
X20041766Y-140347422D01*
X20100731Y-140457736D01*
X20180083Y-140554427D01*
X20276774Y-140633779D01*
X20387088Y-140692744D01*
X20506786Y-140729054D01*
X20631268Y-140741314D01*
X22231268Y-140741314D01*
X22355750Y-140729054D01*
X22475448Y-140692744D01*
X22585762Y-140633779D01*
X22682453Y-140554427D01*
X22761805Y-140457736D01*
X22820770Y-140347422D01*
X22857080Y-140227724D01*
X22869340Y-140103242D01*
X22869340Y-139957568D01*
X22905544Y-139938216D01*
X23021269Y-139843243D01*
X23045072Y-139814240D01*
X23921071Y-138938241D01*
X25946326Y-138938241D01*
X25946326Y-140103242D01*
X25958586Y-140227724D01*
X25994896Y-140347422D01*
X26053861Y-140457736D01*
X26133213Y-140554427D01*
X26229904Y-140633779D01*
X26340218Y-140692744D01*
X26459916Y-140729054D01*
X26584398Y-140741314D01*
X28184398Y-140741314D01*
X28308880Y-140729054D01*
X28428578Y-140692744D01*
X28538892Y-140633779D01*
X28635583Y-140554427D01*
X28714935Y-140457736D01*
X28773900Y-140347422D01*
X28810210Y-140227724D01*
X28822470Y-140103242D01*
X28822470Y-138938241D01*
X31899456Y-138938241D01*
X31899456Y-140103242D01*
X31911716Y-140227724D01*
X31948026Y-140347422D01*
X32006991Y-140457736D01*
X32086343Y-140554427D01*
X32183034Y-140633779D01*
X32293348Y-140692744D01*
X32413046Y-140729054D01*
X32537528Y-140741314D01*
X34137528Y-140741314D01*
X34262010Y-140729054D01*
X34381708Y-140692744D01*
X34492022Y-140633779D01*
X34588713Y-140554427D01*
X34668065Y-140457736D01*
X34727030Y-140347422D01*
X34763340Y-140227724D01*
X34775600Y-140103242D01*
X34775600Y-138938241D01*
X41424464Y-138938241D01*
X41424464Y-140103242D01*
X41436724Y-140227724D01*
X41473034Y-140347422D01*
X41531999Y-140457736D01*
X41611351Y-140554427D01*
X41708042Y-140633779D01*
X41818356Y-140692744D01*
X41938054Y-140729054D01*
X42062536Y-140741314D01*
X42611845Y-140741314D01*
X40211877Y-143141282D01*
X40167280Y-143127754D01*
X39956463Y-143106990D01*
X39815479Y-143106990D01*
X39604662Y-143127754D01*
X39334163Y-143209808D01*
X39084870Y-143343058D01*
X38866363Y-143522382D01*
X38687039Y-143740889D01*
X38553789Y-143990182D01*
X38471735Y-144260681D01*
X38444028Y-144541990D01*
X38471735Y-144823299D01*
X38553789Y-145093798D01*
X38687039Y-145343091D01*
X38866363Y-145561598D01*
X39084870Y-145740922D01*
X39334163Y-145874172D01*
X39604662Y-145956226D01*
X39815479Y-145976990D01*
X39956463Y-145976990D01*
X40167280Y-145956226D01*
X40437779Y-145874172D01*
X40687072Y-145740922D01*
X40905579Y-145561598D01*
X41084903Y-145343091D01*
X41218153Y-145093798D01*
X41300207Y-144823299D01*
X41327914Y-144541990D01*
X41300207Y-144260681D01*
X41286679Y-144216084D01*
X43958291Y-141544472D01*
X46035134Y-141544472D01*
X42351534Y-145228073D01*
X42322536Y-145251871D01*
X42298738Y-145280869D01*
X42298737Y-145280870D01*
X42227562Y-145367596D01*
X42156990Y-145499626D01*
X42113534Y-145642887D01*
X42107964Y-145699440D01*
X42061435Y-145724310D01*
X41842928Y-145903634D01*
X41663604Y-146122141D01*
X41530354Y-146371434D01*
X41448300Y-146641933D01*
X41420593Y-146923242D01*
X41448300Y-147204551D01*
X41530354Y-147475050D01*
X41663604Y-147724343D01*
X41842928Y-147942850D01*
X42061435Y-148122174D01*
X42310728Y-148255424D01*
X42581227Y-148337478D01*
X42792044Y-148358242D01*
X42933028Y-148358242D01*
X43143845Y-148337478D01*
X43414344Y-148255424D01*
X43663637Y-148122174D01*
X43882144Y-147942850D01*
X44061468Y-147724343D01*
X44194718Y-147475050D01*
X44276772Y-147204551D01*
X44304479Y-146923242D01*
X44276772Y-146641933D01*
X44194718Y-146371434D01*
X44061468Y-146122141D01*
X43882144Y-145903634D01*
X43851074Y-145878135D01*
X44551676Y-145177533D01*
X44640169Y-145343091D01*
X44819493Y-145561598D01*
X45038000Y-145740922D01*
X45287293Y-145874172D01*
X45557792Y-145956226D01*
X45768609Y-145976990D01*
X45909593Y-145976990D01*
X46120410Y-145956226D01*
X46390909Y-145874172D01*
X46640202Y-145740922D01*
X46858709Y-145561598D01*
X47038033Y-145343091D01*
X47171283Y-145093798D01*
X47253337Y-144823299D01*
X47281044Y-144541990D01*
X47253337Y-144260681D01*
X47239809Y-144216084D01*
X49011399Y-142444494D01*
X59695557Y-142444494D01*
X59477438Y-142662613D01*
X59134351Y-143176080D01*
X58898028Y-143746613D01*
X58777552Y-144352288D01*
X58777552Y-144969830D01*
X58898028Y-145575505D01*
X59090256Y-146039584D01*
X55956663Y-142905992D01*
X55932860Y-142876988D01*
X55817135Y-142782015D01*
X55685106Y-142711443D01*
X55541845Y-142667986D01*
X55430192Y-142656989D01*
X55430181Y-142656989D01*
X55392859Y-142653313D01*
X55355537Y-142656989D01*
X51227874Y-142656989D01*
X51190549Y-142653313D01*
X51153224Y-142656989D01*
X51153216Y-142656989D01*
X51041563Y-142667986D01*
X50898302Y-142711443D01*
X50766273Y-142782015D01*
X50650548Y-142876988D01*
X50626750Y-142905986D01*
X48304664Y-145228073D01*
X48275666Y-145251871D01*
X48251868Y-145280869D01*
X48251867Y-145280870D01*
X48180692Y-145367596D01*
X48110120Y-145499626D01*
X48066664Y-145642887D01*
X48061094Y-145699440D01*
X48014565Y-145724310D01*
X47796058Y-145903634D01*
X47616734Y-146122141D01*
X47483484Y-146371434D01*
X47401430Y-146641933D01*
X47373723Y-146923242D01*
X47401430Y-147204551D01*
X47483484Y-147475050D01*
X47616734Y-147724343D01*
X47796058Y-147942850D01*
X48014565Y-148122174D01*
X48263858Y-148255424D01*
X48534357Y-148337478D01*
X48745174Y-148358242D01*
X48886158Y-148358242D01*
X49096975Y-148337478D01*
X49367474Y-148255424D01*
X49616767Y-148122174D01*
X49835274Y-147942850D01*
X50014598Y-147724343D01*
X50147848Y-147475050D01*
X50229902Y-147204551D01*
X50257609Y-146923242D01*
X50229902Y-146641933D01*
X50147848Y-146371434D01*
X50014598Y-146122141D01*
X49835274Y-145903634D01*
X49804204Y-145878135D01*
X50504806Y-145177533D01*
X50593299Y-145343091D01*
X50772623Y-145561598D01*
X50991130Y-145740922D01*
X51240423Y-145874172D01*
X51510922Y-145956226D01*
X51721739Y-145976990D01*
X51862723Y-145976990D01*
X52073540Y-145956226D01*
X52344039Y-145874172D01*
X52593332Y-145740922D01*
X52811839Y-145561598D01*
X52991163Y-145343091D01*
X53013132Y-145301990D01*
X55566649Y-145301990D01*
X58332907Y-148068250D01*
X56988606Y-148068250D01*
X56169504Y-147249148D01*
X56183032Y-147204551D01*
X56210739Y-146923242D01*
X56183032Y-146641933D01*
X56100978Y-146371434D01*
X55967728Y-146122141D01*
X55788404Y-145903634D01*
X55569897Y-145724310D01*
X55320604Y-145591060D01*
X55050105Y-145509006D01*
X54839288Y-145488242D01*
X54698304Y-145488242D01*
X54487487Y-145509006D01*
X54216988Y-145591060D01*
X53967695Y-145724310D01*
X53749188Y-145903634D01*
X53569864Y-146122141D01*
X53436614Y-146371434D01*
X53354560Y-146641933D01*
X53326853Y-146923242D01*
X53354560Y-147204551D01*
X53436614Y-147475050D01*
X53569864Y-147724343D01*
X53749188Y-147942850D01*
X53967695Y-148122174D01*
X54216988Y-148255424D01*
X54487487Y-148337478D01*
X54698304Y-148358242D01*
X54839288Y-148358242D01*
X55050105Y-148337478D01*
X55094702Y-148323950D01*
X55742002Y-148971250D01*
X12315971Y-148971250D01*
X11957299Y-148936082D01*
X11645682Y-148841999D01*
X11358278Y-148689184D01*
X11106028Y-148483453D01*
X10898544Y-148232647D01*
X10743725Y-147946316D01*
X10647470Y-147635367D01*
X10610000Y-147278859D01*
X10610000Y-144352288D01*
X11152512Y-144352288D01*
X11152512Y-144969830D01*
X11272988Y-145575505D01*
X11509311Y-146146038D01*
X11852398Y-146659505D01*
X12289066Y-147096173D01*
X12802533Y-147439260D01*
X13373066Y-147675583D01*
X13978741Y-147796059D01*
X14596283Y-147796059D01*
X15201958Y-147675583D01*
X15772491Y-147439260D01*
X16285958Y-147096173D01*
X16458889Y-146923242D01*
X19989325Y-146923242D01*
X20017032Y-147204551D01*
X20099086Y-147475050D01*
X20232336Y-147724343D01*
X20411660Y-147942850D01*
X20630167Y-148122174D01*
X20879460Y-148255424D01*
X21149959Y-148337478D01*
X21360776Y-148358242D01*
X21501760Y-148358242D01*
X21712577Y-148337478D01*
X21983076Y-148255424D01*
X22232369Y-148122174D01*
X22450876Y-147942850D01*
X22630200Y-147724343D01*
X22763450Y-147475050D01*
X22845504Y-147204551D01*
X22873211Y-146923242D01*
X25942455Y-146923242D01*
X25970162Y-147204551D01*
X26052216Y-147475050D01*
X26185466Y-147724343D01*
X26364790Y-147942850D01*
X26583297Y-148122174D01*
X26832590Y-148255424D01*
X27103089Y-148337478D01*
X27313906Y-148358242D01*
X27454890Y-148358242D01*
X27665707Y-148337478D01*
X27936206Y-148255424D01*
X28185499Y-148122174D01*
X28404006Y-147942850D01*
X28583330Y-147724343D01*
X28716580Y-147475050D01*
X28798634Y-147204551D01*
X28826341Y-146923242D01*
X31895585Y-146923242D01*
X31923292Y-147204551D01*
X32005346Y-147475050D01*
X32138596Y-147724343D01*
X32317920Y-147942850D01*
X32536427Y-148122174D01*
X32785720Y-148255424D01*
X33056219Y-148337478D01*
X33267036Y-148358242D01*
X33408020Y-148358242D01*
X33618837Y-148337478D01*
X33889336Y-148255424D01*
X34138629Y-148122174D01*
X34357136Y-147942850D01*
X34536460Y-147724343D01*
X34669710Y-147475050D01*
X34751764Y-147204551D01*
X34779471Y-146923242D01*
X34751764Y-146641933D01*
X34669710Y-146371434D01*
X34536460Y-146122141D01*
X34357136Y-145903634D01*
X34138629Y-145724310D01*
X33889336Y-145591060D01*
X33618837Y-145509006D01*
X33408020Y-145488242D01*
X33267036Y-145488242D01*
X33056219Y-145509006D01*
X32785720Y-145591060D01*
X32536427Y-145724310D01*
X32317920Y-145903634D01*
X32138596Y-146122141D01*
X32005346Y-146371434D01*
X31923292Y-146641933D01*
X31895585Y-146923242D01*
X28826341Y-146923242D01*
X28798634Y-146641933D01*
X28716580Y-146371434D01*
X28583330Y-146122141D01*
X28404006Y-145903634D01*
X28185499Y-145724310D01*
X27936206Y-145591060D01*
X27665707Y-145509006D01*
X27454890Y-145488242D01*
X27313906Y-145488242D01*
X27103089Y-145509006D01*
X26832590Y-145591060D01*
X26583297Y-145724310D01*
X26364790Y-145903634D01*
X26185466Y-146122141D01*
X26052216Y-146371434D01*
X25970162Y-146641933D01*
X25942455Y-146923242D01*
X22873211Y-146923242D01*
X22845504Y-146641933D01*
X22763450Y-146371434D01*
X22630200Y-146122141D01*
X22450876Y-145903634D01*
X22232369Y-145724310D01*
X21983076Y-145591060D01*
X21712577Y-145509006D01*
X21501760Y-145488242D01*
X21360776Y-145488242D01*
X21149959Y-145509006D01*
X20879460Y-145591060D01*
X20630167Y-145724310D01*
X20411660Y-145903634D01*
X20232336Y-146122141D01*
X20099086Y-146371434D01*
X20017032Y-146641933D01*
X19989325Y-146923242D01*
X16458889Y-146923242D01*
X16722626Y-146659505D01*
X17065713Y-146146038D01*
X17302036Y-145575505D01*
X17422512Y-144969830D01*
X17422512Y-144541990D01*
X22965890Y-144541990D01*
X22993597Y-144823299D01*
X23075651Y-145093798D01*
X23208901Y-145343091D01*
X23388225Y-145561598D01*
X23606732Y-145740922D01*
X23856025Y-145874172D01*
X24126524Y-145956226D01*
X24337341Y-145976990D01*
X24478325Y-145976990D01*
X24689142Y-145956226D01*
X24959641Y-145874172D01*
X25208934Y-145740922D01*
X25427441Y-145561598D01*
X25606765Y-145343091D01*
X25740015Y-145093798D01*
X25822069Y-144823299D01*
X25849776Y-144541990D01*
X28919020Y-144541990D01*
X28946727Y-144823299D01*
X29028781Y-145093798D01*
X29162031Y-145343091D01*
X29341355Y-145561598D01*
X29559862Y-145740922D01*
X29809155Y-145874172D01*
X30079654Y-145956226D01*
X30290471Y-145976990D01*
X30431455Y-145976990D01*
X30642272Y-145956226D01*
X30912771Y-145874172D01*
X31162064Y-145740922D01*
X31380571Y-145561598D01*
X31559895Y-145343091D01*
X31693145Y-145093798D01*
X31775199Y-144823299D01*
X31802906Y-144541990D01*
X34872150Y-144541990D01*
X34899857Y-144823299D01*
X34981911Y-145093798D01*
X35115161Y-145343091D01*
X35294485Y-145561598D01*
X35512992Y-145740922D01*
X35762285Y-145874172D01*
X36032784Y-145956226D01*
X36243601Y-145976990D01*
X36384585Y-145976990D01*
X36595402Y-145956226D01*
X36865901Y-145874172D01*
X37115194Y-145740922D01*
X37333701Y-145561598D01*
X37513025Y-145343091D01*
X37646275Y-145093798D01*
X37728329Y-144823299D01*
X37756036Y-144541990D01*
X37728329Y-144260681D01*
X37646275Y-143990182D01*
X37513025Y-143740889D01*
X37333701Y-143522382D01*
X37115194Y-143343058D01*
X36865901Y-143209808D01*
X36595402Y-143127754D01*
X36384585Y-143106990D01*
X36243601Y-143106990D01*
X36032784Y-143127754D01*
X35762285Y-143209808D01*
X35512992Y-143343058D01*
X35294485Y-143522382D01*
X35115161Y-143740889D01*
X34981911Y-143990182D01*
X34899857Y-144260681D01*
X34872150Y-144541990D01*
X31802906Y-144541990D01*
X31775199Y-144260681D01*
X31693145Y-143990182D01*
X31559895Y-143740889D01*
X31380571Y-143522382D01*
X31162064Y-143343058D01*
X30912771Y-143209808D01*
X30642272Y-143127754D01*
X30431455Y-143106990D01*
X30290471Y-143106990D01*
X30079654Y-143127754D01*
X29809155Y-143209808D01*
X29559862Y-143343058D01*
X29341355Y-143522382D01*
X29162031Y-143740889D01*
X29028781Y-143990182D01*
X28946727Y-144260681D01*
X28919020Y-144541990D01*
X25849776Y-144541990D01*
X25822069Y-144260681D01*
X25740015Y-143990182D01*
X25606765Y-143740889D01*
X25427441Y-143522382D01*
X25208934Y-143343058D01*
X24959641Y-143209808D01*
X24689142Y-143127754D01*
X24478325Y-143106990D01*
X24337341Y-143106990D01*
X24126524Y-143127754D01*
X23856025Y-143209808D01*
X23606732Y-143343058D01*
X23388225Y-143522382D01*
X23208901Y-143740889D01*
X23075651Y-143990182D01*
X22993597Y-144260681D01*
X22965890Y-144541990D01*
X17422512Y-144541990D01*
X17422512Y-144352288D01*
X17302036Y-143746613D01*
X17065713Y-143176080D01*
X16722626Y-142662613D01*
X16285958Y-142225945D01*
X15772491Y-141882858D01*
X15201958Y-141646535D01*
X14596283Y-141526059D01*
X13978741Y-141526059D01*
X13373066Y-141646535D01*
X12802533Y-141882858D01*
X12289066Y-142225945D01*
X11852398Y-142662613D01*
X11509311Y-143176080D01*
X11272988Y-143746613D01*
X11152512Y-144352288D01*
X10610000Y-144352288D01*
X10610000Y-121721669D01*
X11737897Y-121721669D01*
X11741573Y-121758991D01*
X11741574Y-131267146D01*
X11737897Y-131304478D01*
X11741574Y-131341811D01*
X11752571Y-131453464D01*
X11754989Y-131461435D01*
X11796027Y-131596724D01*
X11866599Y-131728754D01*
X11937774Y-131815480D01*
X11961573Y-131844479D01*
X11990571Y-131868277D01*
X12792782Y-132670489D01*
X12816580Y-132699487D01*
X12845578Y-132723285D01*
X12932304Y-132794460D01*
X12968509Y-132813812D01*
X12968509Y-132959486D01*
X12980769Y-133083968D01*
X13017079Y-133203666D01*
X13076044Y-133313980D01*
X13155396Y-133410671D01*
X13252087Y-133490023D01*
X13362401Y-133548988D01*
X13482099Y-133585298D01*
X13606581Y-133597558D01*
X15206581Y-133597558D01*
X15331063Y-133585298D01*
X15450761Y-133548988D01*
X15561075Y-133490023D01*
X15657766Y-133410671D01*
X15737118Y-133313980D01*
X15796083Y-133203666D01*
X15832393Y-133083968D01*
X15844653Y-132959486D01*
X15844653Y-132508525D01*
X20634677Y-132508525D01*
X20675335Y-132642573D01*
X20795544Y-132896906D01*
X20963062Y-133122900D01*
X21171450Y-133311871D01*
X21412700Y-133456556D01*
X21677541Y-133551395D01*
X21899581Y-133430110D01*
X21899581Y-132286486D01*
X22153581Y-132286486D01*
X22153581Y-133430110D01*
X22375621Y-133551395D01*
X22640462Y-133456556D01*
X22881712Y-133311871D01*
X23090100Y-133122900D01*
X23257618Y-132896906D01*
X23377827Y-132642573D01*
X23418485Y-132508525D01*
X23296496Y-132286486D01*
X22153581Y-132286486D01*
X21899581Y-132286486D01*
X20756666Y-132286486D01*
X20634677Y-132508525D01*
X15844653Y-132508525D01*
X15844653Y-131810447D01*
X20634677Y-131810447D01*
X20756666Y-132032486D01*
X21899581Y-132032486D01*
X21899581Y-130888862D01*
X22153581Y-130888862D01*
X22153581Y-132032486D01*
X23296496Y-132032486D01*
X23418485Y-131810447D01*
X23377827Y-131676399D01*
X23257618Y-131422066D01*
X23090100Y-131196072D01*
X22881712Y-131007101D01*
X22640462Y-130862416D01*
X22375621Y-130767577D01*
X22153581Y-130888862D01*
X21899581Y-130888862D01*
X21677541Y-130767577D01*
X21412700Y-130862416D01*
X21171450Y-131007101D01*
X20963062Y-131196072D01*
X20795544Y-131422066D01*
X20675335Y-131676399D01*
X20634677Y-131810447D01*
X15844653Y-131810447D01*
X15844653Y-131359486D01*
X15832393Y-131235004D01*
X15796083Y-131115306D01*
X15737118Y-131004992D01*
X15657766Y-130908301D01*
X15561075Y-130828949D01*
X15450761Y-130769984D01*
X15331063Y-130733674D01*
X15206581Y-130721414D01*
X13606581Y-130721414D01*
X13482099Y-130733674D01*
X13362401Y-130769984D01*
X13261573Y-130823879D01*
X13261573Y-130518528D01*
X13362401Y-130572423D01*
X13482099Y-130608733D01*
X13606581Y-130620993D01*
X15206581Y-130620993D01*
X15331063Y-130608733D01*
X15450761Y-130572423D01*
X15561075Y-130513458D01*
X15657766Y-130434106D01*
X15737118Y-130337415D01*
X15796083Y-130227101D01*
X15832393Y-130107403D01*
X15844653Y-129982921D01*
X15844653Y-129531960D01*
X20634677Y-129531960D01*
X20675335Y-129666008D01*
X20795544Y-129920341D01*
X20963062Y-130146335D01*
X21171450Y-130335306D01*
X21412700Y-130479991D01*
X21677541Y-130574830D01*
X21899581Y-130453545D01*
X21899581Y-129309921D01*
X22153581Y-129309921D01*
X22153581Y-130453545D01*
X22375621Y-130574830D01*
X22640462Y-130479991D01*
X22881712Y-130335306D01*
X23090100Y-130146335D01*
X23257618Y-129920341D01*
X23377827Y-129666008D01*
X23418485Y-129531960D01*
X23296496Y-129309921D01*
X22153581Y-129309921D01*
X21899581Y-129309921D01*
X20756666Y-129309921D01*
X20634677Y-129531960D01*
X15844653Y-129531960D01*
X15844653Y-128833882D01*
X20634677Y-128833882D01*
X20756666Y-129055921D01*
X21899581Y-129055921D01*
X21899581Y-127912297D01*
X22153581Y-127912297D01*
X22153581Y-129055921D01*
X23296496Y-129055921D01*
X23418485Y-128833882D01*
X23377827Y-128699834D01*
X23257618Y-128445501D01*
X23090100Y-128219507D01*
X22881712Y-128030536D01*
X22640462Y-127885851D01*
X22375621Y-127791012D01*
X22153581Y-127912297D01*
X21899581Y-127912297D01*
X21677541Y-127791012D01*
X21412700Y-127885851D01*
X21171450Y-128030536D01*
X20963062Y-128219507D01*
X20795544Y-128445501D01*
X20675335Y-128699834D01*
X20634677Y-128833882D01*
X15844653Y-128833882D01*
X15844653Y-128382921D01*
X15832393Y-128258439D01*
X15796083Y-128138741D01*
X15737118Y-128028427D01*
X15657766Y-127931736D01*
X15561075Y-127852384D01*
X15450761Y-127793419D01*
X15331063Y-127757109D01*
X15325329Y-127756544D01*
X15325329Y-125518192D01*
X15416342Y-125457379D01*
X15602291Y-125271430D01*
X15748390Y-125052776D01*
X15849025Y-124809822D01*
X15900329Y-124551903D01*
X15900329Y-124288931D01*
X15849025Y-124031012D01*
X15748390Y-123788058D01*
X15602291Y-123569404D01*
X15416342Y-123383455D01*
X15325329Y-123322642D01*
X15325329Y-123142463D01*
X15513884Y-122987720D01*
X15680711Y-122784440D01*
X15804676Y-122552519D01*
X15881012Y-122300871D01*
X15906788Y-122039165D01*
X15881012Y-121777459D01*
X15804676Y-121525811D01*
X15680711Y-121293890D01*
X15513884Y-121090610D01*
X15310604Y-120923783D01*
X15169833Y-120848539D01*
X15310604Y-120773295D01*
X15513884Y-120606468D01*
X15680711Y-120403188D01*
X15804676Y-120171267D01*
X15881012Y-119919619D01*
X15906788Y-119657913D01*
X15881012Y-119396207D01*
X15804676Y-119144559D01*
X15760868Y-119062600D01*
X16819384Y-119062600D01*
X16824391Y-119113438D01*
X16824390Y-122583650D01*
X16819384Y-122634478D01*
X16824390Y-122685306D01*
X16824390Y-122685315D01*
X16839366Y-122837372D01*
X16898549Y-123032470D01*
X16994656Y-123212275D01*
X17123994Y-123369874D01*
X17163487Y-123402285D01*
X18317226Y-124556025D01*
X18329646Y-124682123D01*
X18405982Y-124933771D01*
X18529947Y-125165692D01*
X18696774Y-125368972D01*
X18900054Y-125535799D01*
X19131975Y-125659764D01*
X19383623Y-125736100D01*
X19579750Y-125755417D01*
X19710908Y-125755417D01*
X19907035Y-125736100D01*
X20158683Y-125659764D01*
X20390604Y-125535799D01*
X20593884Y-125368972D01*
X20760711Y-125165692D01*
X20884676Y-124933771D01*
X20961012Y-124682123D01*
X20986788Y-124420417D01*
X20961012Y-124158711D01*
X20884676Y-123907063D01*
X20760711Y-123675142D01*
X20593884Y-123471862D01*
X20390604Y-123305035D01*
X20254021Y-123232029D01*
X20277688Y-123222226D01*
X20496342Y-123076127D01*
X20682291Y-122890178D01*
X20828390Y-122671524D01*
X20929025Y-122428570D01*
X20980329Y-122170651D01*
X20980329Y-121907679D01*
X20929025Y-121649760D01*
X20828390Y-121406806D01*
X20682291Y-121188152D01*
X20496342Y-121002203D01*
X20277688Y-120856104D01*
X20259425Y-120848539D01*
X20277688Y-120840974D01*
X20496342Y-120694875D01*
X20682291Y-120508926D01*
X20828390Y-120290272D01*
X20929025Y-120047318D01*
X20980329Y-119789399D01*
X20980329Y-119526427D01*
X20929025Y-119268508D01*
X20828390Y-119025554D01*
X20682291Y-118806900D01*
X20496342Y-118620951D01*
X20277688Y-118474852D01*
X20259425Y-118467287D01*
X20277688Y-118459722D01*
X20496342Y-118313623D01*
X20682291Y-118127674D01*
X20828390Y-117909020D01*
X20929025Y-117666066D01*
X20980329Y-117408147D01*
X20980329Y-117145175D01*
X20929025Y-116887256D01*
X20828390Y-116644302D01*
X20682291Y-116425648D01*
X20496342Y-116239699D01*
X20277688Y-116093600D01*
X20034734Y-115992965D01*
X19776815Y-115941661D01*
X19513843Y-115941661D01*
X19255924Y-115992965D01*
X19012970Y-116093600D01*
X18794316Y-116239699D01*
X18608367Y-116425648D01*
X18462268Y-116644302D01*
X18361633Y-116887256D01*
X18310329Y-117145175D01*
X18310329Y-117147950D01*
X17163482Y-118294798D01*
X17123995Y-118327204D01*
X17091588Y-118366692D01*
X17091587Y-118366693D01*
X16994656Y-118484803D01*
X16898550Y-118664607D01*
X16839367Y-118859705D01*
X16819384Y-119062600D01*
X15760868Y-119062600D01*
X15680711Y-118912638D01*
X15513884Y-118709358D01*
X15310604Y-118542531D01*
X15169833Y-118467287D01*
X15310604Y-118392043D01*
X15513884Y-118225216D01*
X15680711Y-118021936D01*
X15804676Y-117790015D01*
X15881012Y-117538367D01*
X15906788Y-117276661D01*
X15881012Y-117014955D01*
X15804676Y-116763307D01*
X15680711Y-116531386D01*
X15513884Y-116328106D01*
X15310604Y-116161279D01*
X15078683Y-116037314D01*
X14827035Y-115960978D01*
X14630908Y-115941661D01*
X14499750Y-115941661D01*
X14303623Y-115960978D01*
X14051975Y-116037314D01*
X13820054Y-116161279D01*
X13616774Y-116328106D01*
X13449947Y-116531386D01*
X13325982Y-116763307D01*
X13249646Y-117014955D01*
X13223870Y-117276661D01*
X13249646Y-117538367D01*
X13325982Y-117790015D01*
X13449947Y-118021936D01*
X13616774Y-118225216D01*
X13820054Y-118392043D01*
X13960825Y-118467287D01*
X13820054Y-118542531D01*
X13616774Y-118709358D01*
X13449947Y-118912638D01*
X13325982Y-119144559D01*
X13249646Y-119396207D01*
X13223870Y-119657913D01*
X13247779Y-119900662D01*
X11990576Y-121157865D01*
X11961572Y-121181668D01*
X11922382Y-121229422D01*
X11866599Y-121297393D01*
X11827165Y-121371169D01*
X11796027Y-121429423D01*
X11752570Y-121572684D01*
X11741573Y-121684337D01*
X11741573Y-121684347D01*
X11737897Y-121721669D01*
X10610000Y-121721669D01*
X10610000Y-114458531D01*
X16550888Y-114458531D01*
X17011453Y-114413169D01*
X17602403Y-114233907D01*
X18147026Y-113942800D01*
X18624391Y-113551036D01*
X19016155Y-113073671D01*
X19307262Y-112529048D01*
X19486524Y-111938098D01*
X19547054Y-111323531D01*
X19486524Y-110708964D01*
X19307262Y-110118014D01*
X19016155Y-109573391D01*
X18624391Y-109096026D01*
X18147026Y-108704262D01*
X17602403Y-108413155D01*
X17011453Y-108233893D01*
X16550888Y-108188531D01*
X10610000Y-108188531D01*
X10610000Y-105886538D01*
X13474415Y-105886538D01*
X13545998Y-106130507D01*
X13801508Y-106251407D01*
X14075696Y-106320136D01*
X14358024Y-106334053D01*
X14637642Y-106292623D01*
X14903804Y-106197439D01*
X15029026Y-106130507D01*
X15100609Y-105886538D01*
X14287512Y-105073441D01*
X13474415Y-105886538D01*
X10610000Y-105886538D01*
X10610000Y-104964348D01*
X12847295Y-104964348D01*
X12888725Y-105243966D01*
X12983909Y-105510128D01*
X13050841Y-105635350D01*
X13294810Y-105706933D01*
X14107907Y-104893836D01*
X14467117Y-104893836D01*
X15280214Y-105706933D01*
X15524183Y-105635350D01*
X15645083Y-105379840D01*
X15713812Y-105105652D01*
X15727729Y-104823324D01*
X15686299Y-104543706D01*
X15591115Y-104277544D01*
X15524183Y-104152322D01*
X15280214Y-104080739D01*
X14467117Y-104893836D01*
X14107907Y-104893836D01*
X13294810Y-104080739D01*
X13050841Y-104152322D01*
X12929941Y-104407832D01*
X12861212Y-104682020D01*
X12847295Y-104964348D01*
X10610000Y-104964348D01*
X10610000Y-102252501D01*
X12852512Y-102252501D01*
X12852512Y-102535171D01*
X12907659Y-102812410D01*
X13015832Y-103073563D01*
X13172875Y-103308595D01*
X13372753Y-103508473D01*
X13573381Y-103642528D01*
X13545998Y-103657165D01*
X13474415Y-103901134D01*
X14287512Y-104714231D01*
X15100609Y-103901134D01*
X15029026Y-103657165D01*
X15000171Y-103643512D01*
X15202271Y-103508473D01*
X15402149Y-103308595D01*
X15559192Y-103073563D01*
X15667365Y-102812410D01*
X15722512Y-102535171D01*
X15722512Y-102252501D01*
X15667365Y-101975262D01*
X15559192Y-101714109D01*
X15402149Y-101479077D01*
X15202271Y-101279199D01*
X14967239Y-101122156D01*
X14706086Y-101013983D01*
X14448746Y-100962794D01*
X14637642Y-100934806D01*
X14903804Y-100839622D01*
X15029026Y-100772690D01*
X15100609Y-100528721D01*
X14287512Y-99715624D01*
X13474415Y-100528721D01*
X13545998Y-100772690D01*
X13801508Y-100893590D01*
X14075696Y-100962319D01*
X14118147Y-100964412D01*
X13868938Y-101013983D01*
X13607785Y-101122156D01*
X13372753Y-101279199D01*
X13172875Y-101479077D01*
X13015832Y-101714109D01*
X12907659Y-101975262D01*
X12852512Y-102252501D01*
X10610000Y-102252501D01*
X10610000Y-99606531D01*
X12847295Y-99606531D01*
X12888725Y-99886149D01*
X12983909Y-100152311D01*
X13050841Y-100277533D01*
X13294810Y-100349116D01*
X14107907Y-99536019D01*
X14467117Y-99536019D01*
X15280214Y-100349116D01*
X15524183Y-100277533D01*
X15645083Y-100022023D01*
X15713812Y-99747835D01*
X15727729Y-99465507D01*
X15686299Y-99185889D01*
X15591115Y-98919727D01*
X15524183Y-98794505D01*
X15280214Y-98722922D01*
X14467117Y-99536019D01*
X14107907Y-99536019D01*
X13294810Y-98722922D01*
X13050841Y-98794505D01*
X12929941Y-99050015D01*
X12861212Y-99324203D01*
X12847295Y-99606531D01*
X10610000Y-99606531D01*
X10610000Y-96894684D01*
X12852512Y-96894684D01*
X12852512Y-97177354D01*
X12907659Y-97454593D01*
X13015832Y-97715746D01*
X13172875Y-97950778D01*
X13372753Y-98150656D01*
X13573381Y-98284711D01*
X13545998Y-98299348D01*
X13474415Y-98543317D01*
X14287512Y-99356414D01*
X15100609Y-98543317D01*
X15029026Y-98299348D01*
X15000171Y-98285695D01*
X15202271Y-98150656D01*
X15402149Y-97950778D01*
X15559192Y-97715746D01*
X15667365Y-97454593D01*
X15722512Y-97177354D01*
X15722512Y-96894684D01*
X15667365Y-96617445D01*
X15559192Y-96356292D01*
X15402149Y-96121260D01*
X15202271Y-95921382D01*
X14967239Y-95764339D01*
X14706086Y-95656166D01*
X14428847Y-95601019D01*
X14146177Y-95601019D01*
X13868938Y-95656166D01*
X13607785Y-95764339D01*
X13372753Y-95921382D01*
X13172875Y-96121260D01*
X13015832Y-96356292D01*
X12907659Y-96617445D01*
X12852512Y-96894684D01*
X10610000Y-96894684D01*
X10610000Y-65967153D01*
X13247825Y-65967153D01*
X13247825Y-66289219D01*
X13310657Y-66605098D01*
X13433907Y-66902649D01*
X13612838Y-67170438D01*
X13840573Y-67398173D01*
X14108362Y-67577104D01*
X14405913Y-67700354D01*
X14721792Y-67763186D01*
X15043858Y-67763186D01*
X15359737Y-67700354D01*
X15657288Y-67577104D01*
X15925077Y-67398173D01*
X16059651Y-67263599D01*
X18427017Y-67263599D01*
X18522781Y-67528000D01*
X18812396Y-67668890D01*
X19123933Y-67750570D01*
X19445420Y-67769904D01*
X19764500Y-67726147D01*
X20068913Y-67620981D01*
X20242869Y-67528000D01*
X20338633Y-67263599D01*
X19382825Y-66307791D01*
X18427017Y-67263599D01*
X16059651Y-67263599D01*
X16152812Y-67170438D01*
X16331743Y-66902649D01*
X16454993Y-66605098D01*
X16517825Y-66289219D01*
X16517825Y-66190781D01*
X17741107Y-66190781D01*
X17784864Y-66509861D01*
X17890030Y-66814274D01*
X17983011Y-66988230D01*
X18247412Y-67083994D01*
X19203220Y-66128186D01*
X19562430Y-66128186D01*
X20518238Y-67083994D01*
X20782639Y-66988230D01*
X20923529Y-66698615D01*
X21005209Y-66387078D01*
X21024543Y-66065591D01*
X20980786Y-65746511D01*
X20875620Y-65442098D01*
X20782639Y-65268142D01*
X20518238Y-65172378D01*
X19562430Y-66128186D01*
X19203220Y-66128186D01*
X18247412Y-65172378D01*
X17983011Y-65268142D01*
X17842121Y-65557757D01*
X17760441Y-65869294D01*
X17741107Y-66190781D01*
X16517825Y-66190781D01*
X16517825Y-65967153D01*
X16454993Y-65651274D01*
X16331743Y-65353723D01*
X16152812Y-65085934D01*
X16059651Y-64992773D01*
X18427017Y-64992773D01*
X19382825Y-65948581D01*
X20338633Y-64992773D01*
X20242869Y-64728372D01*
X19953254Y-64587482D01*
X19641717Y-64505802D01*
X19320230Y-64486468D01*
X19001150Y-64530225D01*
X18696737Y-64635391D01*
X18522781Y-64728372D01*
X18427017Y-64992773D01*
X16059651Y-64992773D01*
X15925077Y-64858199D01*
X15657288Y-64679268D01*
X15359737Y-64556018D01*
X15043858Y-64493186D01*
X14721792Y-64493186D01*
X14405913Y-64556018D01*
X14108362Y-64679268D01*
X13840573Y-64858199D01*
X13612838Y-65085934D01*
X13433907Y-65353723D01*
X13310657Y-65651274D01*
X13247825Y-65967153D01*
X10610000Y-65967153D01*
X10610000Y-59222529D01*
X11152512Y-59222529D01*
X11152512Y-59840071D01*
X11272988Y-60445746D01*
X11509311Y-61016279D01*
X11852398Y-61529746D01*
X12289066Y-61966414D01*
X12802533Y-62309501D01*
X13373066Y-62545824D01*
X13978741Y-62666300D01*
X14596283Y-62666300D01*
X15201958Y-62545824D01*
X15772491Y-62309501D01*
X16285958Y-61966414D01*
X16722626Y-61529746D01*
X16840604Y-61353178D01*
X22622739Y-61353178D01*
X22654307Y-61673694D01*
X22747798Y-61981893D01*
X22899619Y-62265930D01*
X23103936Y-62514892D01*
X23352898Y-62719209D01*
X23636935Y-62871030D01*
X23945134Y-62964521D01*
X24185328Y-62988178D01*
X24345972Y-62988178D01*
X24586166Y-62964521D01*
X24894365Y-62871030D01*
X25178402Y-62719209D01*
X25427364Y-62514892D01*
X25631681Y-62265930D01*
X25783502Y-61981893D01*
X25876993Y-61673694D01*
X25908561Y-61353178D01*
X25876993Y-61032662D01*
X25783502Y-60724463D01*
X25631681Y-60440426D01*
X25427364Y-60191464D01*
X25178402Y-59987147D01*
X24894365Y-59835326D01*
X24586166Y-59741835D01*
X24345972Y-59718178D01*
X24185328Y-59718178D01*
X23945134Y-59741835D01*
X23636935Y-59835326D01*
X23352898Y-59987147D01*
X23103936Y-60191464D01*
X22899619Y-60440426D01*
X22747798Y-60724463D01*
X22654307Y-61032662D01*
X22622739Y-61353178D01*
X16840604Y-61353178D01*
X17065713Y-61016279D01*
X17302036Y-60445746D01*
X17422512Y-59840071D01*
X17422512Y-59222529D01*
X17302036Y-58616854D01*
X17065713Y-58046321D01*
X16722626Y-57532854D01*
X16285958Y-57096186D01*
X15772491Y-56753099D01*
X15201958Y-56516776D01*
X14596283Y-56396300D01*
X13978741Y-56396300D01*
X13373066Y-56516776D01*
X12802533Y-56753099D01*
X12289066Y-57096186D01*
X11852398Y-57532854D01*
X11509311Y-58046321D01*
X11272988Y-58616854D01*
X11152512Y-59222529D01*
X10610000Y-59222529D01*
X10610000Y-57184721D01*
X10645168Y-56826049D01*
X10739252Y-56514431D01*
X10892065Y-56227030D01*
X11097793Y-55974782D01*
X11348603Y-55767294D01*
X11634935Y-55612475D01*
X11945879Y-55516221D01*
X12302391Y-55478750D01*
X23119428Y-55478750D01*
X23103936Y-55491464D01*
G36*
X33195972Y-110922819D02*
G01*
X33329222Y-111172112D01*
X33508546Y-111390619D01*
X33727053Y-111569943D01*
X33860012Y-111641011D01*
X33727053Y-111712079D01*
X33508546Y-111891403D01*
X33329222Y-112109910D01*
X33195972Y-112359203D01*
X33113918Y-112629702D01*
X33086211Y-112911011D01*
X33113918Y-113192320D01*
X33195972Y-113462819D01*
X33329222Y-113712112D01*
X33508546Y-113930619D01*
X33727053Y-114109943D01*
X33860012Y-114181011D01*
X33727053Y-114252079D01*
X33508546Y-114431403D01*
X33329222Y-114649910D01*
X33195972Y-114899203D01*
X33113918Y-115169702D01*
X33086211Y-115451011D01*
X33113918Y-115732320D01*
X33195972Y-116002819D01*
X33329222Y-116252112D01*
X33508546Y-116470619D01*
X33727053Y-116649943D01*
X33860012Y-116721011D01*
X33727053Y-116792079D01*
X33508546Y-116971403D01*
X33329222Y-117189910D01*
X33195972Y-117439203D01*
X33113918Y-117709702D01*
X33086211Y-117991011D01*
X33113918Y-118272320D01*
X33195972Y-118542819D01*
X33329222Y-118792112D01*
X33508546Y-119010619D01*
X33727053Y-119189943D01*
X33860012Y-119261011D01*
X33727053Y-119332079D01*
X33508546Y-119511403D01*
X33329222Y-119729910D01*
X33195972Y-119979203D01*
X33113918Y-120249702D01*
X33086211Y-120531011D01*
X33113918Y-120812320D01*
X33195972Y-121082819D01*
X33329222Y-121332112D01*
X33508546Y-121550619D01*
X33727053Y-121729943D01*
X33976346Y-121863193D01*
X34246845Y-121945247D01*
X34457662Y-121966011D01*
X34598646Y-121966011D01*
X34809463Y-121945247D01*
X35079962Y-121863193D01*
X35329255Y-121729943D01*
X35547762Y-121550619D01*
X35727086Y-121332112D01*
X35860336Y-121082819D01*
X35942390Y-120812320D01*
X35950998Y-120724926D01*
X38305927Y-123079856D01*
X38329725Y-123108854D01*
X38358723Y-123132652D01*
X38445449Y-123203827D01*
X38508177Y-123237356D01*
X38577479Y-123274399D01*
X38720740Y-123317856D01*
X38832393Y-123328853D01*
X38832403Y-123328853D01*
X38869725Y-123332529D01*
X38907048Y-123328853D01*
X40859050Y-123328853D01*
X40771371Y-123400809D01*
X40592047Y-123619316D01*
X40458797Y-123868609D01*
X40376743Y-124139108D01*
X40349036Y-124420417D01*
X40376743Y-124701726D01*
X40458797Y-124972225D01*
X40592047Y-125221518D01*
X40771371Y-125440025D01*
X40859050Y-125511981D01*
X40572053Y-125511981D01*
X40534728Y-125508305D01*
X40497403Y-125511981D01*
X40497395Y-125511981D01*
X40385742Y-125522978D01*
X40242481Y-125566435D01*
X40110452Y-125637007D01*
X39994727Y-125731980D01*
X39970929Y-125760978D01*
X39735633Y-125996274D01*
X39691036Y-125982746D01*
X39480219Y-125961982D01*
X39339235Y-125961982D01*
X39128418Y-125982746D01*
X38857919Y-126064800D01*
X38608626Y-126198050D01*
X38390119Y-126377374D01*
X38210795Y-126595881D01*
X38077545Y-126845174D01*
X37995491Y-127115673D01*
X37967784Y-127396982D01*
X37995491Y-127678291D01*
X38077545Y-127948790D01*
X38210795Y-128198083D01*
X38390119Y-128416590D01*
X38608626Y-128595914D01*
X38857919Y-128729164D01*
X39128418Y-128811218D01*
X39339235Y-128831982D01*
X39480219Y-128831982D01*
X39691036Y-128811218D01*
X39961535Y-128729164D01*
X40210828Y-128595914D01*
X40429335Y-128416590D01*
X40608659Y-128198083D01*
X40741909Y-127948790D01*
X40823963Y-127678291D01*
X40851670Y-127396982D01*
X40823963Y-127115673D01*
X40810435Y-127071076D01*
X40849530Y-127031981D01*
X45591655Y-127031981D01*
X45591655Y-128196982D01*
X45603915Y-128321464D01*
X45640225Y-128441162D01*
X45665553Y-128488546D01*
X42953305Y-128488546D01*
X42915980Y-128484870D01*
X42878655Y-128488546D01*
X42878647Y-128488546D01*
X42766994Y-128499543D01*
X42623733Y-128543000D01*
X42491704Y-128613572D01*
X42375979Y-128708545D01*
X42352181Y-128737543D01*
X42116885Y-128972839D01*
X42072288Y-128959311D01*
X41861471Y-128938547D01*
X41720487Y-128938547D01*
X41509670Y-128959311D01*
X41239171Y-129041365D01*
X40989878Y-129174615D01*
X40771371Y-129353939D01*
X40592047Y-129572446D01*
X40458797Y-129821739D01*
X40376743Y-130092238D01*
X40349036Y-130373547D01*
X40376743Y-130654856D01*
X40458797Y-130925355D01*
X40592047Y-131174648D01*
X40771371Y-131393155D01*
X40859050Y-131465111D01*
X40572053Y-131465111D01*
X40534728Y-131461435D01*
X40497403Y-131465111D01*
X40497395Y-131465111D01*
X40385742Y-131476108D01*
X40242481Y-131519565D01*
X40110452Y-131590137D01*
X39994727Y-131685110D01*
X39970929Y-131714108D01*
X39735633Y-131949404D01*
X39691036Y-131935876D01*
X39480219Y-131915112D01*
X39339235Y-131915112D01*
X39128418Y-131935876D01*
X38857919Y-132017930D01*
X38608626Y-132151180D01*
X38390119Y-132330504D01*
X38210795Y-132549011D01*
X38077545Y-132798304D01*
X37995491Y-133068803D01*
X37967784Y-133350112D01*
X37995491Y-133631421D01*
X38040785Y-133780738D01*
X28889826Y-133780738D01*
X28666291Y-133557204D01*
X28756102Y-133539339D01*
X29017255Y-133431166D01*
X29252287Y-133274123D01*
X29374222Y-133152188D01*
X32524431Y-133152188D01*
X32596014Y-133396157D01*
X32851524Y-133517057D01*
X33125712Y-133585786D01*
X33408040Y-133599703D01*
X33687658Y-133558273D01*
X33953820Y-133463089D01*
X34079042Y-133396157D01*
X34150625Y-133152188D01*
X33337528Y-132339091D01*
X32524431Y-133152188D01*
X29374222Y-133152188D01*
X29452165Y-133074245D01*
X29609208Y-132839213D01*
X29717381Y-132578060D01*
X29772528Y-132300821D01*
X29772528Y-132229998D01*
X31897311Y-132229998D01*
X31938741Y-132509616D01*
X32033925Y-132775778D01*
X32100857Y-132901000D01*
X32344826Y-132972583D01*
X33157923Y-132159486D01*
X33517133Y-132159486D01*
X34330230Y-132972583D01*
X34574199Y-132901000D01*
X34695099Y-132645490D01*
X34763828Y-132371302D01*
X34777745Y-132088974D01*
X34736315Y-131809356D01*
X34641131Y-131543194D01*
X34574199Y-131417972D01*
X34330230Y-131346389D01*
X33517133Y-132159486D01*
X33157923Y-132159486D01*
X32344826Y-131346389D01*
X32100857Y-131417972D01*
X31979957Y-131673482D01*
X31911228Y-131947670D01*
X31897311Y-132229998D01*
X29772528Y-132229998D01*
X29772528Y-132018151D01*
X29717381Y-131740912D01*
X29609208Y-131479759D01*
X29452165Y-131244727D01*
X29374222Y-131166784D01*
X32524431Y-131166784D01*
X33337528Y-131979881D01*
X34150625Y-131166784D01*
X34079042Y-130922815D01*
X33823532Y-130801915D01*
X33549344Y-130733186D01*
X33267016Y-130719269D01*
X32987398Y-130760699D01*
X32721236Y-130855883D01*
X32596014Y-130922815D01*
X32524431Y-131166784D01*
X29374222Y-131166784D01*
X29372528Y-131165090D01*
X29372528Y-130177317D01*
X29374222Y-130175623D01*
X32524431Y-130175623D01*
X32596014Y-130419592D01*
X32851524Y-130540492D01*
X33125712Y-130609221D01*
X33408040Y-130623138D01*
X33687658Y-130581708D01*
X33953820Y-130486524D01*
X34079042Y-130419592D01*
X34150625Y-130175623D01*
X33337528Y-129362526D01*
X32524431Y-130175623D01*
X29374222Y-130175623D01*
X29452165Y-130097680D01*
X29609208Y-129862648D01*
X29717381Y-129601495D01*
X29772528Y-129324256D01*
X29772528Y-129253433D01*
X31897311Y-129253433D01*
X31938741Y-129533051D01*
X32033925Y-129799213D01*
X32100857Y-129924435D01*
X32344826Y-129996018D01*
X33157923Y-129182921D01*
X33517133Y-129182921D01*
X34330230Y-129996018D01*
X34574199Y-129924435D01*
X34695099Y-129668925D01*
X34763828Y-129394737D01*
X34777745Y-129112409D01*
X34736315Y-128832791D01*
X34641131Y-128566629D01*
X34574199Y-128441407D01*
X34330230Y-128369824D01*
X33517133Y-129182921D01*
X33157923Y-129182921D01*
X32344826Y-128369824D01*
X32100857Y-128441407D01*
X31979957Y-128696917D01*
X31911228Y-128971105D01*
X31897311Y-129253433D01*
X29772528Y-129253433D01*
X29772528Y-129211631D01*
X30747497Y-128236663D01*
X30786985Y-128204256D01*
X30798504Y-128190219D01*
X32524431Y-128190219D01*
X33337528Y-129003316D01*
X34150625Y-128190219D01*
X34079042Y-127946250D01*
X33823532Y-127825350D01*
X33549344Y-127756621D01*
X33267016Y-127742704D01*
X32987398Y-127784134D01*
X32721236Y-127879318D01*
X32596014Y-127946250D01*
X32524431Y-128190219D01*
X30798504Y-128190219D01*
X30870471Y-128102528D01*
X30916323Y-128046658D01*
X31012429Y-127866854D01*
X31012430Y-127866853D01*
X31071613Y-127671755D01*
X31086589Y-127519698D01*
X31086589Y-127519689D01*
X31091595Y-127468861D01*
X31086589Y-127418033D01*
X31086589Y-112736286D01*
X33127100Y-110695776D01*
X33195972Y-110922819D01*
X33195972Y-110922819D01*
G37*
X33195972Y-110922819D02*
X33329222Y-111172112D01*
X33508546Y-111390619D01*
X33727053Y-111569943D01*
X33860012Y-111641011D01*
X33727053Y-111712079D01*
X33508546Y-111891403D01*
X33329222Y-112109910D01*
X33195972Y-112359203D01*
X33113918Y-112629702D01*
X33086211Y-112911011D01*
X33113918Y-113192320D01*
X33195972Y-113462819D01*
X33329222Y-113712112D01*
X33508546Y-113930619D01*
X33727053Y-114109943D01*
X33860012Y-114181011D01*
X33727053Y-114252079D01*
X33508546Y-114431403D01*
X33329222Y-114649910D01*
X33195972Y-114899203D01*
X33113918Y-115169702D01*
X33086211Y-115451011D01*
X33113918Y-115732320D01*
X33195972Y-116002819D01*
X33329222Y-116252112D01*
X33508546Y-116470619D01*
X33727053Y-116649943D01*
X33860012Y-116721011D01*
X33727053Y-116792079D01*
X33508546Y-116971403D01*
X33329222Y-117189910D01*
X33195972Y-117439203D01*
X33113918Y-117709702D01*
X33086211Y-117991011D01*
X33113918Y-118272320D01*
X33195972Y-118542819D01*
X33329222Y-118792112D01*
X33508546Y-119010619D01*
X33727053Y-119189943D01*
X33860012Y-119261011D01*
X33727053Y-119332079D01*
X33508546Y-119511403D01*
X33329222Y-119729910D01*
X33195972Y-119979203D01*
X33113918Y-120249702D01*
X33086211Y-120531011D01*
X33113918Y-120812320D01*
X33195972Y-121082819D01*
X33329222Y-121332112D01*
X33508546Y-121550619D01*
X33727053Y-121729943D01*
X33976346Y-121863193D01*
X34246845Y-121945247D01*
X34457662Y-121966011D01*
X34598646Y-121966011D01*
X34809463Y-121945247D01*
X35079962Y-121863193D01*
X35329255Y-121729943D01*
X35547762Y-121550619D01*
X35727086Y-121332112D01*
X35860336Y-121082819D01*
X35942390Y-120812320D01*
X35950998Y-120724926D01*
X38305927Y-123079856D01*
X38329725Y-123108854D01*
X38358723Y-123132652D01*
X38445449Y-123203827D01*
X38508177Y-123237356D01*
X38577479Y-123274399D01*
X38720740Y-123317856D01*
X38832393Y-123328853D01*
X38832403Y-123328853D01*
X38869725Y-123332529D01*
X38907048Y-123328853D01*
X40859050Y-123328853D01*
X40771371Y-123400809D01*
X40592047Y-123619316D01*
X40458797Y-123868609D01*
X40376743Y-124139108D01*
X40349036Y-124420417D01*
X40376743Y-124701726D01*
X40458797Y-124972225D01*
X40592047Y-125221518D01*
X40771371Y-125440025D01*
X40859050Y-125511981D01*
X40572053Y-125511981D01*
X40534728Y-125508305D01*
X40497403Y-125511981D01*
X40497395Y-125511981D01*
X40385742Y-125522978D01*
X40242481Y-125566435D01*
X40110452Y-125637007D01*
X39994727Y-125731980D01*
X39970929Y-125760978D01*
X39735633Y-125996274D01*
X39691036Y-125982746D01*
X39480219Y-125961982D01*
X39339235Y-125961982D01*
X39128418Y-125982746D01*
X38857919Y-126064800D01*
X38608626Y-126198050D01*
X38390119Y-126377374D01*
X38210795Y-126595881D01*
X38077545Y-126845174D01*
X37995491Y-127115673D01*
X37967784Y-127396982D01*
X37995491Y-127678291D01*
X38077545Y-127948790D01*
X38210795Y-128198083D01*
X38390119Y-128416590D01*
X38608626Y-128595914D01*
X38857919Y-128729164D01*
X39128418Y-128811218D01*
X39339235Y-128831982D01*
X39480219Y-128831982D01*
X39691036Y-128811218D01*
X39961535Y-128729164D01*
X40210828Y-128595914D01*
X40429335Y-128416590D01*
X40608659Y-128198083D01*
X40741909Y-127948790D01*
X40823963Y-127678291D01*
X40851670Y-127396982D01*
X40823963Y-127115673D01*
X40810435Y-127071076D01*
X40849530Y-127031981D01*
X45591655Y-127031981D01*
X45591655Y-128196982D01*
X45603915Y-128321464D01*
X45640225Y-128441162D01*
X45665553Y-128488546D01*
X42953305Y-128488546D01*
X42915980Y-128484870D01*
X42878655Y-128488546D01*
X42878647Y-128488546D01*
X42766994Y-128499543D01*
X42623733Y-128543000D01*
X42491704Y-128613572D01*
X42375979Y-128708545D01*
X42352181Y-128737543D01*
X42116885Y-128972839D01*
X42072288Y-128959311D01*
X41861471Y-128938547D01*
X41720487Y-128938547D01*
X41509670Y-128959311D01*
X41239171Y-129041365D01*
X40989878Y-129174615D01*
X40771371Y-129353939D01*
X40592047Y-129572446D01*
X40458797Y-129821739D01*
X40376743Y-130092238D01*
X40349036Y-130373547D01*
X40376743Y-130654856D01*
X40458797Y-130925355D01*
X40592047Y-131174648D01*
X40771371Y-131393155D01*
X40859050Y-131465111D01*
X40572053Y-131465111D01*
X40534728Y-131461435D01*
X40497403Y-131465111D01*
X40497395Y-131465111D01*
X40385742Y-131476108D01*
X40242481Y-131519565D01*
X40110452Y-131590137D01*
X39994727Y-131685110D01*
X39970929Y-131714108D01*
X39735633Y-131949404D01*
X39691036Y-131935876D01*
X39480219Y-131915112D01*
X39339235Y-131915112D01*
X39128418Y-131935876D01*
X38857919Y-132017930D01*
X38608626Y-132151180D01*
X38390119Y-132330504D01*
X38210795Y-132549011D01*
X38077545Y-132798304D01*
X37995491Y-133068803D01*
X37967784Y-133350112D01*
X37995491Y-133631421D01*
X38040785Y-133780738D01*
X28889826Y-133780738D01*
X28666291Y-133557204D01*
X28756102Y-133539339D01*
X29017255Y-133431166D01*
X29252287Y-133274123D01*
X29374222Y-133152188D01*
X32524431Y-133152188D01*
X32596014Y-133396157D01*
X32851524Y-133517057D01*
X33125712Y-133585786D01*
X33408040Y-133599703D01*
X33687658Y-133558273D01*
X33953820Y-133463089D01*
X34079042Y-133396157D01*
X34150625Y-133152188D01*
X33337528Y-132339091D01*
X32524431Y-133152188D01*
X29374222Y-133152188D01*
X29452165Y-133074245D01*
X29609208Y-132839213D01*
X29717381Y-132578060D01*
X29772528Y-132300821D01*
X29772528Y-132229998D01*
X31897311Y-132229998D01*
X31938741Y-132509616D01*
X32033925Y-132775778D01*
X32100857Y-132901000D01*
X32344826Y-132972583D01*
X33157923Y-132159486D01*
X33517133Y-132159486D01*
X34330230Y-132972583D01*
X34574199Y-132901000D01*
X34695099Y-132645490D01*
X34763828Y-132371302D01*
X34777745Y-132088974D01*
X34736315Y-131809356D01*
X34641131Y-131543194D01*
X34574199Y-131417972D01*
X34330230Y-131346389D01*
X33517133Y-132159486D01*
X33157923Y-132159486D01*
X32344826Y-131346389D01*
X32100857Y-131417972D01*
X31979957Y-131673482D01*
X31911228Y-131947670D01*
X31897311Y-132229998D01*
X29772528Y-132229998D01*
X29772528Y-132018151D01*
X29717381Y-131740912D01*
X29609208Y-131479759D01*
X29452165Y-131244727D01*
X29374222Y-131166784D01*
X32524431Y-131166784D01*
X33337528Y-131979881D01*
X34150625Y-131166784D01*
X34079042Y-130922815D01*
X33823532Y-130801915D01*
X33549344Y-130733186D01*
X33267016Y-130719269D01*
X32987398Y-130760699D01*
X32721236Y-130855883D01*
X32596014Y-130922815D01*
X32524431Y-131166784D01*
X29374222Y-131166784D01*
X29372528Y-131165090D01*
X29372528Y-130177317D01*
X29374222Y-130175623D01*
X32524431Y-130175623D01*
X32596014Y-130419592D01*
X32851524Y-130540492D01*
X33125712Y-130609221D01*
X33408040Y-130623138D01*
X33687658Y-130581708D01*
X33953820Y-130486524D01*
X34079042Y-130419592D01*
X34150625Y-130175623D01*
X33337528Y-129362526D01*
X32524431Y-130175623D01*
X29374222Y-130175623D01*
X29452165Y-130097680D01*
X29609208Y-129862648D01*
X29717381Y-129601495D01*
X29772528Y-129324256D01*
X29772528Y-129253433D01*
X31897311Y-129253433D01*
X31938741Y-129533051D01*
X32033925Y-129799213D01*
X32100857Y-129924435D01*
X32344826Y-129996018D01*
X33157923Y-129182921D01*
X33517133Y-129182921D01*
X34330230Y-129996018D01*
X34574199Y-129924435D01*
X34695099Y-129668925D01*
X34763828Y-129394737D01*
X34777745Y-129112409D01*
X34736315Y-128832791D01*
X34641131Y-128566629D01*
X34574199Y-128441407D01*
X34330230Y-128369824D01*
X33517133Y-129182921D01*
X33157923Y-129182921D01*
X32344826Y-128369824D01*
X32100857Y-128441407D01*
X31979957Y-128696917D01*
X31911228Y-128971105D01*
X31897311Y-129253433D01*
X29772528Y-129253433D01*
X29772528Y-129211631D01*
X30747497Y-128236663D01*
X30786985Y-128204256D01*
X30798504Y-128190219D01*
X32524431Y-128190219D01*
X33337528Y-129003316D01*
X34150625Y-128190219D01*
X34079042Y-127946250D01*
X33823532Y-127825350D01*
X33549344Y-127756621D01*
X33267016Y-127742704D01*
X32987398Y-127784134D01*
X32721236Y-127879318D01*
X32596014Y-127946250D01*
X32524431Y-128190219D01*
X30798504Y-128190219D01*
X30870471Y-128102528D01*
X30916323Y-128046658D01*
X31012429Y-127866854D01*
X31012430Y-127866853D01*
X31071613Y-127671755D01*
X31086589Y-127519698D01*
X31086589Y-127519689D01*
X31091595Y-127468861D01*
X31086589Y-127418033D01*
X31086589Y-112736286D01*
X33127100Y-110695776D01*
X33195972Y-110922819D01*
G36*
X31150105Y-82136805D02*
G01*
X31386902Y-82192568D01*
X31630027Y-82201063D01*
X31870138Y-82161963D01*
X31982215Y-82120061D01*
X31982215Y-93307750D01*
X31978539Y-93345072D01*
X31982215Y-93382394D01*
X31982215Y-93382404D01*
X31993212Y-93494057D01*
X32030758Y-93617831D01*
X32036669Y-93637318D01*
X32107241Y-93769348D01*
X32131436Y-93798829D01*
X32202214Y-93885073D01*
X32231218Y-93908876D01*
X33127446Y-94805105D01*
X33113918Y-94849702D01*
X33086211Y-95131011D01*
X33113918Y-95412320D01*
X33195972Y-95682819D01*
X33329222Y-95932112D01*
X33508546Y-96150619D01*
X33727053Y-96329943D01*
X33860012Y-96401011D01*
X33727053Y-96472079D01*
X33508546Y-96651403D01*
X33329222Y-96869910D01*
X33195972Y-97119203D01*
X33113918Y-97389702D01*
X33086211Y-97671011D01*
X33113918Y-97952320D01*
X33195972Y-98222819D01*
X33329222Y-98472112D01*
X33508546Y-98690619D01*
X33727053Y-98869943D01*
X33860012Y-98941011D01*
X33727053Y-99012079D01*
X33508546Y-99191403D01*
X33329222Y-99409910D01*
X33195972Y-99659203D01*
X33113918Y-99929702D01*
X33086211Y-100211011D01*
X33113918Y-100492320D01*
X33195972Y-100762819D01*
X33329222Y-101012112D01*
X33508546Y-101230619D01*
X33727053Y-101409943D01*
X33864836Y-101483590D01*
X33673023Y-101598626D01*
X33464635Y-101787597D01*
X33297117Y-102013591D01*
X33176908Y-102267924D01*
X33136250Y-102401972D01*
X33258239Y-102624011D01*
X34401154Y-102624011D01*
X34401154Y-102604011D01*
X34655154Y-102604011D01*
X34655154Y-102624011D01*
X35798069Y-102624011D01*
X35920058Y-102401972D01*
X35879400Y-102267924D01*
X35759191Y-102013591D01*
X35591673Y-101787597D01*
X35383285Y-101598626D01*
X35191472Y-101483590D01*
X35329255Y-101409943D01*
X35547762Y-101230619D01*
X35727086Y-101012112D01*
X35860336Y-100762819D01*
X35942390Y-100492320D01*
X35970097Y-100211011D01*
X35942390Y-99929702D01*
X35860336Y-99659203D01*
X35819048Y-99581958D01*
X40779085Y-99581958D01*
X40771371Y-99588289D01*
X40592047Y-99806796D01*
X40458797Y-100056089D01*
X40376743Y-100326588D01*
X40349036Y-100607897D01*
X40376743Y-100889206D01*
X40458797Y-101159705D01*
X40563603Y-101355784D01*
X39735633Y-102183754D01*
X39691036Y-102170226D01*
X39480219Y-102149462D01*
X39339235Y-102149462D01*
X39128418Y-102170226D01*
X38857919Y-102252280D01*
X38608626Y-102385530D01*
X38390119Y-102564854D01*
X38210795Y-102783361D01*
X38077545Y-103032654D01*
X37995491Y-103303153D01*
X37967784Y-103584462D01*
X37995491Y-103865771D01*
X38077545Y-104136270D01*
X38210795Y-104385563D01*
X38390119Y-104604070D01*
X38608626Y-104783394D01*
X38857919Y-104916644D01*
X39128418Y-104998698D01*
X39339235Y-105019462D01*
X39480219Y-105019462D01*
X39691036Y-104998698D01*
X39961535Y-104916644D01*
X40210828Y-104783394D01*
X40429335Y-104604070D01*
X40608659Y-104385563D01*
X40741909Y-104136270D01*
X40823963Y-103865771D01*
X40851670Y-103584462D01*
X40823963Y-103303153D01*
X40810435Y-103258556D01*
X41510468Y-102558523D01*
X45634692Y-102558523D01*
X45603915Y-102659980D01*
X45591655Y-102784462D01*
X45591655Y-104384462D01*
X45603915Y-104508944D01*
X45640225Y-104628642D01*
X45665553Y-104676026D01*
X42953305Y-104676026D01*
X42915980Y-104672350D01*
X42878655Y-104676026D01*
X42878647Y-104676026D01*
X42766994Y-104687023D01*
X42623733Y-104730480D01*
X42491704Y-104801052D01*
X42375979Y-104896025D01*
X42352181Y-104925023D01*
X42116885Y-105160319D01*
X42072288Y-105146791D01*
X41861471Y-105126027D01*
X41720487Y-105126027D01*
X41509670Y-105146791D01*
X41239171Y-105228845D01*
X40989878Y-105362095D01*
X40771371Y-105541419D01*
X40592047Y-105759926D01*
X40458797Y-106009219D01*
X40376743Y-106279718D01*
X40349036Y-106561027D01*
X40376743Y-106842336D01*
X40458797Y-107112835D01*
X40592047Y-107362128D01*
X40771371Y-107580635D01*
X40859050Y-107652591D01*
X40572053Y-107652591D01*
X40534728Y-107648915D01*
X40497403Y-107652591D01*
X40497395Y-107652591D01*
X40385742Y-107663588D01*
X40242481Y-107707045D01*
X40110452Y-107777617D01*
X39994727Y-107872590D01*
X39970929Y-107901588D01*
X39735633Y-108136884D01*
X39691036Y-108123356D01*
X39480219Y-108102592D01*
X39339235Y-108102592D01*
X39128418Y-108123356D01*
X38857919Y-108205410D01*
X38608626Y-108338660D01*
X38390119Y-108517984D01*
X38210795Y-108736491D01*
X38077545Y-108985784D01*
X37995491Y-109256283D01*
X37967784Y-109537592D01*
X37995491Y-109818901D01*
X38077545Y-110089400D01*
X38210795Y-110338693D01*
X38390119Y-110557200D01*
X38608626Y-110736524D01*
X38857919Y-110869774D01*
X39128418Y-110951828D01*
X39339235Y-110972592D01*
X39480219Y-110972592D01*
X39691036Y-110951828D01*
X39961535Y-110869774D01*
X40210828Y-110736524D01*
X40429335Y-110557200D01*
X40608659Y-110338693D01*
X40741909Y-110089400D01*
X40823963Y-109818901D01*
X40851670Y-109537592D01*
X40823963Y-109256283D01*
X40810435Y-109211686D01*
X40849530Y-109172591D01*
X45591655Y-109172591D01*
X45591655Y-109968218D01*
X43614240Y-109968218D01*
X43576917Y-109964542D01*
X43539594Y-109968218D01*
X43539585Y-109968218D01*
X43427932Y-109979215D01*
X43284671Y-110022672D01*
X43152641Y-110093244D01*
X43100289Y-110136209D01*
X43036917Y-110188217D01*
X43013119Y-110217215D01*
X42116885Y-111113449D01*
X42072288Y-111099921D01*
X41861471Y-111079157D01*
X41720487Y-111079157D01*
X41509670Y-111099921D01*
X41239171Y-111181975D01*
X40989878Y-111315225D01*
X40771371Y-111494549D01*
X40592047Y-111713056D01*
X40458797Y-111962349D01*
X40376743Y-112232848D01*
X40349036Y-112514157D01*
X40376743Y-112795466D01*
X40458797Y-113065965D01*
X40592047Y-113315258D01*
X40771371Y-113533765D01*
X40859050Y-113605721D01*
X40572053Y-113605721D01*
X40534728Y-113602045D01*
X40497403Y-113605721D01*
X40497395Y-113605721D01*
X40385742Y-113616718D01*
X40242481Y-113660175D01*
X40110452Y-113730747D01*
X39994727Y-113825720D01*
X39970929Y-113854718D01*
X39735633Y-114090014D01*
X39691036Y-114076486D01*
X39480219Y-114055722D01*
X39339235Y-114055722D01*
X39128418Y-114076486D01*
X38857919Y-114158540D01*
X38608626Y-114291790D01*
X38390119Y-114471114D01*
X38210795Y-114689621D01*
X38077545Y-114938914D01*
X37995491Y-115209413D01*
X37967784Y-115490722D01*
X37995491Y-115772031D01*
X38077545Y-116042530D01*
X38210795Y-116291823D01*
X38390119Y-116510330D01*
X38608626Y-116689654D01*
X38857919Y-116822904D01*
X39128418Y-116904958D01*
X39339235Y-116925722D01*
X39480219Y-116925722D01*
X39691036Y-116904958D01*
X39961535Y-116822904D01*
X40210828Y-116689654D01*
X40429335Y-116510330D01*
X40608659Y-116291823D01*
X40741909Y-116042530D01*
X40823963Y-115772031D01*
X40851670Y-115490722D01*
X40823963Y-115209413D01*
X40810435Y-115164816D01*
X40849530Y-115125721D01*
X45591655Y-115125721D01*
X45591655Y-116290722D01*
X45603915Y-116415204D01*
X45640225Y-116534902D01*
X45665553Y-116582286D01*
X42953305Y-116582286D01*
X42915980Y-116578610D01*
X42878655Y-116582286D01*
X42878647Y-116582286D01*
X42766994Y-116593283D01*
X42623733Y-116636740D01*
X42491704Y-116707312D01*
X42375979Y-116802285D01*
X42352181Y-116831283D01*
X42116885Y-117066579D01*
X42072288Y-117053051D01*
X41861471Y-117032287D01*
X41720487Y-117032287D01*
X41509670Y-117053051D01*
X41239171Y-117135105D01*
X40989878Y-117268355D01*
X40771371Y-117447679D01*
X40592047Y-117666186D01*
X40458797Y-117915479D01*
X40376743Y-118185978D01*
X40349036Y-118467287D01*
X40376743Y-118748596D01*
X40458797Y-119019095D01*
X40592047Y-119268388D01*
X40771371Y-119486895D01*
X40859050Y-119558851D01*
X40572053Y-119558851D01*
X40534728Y-119555175D01*
X40497403Y-119558851D01*
X40497395Y-119558851D01*
X40385742Y-119569848D01*
X40242481Y-119613305D01*
X40110452Y-119683877D01*
X39994727Y-119778850D01*
X39970929Y-119807848D01*
X39735633Y-120043144D01*
X39691036Y-120029616D01*
X39480219Y-120008852D01*
X39339235Y-120008852D01*
X39128418Y-120029616D01*
X38857919Y-120111670D01*
X38608626Y-120244920D01*
X38390119Y-120424244D01*
X38210795Y-120642751D01*
X38143788Y-120768113D01*
X35873872Y-118498197D01*
X35942390Y-118272320D01*
X35970097Y-117991011D01*
X35942390Y-117709702D01*
X35860336Y-117439203D01*
X35727086Y-117189910D01*
X35547762Y-116971403D01*
X35329255Y-116792079D01*
X35196296Y-116721011D01*
X35329255Y-116649943D01*
X35547762Y-116470619D01*
X35727086Y-116252112D01*
X35860336Y-116002819D01*
X35942390Y-115732320D01*
X35970097Y-115451011D01*
X35942390Y-115169702D01*
X35860336Y-114899203D01*
X35727086Y-114649910D01*
X35547762Y-114431403D01*
X35329255Y-114252079D01*
X35196296Y-114181011D01*
X35329255Y-114109943D01*
X35547762Y-113930619D01*
X35727086Y-113712112D01*
X35860336Y-113462819D01*
X35942390Y-113192320D01*
X35970097Y-112911011D01*
X35942390Y-112629702D01*
X35860336Y-112359203D01*
X35727086Y-112109910D01*
X35547762Y-111891403D01*
X35329255Y-111712079D01*
X35196296Y-111641011D01*
X35329255Y-111569943D01*
X35547762Y-111390619D01*
X35727086Y-111172112D01*
X35860336Y-110922819D01*
X35942390Y-110652320D01*
X35970097Y-110371011D01*
X35942390Y-110089702D01*
X35860336Y-109819203D01*
X35727086Y-109569910D01*
X35547762Y-109351403D01*
X35329255Y-109172079D01*
X35196296Y-109101011D01*
X35329255Y-109029943D01*
X35547762Y-108850619D01*
X35727086Y-108632112D01*
X35860336Y-108382819D01*
X35942390Y-108112320D01*
X35970097Y-107831011D01*
X35942390Y-107549702D01*
X35860336Y-107279203D01*
X35727086Y-107029910D01*
X35547762Y-106811403D01*
X35329255Y-106632079D01*
X35196296Y-106561011D01*
X35329255Y-106489943D01*
X35547762Y-106310619D01*
X35727086Y-106092112D01*
X35860336Y-105842819D01*
X35942390Y-105572320D01*
X35970097Y-105291011D01*
X35942390Y-105009702D01*
X35860336Y-104739203D01*
X35727086Y-104489910D01*
X35547762Y-104271403D01*
X35329255Y-104092079D01*
X35191472Y-104018432D01*
X35383285Y-103903396D01*
X35591673Y-103714425D01*
X35759191Y-103488431D01*
X35879400Y-103234098D01*
X35920058Y-103100050D01*
X35798069Y-102878011D01*
X34655154Y-102878011D01*
X34655154Y-102898011D01*
X34401154Y-102898011D01*
X34401154Y-102878011D01*
X33258239Y-102878011D01*
X33136250Y-103100050D01*
X33176908Y-103234098D01*
X33297117Y-103488431D01*
X33464635Y-103714425D01*
X33673023Y-103903396D01*
X33864836Y-104018432D01*
X33727053Y-104092079D01*
X33508546Y-104271403D01*
X33329222Y-104489910D01*
X33195972Y-104739203D01*
X33113918Y-105009702D01*
X33086211Y-105291011D01*
X33113918Y-105572320D01*
X33195972Y-105842819D01*
X33329222Y-106092112D01*
X33508546Y-106310619D01*
X33727053Y-106489943D01*
X33860012Y-106561011D01*
X33727053Y-106632079D01*
X33702124Y-106652538D01*
X29104693Y-102055108D01*
X29088049Y-102034827D01*
X30747497Y-100375379D01*
X30786985Y-100342972D01*
X30840215Y-100278111D01*
X30916323Y-100185374D01*
X30967693Y-100089267D01*
X31012430Y-100005569D01*
X31071613Y-99810471D01*
X31086589Y-99658414D01*
X31086589Y-99658405D01*
X31091595Y-99607577D01*
X31086589Y-99556749D01*
X31086589Y-82107857D01*
X31150105Y-82136805D01*
X31150105Y-82136805D01*
G37*
X31150105Y-82136805D02*
X31386902Y-82192568D01*
X31630027Y-82201063D01*
X31870138Y-82161963D01*
X31982215Y-82120061D01*
X31982215Y-93307750D01*
X31978539Y-93345072D01*
X31982215Y-93382394D01*
X31982215Y-93382404D01*
X31993212Y-93494057D01*
X32030758Y-93617831D01*
X32036669Y-93637318D01*
X32107241Y-93769348D01*
X32131436Y-93798829D01*
X32202214Y-93885073D01*
X32231218Y-93908876D01*
X33127446Y-94805105D01*
X33113918Y-94849702D01*
X33086211Y-95131011D01*
X33113918Y-95412320D01*
X33195972Y-95682819D01*
X33329222Y-95932112D01*
X33508546Y-96150619D01*
X33727053Y-96329943D01*
X33860012Y-96401011D01*
X33727053Y-96472079D01*
X33508546Y-96651403D01*
X33329222Y-96869910D01*
X33195972Y-97119203D01*
X33113918Y-97389702D01*
X33086211Y-97671011D01*
X33113918Y-97952320D01*
X33195972Y-98222819D01*
X33329222Y-98472112D01*
X33508546Y-98690619D01*
X33727053Y-98869943D01*
X33860012Y-98941011D01*
X33727053Y-99012079D01*
X33508546Y-99191403D01*
X33329222Y-99409910D01*
X33195972Y-99659203D01*
X33113918Y-99929702D01*
X33086211Y-100211011D01*
X33113918Y-100492320D01*
X33195972Y-100762819D01*
X33329222Y-101012112D01*
X33508546Y-101230619D01*
X33727053Y-101409943D01*
X33864836Y-101483590D01*
X33673023Y-101598626D01*
X33464635Y-101787597D01*
X33297117Y-102013591D01*
X33176908Y-102267924D01*
X33136250Y-102401972D01*
X33258239Y-102624011D01*
X34401154Y-102624011D01*
X34401154Y-102604011D01*
X34655154Y-102604011D01*
X34655154Y-102624011D01*
X35798069Y-102624011D01*
X35920058Y-102401972D01*
X35879400Y-102267924D01*
X35759191Y-102013591D01*
X35591673Y-101787597D01*
X35383285Y-101598626D01*
X35191472Y-101483590D01*
X35329255Y-101409943D01*
X35547762Y-101230619D01*
X35727086Y-101012112D01*
X35860336Y-100762819D01*
X35942390Y-100492320D01*
X35970097Y-100211011D01*
X35942390Y-99929702D01*
X35860336Y-99659203D01*
X35819048Y-99581958D01*
X40779085Y-99581958D01*
X40771371Y-99588289D01*
X40592047Y-99806796D01*
X40458797Y-100056089D01*
X40376743Y-100326588D01*
X40349036Y-100607897D01*
X40376743Y-100889206D01*
X40458797Y-101159705D01*
X40563603Y-101355784D01*
X39735633Y-102183754D01*
X39691036Y-102170226D01*
X39480219Y-102149462D01*
X39339235Y-102149462D01*
X39128418Y-102170226D01*
X38857919Y-102252280D01*
X38608626Y-102385530D01*
X38390119Y-102564854D01*
X38210795Y-102783361D01*
X38077545Y-103032654D01*
X37995491Y-103303153D01*
X37967784Y-103584462D01*
X37995491Y-103865771D01*
X38077545Y-104136270D01*
X38210795Y-104385563D01*
X38390119Y-104604070D01*
X38608626Y-104783394D01*
X38857919Y-104916644D01*
X39128418Y-104998698D01*
X39339235Y-105019462D01*
X39480219Y-105019462D01*
X39691036Y-104998698D01*
X39961535Y-104916644D01*
X40210828Y-104783394D01*
X40429335Y-104604070D01*
X40608659Y-104385563D01*
X40741909Y-104136270D01*
X40823963Y-103865771D01*
X40851670Y-103584462D01*
X40823963Y-103303153D01*
X40810435Y-103258556D01*
X41510468Y-102558523D01*
X45634692Y-102558523D01*
X45603915Y-102659980D01*
X45591655Y-102784462D01*
X45591655Y-104384462D01*
X45603915Y-104508944D01*
X45640225Y-104628642D01*
X45665553Y-104676026D01*
X42953305Y-104676026D01*
X42915980Y-104672350D01*
X42878655Y-104676026D01*
X42878647Y-104676026D01*
X42766994Y-104687023D01*
X42623733Y-104730480D01*
X42491704Y-104801052D01*
X42375979Y-104896025D01*
X42352181Y-104925023D01*
X42116885Y-105160319D01*
X42072288Y-105146791D01*
X41861471Y-105126027D01*
X41720487Y-105126027D01*
X41509670Y-105146791D01*
X41239171Y-105228845D01*
X40989878Y-105362095D01*
X40771371Y-105541419D01*
X40592047Y-105759926D01*
X40458797Y-106009219D01*
X40376743Y-106279718D01*
X40349036Y-106561027D01*
X40376743Y-106842336D01*
X40458797Y-107112835D01*
X40592047Y-107362128D01*
X40771371Y-107580635D01*
X40859050Y-107652591D01*
X40572053Y-107652591D01*
X40534728Y-107648915D01*
X40497403Y-107652591D01*
X40497395Y-107652591D01*
X40385742Y-107663588D01*
X40242481Y-107707045D01*
X40110452Y-107777617D01*
X39994727Y-107872590D01*
X39970929Y-107901588D01*
X39735633Y-108136884D01*
X39691036Y-108123356D01*
X39480219Y-108102592D01*
X39339235Y-108102592D01*
X39128418Y-108123356D01*
X38857919Y-108205410D01*
X38608626Y-108338660D01*
X38390119Y-108517984D01*
X38210795Y-108736491D01*
X38077545Y-108985784D01*
X37995491Y-109256283D01*
X37967784Y-109537592D01*
X37995491Y-109818901D01*
X38077545Y-110089400D01*
X38210795Y-110338693D01*
X38390119Y-110557200D01*
X38608626Y-110736524D01*
X38857919Y-110869774D01*
X39128418Y-110951828D01*
X39339235Y-110972592D01*
X39480219Y-110972592D01*
X39691036Y-110951828D01*
X39961535Y-110869774D01*
X40210828Y-110736524D01*
X40429335Y-110557200D01*
X40608659Y-110338693D01*
X40741909Y-110089400D01*
X40823963Y-109818901D01*
X40851670Y-109537592D01*
X40823963Y-109256283D01*
X40810435Y-109211686D01*
X40849530Y-109172591D01*
X45591655Y-109172591D01*
X45591655Y-109968218D01*
X43614240Y-109968218D01*
X43576917Y-109964542D01*
X43539594Y-109968218D01*
X43539585Y-109968218D01*
X43427932Y-109979215D01*
X43284671Y-110022672D01*
X43152641Y-110093244D01*
X43100289Y-110136209D01*
X43036917Y-110188217D01*
X43013119Y-110217215D01*
X42116885Y-111113449D01*
X42072288Y-111099921D01*
X41861471Y-111079157D01*
X41720487Y-111079157D01*
X41509670Y-111099921D01*
X41239171Y-111181975D01*
X40989878Y-111315225D01*
X40771371Y-111494549D01*
X40592047Y-111713056D01*
X40458797Y-111962349D01*
X40376743Y-112232848D01*
X40349036Y-112514157D01*
X40376743Y-112795466D01*
X40458797Y-113065965D01*
X40592047Y-113315258D01*
X40771371Y-113533765D01*
X40859050Y-113605721D01*
X40572053Y-113605721D01*
X40534728Y-113602045D01*
X40497403Y-113605721D01*
X40497395Y-113605721D01*
X40385742Y-113616718D01*
X40242481Y-113660175D01*
X40110452Y-113730747D01*
X39994727Y-113825720D01*
X39970929Y-113854718D01*
X39735633Y-114090014D01*
X39691036Y-114076486D01*
X39480219Y-114055722D01*
X39339235Y-114055722D01*
X39128418Y-114076486D01*
X38857919Y-114158540D01*
X38608626Y-114291790D01*
X38390119Y-114471114D01*
X38210795Y-114689621D01*
X38077545Y-114938914D01*
X37995491Y-115209413D01*
X37967784Y-115490722D01*
X37995491Y-115772031D01*
X38077545Y-116042530D01*
X38210795Y-116291823D01*
X38390119Y-116510330D01*
X38608626Y-116689654D01*
X38857919Y-116822904D01*
X39128418Y-116904958D01*
X39339235Y-116925722D01*
X39480219Y-116925722D01*
X39691036Y-116904958D01*
X39961535Y-116822904D01*
X40210828Y-116689654D01*
X40429335Y-116510330D01*
X40608659Y-116291823D01*
X40741909Y-116042530D01*
X40823963Y-115772031D01*
X40851670Y-115490722D01*
X40823963Y-115209413D01*
X40810435Y-115164816D01*
X40849530Y-115125721D01*
X45591655Y-115125721D01*
X45591655Y-116290722D01*
X45603915Y-116415204D01*
X45640225Y-116534902D01*
X45665553Y-116582286D01*
X42953305Y-116582286D01*
X42915980Y-116578610D01*
X42878655Y-116582286D01*
X42878647Y-116582286D01*
X42766994Y-116593283D01*
X42623733Y-116636740D01*
X42491704Y-116707312D01*
X42375979Y-116802285D01*
X42352181Y-116831283D01*
X42116885Y-117066579D01*
X42072288Y-117053051D01*
X41861471Y-117032287D01*
X41720487Y-117032287D01*
X41509670Y-117053051D01*
X41239171Y-117135105D01*
X40989878Y-117268355D01*
X40771371Y-117447679D01*
X40592047Y-117666186D01*
X40458797Y-117915479D01*
X40376743Y-118185978D01*
X40349036Y-118467287D01*
X40376743Y-118748596D01*
X40458797Y-119019095D01*
X40592047Y-119268388D01*
X40771371Y-119486895D01*
X40859050Y-119558851D01*
X40572053Y-119558851D01*
X40534728Y-119555175D01*
X40497403Y-119558851D01*
X40497395Y-119558851D01*
X40385742Y-119569848D01*
X40242481Y-119613305D01*
X40110452Y-119683877D01*
X39994727Y-119778850D01*
X39970929Y-119807848D01*
X39735633Y-120043144D01*
X39691036Y-120029616D01*
X39480219Y-120008852D01*
X39339235Y-120008852D01*
X39128418Y-120029616D01*
X38857919Y-120111670D01*
X38608626Y-120244920D01*
X38390119Y-120424244D01*
X38210795Y-120642751D01*
X38143788Y-120768113D01*
X35873872Y-118498197D01*
X35942390Y-118272320D01*
X35970097Y-117991011D01*
X35942390Y-117709702D01*
X35860336Y-117439203D01*
X35727086Y-117189910D01*
X35547762Y-116971403D01*
X35329255Y-116792079D01*
X35196296Y-116721011D01*
X35329255Y-116649943D01*
X35547762Y-116470619D01*
X35727086Y-116252112D01*
X35860336Y-116002819D01*
X35942390Y-115732320D01*
X35970097Y-115451011D01*
X35942390Y-115169702D01*
X35860336Y-114899203D01*
X35727086Y-114649910D01*
X35547762Y-114431403D01*
X35329255Y-114252079D01*
X35196296Y-114181011D01*
X35329255Y-114109943D01*
X35547762Y-113930619D01*
X35727086Y-113712112D01*
X35860336Y-113462819D01*
X35942390Y-113192320D01*
X35970097Y-112911011D01*
X35942390Y-112629702D01*
X35860336Y-112359203D01*
X35727086Y-112109910D01*
X35547762Y-111891403D01*
X35329255Y-111712079D01*
X35196296Y-111641011D01*
X35329255Y-111569943D01*
X35547762Y-111390619D01*
X35727086Y-111172112D01*
X35860336Y-110922819D01*
X35942390Y-110652320D01*
X35970097Y-110371011D01*
X35942390Y-110089702D01*
X35860336Y-109819203D01*
X35727086Y-109569910D01*
X35547762Y-109351403D01*
X35329255Y-109172079D01*
X35196296Y-109101011D01*
X35329255Y-109029943D01*
X35547762Y-108850619D01*
X35727086Y-108632112D01*
X35860336Y-108382819D01*
X35942390Y-108112320D01*
X35970097Y-107831011D01*
X35942390Y-107549702D01*
X35860336Y-107279203D01*
X35727086Y-107029910D01*
X35547762Y-106811403D01*
X35329255Y-106632079D01*
X35196296Y-106561011D01*
X35329255Y-106489943D01*
X35547762Y-106310619D01*
X35727086Y-106092112D01*
X35860336Y-105842819D01*
X35942390Y-105572320D01*
X35970097Y-105291011D01*
X35942390Y-105009702D01*
X35860336Y-104739203D01*
X35727086Y-104489910D01*
X35547762Y-104271403D01*
X35329255Y-104092079D01*
X35191472Y-104018432D01*
X35383285Y-103903396D01*
X35591673Y-103714425D01*
X35759191Y-103488431D01*
X35879400Y-103234098D01*
X35920058Y-103100050D01*
X35798069Y-102878011D01*
X34655154Y-102878011D01*
X34655154Y-102898011D01*
X34401154Y-102898011D01*
X34401154Y-102878011D01*
X33258239Y-102878011D01*
X33136250Y-103100050D01*
X33176908Y-103234098D01*
X33297117Y-103488431D01*
X33464635Y-103714425D01*
X33673023Y-103903396D01*
X33864836Y-104018432D01*
X33727053Y-104092079D01*
X33508546Y-104271403D01*
X33329222Y-104489910D01*
X33195972Y-104739203D01*
X33113918Y-105009702D01*
X33086211Y-105291011D01*
X33113918Y-105572320D01*
X33195972Y-105842819D01*
X33329222Y-106092112D01*
X33508546Y-106310619D01*
X33727053Y-106489943D01*
X33860012Y-106561011D01*
X33727053Y-106632079D01*
X33702124Y-106652538D01*
X29104693Y-102055108D01*
X29088049Y-102034827D01*
X30747497Y-100375379D01*
X30786985Y-100342972D01*
X30840215Y-100278111D01*
X30916323Y-100185374D01*
X30967693Y-100089267D01*
X31012430Y-100005569D01*
X31071613Y-99810471D01*
X31086589Y-99658414D01*
X31086589Y-99658405D01*
X31091595Y-99607577D01*
X31086589Y-99556749D01*
X31086589Y-82107857D01*
X31150105Y-82136805D01*
G36*
X25467012Y-100202880D02*
G01*
X25466211Y-100211011D01*
X25493918Y-100492320D01*
X25575972Y-100762819D01*
X25709222Y-101012112D01*
X25888546Y-101230619D01*
X26107053Y-101409943D01*
X26240012Y-101481011D01*
X26107053Y-101552079D01*
X25888546Y-101731403D01*
X25709222Y-101949910D01*
X25575972Y-102199203D01*
X25493918Y-102469702D01*
X25466211Y-102751011D01*
X25493918Y-103032320D01*
X25575972Y-103302819D01*
X25709222Y-103552112D01*
X25888546Y-103770619D01*
X26107053Y-103949943D01*
X26244836Y-104023590D01*
X26053023Y-104138626D01*
X25844635Y-104327597D01*
X25677117Y-104553591D01*
X25556908Y-104807924D01*
X25516250Y-104941972D01*
X25638239Y-105164011D01*
X26781154Y-105164011D01*
X26781154Y-105144011D01*
X27035154Y-105144011D01*
X27035154Y-105164011D01*
X28178069Y-105164011D01*
X28300058Y-104941972D01*
X28259400Y-104807924D01*
X28139191Y-104553591D01*
X27971673Y-104327597D01*
X27763285Y-104138626D01*
X27571472Y-104023590D01*
X27709255Y-103949943D01*
X27908550Y-103786386D01*
X32508809Y-108386645D01*
X29355686Y-111539769D01*
X29316193Y-111572180D01*
X29186855Y-111729779D01*
X29090748Y-111909584D01*
X29031565Y-112104682D01*
X29016589Y-112256739D01*
X29016589Y-112256748D01*
X29011583Y-112307576D01*
X29016589Y-112358404D01*
X29016589Y-116484644D01*
X28308862Y-115776917D01*
X28322390Y-115732320D01*
X28350097Y-115451011D01*
X28322390Y-115169702D01*
X28240336Y-114899203D01*
X28107086Y-114649910D01*
X27927762Y-114431403D01*
X27709255Y-114252079D01*
X27576296Y-114181011D01*
X27709255Y-114109943D01*
X27927762Y-113930619D01*
X28107086Y-113712112D01*
X28240336Y-113462819D01*
X28322390Y-113192320D01*
X28350097Y-112911011D01*
X28322390Y-112629702D01*
X28240336Y-112359203D01*
X28107086Y-112109910D01*
X27927762Y-111891403D01*
X27709255Y-111712079D01*
X27576296Y-111641011D01*
X27709255Y-111569943D01*
X27927762Y-111390619D01*
X28107086Y-111172112D01*
X28240336Y-110922819D01*
X28322390Y-110652320D01*
X28350097Y-110371011D01*
X28322390Y-110089702D01*
X28240336Y-109819203D01*
X28107086Y-109569910D01*
X27927762Y-109351403D01*
X27709255Y-109172079D01*
X27576296Y-109101011D01*
X27709255Y-109029943D01*
X27927762Y-108850619D01*
X28107086Y-108632112D01*
X28240336Y-108382819D01*
X28322390Y-108112320D01*
X28350097Y-107831011D01*
X28322390Y-107549702D01*
X28240336Y-107279203D01*
X28107086Y-107029910D01*
X27927762Y-106811403D01*
X27709255Y-106632079D01*
X27571472Y-106558432D01*
X27763285Y-106443396D01*
X27971673Y-106254425D01*
X28139191Y-106028431D01*
X28259400Y-105774098D01*
X28300058Y-105640050D01*
X28178069Y-105418011D01*
X27035154Y-105418011D01*
X27035154Y-105438011D01*
X26781154Y-105438011D01*
X26781154Y-105418011D01*
X25638239Y-105418011D01*
X25614026Y-105462082D01*
X19810016Y-99658072D01*
X19810016Y-99384554D01*
X19932902Y-99302444D01*
X20125815Y-99109531D01*
X20277387Y-98882688D01*
X20381791Y-98630634D01*
X20435016Y-98363056D01*
X20435016Y-98090234D01*
X20381791Y-97822656D01*
X20277387Y-97570602D01*
X20125815Y-97343759D01*
X19932902Y-97150846D01*
X19706059Y-96999274D01*
X19454005Y-96894870D01*
X19186427Y-96841645D01*
X18913605Y-96841645D01*
X18646027Y-96894870D01*
X18393973Y-96999274D01*
X18167130Y-97150846D01*
X17974217Y-97343759D01*
X17822645Y-97570602D01*
X17718241Y-97822656D01*
X17665016Y-98090234D01*
X17665016Y-98363056D01*
X17718241Y-98630634D01*
X17822645Y-98882688D01*
X17974217Y-99109531D01*
X18167130Y-99302444D01*
X18290017Y-99384554D01*
X18290017Y-99935541D01*
X18286340Y-99972873D01*
X18301014Y-100121858D01*
X18344470Y-100265119D01*
X18415042Y-100397149D01*
X18476726Y-100472310D01*
X18510016Y-100512874D01*
X18539014Y-100536672D01*
X25507446Y-107505105D01*
X25493918Y-107549702D01*
X25466211Y-107831011D01*
X25493918Y-108112320D01*
X25575972Y-108382819D01*
X25709222Y-108632112D01*
X25888546Y-108850619D01*
X26107053Y-109029943D01*
X26240012Y-109101011D01*
X26161271Y-109143099D01*
X20406183Y-103388010D01*
X20435016Y-103243056D01*
X20435016Y-102970234D01*
X20381791Y-102702656D01*
X20277387Y-102450602D01*
X20125815Y-102223759D01*
X19932902Y-102030846D01*
X19706059Y-101879274D01*
X19454005Y-101774870D01*
X19186427Y-101721645D01*
X18913605Y-101721645D01*
X18646027Y-101774870D01*
X18393973Y-101879274D01*
X18167130Y-102030846D01*
X17974217Y-102223759D01*
X17822645Y-102450602D01*
X17734748Y-102662804D01*
X17283462Y-102211518D01*
X17283462Y-92760848D01*
X17287138Y-92723525D01*
X17283462Y-92686202D01*
X17283462Y-92686193D01*
X17272465Y-92574540D01*
X17229008Y-92431279D01*
X17187100Y-92352876D01*
X17158436Y-92299249D01*
X17087261Y-92212523D01*
X17063463Y-92183525D01*
X17034465Y-92159727D01*
X16449002Y-91574264D01*
X16454993Y-91559801D01*
X16516204Y-91252071D01*
X25467012Y-100202880D01*
X25467012Y-100202880D01*
G37*
X25467012Y-100202880D02*
X25466211Y-100211011D01*
X25493918Y-100492320D01*
X25575972Y-100762819D01*
X25709222Y-101012112D01*
X25888546Y-101230619D01*
X26107053Y-101409943D01*
X26240012Y-101481011D01*
X26107053Y-101552079D01*
X25888546Y-101731403D01*
X25709222Y-101949910D01*
X25575972Y-102199203D01*
X25493918Y-102469702D01*
X25466211Y-102751011D01*
X25493918Y-103032320D01*
X25575972Y-103302819D01*
X25709222Y-103552112D01*
X25888546Y-103770619D01*
X26107053Y-103949943D01*
X26244836Y-104023590D01*
X26053023Y-104138626D01*
X25844635Y-104327597D01*
X25677117Y-104553591D01*
X25556908Y-104807924D01*
X25516250Y-104941972D01*
X25638239Y-105164011D01*
X26781154Y-105164011D01*
X26781154Y-105144011D01*
X27035154Y-105144011D01*
X27035154Y-105164011D01*
X28178069Y-105164011D01*
X28300058Y-104941972D01*
X28259400Y-104807924D01*
X28139191Y-104553591D01*
X27971673Y-104327597D01*
X27763285Y-104138626D01*
X27571472Y-104023590D01*
X27709255Y-103949943D01*
X27908550Y-103786386D01*
X32508809Y-108386645D01*
X29355686Y-111539769D01*
X29316193Y-111572180D01*
X29186855Y-111729779D01*
X29090748Y-111909584D01*
X29031565Y-112104682D01*
X29016589Y-112256739D01*
X29016589Y-112256748D01*
X29011583Y-112307576D01*
X29016589Y-112358404D01*
X29016589Y-116484644D01*
X28308862Y-115776917D01*
X28322390Y-115732320D01*
X28350097Y-115451011D01*
X28322390Y-115169702D01*
X28240336Y-114899203D01*
X28107086Y-114649910D01*
X27927762Y-114431403D01*
X27709255Y-114252079D01*
X27576296Y-114181011D01*
X27709255Y-114109943D01*
X27927762Y-113930619D01*
X28107086Y-113712112D01*
X28240336Y-113462819D01*
X28322390Y-113192320D01*
X28350097Y-112911011D01*
X28322390Y-112629702D01*
X28240336Y-112359203D01*
X28107086Y-112109910D01*
X27927762Y-111891403D01*
X27709255Y-111712079D01*
X27576296Y-111641011D01*
X27709255Y-111569943D01*
X27927762Y-111390619D01*
X28107086Y-111172112D01*
X28240336Y-110922819D01*
X28322390Y-110652320D01*
X28350097Y-110371011D01*
X28322390Y-110089702D01*
X28240336Y-109819203D01*
X28107086Y-109569910D01*
X27927762Y-109351403D01*
X27709255Y-109172079D01*
X27576296Y-109101011D01*
X27709255Y-109029943D01*
X27927762Y-108850619D01*
X28107086Y-108632112D01*
X28240336Y-108382819D01*
X28322390Y-108112320D01*
X28350097Y-107831011D01*
X28322390Y-107549702D01*
X28240336Y-107279203D01*
X28107086Y-107029910D01*
X27927762Y-106811403D01*
X27709255Y-106632079D01*
X27571472Y-106558432D01*
X27763285Y-106443396D01*
X27971673Y-106254425D01*
X28139191Y-106028431D01*
X28259400Y-105774098D01*
X28300058Y-105640050D01*
X28178069Y-105418011D01*
X27035154Y-105418011D01*
X27035154Y-105438011D01*
X26781154Y-105438011D01*
X26781154Y-105418011D01*
X25638239Y-105418011D01*
X25614026Y-105462082D01*
X19810016Y-99658072D01*
X19810016Y-99384554D01*
X19932902Y-99302444D01*
X20125815Y-99109531D01*
X20277387Y-98882688D01*
X20381791Y-98630634D01*
X20435016Y-98363056D01*
X20435016Y-98090234D01*
X20381791Y-97822656D01*
X20277387Y-97570602D01*
X20125815Y-97343759D01*
X19932902Y-97150846D01*
X19706059Y-96999274D01*
X19454005Y-96894870D01*
X19186427Y-96841645D01*
X18913605Y-96841645D01*
X18646027Y-96894870D01*
X18393973Y-96999274D01*
X18167130Y-97150846D01*
X17974217Y-97343759D01*
X17822645Y-97570602D01*
X17718241Y-97822656D01*
X17665016Y-98090234D01*
X17665016Y-98363056D01*
X17718241Y-98630634D01*
X17822645Y-98882688D01*
X17974217Y-99109531D01*
X18167130Y-99302444D01*
X18290017Y-99384554D01*
X18290017Y-99935541D01*
X18286340Y-99972873D01*
X18301014Y-100121858D01*
X18344470Y-100265119D01*
X18415042Y-100397149D01*
X18476726Y-100472310D01*
X18510016Y-100512874D01*
X18539014Y-100536672D01*
X25507446Y-107505105D01*
X25493918Y-107549702D01*
X25466211Y-107831011D01*
X25493918Y-108112320D01*
X25575972Y-108382819D01*
X25709222Y-108632112D01*
X25888546Y-108850619D01*
X26107053Y-109029943D01*
X26240012Y-109101011D01*
X26161271Y-109143099D01*
X20406183Y-103388010D01*
X20435016Y-103243056D01*
X20435016Y-102970234D01*
X20381791Y-102702656D01*
X20277387Y-102450602D01*
X20125815Y-102223759D01*
X19932902Y-102030846D01*
X19706059Y-101879274D01*
X19454005Y-101774870D01*
X19186427Y-101721645D01*
X18913605Y-101721645D01*
X18646027Y-101774870D01*
X18393973Y-101879274D01*
X18167130Y-102030846D01*
X17974217Y-102223759D01*
X17822645Y-102450602D01*
X17734748Y-102662804D01*
X17283462Y-102211518D01*
X17283462Y-92760848D01*
X17287138Y-92723525D01*
X17283462Y-92686202D01*
X17283462Y-92686193D01*
X17272465Y-92574540D01*
X17229008Y-92431279D01*
X17187100Y-92352876D01*
X17158436Y-92299249D01*
X17087261Y-92212523D01*
X17063463Y-92183525D01*
X17034465Y-92159727D01*
X16449002Y-91574264D01*
X16454993Y-91559801D01*
X16516204Y-91252071D01*
X25467012Y-100202880D01*
G36*
X27883786Y-81658476D02*
G01*
X27916193Y-81697964D01*
X27955681Y-81730371D01*
X28073791Y-81827302D01*
X28111587Y-81847504D01*
X28253596Y-81923409D01*
X28448694Y-81982592D01*
X28600751Y-81997568D01*
X28600760Y-81997568D01*
X28651588Y-82002574D01*
X28702416Y-81997568D01*
X28987121Y-81997568D01*
X29000404Y-82013753D01*
X29016589Y-82027036D01*
X29016590Y-99178864D01*
X28309208Y-99886246D01*
X28240336Y-99659203D01*
X28107086Y-99409910D01*
X27927762Y-99191403D01*
X27709255Y-99012079D01*
X27576296Y-98941011D01*
X27709255Y-98869943D01*
X27927762Y-98690619D01*
X28107086Y-98472112D01*
X28240336Y-98222819D01*
X28322390Y-97952320D01*
X28350097Y-97671011D01*
X28322390Y-97389702D01*
X28240336Y-97119203D01*
X28107086Y-96869910D01*
X27927762Y-96651403D01*
X27709255Y-96472079D01*
X27576296Y-96401011D01*
X27709255Y-96329943D01*
X27927762Y-96150619D01*
X28107086Y-95932112D01*
X28240336Y-95682819D01*
X28322390Y-95412320D01*
X28350097Y-95131011D01*
X28322390Y-94849702D01*
X28240336Y-94579203D01*
X28107086Y-94329910D01*
X27927762Y-94111403D01*
X27709255Y-93932079D01*
X27576296Y-93861011D01*
X27709255Y-93789943D01*
X27927762Y-93610619D01*
X28107086Y-93392112D01*
X28240336Y-93142819D01*
X28322390Y-92872320D01*
X28350097Y-92591011D01*
X28322390Y-92309702D01*
X28240336Y-92039203D01*
X28107086Y-91789910D01*
X27927762Y-91571403D01*
X27709255Y-91392079D01*
X27576296Y-91321011D01*
X27709255Y-91249943D01*
X27927762Y-91070619D01*
X28107086Y-90852112D01*
X28240336Y-90602819D01*
X28322390Y-90332320D01*
X28350097Y-90051011D01*
X28322390Y-89769702D01*
X28240336Y-89499203D01*
X28107086Y-89249910D01*
X27927762Y-89031403D01*
X27814672Y-88938592D01*
X27832636Y-88936823D01*
X27952334Y-88900513D01*
X28062648Y-88841548D01*
X28159339Y-88762196D01*
X28238691Y-88665505D01*
X28297656Y-88555191D01*
X28333966Y-88435493D01*
X28346226Y-88311011D01*
X28346226Y-86711011D01*
X28333966Y-86586529D01*
X28297656Y-86466831D01*
X28238691Y-86356517D01*
X28159339Y-86259826D01*
X28062648Y-86180474D01*
X27952334Y-86121509D01*
X27832636Y-86085199D01*
X27708154Y-86072939D01*
X26108154Y-86072939D01*
X25983672Y-86085199D01*
X25863974Y-86121509D01*
X25753660Y-86180474D01*
X25656969Y-86259826D01*
X25577617Y-86356517D01*
X25518652Y-86466831D01*
X25482342Y-86586529D01*
X25470082Y-86711011D01*
X25470082Y-88311011D01*
X25482342Y-88435493D01*
X25518652Y-88555191D01*
X25577617Y-88665505D01*
X25656969Y-88762196D01*
X25753660Y-88841548D01*
X25863974Y-88900513D01*
X25983672Y-88936823D01*
X26001636Y-88938592D01*
X25888546Y-89031403D01*
X25709222Y-89249910D01*
X25687253Y-89291011D01*
X23191694Y-89291011D01*
X20000129Y-86099447D01*
X20068913Y-86075684D01*
X20242869Y-85982703D01*
X20338633Y-85718302D01*
X19382825Y-84762494D01*
X19368683Y-84776637D01*
X19189078Y-84597032D01*
X19203220Y-84582889D01*
X19562430Y-84582889D01*
X20518238Y-85538697D01*
X20782639Y-85442933D01*
X20923529Y-85153318D01*
X21005209Y-84841781D01*
X21024543Y-84520294D01*
X20980786Y-84201214D01*
X20875620Y-83896801D01*
X20782639Y-83722845D01*
X20518238Y-83627081D01*
X19562430Y-84582889D01*
X19203220Y-84582889D01*
X18247412Y-83627081D01*
X17983011Y-83722845D01*
X17865364Y-83964682D01*
X17348158Y-83447476D01*
X18427017Y-83447476D01*
X19382825Y-84403284D01*
X20338633Y-83447476D01*
X20242869Y-83183075D01*
X19953254Y-83042185D01*
X19641717Y-82960505D01*
X19320230Y-82941171D01*
X19001150Y-82984928D01*
X18696737Y-83090094D01*
X18522781Y-83183075D01*
X18427017Y-83447476D01*
X17348158Y-83447476D01*
X15009827Y-81109145D01*
X15009827Y-81098194D01*
X15168575Y-81256942D01*
X15732825Y-81260014D01*
X15857307Y-81247754D01*
X15977005Y-81211444D01*
X16087319Y-81152479D01*
X16184010Y-81073127D01*
X16263362Y-80976436D01*
X16322327Y-80866122D01*
X16343218Y-80797255D01*
X16367691Y-80827076D01*
X16593811Y-81012648D01*
X16851791Y-81150541D01*
X17131714Y-81235455D01*
X17349875Y-81256942D01*
X17495775Y-81256942D01*
X17713936Y-81235455D01*
X17993859Y-81150541D01*
X18251839Y-81012648D01*
X18477959Y-80827076D01*
X18663531Y-80600956D01*
X18692825Y-80546151D01*
X18722119Y-80600956D01*
X18907691Y-80827076D01*
X19133811Y-81012648D01*
X19391791Y-81150541D01*
X19671714Y-81235455D01*
X19889875Y-81256942D01*
X20035775Y-81256942D01*
X20253936Y-81235455D01*
X20533859Y-81150541D01*
X20791839Y-81012648D01*
X21017959Y-80827076D01*
X21034483Y-80806942D01*
X24875753Y-80806942D01*
X24926581Y-80811948D01*
X24977409Y-80806942D01*
X24977419Y-80806942D01*
X25129476Y-80791966D01*
X25324574Y-80732783D01*
X25504378Y-80636676D01*
X25661977Y-80507338D01*
X25694388Y-80467845D01*
X26193772Y-79968461D01*
X27883786Y-81658476D01*
X27883786Y-81658476D01*
G37*
X27883786Y-81658476D02*
X27916193Y-81697964D01*
X27955681Y-81730371D01*
X28073791Y-81827302D01*
X28111587Y-81847504D01*
X28253596Y-81923409D01*
X28448694Y-81982592D01*
X28600751Y-81997568D01*
X28600760Y-81997568D01*
X28651588Y-82002574D01*
X28702416Y-81997568D01*
X28987121Y-81997568D01*
X29000404Y-82013753D01*
X29016589Y-82027036D01*
X29016590Y-99178864D01*
X28309208Y-99886246D01*
X28240336Y-99659203D01*
X28107086Y-99409910D01*
X27927762Y-99191403D01*
X27709255Y-99012079D01*
X27576296Y-98941011D01*
X27709255Y-98869943D01*
X27927762Y-98690619D01*
X28107086Y-98472112D01*
X28240336Y-98222819D01*
X28322390Y-97952320D01*
X28350097Y-97671011D01*
X28322390Y-97389702D01*
X28240336Y-97119203D01*
X28107086Y-96869910D01*
X27927762Y-96651403D01*
X27709255Y-96472079D01*
X27576296Y-96401011D01*
X27709255Y-96329943D01*
X27927762Y-96150619D01*
X28107086Y-95932112D01*
X28240336Y-95682819D01*
X28322390Y-95412320D01*
X28350097Y-95131011D01*
X28322390Y-94849702D01*
X28240336Y-94579203D01*
X28107086Y-94329910D01*
X27927762Y-94111403D01*
X27709255Y-93932079D01*
X27576296Y-93861011D01*
X27709255Y-93789943D01*
X27927762Y-93610619D01*
X28107086Y-93392112D01*
X28240336Y-93142819D01*
X28322390Y-92872320D01*
X28350097Y-92591011D01*
X28322390Y-92309702D01*
X28240336Y-92039203D01*
X28107086Y-91789910D01*
X27927762Y-91571403D01*
X27709255Y-91392079D01*
X27576296Y-91321011D01*
X27709255Y-91249943D01*
X27927762Y-91070619D01*
X28107086Y-90852112D01*
X28240336Y-90602819D01*
X28322390Y-90332320D01*
X28350097Y-90051011D01*
X28322390Y-89769702D01*
X28240336Y-89499203D01*
X28107086Y-89249910D01*
X27927762Y-89031403D01*
X27814672Y-88938592D01*
X27832636Y-88936823D01*
X27952334Y-88900513D01*
X28062648Y-88841548D01*
X28159339Y-88762196D01*
X28238691Y-88665505D01*
X28297656Y-88555191D01*
X28333966Y-88435493D01*
X28346226Y-88311011D01*
X28346226Y-86711011D01*
X28333966Y-86586529D01*
X28297656Y-86466831D01*
X28238691Y-86356517D01*
X28159339Y-86259826D01*
X28062648Y-86180474D01*
X27952334Y-86121509D01*
X27832636Y-86085199D01*
X27708154Y-86072939D01*
X26108154Y-86072939D01*
X25983672Y-86085199D01*
X25863974Y-86121509D01*
X25753660Y-86180474D01*
X25656969Y-86259826D01*
X25577617Y-86356517D01*
X25518652Y-86466831D01*
X25482342Y-86586529D01*
X25470082Y-86711011D01*
X25470082Y-88311011D01*
X25482342Y-88435493D01*
X25518652Y-88555191D01*
X25577617Y-88665505D01*
X25656969Y-88762196D01*
X25753660Y-88841548D01*
X25863974Y-88900513D01*
X25983672Y-88936823D01*
X26001636Y-88938592D01*
X25888546Y-89031403D01*
X25709222Y-89249910D01*
X25687253Y-89291011D01*
X23191694Y-89291011D01*
X20000129Y-86099447D01*
X20068913Y-86075684D01*
X20242869Y-85982703D01*
X20338633Y-85718302D01*
X19382825Y-84762494D01*
X19368683Y-84776637D01*
X19189078Y-84597032D01*
X19203220Y-84582889D01*
X19562430Y-84582889D01*
X20518238Y-85538697D01*
X20782639Y-85442933D01*
X20923529Y-85153318D01*
X21005209Y-84841781D01*
X21024543Y-84520294D01*
X20980786Y-84201214D01*
X20875620Y-83896801D01*
X20782639Y-83722845D01*
X20518238Y-83627081D01*
X19562430Y-84582889D01*
X19203220Y-84582889D01*
X18247412Y-83627081D01*
X17983011Y-83722845D01*
X17865364Y-83964682D01*
X17348158Y-83447476D01*
X18427017Y-83447476D01*
X19382825Y-84403284D01*
X20338633Y-83447476D01*
X20242869Y-83183075D01*
X19953254Y-83042185D01*
X19641717Y-82960505D01*
X19320230Y-82941171D01*
X19001150Y-82984928D01*
X18696737Y-83090094D01*
X18522781Y-83183075D01*
X18427017Y-83447476D01*
X17348158Y-83447476D01*
X15009827Y-81109145D01*
X15009827Y-81098194D01*
X15168575Y-81256942D01*
X15732825Y-81260014D01*
X15857307Y-81247754D01*
X15977005Y-81211444D01*
X16087319Y-81152479D01*
X16184010Y-81073127D01*
X16263362Y-80976436D01*
X16322327Y-80866122D01*
X16343218Y-80797255D01*
X16367691Y-80827076D01*
X16593811Y-81012648D01*
X16851791Y-81150541D01*
X17131714Y-81235455D01*
X17349875Y-81256942D01*
X17495775Y-81256942D01*
X17713936Y-81235455D01*
X17993859Y-81150541D01*
X18251839Y-81012648D01*
X18477959Y-80827076D01*
X18663531Y-80600956D01*
X18692825Y-80546151D01*
X18722119Y-80600956D01*
X18907691Y-80827076D01*
X19133811Y-81012648D01*
X19391791Y-81150541D01*
X19671714Y-81235455D01*
X19889875Y-81256942D01*
X20035775Y-81256942D01*
X20253936Y-81235455D01*
X20533859Y-81150541D01*
X20791839Y-81012648D01*
X21017959Y-80827076D01*
X21034483Y-80806942D01*
X24875753Y-80806942D01*
X24926581Y-80811948D01*
X24977409Y-80806942D01*
X24977419Y-80806942D01*
X25129476Y-80791966D01*
X25324574Y-80732783D01*
X25504378Y-80636676D01*
X25661977Y-80507338D01*
X25694388Y-80467845D01*
X26193772Y-79968461D01*
X27883786Y-81658476D01*
G36*
X24216683Y-93102014D02*
G01*
X24240481Y-93131012D01*
X24356206Y-93225985D01*
X24488235Y-93296557D01*
X24631496Y-93340014D01*
X24743149Y-93351011D01*
X24743157Y-93351011D01*
X24780482Y-93354687D01*
X24817807Y-93351011D01*
X25687253Y-93351011D01*
X25709222Y-93392112D01*
X25888546Y-93610619D01*
X26107053Y-93789943D01*
X26240012Y-93861011D01*
X26107053Y-93932079D01*
X25888546Y-94111403D01*
X25709222Y-94329910D01*
X25575972Y-94579203D01*
X25493918Y-94849702D01*
X25466211Y-95131011D01*
X25493918Y-95412320D01*
X25575972Y-95682819D01*
X25709222Y-95932112D01*
X25888546Y-96150619D01*
X26107053Y-96329943D01*
X26240012Y-96401011D01*
X26107053Y-96472079D01*
X25888546Y-96651403D01*
X25709222Y-96869910D01*
X25575972Y-97119203D01*
X25493918Y-97389702D01*
X25466211Y-97671011D01*
X25493918Y-97952320D01*
X25549593Y-98135857D01*
X20009831Y-92596095D01*
X20068913Y-92575684D01*
X20242869Y-92482703D01*
X20338633Y-92218302D01*
X19382825Y-91262494D01*
X19368683Y-91276637D01*
X19189078Y-91097032D01*
X19203220Y-91082889D01*
X19562430Y-91082889D01*
X20518238Y-92038697D01*
X20782639Y-91942933D01*
X20923529Y-91653318D01*
X21005209Y-91341781D01*
X21024543Y-91020294D01*
X20980786Y-90701214D01*
X20875620Y-90396801D01*
X20782639Y-90222845D01*
X20518238Y-90127081D01*
X19562430Y-91082889D01*
X19203220Y-91082889D01*
X18247412Y-90127081D01*
X17983011Y-90222845D01*
X17869636Y-90455900D01*
X17361212Y-89947476D01*
X18427017Y-89947476D01*
X19382825Y-90903284D01*
X20338633Y-89947476D01*
X20242869Y-89683075D01*
X19953254Y-89542185D01*
X19641717Y-89460505D01*
X19320230Y-89441171D01*
X19001150Y-89484928D01*
X18696737Y-89590094D01*
X18522781Y-89683075D01*
X18427017Y-89947476D01*
X17361212Y-89947476D01*
X13417805Y-86004070D01*
X13417805Y-85318478D01*
X13433907Y-85357352D01*
X13612838Y-85625141D01*
X13840573Y-85852876D01*
X14108362Y-86031807D01*
X14405913Y-86155057D01*
X14721792Y-86217889D01*
X15043858Y-86217889D01*
X15359737Y-86155057D01*
X15657288Y-86031807D01*
X15925077Y-85852876D01*
X16152812Y-85625141D01*
X16331743Y-85357352D01*
X16372830Y-85258161D01*
X24216683Y-93102014D01*
X24216683Y-93102014D01*
G37*
X24216683Y-93102014D02*
X24240481Y-93131012D01*
X24356206Y-93225985D01*
X24488235Y-93296557D01*
X24631496Y-93340014D01*
X24743149Y-93351011D01*
X24743157Y-93351011D01*
X24780482Y-93354687D01*
X24817807Y-93351011D01*
X25687253Y-93351011D01*
X25709222Y-93392112D01*
X25888546Y-93610619D01*
X26107053Y-93789943D01*
X26240012Y-93861011D01*
X26107053Y-93932079D01*
X25888546Y-94111403D01*
X25709222Y-94329910D01*
X25575972Y-94579203D01*
X25493918Y-94849702D01*
X25466211Y-95131011D01*
X25493918Y-95412320D01*
X25575972Y-95682819D01*
X25709222Y-95932112D01*
X25888546Y-96150619D01*
X26107053Y-96329943D01*
X26240012Y-96401011D01*
X26107053Y-96472079D01*
X25888546Y-96651403D01*
X25709222Y-96869910D01*
X25575972Y-97119203D01*
X25493918Y-97389702D01*
X25466211Y-97671011D01*
X25493918Y-97952320D01*
X25549593Y-98135857D01*
X20009831Y-92596095D01*
X20068913Y-92575684D01*
X20242869Y-92482703D01*
X20338633Y-92218302D01*
X19382825Y-91262494D01*
X19368683Y-91276637D01*
X19189078Y-91097032D01*
X19203220Y-91082889D01*
X19562430Y-91082889D01*
X20518238Y-92038697D01*
X20782639Y-91942933D01*
X20923529Y-91653318D01*
X21005209Y-91341781D01*
X21024543Y-91020294D01*
X20980786Y-90701214D01*
X20875620Y-90396801D01*
X20782639Y-90222845D01*
X20518238Y-90127081D01*
X19562430Y-91082889D01*
X19203220Y-91082889D01*
X18247412Y-90127081D01*
X17983011Y-90222845D01*
X17869636Y-90455900D01*
X17361212Y-89947476D01*
X18427017Y-89947476D01*
X19382825Y-90903284D01*
X20338633Y-89947476D01*
X20242869Y-89683075D01*
X19953254Y-89542185D01*
X19641717Y-89460505D01*
X19320230Y-89441171D01*
X19001150Y-89484928D01*
X18696737Y-89590094D01*
X18522781Y-89683075D01*
X18427017Y-89947476D01*
X17361212Y-89947476D01*
X13417805Y-86004070D01*
X13417805Y-85318478D01*
X13433907Y-85357352D01*
X13612838Y-85625141D01*
X13840573Y-85852876D01*
X14108362Y-86031807D01*
X14405913Y-86155057D01*
X14721792Y-86217889D01*
X15043858Y-86217889D01*
X15359737Y-86155057D01*
X15657288Y-86031807D01*
X15925077Y-85852876D01*
X16152812Y-85625141D01*
X16331743Y-85357352D01*
X16372830Y-85258161D01*
X24216683Y-93102014D01*
G36*
X45603915Y-84800590D02*
G01*
X45591655Y-84925072D01*
X45591655Y-86155698D01*
X43614240Y-86155698D01*
X43576917Y-86152022D01*
X43539594Y-86155698D01*
X43539585Y-86155698D01*
X43427932Y-86166695D01*
X43300755Y-86205273D01*
X43284671Y-86210152D01*
X43152641Y-86280724D01*
X43069001Y-86349366D01*
X43036917Y-86375697D01*
X43013119Y-86404695D01*
X42116885Y-87300929D01*
X42072288Y-87287401D01*
X41861471Y-87266637D01*
X41720487Y-87266637D01*
X41509670Y-87287401D01*
X41239171Y-87369455D01*
X40989878Y-87502705D01*
X40771371Y-87682029D01*
X40592047Y-87900536D01*
X40458797Y-88149829D01*
X40376743Y-88420328D01*
X40349036Y-88701637D01*
X40376743Y-88982946D01*
X40458797Y-89253445D01*
X40563603Y-89449524D01*
X39735633Y-90277494D01*
X39691036Y-90263966D01*
X39480219Y-90243202D01*
X39339235Y-90243202D01*
X39128418Y-90263966D01*
X38857919Y-90346020D01*
X38608626Y-90479270D01*
X38390119Y-90658594D01*
X38210795Y-90877101D01*
X38077545Y-91126394D01*
X37995491Y-91396893D01*
X37967784Y-91678202D01*
X37995491Y-91959511D01*
X38077545Y-92230010D01*
X38210795Y-92479303D01*
X38390119Y-92697810D01*
X38608626Y-92877134D01*
X38857919Y-93010384D01*
X39128418Y-93092438D01*
X39339235Y-93113202D01*
X39480219Y-93113202D01*
X39691036Y-93092438D01*
X39961535Y-93010384D01*
X40210828Y-92877134D01*
X40429335Y-92697810D01*
X40608659Y-92479303D01*
X40741909Y-92230010D01*
X40823963Y-91959511D01*
X40851670Y-91678202D01*
X40823963Y-91396893D01*
X40810435Y-91352296D01*
X41510468Y-90652263D01*
X45634692Y-90652263D01*
X45603915Y-90753720D01*
X45591655Y-90878202D01*
X45591655Y-92108828D01*
X43614240Y-92108828D01*
X43576917Y-92105152D01*
X43539594Y-92108828D01*
X43539585Y-92108828D01*
X43427932Y-92119825D01*
X43284671Y-92163282D01*
X43152641Y-92233854D01*
X43073549Y-92298764D01*
X43036917Y-92328827D01*
X43013119Y-92357825D01*
X42116885Y-93254059D01*
X42072288Y-93240531D01*
X41861471Y-93219767D01*
X41720487Y-93219767D01*
X41509670Y-93240531D01*
X41239171Y-93322585D01*
X40989878Y-93455835D01*
X40771371Y-93635159D01*
X40592047Y-93853666D01*
X40458797Y-94102959D01*
X40376743Y-94373458D01*
X40349036Y-94654767D01*
X40376743Y-94936076D01*
X40458797Y-95206575D01*
X40563603Y-95402654D01*
X39735633Y-96230624D01*
X39691036Y-96217096D01*
X39480219Y-96196332D01*
X39339235Y-96196332D01*
X39128418Y-96217096D01*
X38857919Y-96299150D01*
X38608626Y-96432400D01*
X38390119Y-96611724D01*
X38210795Y-96830231D01*
X38077545Y-97079524D01*
X37995491Y-97350023D01*
X37967784Y-97631332D01*
X37995491Y-97912641D01*
X38040785Y-98061958D01*
X35993903Y-98061958D01*
X35928862Y-97996917D01*
X35942390Y-97952320D01*
X35970097Y-97671011D01*
X35942390Y-97389702D01*
X35860336Y-97119203D01*
X35727086Y-96869910D01*
X35547762Y-96651403D01*
X35329255Y-96472079D01*
X35196296Y-96401011D01*
X35329255Y-96329943D01*
X35547762Y-96150619D01*
X35727086Y-95932112D01*
X35860336Y-95682819D01*
X35942390Y-95412320D01*
X35970097Y-95131011D01*
X35942390Y-94849702D01*
X35860336Y-94579203D01*
X35727086Y-94329910D01*
X35547762Y-94111403D01*
X35329255Y-93932079D01*
X35196296Y-93861011D01*
X35329255Y-93789943D01*
X35547762Y-93610619D01*
X35727086Y-93392112D01*
X35860336Y-93142819D01*
X35942390Y-92872320D01*
X35970097Y-92591011D01*
X35942390Y-92309702D01*
X35928862Y-92265105D01*
X38611036Y-89582931D01*
X38640033Y-89559134D01*
X38735006Y-89443409D01*
X38805578Y-89311380D01*
X38849035Y-89168119D01*
X38860032Y-89056466D01*
X38860032Y-89056457D01*
X38863708Y-89019134D01*
X38860032Y-88981811D01*
X38860032Y-87057895D01*
X39128418Y-87139308D01*
X39339235Y-87160072D01*
X39480219Y-87160072D01*
X39691036Y-87139308D01*
X39961535Y-87057254D01*
X40210828Y-86924004D01*
X40429335Y-86744680D01*
X40608659Y-86526173D01*
X40741909Y-86276880D01*
X40823963Y-86006381D01*
X40851670Y-85725072D01*
X40823963Y-85443763D01*
X40810435Y-85399166D01*
X41510468Y-84699133D01*
X45634692Y-84699133D01*
X45603915Y-84800590D01*
X45603915Y-84800590D01*
G37*
X45603915Y-84800590D02*
X45591655Y-84925072D01*
X45591655Y-86155698D01*
X43614240Y-86155698D01*
X43576917Y-86152022D01*
X43539594Y-86155698D01*
X43539585Y-86155698D01*
X43427932Y-86166695D01*
X43300755Y-86205273D01*
X43284671Y-86210152D01*
X43152641Y-86280724D01*
X43069001Y-86349366D01*
X43036917Y-86375697D01*
X43013119Y-86404695D01*
X42116885Y-87300929D01*
X42072288Y-87287401D01*
X41861471Y-87266637D01*
X41720487Y-87266637D01*
X41509670Y-87287401D01*
X41239171Y-87369455D01*
X40989878Y-87502705D01*
X40771371Y-87682029D01*
X40592047Y-87900536D01*
X40458797Y-88149829D01*
X40376743Y-88420328D01*
X40349036Y-88701637D01*
X40376743Y-88982946D01*
X40458797Y-89253445D01*
X40563603Y-89449524D01*
X39735633Y-90277494D01*
X39691036Y-90263966D01*
X39480219Y-90243202D01*
X39339235Y-90243202D01*
X39128418Y-90263966D01*
X38857919Y-90346020D01*
X38608626Y-90479270D01*
X38390119Y-90658594D01*
X38210795Y-90877101D01*
X38077545Y-91126394D01*
X37995491Y-91396893D01*
X37967784Y-91678202D01*
X37995491Y-91959511D01*
X38077545Y-92230010D01*
X38210795Y-92479303D01*
X38390119Y-92697810D01*
X38608626Y-92877134D01*
X38857919Y-93010384D01*
X39128418Y-93092438D01*
X39339235Y-93113202D01*
X39480219Y-93113202D01*
X39691036Y-93092438D01*
X39961535Y-93010384D01*
X40210828Y-92877134D01*
X40429335Y-92697810D01*
X40608659Y-92479303D01*
X40741909Y-92230010D01*
X40823963Y-91959511D01*
X40851670Y-91678202D01*
X40823963Y-91396893D01*
X40810435Y-91352296D01*
X41510468Y-90652263D01*
X45634692Y-90652263D01*
X45603915Y-90753720D01*
X45591655Y-90878202D01*
X45591655Y-92108828D01*
X43614240Y-92108828D01*
X43576917Y-92105152D01*
X43539594Y-92108828D01*
X43539585Y-92108828D01*
X43427932Y-92119825D01*
X43284671Y-92163282D01*
X43152641Y-92233854D01*
X43073549Y-92298764D01*
X43036917Y-92328827D01*
X43013119Y-92357825D01*
X42116885Y-93254059D01*
X42072288Y-93240531D01*
X41861471Y-93219767D01*
X41720487Y-93219767D01*
X41509670Y-93240531D01*
X41239171Y-93322585D01*
X40989878Y-93455835D01*
X40771371Y-93635159D01*
X40592047Y-93853666D01*
X40458797Y-94102959D01*
X40376743Y-94373458D01*
X40349036Y-94654767D01*
X40376743Y-94936076D01*
X40458797Y-95206575D01*
X40563603Y-95402654D01*
X39735633Y-96230624D01*
X39691036Y-96217096D01*
X39480219Y-96196332D01*
X39339235Y-96196332D01*
X39128418Y-96217096D01*
X38857919Y-96299150D01*
X38608626Y-96432400D01*
X38390119Y-96611724D01*
X38210795Y-96830231D01*
X38077545Y-97079524D01*
X37995491Y-97350023D01*
X37967784Y-97631332D01*
X37995491Y-97912641D01*
X38040785Y-98061958D01*
X35993903Y-98061958D01*
X35928862Y-97996917D01*
X35942390Y-97952320D01*
X35970097Y-97671011D01*
X35942390Y-97389702D01*
X35860336Y-97119203D01*
X35727086Y-96869910D01*
X35547762Y-96651403D01*
X35329255Y-96472079D01*
X35196296Y-96401011D01*
X35329255Y-96329943D01*
X35547762Y-96150619D01*
X35727086Y-95932112D01*
X35860336Y-95682819D01*
X35942390Y-95412320D01*
X35970097Y-95131011D01*
X35942390Y-94849702D01*
X35860336Y-94579203D01*
X35727086Y-94329910D01*
X35547762Y-94111403D01*
X35329255Y-93932079D01*
X35196296Y-93861011D01*
X35329255Y-93789943D01*
X35547762Y-93610619D01*
X35727086Y-93392112D01*
X35860336Y-93142819D01*
X35942390Y-92872320D01*
X35970097Y-92591011D01*
X35942390Y-92309702D01*
X35928862Y-92265105D01*
X38611036Y-89582931D01*
X38640033Y-89559134D01*
X38735006Y-89443409D01*
X38805578Y-89311380D01*
X38849035Y-89168119D01*
X38860032Y-89056466D01*
X38860032Y-89056457D01*
X38863708Y-89019134D01*
X38860032Y-88981811D01*
X38860032Y-87057895D01*
X39128418Y-87139308D01*
X39339235Y-87160072D01*
X39480219Y-87160072D01*
X39691036Y-87139308D01*
X39961535Y-87057254D01*
X40210828Y-86924004D01*
X40429335Y-86744680D01*
X40608659Y-86526173D01*
X40741909Y-86276880D01*
X40823963Y-86006381D01*
X40851670Y-85725072D01*
X40823963Y-85443763D01*
X40810435Y-85399166D01*
X41510468Y-84699133D01*
X45634692Y-84699133D01*
X45603915Y-84800590D01*
G36*
X37340032Y-88704331D02*
G01*
X35967556Y-90076807D01*
X35970097Y-90051011D01*
X35942390Y-89769702D01*
X35860336Y-89499203D01*
X35727086Y-89249910D01*
X35547762Y-89031403D01*
X35329255Y-88852079D01*
X35196296Y-88781011D01*
X35329255Y-88709943D01*
X35547762Y-88530619D01*
X35727086Y-88312112D01*
X35860336Y-88062819D01*
X35942390Y-87792320D01*
X35970097Y-87511011D01*
X35942390Y-87229702D01*
X35860336Y-86959203D01*
X35727086Y-86709910D01*
X35547762Y-86491403D01*
X35329255Y-86312079D01*
X35079962Y-86178829D01*
X34809463Y-86096775D01*
X34598646Y-86076011D01*
X34457662Y-86076011D01*
X34246845Y-86096775D01*
X33976346Y-86178829D01*
X33727053Y-86312079D01*
X33508546Y-86491403D01*
X33502215Y-86499117D01*
X33502215Y-69925324D01*
X37340033Y-66087507D01*
X37340032Y-88704331D01*
X37340032Y-88704331D01*
G37*
X37340032Y-88704331D02*
X35967556Y-90076807D01*
X35970097Y-90051011D01*
X35942390Y-89769702D01*
X35860336Y-89499203D01*
X35727086Y-89249910D01*
X35547762Y-89031403D01*
X35329255Y-88852079D01*
X35196296Y-88781011D01*
X35329255Y-88709943D01*
X35547762Y-88530619D01*
X35727086Y-88312112D01*
X35860336Y-88062819D01*
X35942390Y-87792320D01*
X35970097Y-87511011D01*
X35942390Y-87229702D01*
X35860336Y-86959203D01*
X35727086Y-86709910D01*
X35547762Y-86491403D01*
X35329255Y-86312079D01*
X35079962Y-86178829D01*
X34809463Y-86096775D01*
X34598646Y-86076011D01*
X34457662Y-86076011D01*
X34246845Y-86096775D01*
X33976346Y-86178829D01*
X33727053Y-86312079D01*
X33508546Y-86491403D01*
X33502215Y-86499117D01*
X33502215Y-69925324D01*
X37340033Y-66087507D01*
X37340032Y-88704331D01*
G36*
X31745337Y-80948426D02*
G01*
X31731194Y-80962568D01*
X31745337Y-80976711D01*
X31565732Y-81156316D01*
X31551589Y-81142173D01*
X31537447Y-81156316D01*
X31357842Y-80976711D01*
X31371984Y-80962568D01*
X31357842Y-80948426D01*
X31537447Y-80768821D01*
X31551589Y-80782963D01*
X31565732Y-80768821D01*
X31745337Y-80948426D01*
X31745337Y-80948426D01*
G37*
X31745337Y-80948426D02*
X31731194Y-80962568D01*
X31745337Y-80976711D01*
X31565732Y-81156316D01*
X31551589Y-81142173D01*
X31537447Y-81156316D01*
X31357842Y-80976711D01*
X31371984Y-80962568D01*
X31357842Y-80948426D01*
X31537447Y-80768821D01*
X31551589Y-80782963D01*
X31565732Y-80768821D01*
X31745337Y-80948426D01*
G36*
X15009825Y-79644942D02*
G01*
X15029825Y-79644942D01*
X15029825Y-79898942D01*
X15009825Y-79898942D01*
X15009825Y-79918942D01*
X14755825Y-79918942D01*
X14755825Y-79898942D01*
X14735825Y-79898942D01*
X14735825Y-79644942D01*
X14755825Y-79644942D01*
X14755825Y-79624942D01*
X15009825Y-79624942D01*
X15009825Y-79644942D01*
X15009825Y-79644942D01*
G37*
X15009825Y-79644942D02*
X15029825Y-79644942D01*
X15029825Y-79898942D01*
X15009825Y-79898942D01*
X15009825Y-79918942D01*
X14755825Y-79918942D01*
X14755825Y-79898942D01*
X14735825Y-79898942D01*
X14735825Y-79644942D01*
X14755825Y-79644942D01*
X14755825Y-79624942D01*
X15009825Y-79624942D01*
X15009825Y-79644942D01*
G36*
X31982216Y-79801613D02*
G01*
X31953073Y-79788331D01*
X31716276Y-79732568D01*
X31473151Y-79724073D01*
X31233040Y-79763173D01*
X31019472Y-79843019D01*
X31006083Y-79832031D01*
X30895769Y-79773066D01*
X30776071Y-79736756D01*
X30651589Y-79724496D01*
X29451589Y-79724496D01*
X29327107Y-79736756D01*
X29207409Y-79773066D01*
X29097095Y-79832031D01*
X29035397Y-79882665D01*
X27228772Y-78076041D01*
X27228772Y-74454424D01*
X27351130Y-74332066D01*
X27514192Y-74088026D01*
X27626512Y-73816864D01*
X27683772Y-73528999D01*
X27683772Y-73235495D01*
X27626512Y-72947630D01*
X27514192Y-72676468D01*
X27351130Y-72432428D01*
X27143591Y-72224889D01*
X26899551Y-72061827D01*
X26628389Y-71949507D01*
X26340524Y-71892247D01*
X26047020Y-71892247D01*
X25759155Y-71949507D01*
X25487993Y-72061827D01*
X25243953Y-72224889D01*
X25036414Y-72432428D01*
X24873352Y-72676468D01*
X24761032Y-72947630D01*
X24703772Y-73235495D01*
X24703772Y-73528999D01*
X24761032Y-73816864D01*
X24873352Y-74088026D01*
X25036414Y-74332066D01*
X25158772Y-74454424D01*
X25158773Y-78076039D01*
X24497871Y-78736942D01*
X21034483Y-78736942D01*
X21017959Y-78716808D01*
X20791839Y-78531236D01*
X20737034Y-78501942D01*
X20791839Y-78472648D01*
X21017959Y-78287076D01*
X21203531Y-78060956D01*
X21341424Y-77802976D01*
X21426338Y-77523053D01*
X21455010Y-77231942D01*
X21426338Y-76940831D01*
X21341424Y-76660908D01*
X21203531Y-76402928D01*
X21017959Y-76176808D01*
X20791839Y-75991236D01*
X20533859Y-75853343D01*
X20253936Y-75768429D01*
X20035775Y-75746942D01*
X19889875Y-75746942D01*
X19671714Y-75768429D01*
X19391791Y-75853343D01*
X19133811Y-75991236D01*
X18907691Y-76176808D01*
X18722119Y-76402928D01*
X18692825Y-76457733D01*
X18663531Y-76402928D01*
X18477959Y-76176808D01*
X18251839Y-75991236D01*
X17993859Y-75853343D01*
X17713936Y-75768429D01*
X17495775Y-75746942D01*
X17349875Y-75746942D01*
X17131714Y-75768429D01*
X16851791Y-75853343D01*
X16593811Y-75991236D01*
X16367691Y-76176808D01*
X16182119Y-76402928D01*
X16152825Y-76457733D01*
X16123531Y-76402928D01*
X15937959Y-76176808D01*
X15711839Y-75991236D01*
X15453859Y-75853343D01*
X15313918Y-75810892D01*
X17361211Y-73763599D01*
X18427017Y-73763599D01*
X18522781Y-74028000D01*
X18812396Y-74168890D01*
X19123933Y-74250570D01*
X19445420Y-74269904D01*
X19764500Y-74226147D01*
X20068913Y-74120981D01*
X20242869Y-74028000D01*
X20338633Y-73763599D01*
X19382825Y-72807791D01*
X18427017Y-73763599D01*
X17361211Y-73763599D01*
X17869619Y-73255192D01*
X17890030Y-73314274D01*
X17983011Y-73488230D01*
X18247412Y-73583994D01*
X19203220Y-72628186D01*
X19189078Y-72614044D01*
X19368683Y-72434439D01*
X19382825Y-72448581D01*
X19396968Y-72434439D01*
X19576573Y-72614044D01*
X19562430Y-72628186D01*
X20518238Y-73583994D01*
X20782639Y-73488230D01*
X20923529Y-73198615D01*
X21005209Y-72887078D01*
X21024543Y-72565591D01*
X20980786Y-72246511D01*
X20875620Y-71942098D01*
X20782639Y-71768142D01*
X20518240Y-71672379D01*
X20588371Y-71602248D01*
X30836757Y-71602248D01*
X30874079Y-71605924D01*
X30911401Y-71602248D01*
X30911412Y-71602248D01*
X31023065Y-71591251D01*
X31166326Y-71547794D01*
X31298355Y-71477222D01*
X31414080Y-71382249D01*
X31437883Y-71353245D01*
X31982216Y-70808912D01*
X31982216Y-79801613D01*
X31982216Y-79801613D01*
G37*
X31982216Y-79801613D02*
X31953073Y-79788331D01*
X31716276Y-79732568D01*
X31473151Y-79724073D01*
X31233040Y-79763173D01*
X31019472Y-79843019D01*
X31006083Y-79832031D01*
X30895769Y-79773066D01*
X30776071Y-79736756D01*
X30651589Y-79724496D01*
X29451589Y-79724496D01*
X29327107Y-79736756D01*
X29207409Y-79773066D01*
X29097095Y-79832031D01*
X29035397Y-79882665D01*
X27228772Y-78076041D01*
X27228772Y-74454424D01*
X27351130Y-74332066D01*
X27514192Y-74088026D01*
X27626512Y-73816864D01*
X27683772Y-73528999D01*
X27683772Y-73235495D01*
X27626512Y-72947630D01*
X27514192Y-72676468D01*
X27351130Y-72432428D01*
X27143591Y-72224889D01*
X26899551Y-72061827D01*
X26628389Y-71949507D01*
X26340524Y-71892247D01*
X26047020Y-71892247D01*
X25759155Y-71949507D01*
X25487993Y-72061827D01*
X25243953Y-72224889D01*
X25036414Y-72432428D01*
X24873352Y-72676468D01*
X24761032Y-72947630D01*
X24703772Y-73235495D01*
X24703772Y-73528999D01*
X24761032Y-73816864D01*
X24873352Y-74088026D01*
X25036414Y-74332066D01*
X25158772Y-74454424D01*
X25158773Y-78076039D01*
X24497871Y-78736942D01*
X21034483Y-78736942D01*
X21017959Y-78716808D01*
X20791839Y-78531236D01*
X20737034Y-78501942D01*
X20791839Y-78472648D01*
X21017959Y-78287076D01*
X21203531Y-78060956D01*
X21341424Y-77802976D01*
X21426338Y-77523053D01*
X21455010Y-77231942D01*
X21426338Y-76940831D01*
X21341424Y-76660908D01*
X21203531Y-76402928D01*
X21017959Y-76176808D01*
X20791839Y-75991236D01*
X20533859Y-75853343D01*
X20253936Y-75768429D01*
X20035775Y-75746942D01*
X19889875Y-75746942D01*
X19671714Y-75768429D01*
X19391791Y-75853343D01*
X19133811Y-75991236D01*
X18907691Y-76176808D01*
X18722119Y-76402928D01*
X18692825Y-76457733D01*
X18663531Y-76402928D01*
X18477959Y-76176808D01*
X18251839Y-75991236D01*
X17993859Y-75853343D01*
X17713936Y-75768429D01*
X17495775Y-75746942D01*
X17349875Y-75746942D01*
X17131714Y-75768429D01*
X16851791Y-75853343D01*
X16593811Y-75991236D01*
X16367691Y-76176808D01*
X16182119Y-76402928D01*
X16152825Y-76457733D01*
X16123531Y-76402928D01*
X15937959Y-76176808D01*
X15711839Y-75991236D01*
X15453859Y-75853343D01*
X15313918Y-75810892D01*
X17361211Y-73763599D01*
X18427017Y-73763599D01*
X18522781Y-74028000D01*
X18812396Y-74168890D01*
X19123933Y-74250570D01*
X19445420Y-74269904D01*
X19764500Y-74226147D01*
X20068913Y-74120981D01*
X20242869Y-74028000D01*
X20338633Y-73763599D01*
X19382825Y-72807791D01*
X18427017Y-73763599D01*
X17361211Y-73763599D01*
X17869619Y-73255192D01*
X17890030Y-73314274D01*
X17983011Y-73488230D01*
X18247412Y-73583994D01*
X19203220Y-72628186D01*
X19189078Y-72614044D01*
X19368683Y-72434439D01*
X19382825Y-72448581D01*
X19396968Y-72434439D01*
X19576573Y-72614044D01*
X19562430Y-72628186D01*
X20518238Y-73583994D01*
X20782639Y-73488230D01*
X20923529Y-73198615D01*
X21005209Y-72887078D01*
X21024543Y-72565591D01*
X20980786Y-72246511D01*
X20875620Y-71942098D01*
X20782639Y-71768142D01*
X20518240Y-71672379D01*
X20588371Y-71602248D01*
X30836757Y-71602248D01*
X30874079Y-71605924D01*
X30911401Y-71602248D01*
X30911412Y-71602248D01*
X31023065Y-71591251D01*
X31166326Y-71547794D01*
X31298355Y-71477222D01*
X31414080Y-71382249D01*
X31437883Y-71353245D01*
X31982216Y-70808912D01*
X31982216Y-79801613D01*
G36*
X50149752Y-59122370D02*
G01*
X50098483Y-59380116D01*
X50098483Y-59682484D01*
X50157472Y-59979043D01*
X50273184Y-60258395D01*
X50441171Y-60509805D01*
X50654978Y-60723612D01*
X50906388Y-60891599D01*
X51151540Y-60993145D01*
X48820962Y-60993145D01*
X48879534Y-60961837D01*
X48976225Y-60882485D01*
X49055577Y-60785794D01*
X49114542Y-60675480D01*
X49150852Y-60555782D01*
X49163112Y-60431300D01*
X49160040Y-59817050D01*
X49001290Y-59658300D01*
X47752040Y-59658300D01*
X47752040Y-59678300D01*
X47498040Y-59678300D01*
X47498040Y-59658300D01*
X47478040Y-59658300D01*
X47478040Y-59404300D01*
X47498040Y-59404300D01*
X47498040Y-59384300D01*
X47752040Y-59384300D01*
X47752040Y-59404300D01*
X49001290Y-59404300D01*
X49160040Y-59245550D01*
X49163112Y-58631300D01*
X49150852Y-58506818D01*
X49114542Y-58387120D01*
X49055577Y-58276806D01*
X48976225Y-58180115D01*
X48879534Y-58100763D01*
X48832595Y-58075673D01*
X49103055Y-58075673D01*
X50149752Y-59122370D01*
X50149752Y-59122370D01*
G37*
X50149752Y-59122370D02*
X50098483Y-59380116D01*
X50098483Y-59682484D01*
X50157472Y-59979043D01*
X50273184Y-60258395D01*
X50441171Y-60509805D01*
X50654978Y-60723612D01*
X50906388Y-60891599D01*
X51151540Y-60993145D01*
X48820962Y-60993145D01*
X48879534Y-60961837D01*
X48976225Y-60882485D01*
X49055577Y-60785794D01*
X49114542Y-60675480D01*
X49150852Y-60555782D01*
X49163112Y-60431300D01*
X49160040Y-59817050D01*
X49001290Y-59658300D01*
X47752040Y-59658300D01*
X47752040Y-59678300D01*
X47498040Y-59678300D01*
X47498040Y-59658300D01*
X47478040Y-59658300D01*
X47478040Y-59404300D01*
X47498040Y-59404300D01*
X47498040Y-59384300D01*
X47752040Y-59384300D01*
X47752040Y-59404300D01*
X49001290Y-59404300D01*
X49160040Y-59245550D01*
X49163112Y-58631300D01*
X49150852Y-58506818D01*
X49114542Y-58387120D01*
X49055577Y-58276806D01*
X48976225Y-58180115D01*
X48879534Y-58100763D01*
X48832595Y-58075673D01*
X49103055Y-58075673D01*
X50149752Y-59122370D01*
M02*
